<?xml version="1.0" encoding="UTF-8"?>
<svg width="163px" height="169px" viewBox="0 0 163 169" version="1.1" xmlns="http://www.w3.org/2000/svg" xmlns:xlink="http://www.w3.org/1999/xlink">
    <!-- Generator: Sketch 51.3 (57544) - http://www.bohemiancoding.com/sketch -->
    <title>Fill 21 Copy</title>
    <desc>Created with Sketch.</desc>
    <defs></defs>
    <g id="tree" stroke="none" stroke-width="1" fill="none" fill-rule="evenodd">
        <path d="M119.265086,116.101289 C119.101086,116.244289 118.933086,116.383289 118.762086,116.522289 L118.943086,116.325289 C119.089086,116.155289 119.195086,115.995289 119.302086,115.838289 C119.512086,115.534289 119.714086,115.214289 119.930086,115.067289 C120.058086,114.976289 120.184086,114.917289 120.332086,114.882289 C120.387086,114.869289 120.454086,114.860289 120.520086,114.850289 C120.087086,115.277289 119.690086,115.714289 119.265086,116.101289 Z M105.809086,123.440289 C105.427086,124.110289 105.085086,124.784289 104.726086,125.405289 C104.367086,126.028289 103.989086,126.602289 103.540086,127.084289 C103.320086,127.331289 103.074086,127.545289 102.822086,127.752289 L101.914086,128.426289 C101.480086,128.775289 101.090086,129.188289 100.749086,129.633289 C100.764086,129.570289 100.780086,129.505289 100.795086,129.442289 C101.151086,128.913289 101.507086,128.385289 101.872086,127.866289 C103.439086,125.620289 105.127086,123.473289 107.064086,121.580289 C106.824086,121.856289 106.607086,122.146289 106.414086,122.441289 C106.203086,122.771289 105.999086,123.105289 105.809086,123.440289 Z M66.9930856,113.935289 L66.5330856,113.763289 C66.5730856,113.760289 66.6160856,113.758289 66.6550856,113.755289 C66.8600856,113.791289 67.0660856,113.825289 67.2760856,113.859289 C67.4000856,113.920289 67.5230856,113.979289 67.6470856,114.042289 C67.7470856,114.091289 67.8480856,114.143289 67.9480856,114.194289 C67.7760856,114.161289 67.6100856,114.125289 67.4490856,114.082289 C67.2930856,114.037289 67.1590856,113.996289 66.9930856,113.935289 Z M58.7650856,110.691289 C58.2150856,110.454289 57.6870856,110.168289 57.1960856,109.835289 C56.2240856,109.167289 55.4010856,108.291289 54.9810856,107.247289 C54.7700856,106.758289 54.6950856,106.190289 54.6700856,105.583289 C54.6450856,104.977289 54.6760856,104.346289 54.7100856,103.703289 L54.7550856,102.721289 L54.7670856,102.217289 L54.7650856,101.728289 C54.7580856,101.153289 54.8740856,100.579289 55.0180856,99.938289 C55.0870856,99.614289 55.1580856,99.266289 55.1770856,98.883289 C55.2010856,98.503289 55.1490856,98.081289 55.0020856,97.708289 C54.8620856,97.332289 54.6530856,97.001289 54.4180856,96.722289 C54.1880856,96.430289 53.9400856,96.199289 53.6720856,95.961289 C53.1340856,95.501289 52.5030856,95.132289 51.8350856,94.905289 C51.1670856,94.671289 50.4770856,94.566289 49.8010856,94.524289 C48.5070856,94.488289 47.2180856,94.331289 45.8580856,94.443289 C45.5190856,94.477289 45.1780856,94.519289 44.8350856,94.614289 C44.4940856,94.704289 44.1450856,94.828289 43.8260856,95.053289 C43.7420856,95.103289 43.6730856,95.166289 43.6040856,95.229289 C43.5350856,95.292289 43.4610856,95.353289 43.3990856,95.420289 C43.2840856,95.561289 43.1530856,95.696289 43.0640856,95.848289 L42.9180856,96.072289 L42.7960856,96.302289 C42.7100856,96.456289 42.6480856,96.614289 42.5790856,96.770289 C42.0660856,98.032289 41.8860856,99.333289 41.5540856,100.558289 C41.4730856,100.868289 41.3780856,101.154289 41.2610856,101.448289 L40.9060856,102.354289 C40.6710856,102.955289 40.4310856,103.548289 40.1410856,104.111289 C39.8550856,104.678289 39.5100856,105.180289 39.0140856,105.552289 C38.8700856,105.663289 38.7160856,105.762289 38.5570856,105.858289 C38.2140856,105.779289 37.8430856,105.706289 37.6150856,105.532289 C37.2520856,105.251289 36.9120856,104.786289 36.7530856,104.382289 C36.4690856,103.664289 36.2780856,102.668289 36.2190856,101.894289 C36.1720856,101.286289 36.3980856,100.551289 36.2270856,99.960289 C36.3420856,99.904289 36.4580856,99.846289 36.5720856,99.785289 C37.1820856,99.454289 37.7840856,99.075289 38.3180856,98.604289 C38.8520856,98.142289 39.3150856,97.637289 39.8020856,97.198289 C40.0450856,96.977289 40.2940856,96.772289 40.5560856,96.589289 C40.8270856,96.401289 41.1080856,96.214289 41.3880856,96.042289 C42.4990856,95.344289 43.7450856,94.872289 45.0160856,94.460289 C46.2850856,94.061289 47.5860856,93.764289 48.8900856,93.640289 C50.1890856,93.523289 51.5070856,93.584289 52.6700856,94.002289 C53.2460856,94.217289 53.7790856,94.516289 54.2220856,94.914289 C54.4410856,95.114289 54.6460856,95.331289 54.8220856,95.573289 C54.9210856,95.689289 54.9780856,95.812289 55.0600856,95.929289 C55.1190856,96.059289 55.1960856,96.178289 55.2420856,96.316289 C55.4590856,96.847289 55.5530856,97.450289 55.5680856,98.078289 C55.5860856,98.705289 55.5370856,99.354289 55.4610856,100.013289 C55.3170856,101.334289 55.0630856,102.688289 55.0500856,104.144289 C55.0460856,104.870289 55.1040856,105.630289 55.3400856,106.390289 C55.4480856,106.770289 55.6220856,107.141289 55.8220856,107.495289 C56.0400856,107.839289 56.2830856,108.177289 56.5810856,108.455289 C57.0300856,108.901289 57.5310856,109.246289 58.0440856,109.537289 C58.4010856,109.982289 58.7850856,110.371289 59.1860856,110.728289 C59.2760856,110.809289 59.3690856,110.883289 59.4610856,110.961289 C59.2220856,110.875289 58.9860856,110.784289 58.7650856,110.691289 Z M15.8110856,104.696289 C15.3110856,104.775289 15.0080856,104.586289 14.7280856,104.357289 C15.4210856,103.967289 16.1600856,103.675289 16.9190856,103.447289 C16.8170856,104.046289 16.5500856,104.579289 15.8110856,104.696289 Z M59.1330856,104.901289 C59.1790856,104.668289 59.2510856,104.447289 59.3390856,104.237289 C59.3600856,104.472289 59.3890856,104.709289 59.4290856,104.946289 C59.4400856,105.016289 59.4560856,105.087289 59.4700856,105.158289 C59.4410856,105.395289 59.4190856,105.634289 59.4100856,105.876289 C59.3840856,106.455289 59.4070856,107.023289 59.4600856,107.588289 C59.3800856,107.462289 59.3180856,107.314289 59.2540856,107.167289 C59.1270856,106.833289 59.0630856,106.450289 59.0380856,106.064289 C59.0090856,105.676289 59.0530856,105.279289 59.1330856,104.901289 Z M47.7590856,70.552289 C47.1940856,70.745289 46.6260856,70.902289 46.0540856,70.974289 C46.0210856,70.739289 45.9670856,70.516289 45.8930856,70.303289 C46.5990856,70.303289 47.3030856,70.300289 48.0060856,70.302289 C48.1580856,70.302289 48.3120856,70.304289 48.4650856,70.305289 C48.2290856,70.389289 47.9930856,70.473289 47.7590856,70.552289 Z M50.5140856,28.597289 C50.9690856,28.488289 51.1720856,28.233289 51.7120856,28.157289 C52.0940856,28.104289 52.7510856,28.076289 53.1300856,28.145289 C54.3190856,28.363289 54.7510856,29.072289 55.2850856,30.029289 C55.8640856,31.066289 56.5780856,32.199289 57.8290856,32.417289 C58.2720856,32.494289 58.7830856,32.366289 59.2340856,32.384289 C60.1130856,32.420289 60.0070856,32.690289 60.6450856,33.058289 C61.0900856,33.316289 61.2770856,33.230289 61.8310856,33.354289 C62.8710856,33.588289 63.8270856,34.212289 64.8000856,34.649289 C65.8220856,35.108289 66.9710856,35.454289 67.9260856,35.956289 C68.4640856,36.239289 68.7790856,36.730289 69.2000856,37.087289 C69.8010856,37.597289 70.3230856,37.675289 70.9960856,38.028289 C71.1060856,38.085289 71.2110856,38.155289 71.3150856,38.232289 L71.2920856,38.667289 C71.2710856,39.088289 71.2600856,39.510289 71.2520856,39.931289 C71.2500856,40.048289 71.2510856,40.166289 71.2490856,40.282289 C71.1890856,41.349289 71.1080856,42.423289 71.0940856,43.515289 C71.0840856,44.166289 71.1000856,44.823289 71.1680856,45.483289 L71.1610856,46.061289 L71.1540856,46.672289 C71.1510856,46.877289 71.1490856,47.116289 71.1680856,47.338289 C71.1750856,47.426289 71.1870856,47.514289 71.1980856,47.602289 C71.1800856,48.397289 71.1800856,49.201289 71.2490856,50.017289 C71.3240856,50.834289 71.4730856,51.662289 71.7540856,52.456289 C71.7610856,52.573289 71.7720856,52.692289 71.7890856,52.811289 C71.8040856,52.929289 71.8300856,53.049289 71.8560856,53.168289 L71.9100856,53.393289 C71.8630856,53.507289 71.8140856,53.621289 71.7700856,53.736289 C71.6710856,53.955289 71.5740856,54.176289 71.4860856,54.411289 C71.3970856,54.643289 71.3200856,54.893289 71.2600856,55.157289 C71.2060856,55.424289 71.1780856,55.712289 71.1940856,56.000289 C71.2270856,56.584289 71.4240856,57.084289 71.6080856,57.527289 C71.9860856,58.409289 72.4170856,59.233289 72.8330856,60.052289 C73.0410856,60.461289 73.2460856,60.867289 73.4390856,61.274289 C73.6270856,61.670289 73.8200856,62.113289 74.0340856,62.535289 C74.0530856,62.574289 74.0750856,62.612289 74.0940856,62.651289 C73.8380856,62.834289 73.5790856,63.003289 73.3120856,63.132289 C72.1950856,63.673289 72.4250856,63.070289 71.6380856,62.951289 C70.9780856,62.850289 70.4210856,63.004289 69.7820856,62.695289 C69.5280856,62.572289 69.2750856,62.438289 69.0190856,62.313289 C68.9970856,62.227289 68.9810856,62.141289 68.9560856,62.056289 C68.8360856,61.630289 68.6220856,61.197289 68.3550856,60.818289 C67.5080856,59.687289 66.4410856,58.836289 65.3460856,58.077289 C65.3460856,58.043289 65.3450856,58.011289 65.3450856,57.977289 C65.3420856,57.480289 65.3350856,57.009289 65.3530856,56.529289 C65.3690856,56.047289 65.3930856,55.562289 65.4200856,55.074289 C65.4740856,54.097289 65.5310856,53.108289 65.5290856,52.107289 C65.5260856,51.108289 65.4670856,50.087289 65.2160856,49.073289 C64.6590856,47.082289 63.6350856,45.321289 62.3960856,43.748289 C61.1920856,42.236289 59.7730856,40.903289 58.1750856,39.818289 C58.3600856,39.682289 58.5820856,39.580289 58.6840856,39.342289 C58.9510856,38.719289 58.5330856,38.164289 58.1770856,37.665289 C57.4720856,36.675289 56.1050856,35.337289 55.0080856,34.836289 C53.6370856,34.209289 51.7470856,34.312289 50.8660856,32.863289 C50.2490856,31.846289 50.2320856,30.485289 49.7930856,29.337289 C49.7060856,29.113289 49.6130856,28.912289 49.5190856,28.722289 C49.8690856,28.711289 50.2100856,28.670289 50.5140856,28.597289 Z M94.4670856,145.203289 C94.4100856,145.369289 94.3470856,145.526289 94.2850856,145.691289 L94.0830856,146.208289 L94.0410856,146.314289 L94.0340856,145.741289 C94.0430856,145.511289 94.0480856,145.285289 94.0550856,145.057289 C94.2550856,144.207289 94.4770856,143.348289 94.7010856,142.475289 L95.4180856,139.582289 C95.5420856,139.081289 95.6680856,138.582289 95.7940856,138.084289 C95.9130856,137.858289 96.0280856,137.631289 96.1400856,137.407289 L96.3390856,136.989289 C96.1340856,137.860289 95.9350856,138.732289 95.7460856,139.607289 C95.4460856,141.004289 95.1690856,142.409289 94.9160856,143.817289 C94.7730856,144.291289 94.6280856,144.756289 94.4670856,145.203289 Z M45.1640856,69.015289 C44.4990856,68.150289 43.7100856,67.542289 44.4700856,66.416289 C44.7390856,66.018289 45.2050856,65.938289 45.5170856,65.626289 C45.9380856,65.206289 46.0620856,64.824289 46.5590856,64.423289 C47.4520856,63.703289 47.8120856,63.280289 48.0570856,62.053289 C48.3200856,61.998289 48.5840856,61.945289 48.8470856,61.893289 C48.8820856,60.951289 48.0930856,60.691289 47.6010856,60.026289 C46.8920856,59.066289 46.8990856,57.853289 46.2420856,56.845289 C48.0230856,56.354289 50.1750856,57.248289 51.9750856,56.825289 C53.1100856,56.558289 54.8440856,54.442289 55.3880856,52.943289 C56.0150856,53.166289 56.6190856,53.512289 57.2400856,53.869289 C57.6170856,54.084289 58.0070856,54.302289 58.4260856,54.490289 C58.7810856,54.648289 59.1350856,54.769289 59.4800856,54.886289 C59.7000856,55.089289 59.9190856,55.292289 60.1450856,55.494289 C60.4480856,55.764289 60.7590856,56.030289 61.0820856,56.287289 C61.4050856,56.542289 61.7490856,56.785289 62.0810856,57.010289 L62.7270856,57.444289 C62.8110856,57.644289 62.8910856,57.849289 62.9710856,58.054289 C63.1230856,58.453289 63.2700856,58.862289 63.4450856,59.280289 C63.6260856,59.702289 63.8150856,60.088289 64.0170856,60.487289 C64.3610856,61.162289 64.7460856,61.818289 65.1680856,62.453289 C65.2770856,62.636289 65.3940856,62.813289 65.5130856,62.984289 C64.8830856,64.093289 64.5070856,65.606289 63.5770856,64.833289 C62.8610856,64.239289 62.4500856,63.020289 61.6060856,62.409289 C60.8490856,61.861289 59.7780856,61.782289 58.8840856,62.045289 C56.7630856,62.670289 55.8980856,64.709289 55.4800856,66.667289 C55.9610856,69.404289 55.5370856,67.715289 53.6020856,68.055289 C52.9410856,68.171289 51.9200856,68.842289 51.1010856,69.495289 C50.8360856,69.508289 50.5710856,69.522289 50.3060856,69.532289 C49.5440856,69.566289 48.7760856,69.568289 47.9990856,69.586289 C47.1950856,69.605289 46.3930856,69.629289 45.5920856,69.649289 C45.4710856,69.440289 45.3300856,69.231289 45.1640856,69.015289 Z M55.7090856,52.184289 C55.7090856,52.150289 55.8530856,52.126289 55.9680856,52.110289 C56.1630856,52.230289 56.3200856,52.353289 56.5130856,52.479289 C56.6520856,52.568289 56.8420856,52.658289 56.9760856,52.749289 C56.5580856,52.534289 56.0220856,52.333289 55.7090856,52.186289 C55.7090856,52.186289 55.7090856,52.185289 55.7090856,52.184289 Z M64.5250856,52.100289 C64.5080856,53.059289 64.4330856,54.027289 64.3600856,55.005289 C64.3230856,55.494289 64.2880856,55.987289 64.2620856,56.484289 C64.2460856,56.768289 64.2390856,57.054289 64.2340856,57.337289 L63.5570856,56.907289 C63.4870856,56.757289 63.4180856,56.608289 63.3380856,56.459289 C63.2290856,56.254289 63.1030856,56.051289 62.9580856,55.852289 C62.8140856,55.654289 62.6320856,55.463289 62.4450856,55.301289 C61.6740856,54.654289 60.7720856,54.382289 59.9530856,54.118289 C59.8780856,54.094289 59.8070856,54.071289 59.7330856,54.047289 C59.4460856,53.796289 59.1570856,53.544289 58.8580856,53.299289 C58.3570856,52.876289 57.8030856,52.485289 57.2480856,52.131289 C58.4410856,52.246289 59.6580856,52.414289 60.0670856,51.208289 C60.3260856,50.444289 60.6990856,49.162289 60.6660856,48.348289 C60.6300856,47.458289 60.2640856,47.641289 59.9180856,46.967289 C59.3910856,45.937289 60.1250856,46.175289 60.5640856,45.435289 C60.8100856,45.020289 60.7220856,43.875289 60.6660856,43.427289 C60.6410856,43.230289 60.5720856,43.001289 60.4680856,42.759289 C60.9180856,43.237289 61.3450856,43.736289 61.7420856,44.255289 C62.8950856,45.773289 63.8340856,47.497289 64.2980856,49.297289 C64.5010856,50.190289 64.5430856,51.143289 64.5250856,52.100289 Z M64.2210856,58.476289 C64.2160856,58.464289 64.2110856,58.454289 64.2060856,58.442289 C64.2110856,58.446289 64.2160856,58.449289 64.2210856,58.452289 C64.2210856,58.460289 64.2210856,58.468289 64.2210856,58.476289 Z M66.4090856,62.033289 C66.3900856,62.041289 66.3720856,62.051289 66.3530856,62.060289 C66.0570856,61.627289 65.8140856,61.186289 65.6550856,60.704289 C65.5050856,60.268289 65.4300856,59.801289 65.3900856,59.314289 C66.1950856,59.948289 66.9330856,60.636289 67.4960856,61.434289 C67.5890856,61.569289 67.6690856,61.715289 67.7390856,61.870289 C67.3220856,61.807289 66.8830856,61.837289 66.4090856,62.033289 Z M77.4190856,88.861289 C78.8370856,89.695289 80.0460856,88.052289 81.3600856,87.341289 C82.8510856,86.536289 84.0440856,86.580289 85.6100856,86.292289 C85.6200856,86.400289 85.6290856,86.508289 85.6430856,86.617289 C85.6460856,86.684289 85.6460856,86.751289 85.6490856,86.818289 C85.7350856,88.501289 85.9470856,90.209289 86.3950856,91.886289 C86.8400856,93.562289 87.4690856,95.086289 87.8870856,96.577289 C87.9930856,96.950289 88.0890856,97.322289 88.1700856,97.697289 L88.2170856,97.888289 C88.2360856,97.963289 88.2570856,98.035289 88.2810856,98.103289 C88.3260856,98.244289 88.3770856,98.371289 88.4310856,98.496289 C88.5380856,98.742289 88.6530856,98.956289 88.7610856,99.149289 C88.9780856,99.533289 89.1730856,99.859289 89.2510856,100.079289 C89.2690856,100.130289 89.2820856,100.174289 89.2900856,100.210289 C89.2900856,100.209289 89.2900856,100.208289 89.2900856,100.209289 C89.2890856,100.208289 89.2900856,100.214289 89.2890856,100.230289 C89.2890856,100.291289 89.2650856,100.455289 89.2320856,100.695289 C89.2170856,100.816289 89.2010856,100.959289 89.1990856,101.135289 C89.1990856,101.341289 89.2100856,101.449289 89.2240856,101.588289 C89.2520856,101.857289 89.3050856,102.136289 89.3730856,102.384289 C89.5170856,102.891289 89.6400856,103.205289 89.7050856,103.517289 C89.8560856,104.199289 89.9240856,104.943289 89.9450856,105.703289 C89.9870856,107.230289 89.8370856,108.830289 89.7540856,110.503289 C89.7320856,110.921289 89.7190856,111.349289 89.7140856,111.782289 C89.7060856,112.191289 89.7040856,112.571289 89.6850856,112.967289 C89.6520856,113.752289 89.5980856,114.540289 89.5150856,115.328289 C89.4680856,115.794289 89.4100856,116.261289 89.3490856,116.729289 L89.2020856,117.004289 L88.9410856,117.543289 L88.6800856,118.083289 L88.4520856,118.635289 C87.9080856,119.956289 87.5170856,121.327289 87.2330856,122.707289 L87.0060856,122.431289 C86.9590856,122.243289 86.9090856,122.053289 86.8540856,121.862289 C86.5830856,120.997289 86.2330856,120.074289 85.5680856,119.227289 L85.3140856,118.917289 C85.2100856,118.811289 85.1090856,118.696289 85.0010856,118.604289 C84.7860856,118.404289 84.5640856,118.247289 84.3450856,118.098289 C83.9080856,117.816289 83.4850856,117.613289 83.1160856,117.439289 C83.0130856,117.391289 82.9150856,117.345289 82.8200856,117.300289 C82.3580856,116.949289 81.8790856,116.626289 81.3870856,116.330289 C81.2190856,116.175289 81.0050856,116.001289 80.7810856,115.862289 C80.7170856,115.823289 80.6520856,115.782289 80.5870856,115.747289 L80.4180856,115.657289 L80.3140856,115.602289 C80.2260856,115.516289 80.1340856,115.433289 80.0410856,115.361289 C79.8760856,115.231289 79.7290856,115.128289 79.5840856,115.029289 L78.7610856,114.488289 L78.5730856,114.362289 L78.3790856,114.227289 C78.2110856,114.111289 78.0540856,114.013289 77.8980856,113.922289 C77.2740856,113.563289 76.6780856,113.273289 76.0250856,112.999289 C75.4580856,112.760289 74.8690856,112.584289 74.2750856,112.455289 C73.9830856,112.305289 73.6910856,112.159289 73.4010856,112.017289 C72.6120856,111.631289 71.8350856,111.266289 71.0820856,110.887289 L70.5190856,110.599289 C70.2790856,110.476289 70.0350856,110.368289 69.7930856,110.275289 C69.3100856,110.092289 68.8410856,109.967289 68.4070856,109.861289 C68.3940856,109.858289 68.3820856,109.855289 68.3690856,109.852289 C68.2300856,109.705289 68.0900856,109.550289 67.9470856,109.384289 C67.4610856,108.824289 66.9450856,108.169289 66.2640856,107.576289 L65.8080856,107.195289 C65.6740856,107.079289 65.5360856,106.963289 65.4120856,106.845289 C65.1570856,106.611289 64.9230856,106.373289 64.7300856,106.128289 C64.3410856,105.638289 64.1080856,105.124289 64.0000856,104.512289 C63.9430856,104.204289 63.9310856,103.887289 63.9270856,103.533289 C63.9270856,103.195289 63.9310856,102.865289 63.9380856,102.539289 C64.1020856,102.286289 64.2730856,102.027289 64.4490856,101.759289 C64.8190856,101.625289 65.2260856,101.449289 65.5950856,101.241289 C66.0930856,100.962289 66.5600856,100.620289 66.9650856,100.252289 C67.3760856,99.882289 67.7280856,99.508289 68.0720856,99.117289 C68.4550856,98.676289 68.7550856,98.218289 69.0260856,97.755289 C69.2170856,97.421289 69.3840856,97.084289 69.5430856,96.744289 C69.9710856,96.069289 70.3190856,95.370289 70.5790856,94.570289 C70.6190856,94.453289 70.6490856,94.319289 70.6830856,94.193289 C70.7090856,94.065289 70.7460856,93.904289 70.7540856,93.796289 L70.8310856,93.102289 C70.8370856,93.059289 70.8380856,93.016289 70.8420856,92.973289 C70.9250856,92.628289 71.0030856,92.283289 71.0680856,91.932289 C71.1580856,91.423289 71.2410856,90.915289 71.2800856,90.384289 C71.3060856,90.128289 71.3100856,89.836289 71.3190856,89.592289 L71.3350856,88.869289 C71.3490856,88.297289 71.3660856,87.705289 71.3380856,87.092289 C72.2590856,87.230289 73.1960856,87.310289 74.0610856,87.327289 C75.5640856,87.356289 76.2380856,88.165289 77.4190856,88.861289 Z M72.4510856,55.289289 C72.4640856,55.328289 72.4800856,55.365289 72.4940856,55.403289 C72.5710856,55.939289 72.6450856,56.487289 72.7420856,57.042289 C72.7410856,57.040289 72.7400856,57.038289 72.7390856,57.036289 C72.5600856,56.636289 72.4180856,56.261289 72.3950856,55.921289 C72.3770856,55.721289 72.4010856,55.510289 72.4510856,55.289289 Z M122.620086,73.595289 C120.831086,72.339289 119.480086,72.881289 117.457086,73.345289 C115.426086,73.811289 114.844086,75.001289 115.096086,77.008289 C115.186086,77.720289 115.651086,78.133289 115.646086,78.838289 C115.640086,79.495289 114.013086,81.205289 113.253086,81.270289 C112.605086,81.326289 111.661086,80.751289 110.881086,80.755289 C110.085086,80.760289 109.286086,81.014289 108.535086,81.014289 C108.762086,80.451289 108.985086,79.881289 109.184086,79.298289 C109.194086,79.271289 109.202086,79.242289 109.211086,79.214289 C109.424086,78.833289 109.649086,78.465289 109.896086,78.126289 C110.281086,77.599289 110.713086,77.080289 111.160086,76.584289 C112.059086,75.590289 113.045086,74.664289 114.089086,73.809289 C114.612086,73.382289 115.149086,72.974289 115.701086,72.588289 L117.391086,71.407289 C117.947086,71.030289 118.506086,70.693289 119.097086,70.436289 C119.170086,70.402289 119.246086,70.373289 119.320086,70.343289 L119.575086,70.240289 C119.756086,70.161289 119.918086,70.078289 120.078086,69.994289 C120.188086,69.935289 120.294086,69.876289 120.402086,69.818289 C120.484086,69.816289 120.573086,69.814289 120.681086,69.810289 C121.073086,69.790289 121.434086,69.747289 121.706086,69.777289 C121.984086,69.806289 122.234086,69.930289 122.610086,70.105289 C122.707086,70.147289 122.811086,70.190289 122.931086,70.223289 C123.065086,70.260289 123.148086,70.270289 123.250086,70.290289 C123.445086,70.322289 123.641086,70.346289 123.836086,70.363289 C124.226086,70.395289 124.610086,70.400289 124.987086,70.394289 L126.096086,70.364289 C126.338086,70.357289 126.577086,70.367289 126.814086,70.384289 C127.278086,70.890289 127.698086,71.323289 127.818086,72.315289 C127.914086,73.105289 128.065086,74.838289 127.348086,75.153289 C125.812086,75.826289 123.781086,74.411289 122.620086,73.595289 Z M113.619086,96.889289 C113.625086,97.047289 113.647086,97.185289 113.679086,97.311289 C113.552086,97.231289 113.428086,97.153289 113.307086,97.080289 C113.407086,97.031289 113.509086,96.972289 113.619086,96.889289 Z M112.362086,99.916289 L112.453086,99.195289 C112.457086,99.169289 112.460086,99.143289 112.463086,99.118289 C112.630086,99.270289 112.750086,99.462289 112.747086,99.751289 C112.744086,100.105289 112.510086,100.353289 112.280086,100.588289 C112.321086,100.335289 112.334086,100.128289 112.362086,99.916289 Z M103.097086,61.578289 C102.814086,62.095289 102.519086,62.606289 102.208086,63.110289 C102.155086,63.195289 102.100086,63.279289 102.047086,63.363289 C101.681086,63.316289 101.338086,63.209289 100.978086,62.987289 C101.719086,62.380289 102.455086,61.707289 103.097086,61.578289 Z M124.844086,69.150289 C125.219086,69.137289 125.591086,69.121289 125.958086,69.114289 C125.997086,69.246289 126.045086,69.376289 126.120086,69.498289 C126.124086,69.503289 126.127086,69.539289 126.130086,69.544289 C126.116086,69.544289 126.101086,69.573289 126.087086,69.573289 L124.984086,69.573289 C124.624086,69.573289 124.269086,69.525289 123.923086,69.487289 C123.752086,69.467289 123.582086,69.427289 123.415086,69.395289 C123.223086,69.357289 123.152086,69.332289 122.997086,69.256289 C122.941086,69.229289 122.877086,69.193289 122.812086,69.161289 C123.456086,69.153289 124.160086,69.181289 124.844086,69.150289 Z M111.011086,96.836289 C110.835086,97.428289 110.676086,98.027289 110.543086,98.633289 C110.528086,98.702289 110.514086,98.772289 110.501086,98.841289 C110.468086,98.929289 110.431086,99.015289 110.402086,99.105289 C110.111086,100.006289 109.962086,100.948289 109.918086,101.879289 C109.510086,103.675289 108.958086,105.445289 108.291086,107.160289 C107.863086,108.244289 107.388086,109.317289 106.857086,110.332289 C106.334086,111.322289 105.699086,112.256289 104.963086,113.049289 C104.596086,113.444289 104.201086,113.800289 103.787086,114.096289 C103.385086,114.381289 102.890086,114.641289 102.359086,114.921289 C101.829086,115.205289 101.255086,115.503289 100.686086,115.912289 L100.307086,116.195289 L99.9740856,116.431289 L99.2240856,116.949289 C98.9650856,117.133289 98.7000856,117.329289 98.4260856,117.564289 C98.1540856,117.809289 97.8630856,118.057289 97.5680856,118.560289 C97.4160856,118.843289 97.3520856,119.082289 97.3020856,119.283289 C97.2540856,119.485289 97.2250856,119.664289 97.2000856,119.823289 C97.1520856,120.141289 97.1140856,120.407289 97.0640856,120.595289 C97.0510856,120.637289 97.0400856,120.682289 97.0280856,120.710289 C97.0120856,120.758289 97.0150856,120.738289 96.9880856,120.805289 L96.8790856,121.042289 C97.0040856,120.240289 97.1270856,119.404289 97.1710856,118.535289 C97.1770856,118.378289 97.1860856,118.222289 97.1870856,118.064289 L97.1970856,117.656289 C97.2060856,117.416289 97.2320856,117.168289 97.2730856,116.916289 C97.3540856,116.410289 97.4860856,115.886289 97.6420856,115.341289 C97.7950856,114.796289 97.9700856,114.235289 98.1240856,113.639289 C98.2030856,113.343289 98.2710856,113.034289 98.3330856,112.720289 C98.3790856,112.466289 98.4360856,112.228289 98.5110856,111.974289 C98.6580856,111.470289 98.8610856,110.948289 99.0660856,110.384289 C99.1680856,110.105289 99.2700856,109.804289 99.3590856,109.510289 C99.4340856,109.270289 99.5180856,109.036289 99.6210856,108.808289 C99.8230856,108.354289 100.093086,107.924289 100.420086,107.462289 C100.744086,107.002289 101.111086,106.506289 101.433086,105.966289 C102.037086,104.933289 102.602086,103.932289 103.164086,102.890289 C103.442086,102.372289 103.713086,101.848289 103.978086,101.319289 L104.174086,100.916289 C104.243086,100.769289 104.310086,100.623289 104.369086,100.474289 C104.491086,100.178289 104.593086,99.878289 104.681086,99.581289 C104.861086,98.984289 104.982086,98.398289 105.112086,97.844289 C105.177086,97.568289 105.243086,97.296289 105.319086,97.037289 C105.356086,96.906289 105.396086,96.778289 105.438086,96.653289 L105.583086,96.247289 C105.619086,96.143289 105.652086,96.038289 105.685086,95.932289 C106.275086,95.264289 106.954086,94.486289 107.561086,94.382289 C107.546086,94.910289 107.179086,95.189289 107.148086,95.709289 C108.367086,96.082289 109.746086,95.454289 110.886086,95.990289 C111.003086,96.045289 111.113086,96.114289 111.219086,96.190289 C111.148086,96.405289 111.077086,96.620289 111.011086,96.836289 Z M72.1880856,46.071289 L72.1720856,44.842289 C72.1630856,44.022289 72.1470856,43.202289 72.1560856,42.398289 C72.1720856,41.292289 72.2140856,40.174289 72.2260856,39.049289 C72.3170856,39.136289 72.4100856,39.219289 72.5030856,39.300289 L72.4560856,43.717289 C72.4210856,45.119289 72.5070856,46.517289 72.5440856,47.891289 C72.4970856,47.645289 72.4480856,47.399289 72.3920856,47.153289 C72.3480856,46.945289 72.2920856,46.733289 72.2450856,46.530289 C72.2280856,46.449289 72.2090856,46.370289 72.1900856,46.290289 L72.1880856,46.071289 Z M92.5960856,78.657289 C92.7130856,78.131289 92.5710856,77.310289 92.5710856,76.762289 C92.5720856,75.334289 92.5260856,74.111289 92.9260856,72.773289 C93.1470856,72.040289 93.0570856,71.468289 93.9720856,71.319289 C94.6110856,71.214289 95.4540856,71.598289 96.0630856,71.874289 C96.0650856,71.988289 96.0640856,72.101289 96.0680856,72.215289 L96.0780856,72.497289 C96.0850856,72.601289 96.0890856,72.707289 96.1040856,72.810289 C96.1260856,73.018289 96.1650856,73.218289 96.2070856,73.415289 C96.2940856,73.804289 96.4070856,74.165289 96.4980856,74.500289 C96.5890856,74.835289 96.6560856,75.147289 96.6790856,75.453289 L96.7040856,75.977289 C96.7120856,76.164289 96.7240856,76.353289 96.7390856,76.543289 C96.7610856,76.851289 96.8020856,77.161289 96.8510856,77.467289 C96.7340856,78.291289 96.6020856,79.111289 96.4550856,79.930289 C96.3220856,80.660289 96.1830856,81.389289 96.0330856,82.117289 L95.8020856,83.208289 C95.7230856,83.570289 95.6430856,83.929289 95.5680856,84.322289 C95.3120856,85.645289 95.2100856,86.973289 95.1680856,88.288289 C95.1330856,88.421289 95.1000856,88.557289 95.0660856,88.692289 C94.7650856,88.591289 94.4640856,88.488289 94.1630856,88.370289 C93.1600856,87.980289 92.2800856,87.614289 91.4190856,87.970289 C91.3570856,87.290289 91.2460856,86.603289 91.0860856,85.958289 C90.9700856,85.480289 90.8590856,85.044289 90.6990856,84.546289 C90.5430856,84.065289 90.3570856,83.615289 90.1790856,83.186289 C90.0020856,82.758289 89.8320856,82.353289 89.6930856,81.955289 C89.6260856,81.757289 89.5630856,81.562289 89.5100856,81.365289 L89.4950856,79.973289 C89.9620856,79.870289 90.4730856,79.809289 90.7370856,79.760289 C91.8160856,79.561289 92.3750856,79.650289 92.5960856,78.657289 Z M94.4570856,56.330289 C95.5760856,56.486289 95.4160856,56.683289 95.3880856,57.842289 C95.3870856,57.895289 95.3860856,57.949289 95.3840856,58.001289 C94.7780856,57.602289 94.0490856,57.396289 93.6130856,56.714289 C93.5430856,56.606289 93.4970856,56.469289 93.4570856,56.321289 C93.7950856,56.295289 94.1310856,56.284289 94.4570856,56.330289 Z M100.471086,78.015289 L99.7570856,82.586289 L99.4460856,84.870289 C99.4280856,84.992289 99.4060856,85.113289 99.3850856,85.235289 C99.3850856,85.200289 99.3860856,85.166289 99.3860856,85.131289 C99.3850856,84.375289 99.3470856,83.629289 99.2830856,82.880289 C99.1830856,81.754289 99.0070856,80.630289 98.7600856,79.529289 C98.8220856,79.277289 98.8760856,79.021289 98.9150856,78.783289 C99.1420856,77.356289 99.1370856,76.015289 99.3340856,74.783289 C99.3590856,74.628289 99.3890856,74.467289 99.4220856,74.301289 C99.5110856,74.428289 99.6060856,74.553289 99.7180856,74.674289 C100.059086,75.039289 100.416086,75.311289 100.790086,75.519289 C100.705086,76.349289 100.595086,77.181289 100.471086,78.015289 Z M103.171086,76.061289 C104.445086,76.069289 105.646086,75.755289 106.793086,75.282289 C106.790086,75.310289 106.789086,75.339289 106.784086,75.367289 C106.569086,76.567289 106.157086,77.797289 105.784086,79.051289 L105.644086,79.526289 L105.577086,79.766289 C105.552086,79.863289 105.525086,79.973289 105.509086,80.075289 C105.471086,80.310289 105.461086,80.533289 105.461086,80.741289 C104.062086,80.719289 102.791086,81.009289 102.972086,82.357289 C103.024086,82.744289 103.747086,83.453289 103.955086,83.924289 C103.984086,83.992289 104.013086,84.054289 104.042086,84.115289 C103.838086,84.291289 103.631086,84.482289 103.430086,84.703289 C103.291086,84.853289 103.156086,85.024289 103.030086,85.206289 C102.903086,85.397289 102.790086,85.604289 102.709086,85.797289 C102.386086,86.551289 102.260086,87.262289 102.153086,87.955289 C101.918086,88.260289 101.662086,88.554289 101.351086,88.885289 C100.722086,89.555289 100.559086,90.059289 100.206086,90.211289 C100.443086,89.309289 100.668086,88.399289 100.859086,87.473289 C100.940086,87.086289 101.006086,86.695289 101.081086,86.306289 C101.138086,85.912289 101.208086,85.521289 101.254086,85.125289 L101.510086,82.819289 L102.108086,78.237289 C102.199086,77.498289 102.280086,76.754289 102.344086,76.006289 C102.609086,76.040289 102.883086,76.059289 103.171086,76.061289 Z M97.5850856,87.524289 C97.5060856,88.137289 97.4160856,88.756289 97.3310856,89.389289 C97.2740856,89.372289 97.2180856,89.355289 97.1620856,89.337289 C97.2930856,88.739289 97.4380856,88.135289 97.5850856,87.524289 Z M98.7060856,101.180289 C98.5280856,101.596289 98.8550856,102.004289 97.9510856,102.406289 L97.9510856,101.957289 L98.1520856,101.708289 C98.1540856,101.639289 98.2550856,101.571289 98.2630856,101.503289 C98.2880856,101.235289 98.4030856,100.981289 98.5100856,100.662289 C98.6180856,100.343289 98.7930856,99.943289 98.8850856,99.502289 C98.9340856,99.274289 98.9690856,99.076289 98.9970856,98.876289 C99.0190856,98.677289 99.0440856,98.479289 99.0570856,98.282289 C99.0890856,97.795289 99.0960856,97.318289 99.0870856,96.848289 C99.4860856,97.054289 99.7870856,97.285289 100.190086,97.492289 C99.7330856,98.751289 99.2020856,99.996289 98.7060856,101.180289 Z M109.704086,70.311289 C109.412086,69.961289 109.282086,69.571289 109.193086,69.117289 C109.387086,68.956289 109.591086,68.808289 109.825086,68.700289 C109.823086,68.738289 109.822086,68.776289 109.819086,68.814289 C109.793086,69.312289 109.749086,69.810289 109.704086,70.311289 Z M109.268086,75.482289 C108.984086,75.751289 108.707086,76.040289 108.450086,76.355289 C108.321086,76.511289 108.200086,76.681289 108.083086,76.849289 C107.971086,77.015289 107.868086,77.178289 107.768086,77.343289 C107.701086,77.455289 107.636086,77.568289 107.571086,77.680289 C107.751086,76.994289 107.917086,76.291289 108.028086,75.554289 C108.069086,75.255289 108.080086,74.966289 108.079086,74.682289 C108.559086,74.433289 109.033086,74.166289 109.498086,73.891289 C109.464086,74.405289 109.410086,74.915289 109.335086,75.421289 C109.313086,75.442289 109.291086,75.461289 109.268086,75.482289 Z M97.3250856,72.423289 L97.3250856,72.417289 C97.3290856,72.418289 97.3330856,72.420289 97.3360856,72.422289 C97.3350856,72.445289 97.3340856,72.467289 97.3330856,72.490289 C97.3310856,72.467289 97.3280856,72.445289 97.3250856,72.423289 Z M92.4760856,92.584289 C93.2080856,93.084289 93.2080856,94.042289 93.7560856,94.743289 C93.5530856,95.680289 93.3500856,96.620289 93.1470856,97.561289 C92.9300856,96.988289 92.7060856,96.412289 92.4550856,95.836289 C92.2810856,95.442289 92.0850856,95.024289 91.8990856,94.654289 L91.4020856,93.639289 C91.3980856,93.203289 91.4050856,92.761289 91.4170856,92.314289 C91.8050856,92.349289 92.1840856,92.386289 92.4760856,92.584289 Z M99.6890856,119.696289 C99.6920856,119.675289 99.8310856,119.495289 100.003086,119.342289 C100.177086,119.181289 100.389086,119.012289 100.612086,118.842289 L101.323086,118.316289 C101.448086,118.224289 101.577086,118.127289 101.712086,118.020289 L102.043086,117.754289 C102.281086,117.571289 102.550086,117.397289 102.838086,117.224289 C101.212086,118.583289 100.165086,120.379289 99.3380856,122.126289 L97.7220856,125.687289 C97.8440856,125.351289 97.9630856,125.015289 98.0920856,124.679289 C98.3020856,124.131289 98.5210856,123.584289 98.7460856,123.037289 L99.0850856,122.214289 L99.2570856,121.803289 C99.2860856,121.733289 99.3510856,121.576289 99.3770856,121.479289 C99.4150856,121.366289 99.4380856,121.265289 99.4630856,121.163289 C99.5480856,120.767289 99.5780856,120.437289 99.6120856,120.163289 C99.6370856,119.900289 99.7010856,119.661289 99.6890856,119.696289 Z M125.575086,67.139289 C125.744086,67.489289 125.788086,67.850289 125.820086,68.206289 C125.484086,68.205289 125.153086,68.209289 124.827086,68.210289 C124.147086,68.222289 123.488086,68.169289 122.763086,68.160289 C122.403086,68.158289 122.033086,68.168289 121.656086,68.224289 C121.463086,68.251289 121.285086,68.286289 121.082086,68.340289 C120.864086,68.404289 120.691086,68.481289 120.521086,68.559289 C120.328086,68.649289 120.145086,68.742289 119.966086,68.833289 C119.793086,68.848289 119.616086,68.871289 119.436086,68.916289 C119.221086,68.968289 119.010086,69.050289 118.835086,69.127289 C118.657086,69.206289 118.505086,69.272289 118.354086,69.326289 C118.203086,69.380289 118.050086,69.419289 117.889086,69.456289 C117.719086,69.492289 117.549086,69.523289 117.377086,69.548289 C117.035086,69.603289 116.675086,69.625289 116.253086,69.707289 C115.829086,69.789289 115.405086,69.974289 115.056086,70.186289 C114.878086,70.292289 114.712086,70.406289 114.553086,70.521289 C114.388086,70.640289 114.222086,70.776289 114.074086,70.913289 C113.472086,71.468289 113.022086,72.082289 112.555086,72.611289 C112.320086,72.880289 112.094086,73.113289 111.833086,73.340289 C111.569086,73.573289 111.292086,73.800289 111.006086,74.029289 C110.713086,74.264289 110.413086,74.501289 110.112086,74.747289 C110.141086,74.326289 110.158086,73.904289 110.165086,73.485289 C111.399086,72.679289 111.987086,71.825289 110.399086,70.882289 C110.335086,70.844289 110.276086,70.806289 110.218086,70.767289 C110.253086,70.126289 110.293086,69.481289 110.306086,68.833289 C110.309086,68.720289 110.310086,68.608289 110.311086,68.496289 C111.099086,68.164289 111.737086,67.801289 112.524086,67.311289 C113.646086,66.612289 113.752086,66.453289 114.581086,67.430289 C114.884086,67.790289 114.518086,67.890289 115.073086,68.121289 C115.609086,68.344289 116.143086,67.904289 116.516086,67.629289 C117.324086,67.036289 118.062086,66.322289 118.864086,65.717289 C120.332086,64.609289 122.353086,64.321289 123.923086,65.378289 C124.628086,65.853289 125.199086,66.363289 125.575086,67.139289 Z M73.5630856,47.701289 C73.4950856,46.358289 73.3890856,45.040289 73.3950856,43.716289 L73.3540856,39.834289 C75.2930856,40.536289 77.7720856,39.525289 79.8240856,39.871289 C79.7760856,39.935289 79.7290856,40.001289 79.6800856,40.065289 C79.4420856,40.367289 79.1950856,40.668289 78.9310856,40.901289 C78.3950856,41.384289 77.6630856,41.621289 76.9280856,42.042289 C76.5610856,42.251289 76.2200856,42.538289 75.9220856,42.838289 C75.6370856,43.154289 75.3770856,43.487289 75.1610856,43.841289 C74.7170856,44.545289 74.3990856,45.298289 74.1130856,46.053289 C73.9090856,46.600289 73.7320856,47.152289 73.5630856,47.701289 Z M68.2230856,94.583289 C68.5930856,93.809289 68.8490856,93.012289 69.0480856,92.220289 C69.0460856,92.252289 69.0430856,92.285289 69.0420856,92.317289 C69.0350856,92.426289 69.0300856,92.536289 69.0220856,92.645289 C68.8730856,93.196289 68.7020856,93.741289 68.5080856,94.276289 C68.3240856,94.776289 68.1200856,95.268289 67.8960856,95.743289 C67.8350856,95.834289 67.7750856,95.926289 67.7110856,96.012289 C67.5450856,96.237289 67.3630856,96.454289 67.1870856,96.623289 L68.2230856,94.583289 Z M88.5790856,43.860289 C88.9990856,43.687289 89.3370856,43.356289 89.6560856,43.006289 C90.1710856,43.335289 90.8060856,43.695289 90.6740856,44.314289 C90.5480856,44.903289 89.8700856,45.066289 89.7370856,45.758289 C89.5790856,46.583289 89.7420856,47.294289 89.5190856,48.123289 C89.3300856,48.826289 89.5110856,49.794289 89.2490856,50.434289 C88.9560856,51.150289 88.2100856,51.145289 88.2990856,52.102289 C88.3760856,52.917289 89.2810856,53.706289 89.6380856,54.460289 C90.0360856,55.304289 90.3000856,55.919289 91.0510856,56.220289 C90.6680856,56.601289 90.3000856,56.986289 90.0300856,57.518289 C89.7920856,57.984289 89.7700856,58.610289 89.3070856,58.942289 C88.1920856,59.743289 86.5100856,58.727289 85.3340856,58.668289 C84.6700856,58.635289 83.8020856,58.575289 83.1700856,58.782289 C82.3520856,59.049289 82.3490856,59.589289 81.7960856,60.116289 C80.1600856,61.674289 79.9170856,58.844289 78.4950856,59.217289 C78.1110856,59.318289 77.5640856,59.797289 77.0410856,60.280289 C76.9300856,60.192289 76.8140856,60.105289 76.6890856,60.021289 C76.6800856,60.015289 76.6700856,60.010289 76.6610856,60.004289 C76.4480856,59.698289 76.2280856,59.399289 76.0060856,59.112289 C75.7600856,58.793289 75.5120856,58.482289 75.2720856,58.171289 C75.0690856,57.843289 74.8770856,57.505289 74.6930856,57.163289 C74.6060856,56.698289 74.5370856,56.210289 74.4540856,55.712289 C74.3830856,55.290289 74.3030856,54.858289 74.1800856,54.424289 C74.0630856,53.994289 73.8720856,53.545289 73.7330856,53.201289 C73.6130856,52.883289 73.5100856,52.558289 73.4160856,52.228289 C73.4230856,52.168289 73.4280856,52.109289 73.4360856,52.049289 C73.4450856,51.992289 73.4510856,51.934289 73.4590856,51.876289 C73.5070856,51.532289 73.5670856,51.188289 73.6380856,50.847289 C73.7940856,50.089289 74.0000856,49.343289 74.2150856,48.578289 C74.4270856,47.816289 74.6340856,47.062289 74.8860856,46.331289 C75.1420856,45.602289 75.4270856,44.883289 75.8120856,44.239289 C76.0000856,43.912289 76.2220856,43.616289 76.4600856,43.337289 C76.7120856,43.074289 76.9730856,42.837289 77.2910856,42.646289 C77.9090856,42.260289 78.7180856,41.980289 79.3610856,41.382289 C79.6830856,41.083289 79.9280856,40.761289 80.1710856,40.437289 C80.2260856,40.363289 80.2770856,40.287289 80.3300856,40.212289 C80.4990856,41.324289 81.0470856,42.186289 81.9020856,43.052289 C82.1050856,42.708289 82.3010856,42.037289 82.6980856,41.842289 C83.5210856,41.439289 83.4200856,41.940289 83.7070856,42.410289 C84.2940856,43.371289 84.5960856,44.523289 85.1660856,45.515289 C85.7530856,45.117289 86.1170856,44.340289 86.9500856,44.071289 C87.4800856,43.899289 88.0020856,44.099289 88.5790856,43.860289 Z M118.402086,115.829289 L118.005086,116.220289 L117.221086,117.025289 C116.705086,117.548289 116.173086,118.052289 115.596086,118.381289 C115.318086,118.539289 115.040086,118.624289 114.704086,118.669289 C114.372086,118.718289 113.968086,118.737289 113.545086,118.840289 C113.502086,118.851289 113.448086,118.866289 113.392086,118.882289 C112.733086,118.885289 112.061086,118.830289 111.357086,118.781289 C110.596086,118.730289 109.785086,118.693289 108.939086,118.855289 C108.517086,118.935289 108.096086,119.085289 107.697086,119.283289 C107.505086,119.396289 107.305086,119.499289 107.132086,119.637289 C107.045086,119.703289 106.948086,119.772289 106.872086,119.835289 L106.651086,120.022289 C104.976086,121.426289 103.465086,123.004289 102.061086,124.657289 C102.204086,124.146289 102.343086,123.634289 102.489086,123.125289 C102.752086,122.192289 103.032086,121.300289 103.381086,120.447289 C103.694086,119.691289 104.064086,118.972289 104.502086,118.285289 C105.140086,117.793289 105.918086,117.320289 106.650086,116.671289 C107.510086,115.909289 108.118086,114.964289 108.580086,114.018289 C109.049086,113.065289 109.370086,112.091289 109.683086,111.145289 C109.733086,110.990289 109.781086,110.834289 109.830086,110.677289 C110.273086,109.786289 110.617086,108.837289 110.900086,107.920289 C111.198086,106.964289 111.450086,105.996289 111.649086,105.010289 L111.686086,104.826289 C111.699086,104.752289 111.714086,104.670289 111.722086,104.595289 C111.741086,104.441289 111.746086,104.291289 111.744086,104.149289 C111.740086,103.863289 111.711086,103.609289 111.696086,103.381289 C111.679086,103.151289 111.675086,102.962289 111.701086,102.766289 C111.724086,102.568289 111.773086,102.363289 111.838086,102.146289 C111.873086,102.028289 111.914086,101.904289 111.956086,101.777289 C112.143086,102.172289 112.504086,102.588289 112.749086,102.833289 C113.767086,103.853289 115.105086,104.090289 116.447086,104.296289 C116.607086,105.119289 116.454086,105.845289 117.432086,106.129289 C118.248086,106.366289 119.418086,105.726289 120.177086,106.202289 C120.650086,106.499289 120.730086,106.990289 120.808086,107.495289 C119.968086,107.873289 119.160086,108.395289 118.609086,108.924289 C117.287086,110.194289 118.243086,110.567289 119.345086,111.508289 C120.043086,112.102289 120.620086,112.643289 120.766086,113.618289 C120.797086,113.825289 120.765086,114.022289 120.743086,114.216289 C120.594086,114.239289 120.416086,114.242289 120.208086,114.279289 C119.988086,114.317289 119.763086,114.408289 119.580086,114.525289 C119.166086,114.796289 118.964086,115.136289 118.730086,115.427289 C118.619086,115.574289 118.507086,115.720289 118.402086,115.829289 Z M159.746086,117.775289 C159.764086,116.357289 161.333086,116.132289 159.958086,114.824289 C159.227086,114.128289 158.159086,114.087289 157.382086,113.514289 C157.491086,113.190289 157.701086,112.949289 158.013086,112.792289 C157.668086,112.511289 157.425086,112.180289 157.230086,111.827289 C157.460086,111.362289 157.078086,110.822289 156.891086,110.333289 C156.450086,109.179289 156.119086,107.946289 154.618086,107.905289 C154.464086,107.445289 154.700086,106.980289 154.571086,106.552289 C154.472086,106.226289 154.200086,106.135289 154.077086,105.873289 C153.824086,105.329289 153.627086,104.798289 153.391086,104.228289 C152.924086,103.098289 151.839086,101.881289 151.647086,100.636289 C151.181086,100.979289 150.501086,101.276289 150.126086,101.687289 C149.813086,102.031289 149.728086,102.503289 149.395086,102.846289 C149.198086,103.049289 148.981086,103.205289 148.770086,103.367289 C148.399086,103.277289 147.989086,103.270289 147.655086,103.256289 C147.264086,103.241289 146.846086,103.270289 146.418086,103.303289 C146.296086,102.955289 146.167086,102.629289 145.991086,102.456289 C145.735086,102.201289 145.409086,102.187289 145.144086,101.894289 C144.956086,101.685289 145.012086,101.368289 144.709086,101.154289 C144.304086,100.869289 143.961086,101.038289 143.513086,100.902289 C143.043086,100.760289 142.742086,100.396289 142.339086,100.220289 C141.915086,100.035289 141.335086,99.914289 140.783086,99.932289 C140.472086,98.770289 140.734086,97.469289 140.392086,96.287289 C139.764086,96.158289 139.171086,96.305289 138.537086,96.292289 C137.228086,96.263289 136.261086,95.672289 135.229086,94.953289 C134.505086,94.448289 134.017086,94.209289 133.990086,93.828289 C134.145086,93.869289 134.302086,93.905289 134.461086,93.924289 C135.340086,94.029289 136.317086,93.711289 137.184086,93.876289 C137.787086,93.990289 138.425086,94.605289 139.077086,94.416289 C139.913086,94.171289 139.592086,93.177289 140.651086,93.679289 C141.054086,93.870289 141.706086,94.754289 142.100086,95.073289 C142.676086,95.538289 143.229086,96.042289 143.982086,96.210289 C145.112086,96.464289 146.471086,96.310289 147.386086,95.823289 C148.531086,97.540289 149.409086,98.533289 151.729086,98.148289 C152.716086,97.984289 153.665086,97.258289 154.557086,96.820289 C155.270086,96.469289 155.082086,96.856289 155.613086,96.271289 C155.757086,96.113289 156.172086,95.421289 156.322086,95.195289 C156.599086,94.773289 156.289086,94.583289 156.859086,94.333289 C157.211086,94.177289 157.882086,94.390289 158.301086,94.274289 C158.801086,94.135289 159.254086,93.800289 159.605086,93.442289 C159.760086,93.284289 160.537086,92.473289 160.580086,92.376289 C160.878086,91.686289 160.081086,91.082289 159.489086,90.828289 C158.262086,90.301289 157.890086,91.293289 157.329086,92.349289 C157.471086,90.746289 157.543086,89.693289 155.719086,89.670289 C155.066086,89.663289 154.334086,89.734289 153.612086,89.754289 C154.292086,89.164289 154.721086,88.445289 154.296086,87.574289 C153.571086,86.086289 151.623086,85.816289 151.698086,83.961289 C151.740086,82.925289 151.844086,81.254289 152.921086,81.221289 C154.287086,81.179289 155.058086,83.607289 156.458086,82.969289 C157.729086,82.391289 157.141086,80.403289 157.423086,79.436289 C160.429086,79.068289 159.301086,76.145289 159.792086,74.182289 C160.051086,73.139289 160.858086,72.444289 160.566086,71.354289 C160.435086,70.867289 159.960086,70.462289 159.805086,69.984289 C159.381086,68.683289 160.226086,67.086289 159.813086,65.856289 C159.349086,64.473289 157.195086,64.547289 155.988086,64.885289 C155.337086,65.067289 155.021086,65.403289 154.306086,65.263289 C152.744086,64.959289 151.781086,63.683289 150.006086,63.445289 C148.893086,63.471289 147.786086,63.418289 146.682086,63.294289 C146.286086,62.858289 145.823086,62.280289 145.697086,61.973289 C145.254086,60.892289 146.376086,60.147289 146.128086,59.133289 C145.916086,58.258289 144.705086,57.899289 144.090086,57.394289 C142.634086,56.198289 143.085086,54.107289 141.999086,52.748289 C140.939086,53.262289 141.388086,54.540289 140.107086,54.367289 C139.672086,54.308289 139.681086,53.858289 139.052086,54.049289 C138.380086,54.254289 138.376086,55.126289 137.838086,55.381289 C137.170086,55.701289 136.027086,55.477289 135.361086,55.158289 C135.167086,54.632289 135.172086,54.072289 135.527086,53.522289 C135.920086,52.913289 137.817086,52.816289 137.996086,52.112289 C138.260086,51.073289 137.078086,51.093289 136.765086,50.232289 C136.432086,49.316289 137.338086,48.360289 137.677086,47.556289 C138.152086,46.430289 138.232086,45.640289 137.676086,44.569289 C137.595086,44.413289 137.510086,44.260289 137.424086,44.110289 C138.036086,44.158289 138.617086,44.183289 139.038086,44.037289 C138.365086,42.978289 137.681086,41.715289 137.577086,40.443289 C137.146086,40.404289 136.741086,40.357289 136.316086,40.295289 C136.296086,39.742289 135.780086,38.650289 135.334086,38.460289 C134.427086,38.077289 133.596086,38.981289 133.924086,37.328289 C134.127086,36.301289 134.821086,35.777289 133.897086,34.836289 C133.433086,34.364289 132.407086,33.943289 131.775086,33.834289 C130.124086,33.552289 130.035086,35.107289 129.767086,36.432289 C129.703086,36.751289 129.813086,37.704289 129.193086,37.624289 C128.586086,37.545289 128.908086,37.072289 128.619086,36.724289 C128.042086,36.029289 127.596086,36.452289 126.939086,36.056289 C126.112086,35.558289 126.495086,34.621289 126.305086,33.850289 C124.403086,33.877289 124.219086,36.455289 122.585086,36.644289 C122.032086,35.420289 121.669086,33.759289 121.325086,33.026289 C121.057086,32.457289 120.781086,31.793289 120.377086,31.252289 C121.272086,30.527289 121.806086,29.402289 122.924086,28.886289 C123.328086,29.343289 122.880086,29.895289 123.195086,30.480289 C124.091086,30.276289 123.831086,28.804289 124.003086,28.142289 C124.283086,27.074289 125.470086,26.415289 126.066086,25.585289 C126.811086,24.547289 126.205086,23.985289 125.900086,23.063289 C125.614086,22.193289 125.977086,21.404289 125.060086,20.713289 C123.939086,19.869289 122.386086,20.395289 121.274086,19.634289 C122.016086,18.982289 124.093086,18.139289 124.024086,16.949289 C123.127086,16.694289 122.508086,17.248289 121.668086,17.393289 C121.002086,17.508289 120.137086,17.389289 119.461086,17.380289 C117.859086,17.359289 116.395086,16.568289 114.877086,16.196289 C114.174086,16.023289 113.186086,16.098289 112.561086,15.743289 C111.308086,15.028289 111.892086,13.626289 111.271086,12.653289 C110.458086,11.378289 107.669086,14.035289 107.460086,11.745289 C105.866086,11.728289 105.223086,13.326289 103.831086,13.659289 C103.826086,12.468289 104.853086,11.559289 104.744086,10.336289 C103.850086,10.366289 103.422086,10.002289 102.638086,9.84428901 C102.139086,9.74428901 101.627086,9.91128901 101.113086,9.76328901 C100.682086,9.64028901 100.304086,9.14228901 99.7310856,9.01028901 C99.3320856,8.91828901 98.8280856,9.02928901 98.4700856,8.87828901 C98.2030856,8.76528901 98.0950856,8.40428901 97.8650856,8.31128901 C97.1430856,8.01928901 97.7740856,7.88328901 96.8580856,8.37628901 C96.0040856,8.83628901 95.3520856,9.70928901 94.4820856,10.198289 C94.4880856,9.74928901 94.1520856,9.62328901 94.0750856,9.32628901 C93.8370856,8.41428901 94.1730856,7.68528901 94.3440856,6.75528901 C94.5560856,5.60728901 94.4910856,5.04228901 93.3010856,4.49428901 C91.3920856,3.61528901 89.4760856,4.20828901 88.1060856,5.65428901 C87.9320856,5.59028901 87.1300856,5.58428901 86.7440856,5.70428901 C86.9120856,6.37428901 86.9500856,7.02328901 86.9780856,7.71728901 C86.1190856,7.33028901 85.2520856,6.39028901 84.6680856,5.62028901 C84.0830856,4.84928901 83.2580856,4.16728901 82.7470856,3.46628901 C82.3920856,2.98128901 82.3350856,2.19828901 81.9720856,1.68128901 C81.4810856,0.982289009 80.5500856,0.926289009 80.3050856,0.0242890095 C79.0140856,-0.261710991 77.2580856,2.05228901 76.6580856,3.05928901 C76.5370856,2.58828901 76.5980856,2.07828901 76.6620856,1.58328901 C75.3440856,2.26828901 73.5320856,2.35828901 72.0440856,2.34328901 C71.4680856,2.33728901 70.3000856,2.12028901 69.7660856,2.31428901 C68.8980856,2.63028901 68.9410856,2.86628901 68.7310856,4.00328901 C68.6090856,4.66028901 68.7150856,5.08828901 68.2170856,5.53528901 C67.5830856,6.10328901 66.6800856,5.78228901 66.1290856,6.54828901 C65.3810856,7.58928901 65.7240856,9.02828901 67.1480856,8.99928901 C67.9020856,11.474289 65.0730856,13.663289 63.0520856,14.384289 C62.9680856,13.592289 63.1250856,13.331289 62.4850856,12.780289 C61.8700856,12.251289 59.6650856,11.743289 58.8390856,11.699289 C57.4540856,11.624289 56.5670856,11.344289 56.8530856,9.49228901 C56.9300856,8.99128901 57.6970856,8.05928901 57.2970856,7.58128901 C57.0100856,7.23728901 56.2350856,7.68428901 55.9140856,7.54428901 C55.1830856,7.22828901 55.6430856,6.79628901 55.4100856,6.11028901 C55.1680856,5.39428901 54.1030856,4.33228901 54.0710856,4.69328901 C51.9520856,4.45328901 50.3600856,6.79828901 50.6120856,8.85828901 C50.3170856,8.86628901 49.9980856,8.91728901 49.8440856,8.91928901 C48.3330856,8.93928901 47.9620856,8.94728901 47.1330856,10.329289 C46.5810856,11.247289 46.1960856,12.241289 45.6200856,13.144289 C44.9620856,14.174289 44.1820856,15.251289 43.6020856,16.326289 C43.5300856,16.459289 43.4710856,16.602289 43.4170856,16.749289 C43.0370856,16.627289 42.6630856,16.520289 42.4290856,16.326289 C41.2770856,15.373289 42.1750856,14.479289 42.5850856,13.396289 C43.1620856,11.875289 42.9360856,9.99828901 41.6420856,8.89428901 C41.3340856,8.63028901 40.8620856,8.57128901 40.5460856,8.33428901 C40.3020856,8.15028901 40.3160856,7.81328901 40.0130856,7.61428901 C39.5240856,7.29228901 38.9340856,7.23928901 38.5550856,6.77128901 C37.8200856,5.86428901 37.9570856,3.83128901 36.7190856,3.34428901 C35.0280856,2.67828901 31.6970856,5.22628901 30.7740856,6.45628901 C29.4100856,8.27128901 29.9250856,11.567289 31.3950856,13.072289 C32.0220856,13.713289 33.1030856,14.247289 33.5700856,15.008289 C34.1650856,15.975289 33.5190856,16.180289 32.9630856,16.949289 C31.8870856,18.440289 29.7080856,22.605289 30.8150856,24.427289 C31.2800856,25.194289 32.9120856,26.107289 32.8880856,27.056289 C32.8590856,28.210289 29.3770856,28.181289 28.4820856,28.168289 C26.7080856,28.143289 25.7560856,28.663289 24.9440856,30.317289 C24.2680856,31.697289 23.8630856,34.659289 25.7600856,35.244289 C24.7730856,35.172289 24.0470856,35.051289 23.3540856,35.876289 C22.5300856,36.860289 22.5940856,38.371289 22.6140856,39.563289 C22.6430856,41.312289 21.3950856,43.032289 21.9060856,44.601289 C22.3040856,45.823289 23.5500856,47.029289 23.5860856,48.311289 C23.6200856,49.526289 22.7050856,50.688289 22.5930856,51.881289 C22.4750856,53.145289 23.1350856,53.090289 23.6920856,53.967289 C24.6520856,55.476289 23.0030856,57.999289 25.7290856,57.019289 C27.0750856,56.535289 28.5680856,55.953289 29.6770856,55.035289 C30.0870856,54.695289 30.5000856,54.152289 30.9380856,53.866289 C32.9160856,52.576289 34.4900856,56.238289 36.1250856,56.750289 C36.7160856,56.935289 38.0520856,56.471289 38.5060856,56.879289 C38.8370856,57.177289 38.6250856,59.162289 38.5240856,59.543289 C36.4130856,60.251289 34.0980856,59.978289 31.9820856,60.461289 C30.4380856,60.814289 28.8580856,61.101289 27.2740856,61.397289 C26.5520856,61.532289 25.6160856,61.288289 24.9390856,61.479289 C24.5510856,61.588289 24.4460856,61.901289 24.0460856,61.998289 C22.8300856,62.291289 21.4800856,61.825289 20.3720856,61.550289 C20.2020856,61.861289 20.0100856,62.159289 19.3270856,61.503289 C18.0480856,62.603289 17.8980856,65.316289 19.0890856,66.422289 C19.7830856,67.066289 20.2790856,67.037289 21.1590856,67.207289 C21.0740856,68.144289 19.3750856,69.852289 20.7020856,70.456289 C22.4750856,71.262289 23.0870856,68.306289 24.3980856,68.584289 C25.4900856,70.344289 25.9810856,71.501289 28.2480856,71.374289 C29.3720856,71.311289 30.0130856,70.910289 30.7240856,70.070289 C31.2350856,69.467289 31.5840856,68.568289 32.4860856,68.503289 C33.5240856,68.428289 33.6930856,69.342289 34.2250856,70.068289 C34.9950856,71.120289 35.2020856,70.560289 36.2530856,70.870289 C37.0870856,71.116289 37.1400856,71.727289 38.0970856,71.843289 C38.9440856,71.947289 39.8620856,71.664289 40.6940856,71.869289 C42.1330856,72.223289 41.5760856,72.676289 41.8390856,73.737289 C41.9830856,74.312289 42.9580856,75.559289 43.5190856,75.587289 C44.9830856,75.663289 46.0990856,72.785289 46.0990856,71.598289 C46.0990856,71.568289 46.0960856,71.542289 46.0950856,71.512289 C46.7320856,71.450289 47.3510856,71.294289 47.9400856,71.110289 C48.6420856,70.893289 49.3210856,70.646289 50.0050856,70.484289 C48.3690856,72.299289 52.3360856,72.875289 50.7680856,74.411289 C49.5320856,75.621289 46.7260856,76.782289 47.5670856,78.876289 C47.8370856,79.545289 48.7200856,80.136289 49.1450856,80.753289 C49.5170856,81.292289 49.6000856,82.057289 49.9520856,82.536289 C50.4240856,83.180289 51.4620856,83.343289 52.1940856,83.466289 C53.4140856,83.670289 54.0670856,83.743289 55.2440856,84.217289 C56.0760856,84.554289 57.1310856,84.704289 57.7330856,85.427289 C58.3200856,86.132289 58.4320856,87.241289 58.9860856,87.995289 C60.4300856,89.959289 63.0320856,89.333289 64.8700856,88.278289 C65.4760856,87.930289 66.0390856,87.491289 66.6130856,87.137289 C66.6110856,87.274289 66.6090856,87.412289 66.6060856,87.549289 C66.5890856,88.302289 66.5560856,89.067289 66.5630856,89.853289 C66.5680856,90.630289 66.6010856,91.387289 66.5830856,92.111289 C66.5810856,92.202289 66.5740856,92.290289 66.5700856,92.379289 C66.5280856,92.505289 66.4870856,92.631289 66.4390856,92.754289 C66.3170856,93.095289 66.1740856,93.428289 66.0250856,93.758289 C65.4300856,95.059289 64.6090856,96.271289 63.7260856,97.486289 C63.4300856,97.755289 63.1260856,98.031289 62.8220856,98.319289 C62.7040856,98.355289 62.5890856,98.388289 62.4670856,98.429289 C62.0110856,98.584289 61.5140856,98.792289 61.0400856,99.119289 C60.6180856,99.417289 60.1510856,99.815289 59.8270856,100.395289 C59.7250856,100.577289 59.6450856,100.767289 59.5810856,100.956289 C59.5810856,100.956289 59.5790856,100.957289 59.5780856,100.958289 L59.3600856,101.075289 C59.2160856,101.155289 59.0670856,101.231289 58.9410856,101.334289 C58.3960856,101.709289 57.9780856,102.209289 57.6610856,102.735289 C57.3410856,103.263289 57.1170856,103.828289 56.9850856,104.403289 C56.8820856,104.845289 56.8170856,105.295289 56.8040856,105.750289 C56.6560856,105.252289 56.5840856,104.706289 56.5760856,104.132289 C56.5460856,102.868289 56.7500856,101.530289 56.8630856,100.149289 C56.9210856,99.458289 56.9580856,98.747289 56.9160856,98.016289 C56.8770856,97.290289 56.7480856,96.530289 56.4300856,95.809289 C56.3590856,95.626289 56.2520856,95.458289 56.1610856,95.283289 C56.0480856,95.123289 55.9450856,94.942289 55.8210856,94.802289 C55.5880856,94.501289 55.3160856,94.228289 55.0260856,93.981289 C54.4430856,93.486289 53.7570856,93.131289 53.0550856,92.893289 C51.6350856,92.432289 50.1700856,92.427289 48.7780856,92.590289 C47.3790856,92.764289 46.0280856,93.116289 44.7190856,93.569289 C44.0650856,93.798289 43.4220856,94.051289 42.7880856,94.337289 C42.1530856,94.623289 41.5280856,94.964289 40.9460856,95.349289 C40.6530856,95.542289 40.3740856,95.739289 40.0920856,95.947289 C39.8030856,96.161289 39.5340856,96.397289 39.2810856,96.640289 C38.7750856,97.126289 38.3320856,97.637289 37.8500856,98.079289 C37.3770856,98.522289 36.8310856,98.887289 36.2590856,99.220289 C36.1460856,99.286289 36.0300856,99.347289 35.9140856,99.409289 C35.3770856,98.867289 34.4450856,99.061289 33.6480856,99.064289 C32.3970856,99.070289 31.1410856,99.092289 29.8910856,99.069289 C27.9670856,99.033289 28.0230856,98.353289 27.3090856,96.820289 C26.6980856,95.508289 26.7100856,94.535289 25.2020856,94.129289 C24.8270856,94.029289 23.9740856,94.030289 23.6480856,93.806289 C23.1320856,93.451289 23.3150856,93.000289 22.9770856,92.597289 C22.5660856,92.108289 22.0950856,92.261289 21.6610856,91.940289 C21.1650856,91.572289 20.9350856,90.860289 20.5630856,90.361289 C19.3810856,88.776289 17.4970856,89.406289 15.7270856,89.164289 C16.3550856,89.606289 16.2960856,92.055289 15.6050856,92.479289 C15.2110856,92.721289 14.1600856,92.523289 13.7420856,92.411289 C13.0050856,92.212289 11.4410856,90.916289 10.6510856,91.567289 C10.1310856,91.995289 10.5710856,92.615289 10.4290856,93.217289 C10.0570856,94.792289 7.64008556,92.867289 8.09108556,95.070289 C8.33108556,96.237289 9.66308556,97.801289 10.7810856,98.077289 C11.1610856,96.784289 10.1080856,94.288289 11.7960856,93.868289 C14.0570856,93.306289 15.9480856,95.244289 17.7010856,96.206289 C18.8090856,96.814289 20.8890856,97.163289 21.2370856,98.584289 C21.7140856,100.532289 20.0670856,101.660289 18.6590856,100.242289 C18.0990856,99.677289 18.1290856,98.889289 17.6650856,98.384289 C17.2360856,97.917289 15.4200856,97.860289 15.1130856,98.561289 C14.8670856,99.126289 16.0720856,100.197289 16.3910856,100.601289 C16.9770856,101.346289 17.0080856,101.418289 16.9870856,102.457289 C16.9820856,102.746289 16.9750856,103.064289 16.9310856,103.370289 C16.1640856,103.623289 15.4190856,103.940289 14.7270856,104.356289 C14.4730856,104.148289 14.2360856,103.906289 13.8880856,103.794289 C13.1980856,103.574289 12.4270856,103.951289 11.7800856,103.429289 C11.2890856,103.034289 11.3760856,102.489289 10.8850856,102.070289 C9.68008556,103.406289 8.31408556,103.279289 6.65008556,103.290289 C5.78208556,103.295289 4.98408556,103.491289 4.40708556,102.725289 C3.79708556,101.916289 4.19508556,101.217289 2.89308556,100.909289 C2.31808556,100.773289 0.740085556,100.795289 0.332085556,101.195289 C-0.307914444,101.821289 0.0780855559,102.690289 0.640085556,103.172289 C1.23208556,103.679289 2.01708556,104.030289 2.64708556,104.516289 C3.10508556,104.870289 3.78608556,105.586289 4.42308556,105.675289 C4.70908556,106.332289 5.35508556,106.861289 5.92908556,107.045289 C7.20508556,107.455289 8.58608556,107.746289 9.85508556,108.278289 C9.93208556,107.974289 10.0670856,107.667289 10.1890856,107.355289 C10.0890856,108.969289 10.7930856,110.093289 11.7910856,110.355289 C13.2830856,110.747289 14.6270856,109.700289 15.8060856,111.054289 C16.4320856,111.774289 16.7040856,112.833289 17.6850856,113.135289 C18.3400856,113.337289 19.4730856,113.149289 20.1510856,113.150289 C21.4240856,113.150289 23.2850856,112.792289 24.5160856,113.126289 C25.6610856,113.438289 26.5200856,114.605289 27.7780856,114.921289 C29.3460856,115.316289 30.8900856,114.520289 32.4960856,114.558289 C33.2580856,114.576289 33.9490856,114.565289 34.6030856,114.106289 C34.9880856,113.836289 35.2530856,113.184289 35.7110856,113.092289 C37.0750856,112.817289 38.3920856,114.362289 39.9680856,114.069289 C41.1230856,113.854289 43.6390856,112.314289 43.1870856,110.907289 C42.7710856,109.614289 41.2270856,109.423289 40.2570856,108.871289 C39.0200856,108.167289 40.0160856,106.912289 39.2630856,106.142289 C39.2110856,106.089289 39.1380856,106.048289 39.0570856,106.012289 C39.1250856,105.968289 39.1940856,105.928289 39.2600856,105.880289 C39.8210856,105.491289 40.2460856,104.908289 40.5550856,104.333289 C40.8770856,103.752289 41.1400856,103.152289 41.3950856,102.554289 L41.7750856,101.664289 C41.9070856,101.360289 42.0250856,101.035289 42.1180856,100.720289 C42.4970856,99.460289 42.7220856,98.178289 43.2260856,97.048289 C43.4790856,96.498289 43.8020856,95.969289 44.2530856,95.686289 C44.4680856,95.540289 44.7410856,95.448289 45.0260856,95.382289 C45.3090856,95.313289 45.6140856,95.284289 45.9190856,95.262289 C47.1490856,95.194289 48.4420856,95.383289 49.7310856,95.460289 C50.9640856,95.559289 52.1140856,95.954289 52.9750856,96.755289 C53.4030856,97.157289 53.8040856,97.619289 53.9520856,98.083289 C54.1260856,98.537289 54.0250856,99.055289 53.8750856,99.673289 C53.7170856,100.289289 53.5460856,100.988289 53.5330856,101.711289 L53.5210856,102.193289 L53.4950856,102.659289 L53.4210856,103.616289 C53.3680856,104.263289 53.3140856,104.925289 53.3210856,105.615289 C53.3230856,105.959289 53.3410856,106.311289 53.3950856,106.671289 C53.4160856,106.851289 53.4570856,107.034289 53.4970856,107.216289 C53.5470856,107.398289 53.5990856,107.591289 53.6680856,107.756289 C54.1810856,109.143289 55.1880856,110.255289 56.3140856,111.080289 C56.8820856,111.493289 57.4880856,111.842289 58.1170856,112.137289 C58.4380856,112.284289 58.7470856,112.414289 59.0590856,112.534289 C59.3740856,112.656289 59.6940856,112.774289 60.0260856,112.876289 C60.5510856,113.042289 61.1020856,113.167289 61.6520856,113.247289 C62.1970856,113.816289 62.8060856,114.300289 63.4510856,114.704289 C64.1670856,115.150289 64.9110856,115.504289 65.6470856,115.812289 L66.1990856,116.035289 C66.3890856,116.110289 66.6150856,116.189289 66.8240856,116.252289 C67.2500856,116.379289 67.6730856,116.466289 68.0710856,116.535289 C68.4690856,116.603289 68.8390856,116.657289 69.1810856,116.720289 C69.3490856,116.753289 69.5150856,116.787289 69.6700856,116.828289 C69.7490856,116.846289 69.8240856,116.869289 69.9000856,116.890289 L69.9550856,116.906289 L69.9750856,116.915289 C69.9850856,116.917289 70.0160856,116.932289 70.0370856,116.940289 C70.2510856,117.034289 70.5650856,117.222289 70.8660856,117.412289 L71.3450856,117.716289 C71.5050856,117.820289 71.7160856,117.945289 71.8770856,118.036289 L73.8700856,119.154289 C74.5080856,119.519289 75.1100856,119.894289 75.6550856,120.304289 C75.9230856,120.511289 76.1820856,120.724289 76.4190856,120.950289 C76.5420856,121.068289 76.6380856,121.166289 76.7750856,121.307289 L77.1780856,121.725289 C78.2580856,122.836289 79.3080856,123.865289 80.1680856,124.976289 C80.5990856,125.531289 80.9950856,126.117289 81.3460856,126.714289 C81.6950856,127.316289 82.0100856,127.953289 82.2970856,128.609289 C82.8720856,129.926289 83.3350856,131.311289 83.7550856,132.742289 C84.1990856,134.237289 84.6930856,135.687289 85.1280856,137.109289 C85.1310856,137.117289 85.1330856,137.126289 85.1360856,137.134289 L85.0560856,143.229289 L85.0300856,145.483289 C85.0380856,146.249289 85.0960856,147.000289 85.1750856,147.719289 L85.1330856,147.941289 C85.1040856,148.109289 85.0720856,148.278289 85.0480856,148.444289 C84.9960856,148.789289 84.9560856,149.129289 84.9250856,149.466289 C84.8700856,149.642289 84.8150856,149.818289 84.7600856,149.994289 C83.8350856,152.929289 82.8800856,164.882289 82.3380856,168.094289 L84.9520856,168.094289 C84.8560856,171.003289 84.8570856,165.382289 84.8200856,168.094289 L88.5760856,168.094289 C88.5570856,167.190289 88.5270856,169.902289 88.5060856,168.094289 L88.7620856,168.094289 C89.0140856,168.998289 89.3930856,167.667289 89.8810856,168.094289 L90.9630856,168.094289 C90.9740856,168.140289 90.9860856,168.050289 90.9950856,168.094289 C91.0650856,168.440289 91.0890856,167.793289 91.0810856,168.094289 L94.8360856,168.094289 C94.8440856,167.473289 94.7640856,168.647289 94.6360856,168.094289 C94.6270856,168.055289 94.6180856,168.094289 94.6090856,168.094289 L96.7140856,168.094289 C96.5720856,160.863289 97.0460856,149.004289 97.9510856,141.872289 L97.9510856,141.782289 C98.8550856,140.437289 99.0270856,139.065289 99.6130856,137.680289 C99.7590856,137.329289 99.9800856,136.976289 100.127086,136.595289 C100.279086,136.219289 100.447086,135.831289 100.568086,135.457289 C100.810086,134.708289 101.022086,133.966289 101.228086,133.275289 C101.633086,131.886289 102.152086,130.710289 103.122086,129.858289 L103.987086,129.147289 C104.300086,128.864289 104.605086,128.565289 104.868086,128.238289 C105.408086,127.592289 105.817086,126.879289 106.170086,126.187289 C106.524086,125.492289 106.825086,124.812289 107.153086,124.163289 C107.315086,123.836289 107.486086,123.522289 107.663086,123.211289 C107.835086,122.914289 108.020086,122.634289 108.229086,122.381289 C108.436086,122.126289 108.668086,121.898289 108.928086,121.683289 C109.058086,121.576289 109.195086,121.472289 109.337086,121.372289 L109.554086,121.222289 L109.750086,121.099289 C110.011086,120.955289 110.268086,120.862289 110.582086,120.824289 C110.892086,120.778289 111.268086,120.784289 111.677086,120.746289 C111.880086,120.730289 112.091086,120.699289 112.298086,120.658289 C112.411086,120.630289 112.487086,120.621289 112.633086,120.575289 C112.764086,120.533289 112.896086,120.473289 113.009086,120.403289 C113.237086,120.261289 113.389086,120.108289 113.498086,120.026289 C113.545086,119.989289 113.587086,119.961289 113.627086,119.938289 C114.448086,119.872289 115.241086,119.648289 115.966086,119.321289 C116.695086,118.995289 117.366086,118.577289 117.989086,118.115289 C118.301086,117.884289 118.603086,117.643289 118.895086,117.393289 L119.330086,117.016289 C119.471086,116.879289 119.622086,116.750289 119.754086,116.608289 C120.228086,116.127289 120.640086,115.618289 121.074086,115.155289 C121.224086,115.251289 121.393086,115.336289 121.462086,115.476289 C122.036086,116.624289 121.133086,117.387289 121.230086,118.543289 C121.330086,119.740289 122.177086,119.415289 123.114086,119.709289 C123.990086,119.985289 124.152086,120.399289 125.265086,119.927289 C126.576086,119.373289 127.693086,117.965289 128.651086,117.000289 C128.767086,116.882289 128.887086,116.766289 129.007086,116.649289 C129.067086,116.851289 129.130086,117.052289 129.213086,117.248289 C129.359086,117.599289 129.587086,117.921289 129.895086,118.143289 C129.599086,117.905289 129.392086,117.578289 129.268086,117.226289 C129.190086,117.014289 129.136086,116.795289 129.084086,116.575289 C129.177086,116.483289 129.271086,116.391289 129.365086,116.298289 C129.546086,116.492289 129.725086,116.687289 129.895086,116.891289 C129.736086,116.678289 129.567086,116.472289 129.394086,116.270289 C129.886086,115.782289 130.361086,115.269289 130.677086,114.661289 C130.425086,116.292289 129.748086,117.584289 130.583086,119.167289 C131.561086,121.019289 133.373086,120.834289 135.228086,121.258289 C136.548086,121.560289 137.798086,121.614289 139.054086,121.965289 C140.762086,122.445289 142.597086,121.791289 144.124086,121.027289 C144.786086,120.696289 146.206086,119.376289 146.971086,119.632289 C147.716086,119.882289 147.394086,120.367289 147.914086,120.922289 C148.923086,122.002289 150.903086,121.519289 152.209086,121.590289 C153.225086,121.645289 153.947086,122.157289 155.016086,122.091289 C156.453086,122.004289 156.693086,121.183289 157.705086,120.709289 C158.376086,122.212289 160.461086,122.196289 161.610086,121.387289 C162.921086,120.463289 161.036086,117.730289 159.746086,117.775289 Z" fill="#313934"></path>
    </g>
</svg>