<?xml version="1.0" encoding="UTF-8"?>
<svg width="155px" height="164px" viewBox="0 0 155 164" version="1.1" xmlns="http://www.w3.org/2000/svg" xmlns:xlink="http://www.w3.org/1999/xlink">
    <!-- Generator: Sketch 51.3 (57544) - http://www.bohemiancoding.com/sketch -->
    <title>Fill 5 Copy</title>
    <desc>Created with Sketch.</desc>
    <defs></defs>
    <g id="tree" stroke="none" stroke-width="1" fill="none" fill-rule="evenodd">
        <path d="M108.388695,116.291895 C108.383695,116.192895 108.374695,116.093895 108.377695,115.993895 C108.399695,116.092895 108.399695,116.192895 108.388695,116.291895 Z M106.765695,113.905895 C106.254695,114.119895 105.747695,114.394895 105.283695,114.736895 C104.861695,115.053895 104.495695,115.349895 104.099695,115.656895 L101.762695,117.484895 L99.4256951,119.313895 L98.2666951,120.219895 C97.9036951,120.497895 97.5246951,120.763895 97.1326951,121.019895 C96.7416951,121.275895 96.3376951,121.523895 95.9266951,121.766895 L95.3026951,122.126895 L95.0096951,122.289895 L94.7146951,122.440895 C94.3076951,122.642895 93.8496951,122.846895 93.3626951,123.101895 C93.1186951,123.230895 92.8676951,123.372895 92.6126951,123.538895 C92.3346951,123.723895 92.1576951,123.858895 91.9506951,124.005895 C91.9286951,124.020895 91.9076951,124.037895 91.8866951,124.052895 C91.9486951,123.982895 92.0106951,123.909895 92.0736951,123.842895 L92.3446951,123.560895 L92.6536951,123.255895 C92.9096951,123.008895 93.1346951,122.753895 93.3546951,122.498895 C94.2136951,121.475895 94.8566951,120.445895 95.5056951,119.540895 C95.6676951,119.317895 95.8286951,119.096895 95.9906951,118.892895 L96.2696951,118.540895 C96.3716951,118.413895 96.4676951,118.283895 96.5656951,118.154895 C96.9496951,117.634895 97.3016951,117.097895 97.6226951,116.557895 C98.2666951,115.470895 98.7916951,114.404895 99.3306951,113.357895 C99.7406951,112.552895 100.138695,111.736895 100.527695,110.914895 C101.213695,110.566895 101.879695,110.082895 102.509695,110.342895 C102.957695,110.527895 103.223695,111.124895 103.689695,111.341895 C104.077695,111.521895 104.385695,111.502895 104.800695,111.501895 C105.797695,111.498895 106.551695,111.615895 107.144695,112.514895 C107.354695,112.831895 107.527695,113.194895 107.676695,113.577895 C107.374695,113.671895 107.070695,113.777895 106.765695,113.905895 Z M21.9996951,110.584895 C21.7766951,110.725895 20.6546951,110.559895 20.4136951,110.560895 C20.0106951,110.564895 19.5406951,110.636895 19.1486951,110.499895 C18.4326951,110.250895 17.8796951,109.593895 17.5906951,108.979895 C17.2406951,108.237895 17.2266951,108.040895 16.3436951,108.059895 C15.7066951,108.072895 14.5706951,107.809895 14.0596951,108.253895 C13.7746951,107.900895 13.8956951,107.517895 13.5506951,107.182895 C13.3796951,107.016895 12.8226951,106.828895 12.5886951,106.790895 C12.5546951,106.785895 12.5166951,106.780895 12.4766951,106.775895 C12.5236951,106.393895 12.5666951,106.014895 12.8086951,105.774895 C13.2506951,105.340895 14.2016951,105.550895 14.7796951,105.553895 C15.0436951,105.555895 15.4766951,105.649895 15.7336951,105.568895 C16.0716951,105.462895 16.1296951,105.091895 16.4136951,104.983895 C16.9746951,104.773895 16.7776951,105.153895 17.1546951,105.371895 C17.5296951,105.587895 17.7626951,105.540895 18.2066951,105.552895 C19.4316951,105.585895 19.7886951,105.422895 20.7336951,106.188895 C21.6166951,106.904895 21.8376951,106.946895 22.0546951,108.128895 C22.1846951,108.835895 22.6906951,110.148895 21.9996951,110.584895 Z M9.45769514,100.756895 C9.44269514,100.682895 9.44569514,100.614895 9.45769514,100.549895 C9.46569514,100.626895 9.46669514,100.697895 9.45769514,100.756895 Z M32.3866951,35.5658945 C32.6286951,34.3938945 33.5116951,33.2228945 34.3436951,32.4588945 C34.9096951,31.9388945 36.1406951,31.7548945 36.6676951,32.4878945 C37.0066951,32.0778945 39.3406951,32.1448945 39.8126951,32.2558945 C39.9096951,32.2788945 40.0016951,32.3118945 40.0906951,32.3528945 C39.8126951,33.0018945 39.6246951,33.7038945 40.3016951,34.0458945 C40.7446951,34.2698945 41.2386951,34.3238945 41.7516951,34.3098945 C42.1626951,34.9198945 42.6136951,35.4478945 43.2796951,35.5268945 C43.4916951,35.0578945 43.6706951,34.5828945 43.8606951,34.1248945 C44.5606951,34.0988945 45.2256951,34.1908945 45.7796951,34.6548945 C46.0576951,34.8868945 46.2666951,35.1808945 46.5356951,35.4078945 C46.6346951,35.7528945 46.7796951,36.0758945 46.9466951,36.3878945 C47.3196951,37.0668945 47.8226951,37.6738945 48.4126951,38.1758945 C48.7886951,38.4998945 49.1946951,38.7848945 49.6156951,39.0428945 C49.4306951,38.9428945 49.2566951,38.8048945 49.0646951,38.7268945 C48.4916951,38.4938945 47.8256951,38.4238945 47.2266951,38.2398945 C46.2386951,37.9348945 46.6226951,38.0638945 45.5386951,38.1878945 C45.0046951,38.2488945 44.4836951,38.1268945 43.9516951,38.1598945 C42.9876951,38.2198945 41.9816951,38.8018945 40.9936951,38.4708945 C40.3786951,38.2648945 40.0926951,37.5718945 39.4886951,37.6738945 C39.2536951,37.8768945 39.0186951,38.0808945 38.7836951,38.2838945 C38.3086951,38.7488945 37.7866951,39.1468945 37.2156951,39.4778945 C36.3596951,39.8458945 36.1416951,39.8878945 35.4516951,39.2428945 C34.7646951,38.6018945 33.9436951,38.2058945 33.2626951,37.5978945 C32.6306951,37.0318945 32.2016951,36.4568945 32.3866951,35.5658945 Z M78.8856951,54.4678945 C78.9756951,54.4768945 79.0486951,54.4838945 79.1106951,54.4888945 C79.6666951,56.1148945 80.8856951,57.5298945 81.1476951,59.2248945 C81.1796951,59.6418945 81.2116951,60.0588945 81.2436951,60.4758945 C81.4076951,61.0398945 81.2456951,61.3828945 80.7606951,61.5028945 C79.4496951,62.7388945 76.7836951,61.2418945 75.8346951,60.2818945 C75.7466951,60.1928945 75.6666951,60.0958945 75.5836951,60.0018945 C75.5906951,59.9748945 75.5986951,59.9488945 75.6056951,59.9208945 C75.7076951,59.5328945 75.8036951,59.1388945 75.8836951,58.7328945 L75.9136951,58.5738945 C75.9296951,58.4918945 75.9376951,58.4108945 75.9416951,58.3358945 C75.9506951,58.1848945 75.9426951,58.0548945 75.9336951,57.9428945 C75.9136951,57.7198945 75.8976951,57.5668945 75.9056951,57.4978945 C75.9056951,57.4888945 75.9116951,57.4518945 75.9186951,57.4138945 L75.9416951,57.3028945 C75.9586951,57.2288945 75.9816951,57.1498945 76.0076951,57.0618945 C76.0586951,56.8908945 76.1326951,56.6658945 76.1786951,56.4158945 C76.2006951,56.2918945 76.2166951,56.1638945 76.2246951,56.0378945 L76.2386951,55.8558945 L76.2476951,55.7098945 L76.2476951,55.1138945 C76.2476951,54.8448945 76.2246951,54.5678945 76.2026951,54.2878945 C77.0976951,54.3268945 77.9756951,54.3788945 78.8856951,54.4678945 Z M79.2866951,42.2958945 C80.2776951,42.3308945 80.7066951,43.1758945 81.3626951,43.5508945 C81.3926951,43.4728945 81.0776951,43.3998945 81.1196951,43.3318945 C81.1096951,44.0788945 80.7666951,44.8188945 80.7666951,45.5508945 L80.7666951,46.1398945 L81.1186951,46.4348945 L81.3026951,46.7548945 C81.3036951,46.9698945 81.4106951,47.1808945 81.4336951,47.3928945 C81.4496951,47.6058945 81.5296951,47.8138945 81.5646951,48.0218945 C81.7106951,48.8668945 81.9796951,49.6698945 82.2726951,50.4438945 C82.1416951,50.4478945 82.0206951,50.4508945 81.8896951,50.4548945 C81.7556951,50.2448945 81.6296951,50.0318945 81.5106951,49.8108945 C81.2486951,49.3298945 80.9826951,48.8158945 80.8846951,48.2708945 C80.7986951,47.7918945 80.9076951,47.4558945 80.7186951,47.0288945 C80.4276951,46.3718945 79.4256951,46.1878945 79.2246951,45.4398945 C79.0096951,44.6428945 79.1376951,43.1188945 79.2866951,42.2958945 Z M84.3276951,42.3018945 C85.2596951,42.2558945 85.7816951,42.2388945 86.2376951,43.1098945 C86.5276951,43.6638945 86.4326951,44.3588945 87.0316951,44.7198945 C87.4616951,44.9788945 88.1206951,44.9258945 88.5856951,45.1138945 C88.7826951,45.1928945 88.9566951,45.2838945 89.1186951,45.3798945 C88.9836951,45.9968945 88.8356951,46.6128945 88.6786951,47.2288945 C88.4986951,47.9218945 88.3076951,48.6118945 88.1056951,49.2998945 C87.9496951,49.8278945 87.8176951,50.3578945 87.6906951,50.8848945 C86.7676951,50.6408945 85.8356951,50.4388945 84.8606951,50.4238945 C84.4866951,50.4178945 84.1106951,50.4168945 83.7336951,50.4188945 C83.3486951,49.5538945 83.0226951,48.6848945 82.8396951,47.7908945 C82.8026951,47.6108945 82.7646951,47.4288945 82.7456951,47.2468945 C82.7196951,47.0648945 82.6966951,46.8828945 82.6916951,46.7008945 L82.6746951,46.4268945 L82.6666951,46.1278945 L82.6476951,45.5278945 C82.6196951,44.7308945 82.5816951,43.9438945 82.5696951,43.1638945 C82.5666951,42.9608945 82.5716951,42.7608945 82.5726951,42.5598945 C83.1486951,42.3738945 83.8086951,42.3278945 84.3276951,42.3018945 Z M104.946695,19.1288945 C105.663695,19.1718945 106.443695,19.8158945 107.066695,19.7628945 C107.539695,18.3668945 109.221695,18.7998945 110.303695,19.0838945 C110.789695,19.2118945 111.476695,19.0378945 111.863695,19.4498945 C112.201695,19.8088945 112.143695,20.3178945 112.424695,20.7258945 C112.929695,21.4618945 113.098695,21.2188945 112.854695,22.1738945 C112.667695,22.9058945 112.316695,23.6328945 112.180695,24.3738945 C112.137695,24.6088945 112.160695,24.8268945 112.235695,25.0258945 C110.970695,24.8938945 109.484695,24.7398945 108.216695,24.9498945 C107.923695,24.6958945 107.606695,24.5628945 107.275695,24.3218945 C106.387695,23.6758945 107.258695,23.4218945 107.059695,22.6638945 C106.242695,22.5038945 105.258695,22.4328945 104.783695,21.6758945 C104.369695,21.0148945 104.408695,19.7188945 104.946695,19.1288945 Z M122.759695,48.9958945 C121.961695,49.3258945 121.172695,49.6798945 120.398695,50.0718945 C119.191695,50.6948945 118.024695,51.4028945 116.944695,52.2468945 C116.678695,52.4658945 116.408695,52.6628945 116.152695,52.9428945 C115.908695,53.2148945 115.719695,53.5108945 115.529695,53.7788945 C115.504695,53.8138945 115.479695,53.8478945 115.455695,53.8818945 C115.174695,53.6898945 114.845695,53.5318945 114.430695,53.4268945 C113.534695,53.2118945 112.640695,53.2068945 111.749695,53.4118945 C111.157695,53.2108945 110.581695,52.9688945 110.024695,52.6848945 C109.355695,52.2898945 108.634695,52.0758945 107.863695,52.0358945 C108.107695,50.9958945 108.715695,50.0418945 109.426695,49.1858945 C109.588695,48.9908945 109.758695,48.8008945 109.930695,48.6118945 C110.343695,48.9828945 110.679695,48.8898945 111.190695,48.8958945 C111.602695,48.9008945 112.031695,48.9288945 112.442695,48.9038945 C112.874695,48.8778945 113.292695,48.5708945 113.702695,48.6308945 C114.443695,48.7418945 114.715695,49.7038945 115.572695,49.8498945 C116.584695,50.0228945 117.218695,49.3818945 117.694695,48.5838945 C117.904695,48.2308945 118.098695,47.9028945 118.321695,47.5688945 C118.661695,47.0588945 118.308695,47.1138945 119.010695,47.0128945 C119.903695,46.8838945 120.427695,47.0048945 121.018695,46.2638945 C121.098695,46.3068945 121.177695,46.3528945 121.253695,46.4058945 C122.053695,46.9538945 122.245695,48.1958945 122.759695,48.9958945 Z M128.493695,60.5318945 C128.718695,61.8588945 127.761695,61.9008945 126.919695,62.7868945 C126.564695,63.3978945 126.018695,63.5518945 125.282695,63.2478945 C124.044695,62.1548945 122.894695,60.9768945 121.829695,59.7168945 C121.844695,59.7108945 121.859695,59.7068945 121.874695,59.7018945 C122.163695,59.6038945 122.463695,59.5098945 122.772695,59.5398945 C122.464695,59.4968945 122.156695,59.5788945 121.863695,59.6638945 C121.841695,59.6708945 121.820695,59.6758945 121.799695,59.6828945 C121.756695,59.6318945 121.711695,59.5828945 121.669695,59.5328945 C121.141695,58.8198945 120.526695,58.1938945 119.825695,57.6528945 C119.066695,57.3228945 118.379695,56.8868945 117.764695,56.3438945 C116.930695,55.6788945 116.535695,54.8628945 115.892695,54.2388945 C115.926695,54.1898945 115.959695,54.1408945 115.991695,54.0918945 C116.179695,53.8018945 116.346695,53.5208945 116.544695,53.2828945 C116.733695,53.0538945 117.000695,52.8358945 117.247695,52.6178945 C118.262695,51.7598945 119.385695,51.0158945 120.551695,50.3568945 C121.312695,49.9328945 122.096695,49.5448945 122.892695,49.1808945 C123.579695,50.0878945 124.607695,50.7488945 125.255695,51.6508945 C125.973695,52.9298945 126.271695,54.3138945 126.151695,55.8028945 C125.781695,56.6858945 125.891695,57.3378945 126.480695,57.7588945 C126.775695,58.0598945 127.136695,58.2628945 127.561695,58.3658945 C128.111695,58.9798945 128.422695,59.7028945 128.493695,60.5318945 Z M47.0136951,35.6878945 C47.6776951,35.9098945 48.2566951,35.6338945 48.9146951,35.9768945 C49.4546951,36.2588945 49.6956951,36.5838945 50.3946951,36.3118945 C50.5436951,36.2538945 50.7016951,36.1478945 50.8566951,36.0178945 C51.0606951,36.3648945 51.2956951,36.3738945 51.7396951,36.5338945 C52.6866951,36.8728945 53.6426951,37.3678945 54.1836951,38.2548945 C54.6556951,39.0318945 54.7576951,39.4908945 54.1826951,40.1848945 C54.0986951,40.2858945 54.0056951,40.3798945 53.9106951,40.4708945 C53.4156951,40.2508945 52.9186951,40.0488945 52.4236951,39.8478945 C52.1086951,39.5778945 51.7826951,39.3228945 51.3896951,39.2158945 C51.2036951,39.1648945 51.0166951,39.1618945 50.8306951,39.1698945 C50.7356951,39.1248945 50.6386951,39.0818945 50.5436951,39.0358945 C49.2126951,38.3978945 47.9666951,37.5118945 47.2186951,36.2328945 C47.1086951,36.0448945 47.0086951,35.8488945 46.9216951,35.6488945 C46.9526951,35.6618945 46.9806951,35.6768945 47.0136951,35.6878945 Z M74.8226951,55.1028945 L74.8026951,55.6778945 L74.7976951,55.8248945 L74.7896951,55.9348945 C74.7836951,56.0038945 74.7726951,56.0698945 74.7586951,56.1368945 C74.7376951,56.2458945 74.6886951,56.3828945 74.6346951,56.5408945 C74.5736951,56.4028945 74.5106951,56.2668945 74.4426951,56.1368945 C74.1706951,55.6168945 73.8726951,55.1598945 73.6046951,54.7208945 C73.6276951,54.4728945 73.6676951,54.2598945 73.6926951,54.0498945 C73.9446951,54.1768945 74.1556951,54.2188945 74.6606951,54.2328945 C74.7096951,54.2338945 74.7586951,54.2358945 74.8076951,54.2378945 C74.8256951,54.5178945 74.8296951,54.8048945 74.8226951,55.1028945 Z M80.7586951,98.5208945 C80.3646951,101.512895 80.3246951,104.438895 80.0586951,107.226895 C80.0276951,107.575895 79.9896951,107.920895 79.9506951,108.266895 L79.8226951,109.318895 L79.4376951,112.574895 C79.3526951,112.833895 79.2656951,113.093895 79.1776951,113.357895 C78.9676951,113.984895 78.7556951,114.619895 78.5506951,115.267895 L78.4066951,115.713895 C78.3636951,115.850895 78.3076951,115.994895 78.2586951,116.134895 C78.1516951,116.420895 78.0386951,116.710895 77.9176951,117.012895 C77.5876951,117.851895 77.2026951,118.754895 76.9096951,119.769895 L76.5766951,118.180895 L76.3436951,117.051895 C76.2856951,116.713895 76.2416951,116.351895 76.2016951,115.966895 C76.1206951,115.203895 76.0516951,114.335895 75.8746951,113.432895 C75.6016951,112.055895 75.5546951,110.546895 75.5516951,108.971895 C75.5496951,108.184895 75.5566951,107.375895 75.5446951,106.549895 L75.4866951,102.944895 C75.4806951,102.506895 75.4546951,102.058895 75.4166951,101.636895 C75.3426951,100.785895 75.2286951,99.9908945 75.1616951,99.2448945 C75.1446951,99.0578945 75.1296951,98.8728945 75.1186951,98.6918945 L74.8296951,98.0658945 C74.7966951,97.6318945 74.4396951,97.2058945 74.4396951,96.7828945 C74.4396951,96.7828945 74.4396951,96.7828945 74.4396951,96.7818945 L75.7646951,92.7198945 C76.1316951,92.6108945 76.6946951,92.6318945 77.2736951,92.8238945 C77.9386951,93.0428945 78.8186951,94.0148945 79.5176951,93.9328945 C80.0456951,93.8708945 80.1716951,93.2568945 80.7716951,93.5748945 C80.9466951,93.6678945 81.1746951,93.8888945 81.3856951,94.1638945 C81.1536951,95.6128945 80.9546951,97.0648945 80.7586951,98.5208945 Z M96.2356951,50.5668945 C96.2816951,50.6178945 96.3306951,50.6768945 96.3826951,50.7398945 C95.5476951,50.9698945 94.6636951,51.2558945 93.7716951,51.4638945 C93.8486951,51.3258945 93.9276951,51.1888945 94.0096951,51.0518945 L95.0246951,49.3508945 L95.4416951,48.6528945 C95.6176951,49.3588945 95.7876951,50.0748945 96.2356951,50.5668945 Z M107.213695,52.0418945 C107.199695,52.0438945 107.184695,52.0428945 107.169695,52.0438945 C106.643695,52.3408945 106.119695,52.3758945 105.596695,52.1488945 C104.957695,51.9028945 104.259695,51.3898945 103.650695,50.9908945 C103.963695,50.8528945 104.235695,50.6758945 104.387695,50.4398945 C104.830695,49.7508945 104.760695,48.8058945 105.112695,48.1058945 C105.325695,47.6838945 105.741695,47.3928945 105.947695,46.9648945 C106.016695,46.8228945 106.059695,46.6818945 106.100695,46.5428945 C106.259695,46.6328945 106.458695,46.7078945 106.723695,46.7968945 C107.481695,47.0488945 108.908695,46.7548945 109.319695,47.3098945 C109.504695,47.5588945 109.538695,47.9088945 109.666695,48.2188945 C109.458695,48.4288945 109.253695,48.6428945 109.054695,48.8648945 C108.252695,49.7578945 107.515695,50.8028945 107.213695,52.0418945 Z M57.7186951,48.4428945 C57.3506951,48.6638945 57.0046951,48.7508945 56.6806951,48.6968945 C56.7256951,48.4468945 56.7246951,48.2498945 56.7116951,48.0438945 C57.0466951,48.1768945 57.3816951,48.3098945 57.7186951,48.4428945 Z M97.9466951,104.026895 C97.9686951,103.979895 97.9906951,103.934895 98.0176951,103.890895 C98.0466951,103.907895 98.0736951,103.929895 98.1016951,103.949895 C98.0756951,104.013895 98.0506951,104.077895 98.0246951,104.141895 L97.8536951,104.558895 C97.8836951,104.380895 97.9156951,104.203895 97.9466951,104.026895 Z M64.7796951,80.5158945 C65.7696951,80.6718945 66.5816951,80.8568945 67.6186951,80.8288945 C67.7876951,80.8238945 67.9626951,80.8058945 68.1356951,80.7898945 C68.1296951,81.0998945 68.1236951,81.4108945 68.1236951,81.7258945 C68.1216951,82.5018945 68.1476951,83.2908945 68.2206951,84.0888945 C68.2366951,84.2888945 68.2646951,84.4898945 68.2856951,84.6888945 L68.3686951,85.2708945 C68.4166951,85.6038945 68.4486951,85.9558945 68.4776951,86.3228945 C68.5076951,86.6908945 68.5356951,87.0758945 68.5776951,87.4768945 C68.5986951,87.6778945 68.6226951,87.8818945 68.6546951,88.0898945 C68.6846951,88.2998945 68.7266951,88.5138945 68.7596951,88.6908945 C68.8986951,89.4368945 69.0376951,90.1618945 69.1376951,90.8678945 C69.1866951,91.2198945 69.2276951,91.5698945 69.2526951,91.9088945 C69.2766951,92.2368945 69.2826951,92.5848945 69.2886951,92.9668945 C69.2956951,93.3468945 69.3056951,93.7598945 69.3466951,94.1938945 C69.3686951,94.4118945 69.3966951,94.6328945 69.4356951,94.8568945 L69.5336951,95.4268945 L69.7276951,96.5648945 L69.8246951,97.0958945 C69.8556951,97.2658945 69.8816951,97.4338945 69.9056951,97.6018945 C70.0006951,98.2728945 70.0316951,98.9458945 70.0266951,99.6568945 L70.0086951,100.680895 C69.8226951,100.088895 69.6356951,99.4988945 69.4586951,98.9128945 C69.2406951,98.1908945 69.0336951,97.4728945 68.8466951,96.7548945 C68.7546951,96.3958945 68.6666951,96.0378945 68.5846951,95.6788945 L68.3486951,94.5798945 L67.3916951,90.0598945 C67.0556951,88.6328945 66.8776951,87.1138945 66.4396951,85.5048945 C66.3266951,85.0948945 66.2016951,84.7208945 66.0786951,84.3498945 C65.9516951,83.9748945 65.8196951,83.6018945 65.6816951,83.2308945 C65.5426951,82.8598945 65.3976951,82.4908945 65.2466951,82.1248945 L64.8036951,81.0728945 C64.7256951,80.8778945 64.6496951,80.6828945 64.5776951,80.4868945 C64.6386951,80.4948945 64.7046951,80.5038945 64.7796951,80.5158945 Z M90.2436951,101.326895 C89.9276951,102.158895 89.7516951,102.913895 89.5366951,103.532895 C89.4826951,103.686895 89.4276951,103.833895 89.3706951,103.972895 L89.2806951,104.177895 L89.1676951,104.418895 C89.0176951,104.740895 88.8576951,105.060895 88.6936951,105.381895 C88.0356951,106.662895 87.2786951,107.934895 86.5196951,109.250895 C86.1396951,109.909895 85.7596951,110.577895 85.3906951,111.270895 C85.0166951,111.975895 84.6776951,112.679895 84.3526951,113.368895 C84.0276951,114.058895 83.7156951,114.731895 83.3946951,115.381895 C83.3636951,115.445895 83.3306951,115.505895 83.2996951,115.568895 C83.3726951,114.916895 83.4746951,114.243895 83.5846951,113.540895 C83.8466951,111.911895 84.0046951,110.390895 84.3336951,108.961895 C84.6966951,107.434895 85.0526951,105.847895 85.3716951,104.284895 C85.6226951,103.060895 85.8516951,101.832895 86.0696951,100.602895 C86.5086951,100.802895 87.5696951,101.145895 87.6436951,101.151895 C88.1006951,101.213895 88.4446951,101.054895 88.6766951,100.673895 C88.9146951,100.532895 89.1386951,100.569895 89.3466951,100.784895 C89.6586951,100.826895 89.9586951,100.789895 90.2506951,100.675895 C90.3296951,100.715895 90.3946951,100.767895 90.4506951,100.827895 C90.3866951,100.972895 90.3196951,101.131895 90.2436951,101.326895 Z M91.5026951,106.762895 C91.6336951,106.482895 91.7606951,106.197895 91.8856951,105.911895 C91.7416951,106.492895 91.5736951,107.053895 91.3716951,107.583895 C91.1506951,108.150895 90.8816951,108.769895 90.6126951,109.357895 C90.3406951,109.952895 90.0536951,110.548895 89.7596951,111.147895 L89.6486951,111.372895 L89.5196951,111.644895 C89.4276951,111.851895 89.3506951,112.052895 89.2856951,112.242895 C89.1526951,112.623895 89.0606951,112.956895 88.9676951,113.229895 C88.9216951,113.365895 88.8766951,113.489895 88.8306951,113.595895 C88.7846951,113.702895 88.7416951,113.789895 88.6796951,113.901895 C88.5586951,114.122895 88.3846951,114.389895 88.1876951,114.722895 C88.0906951,114.888895 87.9876951,115.072895 87.8886951,115.276895 L87.6726951,115.708895 C87.5296951,115.989895 87.3846951,116.256895 87.2346951,116.510895 C87.0846951,116.764895 86.9296951,117.004895 86.7646951,117.231895 C86.6806951,117.348895 86.6026951,117.450895 86.5056951,117.569895 L85.9436951,118.244895 C85.9886951,118.148895 86.0316951,118.050895 86.0776951,117.955895 C86.2516951,117.598895 86.4206951,117.238895 86.5806951,116.882895 C86.9016951,116.169895 87.1976951,115.466895 87.4916951,114.784895 C87.7846951,114.100895 88.0766951,113.437895 88.3866951,112.802895 C88.7036951,112.154895 89.0456951,111.500895 89.3946951,110.843895 C90.0936951,109.526895 90.8326951,108.184895 91.5026951,106.762895 Z M71.2606951,84.5298945 C71.2666951,84.7128945 71.2716951,84.8968945 71.2776951,85.0798945 C71.3236951,86.4768945 71.3656951,87.8558945 71.3606951,89.2218945 C71.2866951,88.8778945 71.2106951,88.5388945 71.1366951,88.2058945 C71.0936951,88.0138945 71.0576951,87.8578945 71.0286951,87.6958945 C70.9976951,87.5318945 70.9716951,87.3628945 70.9466951,87.1888945 C70.8976951,86.8418945 70.8586951,86.4748945 70.8146951,86.0928945 C70.7696951,85.7088945 70.7216951,85.3108945 70.6466951,84.8998945 L70.5516951,84.3648945 C70.5266951,84.1898945 70.4966951,84.0178945 70.4766951,83.8418945 C70.4696951,83.7858945 70.4666951,83.7268945 70.4596951,83.6708945 C70.6826951,83.9898945 70.9526951,84.2698945 71.2606951,84.5298945 Z M67.2806951,101.913895 C66.7946951,100.724895 66.1846951,99.6288945 65.5686951,98.5868945 C64.9576951,97.5488945 64.3196951,96.5318945 63.6876951,95.5018945 L62.7396951,93.9628945 C62.5956951,93.7178945 62.3946951,93.4228945 62.1936951,93.1638945 C61.9916951,92.9038945 61.7826951,92.6548945 61.5666951,92.4198945 C60.7046951,91.4808945 59.7736951,90.6878945 58.8906951,89.9038945 C58.6546951,89.6918945 58.4106951,89.4948945 58.2286951,89.3288945 C58.0676951,89.1798945 57.9546951,89.0488945 57.8496951,88.8908945 C58.0426951,88.5468945 58.1266951,88.1368945 58.6026951,87.9928945 C59.4166951,87.7458945 59.2956951,88.2458945 59.6796951,87.1358945 C59.9506951,86.3538945 60.2666951,85.5548945 60.7856951,84.9768945 C60.2586951,84.7698945 59.3506951,84.5068945 59.5376951,83.8138945 C59.7046951,83.1918945 61.5496951,82.3178945 62.1046951,81.9768945 C61.4966951,81.3548945 60.3026951,81.4538945 59.5076951,81.2258945 C58.9426951,81.0628945 58.4836951,80.7108945 57.9166951,80.5598945 C57.4216951,80.4318945 56.9296951,80.4388945 56.4416951,80.5808945 C56.2896951,80.7218945 56.1176951,80.7958945 55.9216951,80.8038945 C55.2806951,80.6198945 55.0176951,79.6398945 55.1086951,78.9848945 C55.2096951,78.2568945 55.3866951,78.1978945 56.0626951,78.0638945 C56.5166951,77.9988945 56.9716951,77.9888945 57.4276951,78.0328945 C57.9646951,78.0108945 58.4476951,77.8398945 58.8776951,77.5218945 C60.0476951,77.0578945 60.5266951,78.0008945 61.5736951,78.2808945 C61.6836951,78.3108945 61.7806951,78.3408945 61.8706951,78.3718945 L61.9446951,78.8768945 C61.9766951,79.0938945 62.0146951,79.3058945 62.0586951,79.5128945 C62.2366951,80.3388945 62.4846951,81.1078945 62.7596951,81.8608945 L63.1716951,82.9418945 C63.3016951,83.2888945 63.4246951,83.6388945 63.5426951,83.9898945 C63.6606951,84.3398945 63.7716951,84.6938945 63.8776951,85.0488945 C63.9846951,85.4078945 64.0886951,85.7658945 64.1676951,86.0968945 C64.4956951,87.4588945 64.6316951,88.9998945 64.9396951,90.5688945 L65.7336951,95.0738945 L65.9416951,96.2298945 C66.0166951,96.6218945 66.0986951,97.0098945 66.1836951,97.3958945 C66.3566951,98.1678945 66.5486951,98.9288945 66.7476951,99.6818945 C66.9756951,100.537895 67.2126951,101.382895 67.4456951,102.219895 C67.4296951,102.218895 67.4126951,102.221895 67.3956951,102.221895 C67.3566951,102.118895 67.3226951,102.014895 67.2806951,101.913895 Z M54.8766951,99.8948945 C54.6586951,99.5148945 54.6486951,99.0418945 54.4246951,98.6658945 C54.0006951,97.9558945 53.3176951,97.8308945 52.6946951,97.4088945 C51.4546951,96.5688945 52.2486951,95.9848945 52.7936951,95.0468945 C53.0306951,94.6418945 52.8016951,93.9758945 53.1396951,93.6858945 C53.3906951,93.4708945 53.7466951,93.7788945 54.0376951,93.6448945 C54.3236951,93.5148945 54.3606951,93.1818945 54.6926951,93.0468945 C55.2496951,92.8218945 55.8516951,93.2478945 56.4166951,92.9858945 C56.4046951,91.6378945 55.7446951,90.5238945 55.1986951,89.3248945 C55.4886951,89.1968945 55.8486951,89.2388945 56.2126951,89.2968945 C56.2596951,89.3978945 56.3096951,89.5048945 56.3766951,89.6348945 C56.5526951,89.9658945 56.8096951,90.2918945 57.0566951,90.5358945 C57.3056951,90.7838945 57.5196951,90.9688945 57.7186951,91.1648945 C58.5846951,92.0028945 59.4376951,92.8028945 60.1536951,93.6578945 C60.3326951,93.8698945 60.4966951,94.0868945 60.6526951,94.3038945 C60.8076951,94.5238945 60.9336951,94.7288945 61.0826951,95.0028945 L61.9456951,96.5528945 C62.5166951,97.5828945 63.1026951,98.6158945 63.6586951,99.6608945 C64.2116951,100.695895 64.7176951,101.717895 65.0896951,102.758895 C65.1266951,102.860895 65.1566951,102.963895 65.1906951,103.066895 C64.5426951,103.338895 63.8656951,103.546895 63.4916951,103.377895 C62.8646951,103.096895 62.7916951,101.506895 62.3696951,100.953895 C61.6676951,100.033895 60.0416951,100.810895 58.9916951,100.836895 C58.6066951,100.136895 58.4476951,99.7228945 57.6076951,99.5938945 C56.6676951,99.4498945 55.7796951,99.9108945 54.8766951,99.8948945 Z M89.8956951,47.5208945 C89.9996951,47.0428945 90.0976951,46.5608945 90.1906951,46.0778945 C90.5296951,46.2688945 90.9066951,46.4058945 91.4286951,46.4108945 C92.2766951,46.4178945 93.6486951,46.1008945 94.4036951,46.6228945 C94.7136951,46.8368945 94.9196951,47.1368945 95.0746951,47.4798945 L93.1156951,50.5138945 C92.8696951,50.8948945 92.6426951,51.2948945 92.4256951,51.6998945 C91.8436951,51.7608945 91.2666951,51.7608945 90.7066951,51.6568945 C90.1406951,51.5518945 89.5846951,51.4078945 89.0326951,51.2548945 C89.1416951,50.7138945 89.2536951,50.1778945 89.3886951,49.6498945 C89.5676951,48.9448945 89.7386951,48.2348945 89.8956951,47.5208945 Z M151.310695,86.3208945 C152.089695,84.9868945 152.331695,83.6838945 152.598695,82.1898945 C152.802695,81.0438945 152.958695,80.7928945 152.343695,79.8658945 C151.908695,79.2098945 152.139695,79.5398945 152.219695,78.8308945 C152.335695,77.8098945 151.773695,77.4858945 151.453695,76.6178945 C151.090695,75.6388945 151.903695,75.0748945 151.540695,74.2508945 C151.149695,73.3648945 150.169695,72.7598945 150.469695,71.5818945 C150.785695,70.3458945 152.675695,70.1608945 150.908695,69.1708945 C150.290695,69.0098945 149.823695,68.6558945 149.506695,68.1098945 C149.446695,67.4008945 149.197695,66.7678945 148.759695,66.2098945 C147.940695,66.2618945 147.417695,66.5958945 146.644695,66.7658945 C145.579695,66.9978945 144.377695,66.6048945 143.315695,66.5708945 C141.756695,66.5208945 140.390695,67.0028945 138.921695,66.4408945 C138.339695,66.2188945 137.810695,66.0288945 137.189695,65.9028945 C136.541695,65.7718945 135.767695,65.8228945 135.146695,65.6118945 C134.032695,65.2318945 134.027695,64.0028945 133.941695,62.9238945 C134.598695,62.6048945 135.208695,62.8028945 135.823695,62.3308945 C136.432695,61.8648945 136.486695,60.8168945 137.205695,60.5768945 C137.631695,61.1408945 138.194695,61.4818945 138.894695,61.6008945 C139.163695,61.6098945 139.432695,61.6188945 139.701695,61.6268945 C140.549695,61.8588945 141.406695,62.7888945 142.073695,63.3428945 C142.636695,63.8108945 143.057695,64.5058945 143.779695,64.3988945 C145.068695,64.2068945 145.269695,62.1538945 145.271695,61.2188945 C144.842695,60.8428945 144.370695,60.7888945 143.853695,61.0588945 C143.394695,60.3088945 143.553695,59.7378945 143.374695,58.8938945 C143.241695,58.4958945 143.107695,58.0978945 142.974695,57.6998945 C142.776695,57.5618945 142.578695,57.4258945 142.379695,57.2888945 C142.144695,57.0088945 142.219695,56.8978945 142.094695,56.5698945 C142.000695,56.3958945 141.907695,56.2228945 141.813695,56.0488945 C141.628695,55.7658945 141.688695,55.5148945 141.993695,55.2958945 C142.330695,54.2648945 142.972695,53.6268945 142.690695,52.4768945 C142.474695,51.5948945 142.159695,51.5098945 141.334695,51.4158945 C140.556695,51.3278945 140.535695,51.4548945 139.913695,50.7668945 C139.087695,49.8518945 138.537695,48.7958945 138.121695,47.6408945 C138.243695,47.6338945 138.364695,47.6268945 138.486695,47.6208945 C138.926695,47.9248945 139.273695,47.8668945 139.526695,47.4458945 C139.914695,47.1608945 140.185695,46.7838945 140.341695,46.3148945 C140.617695,45.6678945 141.034695,45.1268945 141.592695,44.6918945 C142.544695,45.7178945 142.774695,44.0148945 143.536695,43.7818945 C145.090695,44.8218945 146.747695,44.9588945 147.968695,43.1418945 C148.832695,41.8538945 148.323695,40.9248945 146.901695,40.7198945 C148.276695,39.5468945 148.875695,38.2158945 147.909695,36.5378945 C147.256695,35.4048945 146.793695,35.8618945 145.661695,36.0338945 C145.008695,36.1328945 144.484695,36.6158945 143.877695,36.7208945 C142.690695,36.9268945 142.793695,35.9108945 142.361695,35.1468945 C142.026695,34.5528945 141.725695,34.2948945 141.150695,33.8778945 C140.758695,33.6028945 140.366695,33.3288945 139.973695,33.0538945 C139.410695,32.9768945 138.867695,32.8298945 138.344695,32.6128945 C138.145695,31.0808945 138.104695,29.7188945 137.512695,28.2838945 C137.111695,28.1748945 136.733695,28.2218945 136.378695,28.4248945 C135.744695,28.0288945 135.050695,27.7898945 134.296695,27.7058945 C133.077695,27.6568945 132.151695,28.5008945 130.942695,28.2648945 C129.996695,27.9808945 129.151695,27.5138945 128.406695,26.8638945 C128.038695,26.4788945 127.609695,26.3038945 127.117695,26.3388945 C126.660695,26.1638945 126.186695,25.9448945 125.695695,25.8238945 C124.440695,25.5138945 123.674695,24.6088945 122.500695,24.1898945 C121.949695,23.9938945 121.049695,23.9578945 120.466695,23.9788945 C119.712695,24.0668945 118.969695,24.2128945 118.237695,24.4148945 C117.504695,24.4428945 116.770695,24.4778945 116.037695,24.5158945 C116.303695,24.3088945 116.563695,24.0948945 116.811695,23.8638945 C117.188695,23.4138945 117.623695,23.0288945 118.116695,22.7118945 C118.564695,22.4318945 119.125695,22.2928945 119.562695,21.9988945 C120.179695,21.5858945 120.508695,21.0748945 120.609695,20.3418945 C120.730695,19.4658945 120.435695,19.1618945 119.962695,18.5508945 C119.333695,17.7388945 119.087695,15.9248945 117.795695,16.0058945 C117.779695,14.5148945 118.593695,13.5398945 117.387695,12.3378945 C116.762695,11.7148945 115.959695,11.6128945 115.260695,11.1038945 C114.822695,10.7848945 114.649695,10.6628945 114.390695,10.1758945 C114.128695,9.68389452 114.096695,9.28789452 113.686695,8.87689452 C113.242695,8.43189452 112.781695,7.83789452 112.288695,7.44789452 C111.991695,7.21289452 111.474695,6.82089452 111.128695,6.69289452 C110.655695,6.51889452 110.154695,6.75789452 109.688695,6.66289452 C109.019695,6.52389452 109.234695,6.37689452 108.757695,5.99589452 C108.375695,5.69089452 108.531695,5.86589452 108.061695,5.62989452 C107.670695,5.43389452 107.663695,5.28689452 107.433695,5.07289452 C107.220695,4.87389452 106.917695,4.56789452 106.656695,4.31989452 C106.182695,3.87089452 105.898695,3.26889452 105.527695,2.73789452 C105.161695,2.21489452 104.166695,1.43389452 104.320695,0.733894521 C104.589695,0.592894521 104.872695,0.473894521 105.155695,0.361894521 C103.675695,0.572894521 102.113695,-0.271105479 100.595695,0.0918945208 C100.281695,1.35489452 100.688695,2.29489452 99.4986951,3.32489452 C98.5216951,4.16989452 97.6286951,4.35389452 96.4926951,3.81989452 C96.0176951,3.59689452 95.8146951,3.38889452 95.2536951,3.55589452 C94.9156951,3.65689452 94.5906951,4.01089452 94.2546951,4.15089452 C93.7026951,4.38089452 93.0646951,4.45489452 92.4716951,4.47689452 C91.9776951,4.49589452 90.5916951,4.03989452 90.2006951,4.25089452 C89.7326951,4.50489452 89.4086951,6.19889452 89.2696951,6.64589452 C89.0636951,7.31089452 89.1556951,8.67089452 88.1726951,8.54689452 C87.5976951,8.47589452 87.7216951,8.12589452 87.6746951,7.62389452 C87.1746951,7.40789452 86.6026951,7.72189452 86.0786951,7.55289452 C85.0676951,7.22789452 84.7666951,6.12389452 84.0786951,5.44889452 C83.3786951,4.76389452 82.1776951,4.67889452 81.7216951,3.81389452 C81.5256951,3.44289452 81.4706951,2.94389452 81.2176951,2.55489452 C80.4906951,1.43389452 79.6086951,2.09689452 78.6456951,2.58489452 C78.2616951,2.79589452 77.8506951,2.90889452 77.4136951,2.92089452 C77.2056951,2.91489452 77.0666951,2.82089452 76.9956951,2.63689452 C76.5486951,2.55589452 76.2166951,2.64289452 75.8816951,2.27989452 C75.5416951,1.91289452 75.6946951,1.52689452 75.2066951,1.29489452 C74.9376951,1.16689452 73.9866951,1.29489452 73.6976951,1.30989452 C72.2256951,1.38689452 72.5056951,2.03789452 72.0686951,3.21089452 C71.4826951,4.78589452 70.2676951,3.76189452 69.0016951,3.57089452 C68.1776951,3.44689452 66.7116951,3.88089452 66.7016951,2.60989452 C65.9136951,2.49289452 64.7736951,3.34789452 64.2836951,3.90689452 C64.0486951,4.17389452 64.2846951,4.26389452 63.9476951,4.54089452 C63.7556951,4.69789452 63.3666951,4.81389452 63.1296951,4.78589452 C62.4356951,4.70389452 62.6556951,3.99989452 62.0606951,3.79889452 C61.7806951,3.70489452 61.3826951,3.90989452 61.0906951,3.83789452 C60.8806951,3.78689452 60.8026951,3.55989452 60.6136951,3.53189452 C59.8496951,3.42089452 59.0796951,3.83589452 58.2826951,3.83589452 C57.8156951,3.83589452 57.4196951,3.85689452 57.0156951,3.60189452 C56.7496951,3.43389452 56.6936951,3.05989452 56.4276951,2.92389452 C55.5916951,2.49289452 55.0166951,4.12489452 54.8946951,4.69789452 C54.8416951,4.94989452 54.7046951,5.67389452 54.8996951,5.96289452 C55.0976951,6.25789452 55.3446951,5.84389452 55.4486951,6.25489452 C55.0166951,6.41989452 54.5936951,6.34689452 54.1666951,6.50989452 C53.8656951,6.62389452 53.2036951,6.78789452 52.9296951,6.95989452 C52.7536951,7.07089452 52.6256951,7.01289452 52.4616951,7.17189452 C53.0736951,7.88389452 52.5346951,9.62589452 52.2626951,10.3488945 C52.0636951,10.8788945 51.3996951,12.3158945 50.7766951,12.3228945 C49.9456951,12.3318945 50.1246951,11.0238945 49.8536951,10.5108945 C49.5446951,9.92389452 49.4496951,9.96289452 48.9456951,9.77689452 C47.5146951,9.24889452 45.9556951,8.66689452 44.4636951,8.30389452 C43.9676951,8.18289452 43.4546951,8.31289452 42.9976951,8.15789452 C42.9206951,7.43889452 43.0176951,7.38289452 42.3466951,7.26589452 C41.6876951,7.15089452 40.7296951,7.19789452 40.1116951,6.89789452 C39.6596951,6.67889452 39.6076951,6.08989452 39.2066951,5.84189452 C38.8136951,5.59889452 38.3786951,5.77489452 37.9366951,5.63589452 C36.8546951,5.29789452 37.2696951,3.51689452 36.2046951,3.19689452 C35.5816951,3.00989452 34.6576951,3.65089452 34.0306951,3.76089452 C33.3996951,3.86989452 32.5756951,3.66189452 32.0916951,4.19789452 C32.5686951,4.96489452 33.2126951,5.05789452 33.2536951,6.01289452 C33.2656951,6.27489452 33.3336951,6.70889452 33.2626951,6.96789452 C33.1786951,7.27289452 32.9456951,7.28089452 32.8416951,7.56889452 C32.6106951,8.21089452 32.8656951,8.32089452 33.3086951,8.81489452 C33.6156951,9.15589452 34.5916951,9.95689452 34.1766951,10.5388945 C33.7126951,11.1908945 32.9516951,10.3098945 32.4536951,10.4278945 C31.9956951,10.5368945 32.1206951,10.7638945 31.9556951,11.1468945 C31.5436951,12.1018945 31.0166951,12.3388945 30.1486951,12.7758945 C29.4866951,13.1078945 29.3926951,12.9138945 29.5336951,13.5708945 C29.6306951,14.0228945 30.2326951,14.6188945 30.1626951,15.1208945 C30.0716951,15.7848945 29.1516951,15.9798945 28.6056951,16.0888945 C28.5686951,16.2658945 28.5336951,16.4418945 28.4996951,16.6198945 C28.1776951,16.6488945 27.9916951,16.3198945 27.6836951,16.3818945 C27.4496951,16.4278945 27.1676951,16.9958945 27.0576951,17.1958945 C26.9336951,17.4178945 26.8496951,18.0008945 26.6126951,18.1728945 C26.4226951,18.3118945 26.1316951,18.1898945 25.9226951,18.2498945 C24.1636951,18.7558945 26.0986951,19.4168945 25.7116951,20.3568945 C25.1936951,20.5348945 24.6556951,20.2648945 24.1556951,20.3898945 C23.6066951,20.5258945 23.5346951,20.8668945 23.3096951,21.3508945 C22.9436951,22.1398945 22.6376951,22.2078945 21.9956951,22.6658945 C21.3686951,23.1128945 20.2926951,24.0038945 20.0856951,24.7778945 C19.9026951,25.4628945 20.2836951,26.3118945 20.1176951,27.0008945 C20.0246951,27.3858945 19.8336951,27.4778945 19.7796951,27.9158945 C19.7426951,28.2148945 19.8746951,28.5158945 19.7256951,28.8008945 C19.6216951,28.9978945 19.2616951,29.2438945 19.0936951,29.3988945 C18.5146951,29.9308945 18.5346951,30.1708945 18.5296951,31.0018945 C18.5246951,31.9088945 18.6126951,32.5978945 18.7786951,33.4728945 C18.8546951,33.8698945 19.0226951,34.7518945 18.8706951,35.1458945 C18.7056951,35.5758945 18.3036951,35.5748945 17.9396951,35.8298945 C18.5536951,36.6698945 18.3556951,38.4478945 17.7066951,39.2778945 C18.1296951,39.6478945 18.7136951,39.7658945 19.1606951,40.1188945 C19.7856951,40.6098945 19.9706951,41.1108945 20.2596951,41.8268945 C20.6606951,42.8198945 20.6746951,43.4428945 20.7206951,44.5148945 C20.7626951,45.4878945 21.4346951,46.1558945 22.2846951,46.4698945 C22.6036951,46.5878945 23.3886951,46.6678945 23.5346951,46.8738945 C23.7896951,47.2328945 23.3296951,47.8068945 23.2576951,48.1408945 C23.2016951,48.4048945 23.0736951,49.5508945 23.2086951,49.8578945 C23.3756951,50.2378945 23.9336951,50.2408945 24.3276951,50.4508945 C24.8106951,50.7078945 25.1926951,51.1778945 25.7356951,51.3378945 C26.2076951,51.4768945 26.6996951,51.2738945 27.1586951,51.3868945 C27.6736951,51.5138945 27.7156951,51.8158945 27.8496951,52.4038945 C28.0006951,53.0688945 28.0666951,53.5178945 28.3896951,54.0658945 C27.9016951,54.2518945 27.3996951,54.3928945 26.8806951,54.4808945 C25.7876951,54.7888945 24.6666951,54.9148945 23.5196951,54.8578945 C22.7096951,55.0008945 21.6176951,55.1568945 20.8836951,55.4228945 C19.8686951,55.7898945 19.6016951,56.9488945 18.7956951,57.6468945 C18.6326951,58.1048945 18.3066951,58.3208945 17.8196951,58.2938945 C17.5816951,58.3718945 17.3446951,58.4488945 17.1066951,58.5268945 C16.6546951,58.8418945 16.1156951,60.2638945 15.9246951,60.8308945 C15.8116951,61.1678945 15.8436951,61.9088945 15.6726951,62.1498945 C15.4556951,62.4558945 15.0396951,62.5228945 14.8096951,62.8538945 C14.5616951,63.2118945 14.4636951,63.4888945 14.1566951,63.8038945 C13.3246951,64.6568945 12.2456951,65.1308945 11.5196951,66.1098945 C10.8226951,67.0518945 10.8416951,66.1708945 9.93969514,66.8738945 C9.79269514,67.1278945 9.64569514,67.3808945 9.49869514,67.6348945 C8.88369514,67.8728945 8.25069514,67.9028945 7.60069514,67.7268945 C7.38269514,68.0508945 7.16569514,68.3758945 6.94869514,68.7008945 C6.92169514,69.1558945 6.89469514,69.6098945 6.86869514,70.0648945 C6.75069514,70.6528945 6.40469514,70.9038945 6.06169514,71.3528945 C5.39169514,72.2328945 4.98069514,73.2708945 4.40769514,74.2068945 C4.09769514,74.7138945 3.72469514,74.9028945 3.39069514,75.3268945 C3.07369514,75.7288945 2.95569514,76.2468945 2.65869514,76.6548945 C2.23369514,77.2388945 1.96669514,77.5908945 1.69869514,78.2728945 C1.42169514,78.9748945 1.47569514,78.9778945 0.994695137,79.3778945 C0.686695137,79.6338945 0.303695137,79.5818945 0.412695137,80.1668945 C0.524695137,80.0728945 0.652695137,80.0118945 0.796695137,79.9848945 C0.894695137,81.6048945 0.804695137,83.1998945 0.707695137,84.8188945 C0.607695137,84.6388945 0.498695137,84.4638945 0.382695137,84.2938945 C-0.496304863,84.3738945 0.387695137,85.4938945 0.579695137,85.7888945 C0.937695137,86.3418945 1.11769514,87.1878945 1.86869514,87.3298945 C2.80669514,87.5068945 3.25069514,86.5528945 4.00369514,85.9998945 C5.10169514,85.1928945 5.42669514,86.2158945 6.52769514,86.4488945 C7.14269514,86.5778945 7.89669514,86.5128945 9.31669514,86.3298945 C9.03569514,86.4608945 8.82769514,86.6868945 8.79969514,87.0858945 C8.77569514,87.4368945 9.22369514,87.3378945 9.10669514,87.7118945 C9.02669514,87.9668945 8.43769514,88.3368945 8.27569514,88.6498945 C7.99069514,89.1988945 8.31769514,89.2368945 7.60169514,89.2988945 C7.16269514,89.3378945 6.74669514,88.9008945 6.30569514,88.9418945 C5.54369514,89.0118945 5.98569514,89.0618945 5.64169514,89.5838945 C5.36469514,90.0058945 5.03369514,90.2488945 5.02169514,90.7948945 C4.45069514,90.9448945 3.31169514,90.5338945 2.93269514,91.1328945 C2.56469514,91.7098945 3.11969514,92.3728945 3.20969514,92.8648945 C3.36069514,93.6848945 3.18469514,93.7488945 3.74569514,94.3638945 C4.29769514,94.9698945 3.97869514,95.3508945 4.18269514,96.1168945 C4.46869514,96.1508945 4.74169514,96.1748945 5.03069514,96.1938945 C5.20169514,96.9268945 5.01669514,97.5388945 5.61769514,98.1258945 C6.07669514,98.5768945 6.48469514,98.6488945 7.11069514,98.6708945 C7.70469514,98.6908945 8.33169514,98.4828945 8.76969514,98.9578945 C8.94969514,99.1538945 9.19069514,99.6148945 9.33669514,100.044895 C8.52169514,100.496895 8.09569514,102.560895 8.71369514,103.057895 C7.91769514,103.422895 7.09569514,103.465895 6.29869514,103.746895 C5.52369514,104.019895 5.71769514,104.323895 5.96869514,104.849895 C5.58469514,105.183895 4.66369514,106.045895 5.08469514,106.636895 C5.41469514,107.100895 6.63069514,106.757895 7.11069514,106.649895 C8.21969514,106.401895 8.34469514,106.683895 9.06669514,107.516895 C9.18669514,107.655895 9.33869514,107.799895 9.50669514,107.929895 C9.47369514,108.079895 9.45469514,108.229895 9.44969514,108.370895 C9.44169514,108.629895 9.59369514,109.047895 9.41069514,109.264895 C9.29469514,109.401895 8.57469514,109.377895 8.36169514,109.451895 C6.96169514,109.942895 6.00669514,111.623895 6.39769514,112.995895 C6.46469514,113.230895 6.60969514,113.383895 6.64769514,113.684895 C6.69269514,114.035895 6.48269514,114.560895 6.68769514,114.874895 C6.79269514,115.035895 7.42469514,115.421895 7.56469514,115.553895 C8.07169514,116.029895 8.39169514,116.473895 9.12069514,116.570895 C8.97769514,117.360895 8.58069514,118.108895 8.50369514,118.944895 C8.46269514,119.394895 8.41369514,120.065895 8.68769514,120.448895 C8.97969514,120.858895 9.31869514,120.756895 9.70169514,120.960895 C10.7196951,121.502895 12.3426951,122.407895 11.2976951,123.746895 C10.4786951,124.795895 10.0806951,125.237895 10.0846951,126.526895 C10.0876951,127.198895 10.2146951,128.184895 10.7736951,128.663895 C11.2216951,129.045895 12.7246951,129.205895 13.2536951,129.044895 C13.9306951,128.839895 14.3956951,128.026895 15.0226951,127.687895 C15.6276951,127.360895 15.9546951,127.747895 16.6576951,127.785895 C17.4726951,127.830895 18.0596951,127.900895 18.8516951,128.066895 C20.1686951,128.343895 19.9516951,127.043895 20.6586951,126.253895 C21.2336951,125.609895 21.4746951,126.025895 22.1626951,126.186895 C22.7426951,126.322895 23.5296951,126.340895 23.9336951,125.944895 C24.3326951,125.555895 24.4366951,124.817895 24.5706951,124.311895 C24.7476951,123.637895 24.8406951,123.635895 25.2686951,123.210895 C25.8606951,122.623895 25.8396951,121.721895 26.1046951,120.909895 C26.3006951,120.307895 26.5666951,119.582895 27.2316951,119.351895 C27.6196951,119.217895 28.0246951,119.426895 28.4006951,119.347895 C29.4396951,119.130895 30.0216951,116.875895 31.3766951,118.036895 C32.1046951,118.659895 32.2926951,119.806895 33.5446951,119.295895 C34.1336951,119.055895 34.4066951,118.080895 34.9926951,117.903895 C35.5306951,117.742895 35.3146951,117.993895 35.7436951,118.329895 C35.8656951,118.425895 36.1806951,118.334895 36.3096951,118.441895 C36.4636951,118.568895 36.5366951,118.858895 36.6676951,119.013895 C37.1296951,119.559895 37.5566951,119.576895 38.2246951,119.693895 C38.4826951,120.402895 37.8566951,121.075895 37.9306951,121.830895 C38.0116951,122.655895 38.9816951,123.272895 39.8216951,123.411895 C40.5006951,123.523895 41.3806951,123.171895 42.0286951,123.373895 C42.7026951,123.584895 43.0016951,124.695895 43.3056951,125.272895 C43.6826951,125.235895 43.8886951,124.916895 44.1566951,124.684895 C44.7356951,124.184895 45.3776951,123.767895 46.0426951,123.390895 C46.8036951,122.959895 46.8066951,123.003895 47.3326951,123.553895 C47.8466951,124.089895 47.9136951,123.865895 48.5636951,124.074895 C49.4956951,124.374895 49.7156951,124.775895 50.7656951,124.491895 C51.3986951,124.320895 51.2576951,124.506895 51.8726951,124.779895 C52.3736951,125.000895 52.8316951,125.017895 53.3496951,125.273895 C53.8316951,125.511895 54.2706951,125.854895 54.5486951,125.322895 C54.6686951,125.091895 54.6496951,124.103895 54.7136951,123.809895 C54.8576951,123.145895 55.0096951,122.459895 55.2296951,121.816895 C55.9626951,121.777895 56.7656951,122.005895 57.4306951,121.623895 C57.9456951,121.326895 58.2136951,120.771895 58.5876951,120.335895 C59.1346951,119.697895 59.4726951,119.515895 60.1896951,119.229895 C61.6266951,118.657895 64.5026951,119.862895 64.5786951,117.510895 C64.6016951,116.780895 64.0146951,116.293895 64.3476951,115.586895 C64.5456951,115.166895 65.0896951,114.785895 65.5416951,114.455895 C66.0206951,115.217895 66.4666951,116.049895 66.9506951,116.914895 C67.2366951,117.420895 67.5286951,117.935895 67.8686951,118.453895 C67.9456951,118.575895 68.0456951,118.726895 68.1456951,118.863895 L68.4196951,119.229895 C68.5836951,119.447895 68.6576951,119.564895 68.7146951,119.695895 C68.7436951,119.762895 68.7716951,119.831895 68.7976951,119.917895 L68.9366951,120.334895 C69.0296951,120.606895 69.1066951,120.837895 69.1586951,121.042895 C69.1836951,121.144895 69.2046951,121.240895 69.2186951,121.331895 L69.2776951,121.717895 L69.4126951,122.582895 C69.5136951,123.175895 69.6386951,123.799895 69.8366951,124.441895 C70.0326951,125.079895 70.3186951,125.751895 70.6926951,126.356895 C71.1316951,127.073895 71.5996951,127.732895 72.0596951,128.363895 C72.1176951,128.540895 72.1786951,128.720895 72.2496951,128.905895 C72.2906951,129.013895 72.3416951,129.131895 72.3856951,129.237895 L72.5096951,129.518895 C72.8406951,130.266895 73.2006951,130.978895 73.5576951,131.662895 C74.2716951,133.029895 74.9736951,134.300895 75.4786951,135.549895 C75.5376951,135.705895 75.6046951,135.860895 75.6586951,136.015895 L75.8286951,136.497895 L76.1776951,137.543895 C76.2456951,137.755895 76.3116951,137.966895 76.3776951,138.177895 L76.4576951,138.872895 L76.5636951,139.639895 C76.7026951,140.548895 76.8626951,141.417895 77.0036951,142.253895 C76.8906951,142.918895 76.7716951,143.601895 76.6626951,144.313895 C76.6026951,144.701895 76.5476951,145.111895 76.5016951,145.504895 L76.3736951,146.663895 C76.2926951,147.435895 76.2256951,148.207895 76.1686951,148.978895 C76.0496951,150.574895 75.9756951,161.916895 75.9226951,163.496895 C75.9046951,163.627895 75.8896951,163.501895 75.8706951,163.501895 L75.7076951,163.501895 C75.6956951,163.501895 75.6876951,163.443895 75.6786951,163.496895 C75.6576951,163.592895 75.6346951,163.374895 75.6026951,163.494895 C75.4856951,163.963895 75.3006951,162.815895 75.1356951,163.497895 C74.9806951,164.190895 74.7966951,162.597895 74.8976951,163.501895 L76.4706951,163.501895 C76.4836951,163.501895 76.5056951,163.191895 76.5496951,163.496895 C76.5986951,163.850895 76.6946951,163.043895 76.8606951,163.498895 C77.0516951,163.972895 77.3446951,162.597895 77.9516951,163.501895 L78.3876951,163.501895 C78.6056951,163.501895 78.8536951,163.501895 79.1256951,163.501895 L79.5856951,163.501895 C79.7116951,163.501895 79.8516951,163.501895 80.0136951,163.501895 L80.1136951,163.501895 C80.1766951,163.501895 80.2426951,163.501895 80.3196951,163.501895 L83.9576951,163.501895 C83.9556951,163.501895 83.9526951,164.405895 83.9506951,163.501895 L84.5836951,163.501895 L84.4286951,150.637895 L84.4186951,150.119895 C84.4156951,149.830895 84.3966951,149.601895 84.3626951,149.328895 C84.2996951,148.812895 84.1916951,148.355895 84.0626951,147.908895 L84.0356951,146.246895 L84.0256951,145.652895 L84.0226951,145.395895 L84.0256951,145.141895 L84.0636951,143.948895 C84.0746951,143.509895 84.0776951,143.030895 84.0326951,142.494895 C84.0086951,142.227895 83.9686951,141.929895 83.9146951,141.661895 C83.8776951,141.473895 83.8356951,141.301895 83.7916951,141.134895 C83.8306951,140.447895 83.8806951,139.759895 83.9466951,139.070895 C84.1656951,138.217895 84.3956951,137.366895 84.6516951,136.524895 C84.9046951,135.688895 85.1836951,134.859895 85.4746951,134.034895 C85.7096951,133.691895 85.9686951,133.367895 86.2366951,133.051895 C86.3846951,132.889895 86.5166951,132.732895 86.6776951,132.561895 L87.1776951,132.046895 C87.8496951,131.363895 88.5416951,130.694895 89.2486951,130.038895 C90.6646951,128.727895 92.1416951,127.466895 93.6576951,126.246895 C93.8446951,126.097895 94.0536951,125.925895 94.1826951,125.830895 C94.3336951,125.718895 94.5066951,125.607895 94.6936951,125.495895 C95.0686951,125.271895 95.5006951,125.049895 95.9646951,124.788895 L96.3176951,124.583895 L96.6616951,124.369895 L97.2976951,123.954895 C97.7216951,123.673895 98.1446951,123.381895 98.5626951,123.075895 C98.9806951,122.768895 99.3936951,122.446895 99.7966951,122.101895 L100.919695,121.124895 L105.371695,117.244895 C105.738695,116.927895 106.123695,116.583895 106.475695,116.288895 C106.791695,116.027895 107.144695,115.807895 107.534695,115.618895 C107.741695,115.517895 107.959695,115.426895 108.184695,115.340895 C108.259695,115.694895 108.323695,116.039895 108.377695,116.365895 C108.371695,116.393895 108.371695,116.422895 108.363695,116.451895 C107.734695,116.718895 107.007695,116.229895 106.368695,116.486895 C105.545695,116.817895 105.293695,118.543895 105.545695,119.259895 C106.045695,120.680895 108.224695,119.729895 109.273695,119.788895 C110.126695,119.834895 110.391695,120.328895 111.103695,120.685895 C111.822695,121.046895 112.651695,120.920895 113.402695,121.201895 C114.285695,121.531895 114.946695,121.453895 115.844695,121.479895 C116.022695,122.302895 115.877695,123.127895 115.703695,123.938895 C115.593695,124.447895 115.222695,125.111895 115.262695,125.637895 C116.103695,126.294895 118.320695,126.861895 119.234695,126.244895 C119.746695,125.899895 119.864695,125.397895 119.933695,124.801895 C120.059695,123.888895 119.879695,123.042895 119.391695,122.263895 C119.058695,121.937895 118.672695,121.782895 118.234695,121.797895 C117.394695,121.482895 117.317695,121.485895 117.618695,120.540895 C117.895695,119.668895 118.583695,119.023895 119.015695,118.246895 C119.202695,117.909895 119.268695,117.996895 119.328695,117.587895 C119.436695,116.846895 118.740695,115.748895 118.238695,115.258895 C120.058695,115.204895 121.878695,115.249895 123.699695,115.241895 C124.397695,115.193895 125.092695,115.217895 125.783695,115.314895 C125.828695,115.393895 125.873695,115.472895 125.918695,115.552895 C127.377695,116.244895 127.975695,117.954895 129.849695,117.680895 C130.696695,117.556895 131.024695,116.937895 131.875695,117.433895 C132.474695,117.782895 133.120695,118.743895 133.320695,119.352895 C133.664695,120.404895 132.835695,121.525895 134.211695,122.025895 C134.748695,122.221895 135.753695,121.900895 136.235695,122.283895 C136.699695,122.651895 137.106695,124.839895 137.217695,125.337895 C137.410695,126.211895 137.328695,126.967895 137.167695,127.836895 C137.058695,128.424895 136.919695,128.761895 136.979695,129.021895 C136.938695,129.021895 136.898695,129.021895 136.858695,129.023895 C136.413695,129.044895 136.007695,129.392895 135.606695,129.383895 C135.095695,129.371895 134.915695,128.644895 134.423695,128.747895 C134.154695,129.405895 132.624695,129.746895 132.147695,129.147895 C132.253695,129.715895 131.904695,130.233895 131.418695,130.269895 C131.258695,130.282895 131.118695,129.999895 130.927695,129.953895 C130.668695,129.891895 130.376695,130.029895 130.116695,129.981895 C129.613695,129.889895 129.311695,129.514895 128.718695,129.636895 C127.902695,129.804895 127.676695,130.655895 127.154695,131.221895 C127.850695,130.591895 127.574695,130.706895 127.766695,131.694895 C127.955695,132.660895 128.469695,132.484895 129.345695,132.473895 C129.894695,132.467895 130.700695,132.329895 131.231695,132.451895 C131.944695,132.616895 132.165695,133.627895 132.789695,134.061895 C133.503695,134.556895 133.921695,134.312895 134.665695,134.109895 C135.529695,133.874895 135.379695,134.401895 135.981695,134.618895 C136.217695,134.703895 136.635695,134.383895 136.859695,134.334895 C137.066695,134.289895 137.582695,134.325895 137.796695,134.343895 C137.860695,134.349895 138.644695,134.542895 138.674695,134.533895 C138.894695,134.457895 138.924695,134.162895 139.118695,134.094895 C139.808695,133.849895 139.795695,134.891895 140.295695,135.306895 C140.790695,135.716895 141.532695,136.107895 142.178695,135.861895 C142.769695,135.636895 143.278695,134.969895 143.515695,134.420895 C143.696695,134.001895 143.752695,134.090895 143.602695,133.573895 C143.528695,133.316895 143.309695,132.849895 143.130695,132.653895 C142.850695,132.348895 142.238695,131.942895 141.875695,131.683895 C141.427695,131.363895 140.925695,131.419895 140.485695,131.194895 C139.986695,130.938895 139.977695,130.369895 139.605695,129.969895 C139.486695,129.841895 139.354695,129.763895 139.242695,129.666895 C139.484695,129.647895 139.722695,129.632895 139.944695,129.645895 C140.549695,129.681895 141.097695,129.912895 141.697695,129.922895 C143.477695,129.952895 143.204695,127.415895 144.695695,127.289895 C144.691695,127.972895 144.983695,128.170895 145.573695,127.883895 C146.386695,127.112895 147.030695,126.220895 147.503695,125.206895 C147.548695,124.620895 147.289695,124.208895 146.726695,123.972895 C146.281695,123.444895 146.026695,122.837895 145.961695,122.151895 C145.822695,121.261895 145.815695,119.781895 146.374695,119.002895 C146.515695,118.389895 147.045695,118.108895 147.965695,118.162895 C149.511695,117.691895 150.720695,116.815895 151.593695,115.532895 C150.624695,114.954895 150.728695,114.216895 151.267695,113.149895 C151.697695,112.298895 152.646695,112.030895 153.081695,111.186895 C152.669695,110.397895 151.712695,110.288895 151.538695,109.403895 C151.448695,108.940895 151.488695,108.177895 151.583695,107.713895 C151.713695,107.080895 151.898695,107.045895 152.225695,106.443895 C152.444695,106.041895 152.606695,105.488895 152.408695,105.042895 C152.252695,104.691895 151.764695,104.544895 151.606695,104.248895 C151.210695,103.507895 151.961695,102.402895 151.358695,101.734895 C152.382695,100.640895 152.792695,99.6388945 152.810695,98.1168945 C152.036695,97.9138945 151.565695,97.2798945 151.018695,96.7438945 C151.988695,96.9348945 151.138695,95.5118945 150.945695,95.1358945 C150.412695,94.0928945 150.199695,93.2618945 151.051695,92.2288945 C151.869695,91.2398945 152.787695,91.6778945 152.330695,90.1688945 C152.027695,89.1718945 151.010695,88.3738945 150.912695,87.3618945 C151.368695,86.8698945 152.164695,86.8488945 152.565695,86.4598945 C152.827695,86.2058945 152.780695,86.1038945 152.833695,85.7158945 C152.868695,85.4568945 152.721695,85.2088945 152.870695,84.9618945 C152.945695,84.9268945 153.020695,84.8928945 153.095695,84.8578945 C153.501695,84.6368945 153.807695,84.3108945 154.009695,83.8808945 C153.156695,83.7458945 151.786695,85.7538945 151.310695,86.3208945 Z" fill="#313934"></path>
    </g>
</svg>