<?xml version="1.0" encoding="UTF-8"?>
<svg width="142px" height="187px" viewBox="0 0 142 187" version="1.1" xmlns="http://www.w3.org/2000/svg" xmlns:xlink="http://www.w3.org/1999/xlink">
    <!-- Generator: Sketch 51.3 (57544) - http://www.bohemiancoding.com/sketch -->
    <title>Fill 15 Copy</title>
    <desc>Created with Sketch.</desc>
    <defs></defs>
    <g id="tree" stroke="none" stroke-width="1" fill="none" fill-rule="evenodd">
        <path d="M105.00005,102.336 C104.75605,102.269 104.51105,102.166 104.24205,102.089 C104.10905,102.049 103.96605,102.017 103.81705,102.007 C103.95505,101.92 104.09505,101.836 104.23905,101.759 C104.37205,101.683 104.50905,101.613 104.64505,101.541 C104.79205,101.797 104.94105,102.072 105.07005,102.35 C105.04705,102.345 105.02505,102.342 105.00005,102.336 Z M96.2040499,107.104 C95.7500499,107.348 95.2630499,107.558 94.7760499,107.765 L94.1220499,108.035 C94.8820499,107.636 95.6180499,107.212 96.3720499,106.839 C96.7950499,106.627 97.2410499,106.439 97.6840499,106.232 C97.6460499,106.254 97.6080499,106.275 97.5700499,106.298 C97.1120499,106.575 96.6630499,106.857 96.2040499,107.104 Z M91.8460499,108.985 C91.5990499,109.067 91.3460499,109.132 91.0880499,109.182 C91.5090499,109.016 91.9630499,108.896 92.4260499,108.755 C92.2310499,108.843 92.0450499,108.921 91.8460499,108.985 Z M74.2720499,186.014 L74.2800499,186.014 L74.2670499,186.014 C74.2690499,186.003 74.2700499,186.026 74.2720499,186.014 Z M54.4710499,104.395 C54.5740499,104.397 54.6780499,104.063 54.7810499,104.064 L58.1890499,103.762 L58.2330499,103.762 C57.5260499,103.762 56.8320499,104.316 56.1350499,104.305 C55.5790499,104.307 55.0230499,104.547 54.4710499,104.395 Z M57.8250499,57.834 C57.9630499,57.875 58.2470499,58.074 58.4290499,58.154 C58.8620499,58.344 59.2450499,58.301 59.7350499,58.437 C59.8030499,58.755 59.7550499,58.996 59.7570499,59.322 C59.7600499,59.83 59.8970499,59.929 60.0080499,60.356 C60.1790499,61.009 59.9950499,61.744 60.0240499,62.429 C59.5050499,62.5 58.9640499,62.768 58.4590499,62.762 C57.8050499,62.007 57.9100499,60.479 57.8780499,59.595 C57.8560499,59.004 57.8450499,58.09 57.3120499,57.733 C57.4640499,57.752 57.6340499,57.778 57.8250499,57.834 Z M58.0280499,15.501 C58.1790499,15.469 58.3330499,15.455 58.4870499,15.448 C58.1680499,15.585 57.8160499,15.694 57.4660499,15.775 C57.6190499,15.627 57.8230499,15.545 58.0280499,15.501 Z M73.3140499,6.62 C74.7540499,6.878 76.1200499,6.581 77.5190499,7.089 C77.6420499,7.538 77.6950499,7.991 77.6930499,8.447 C77.4300499,8.664 77.0250499,8.637 76.6310499,8.696 C76.2200499,8.047 75.4490499,7.299 74.8670499,7.127 C73.8970499,6.84 73.7300499,8.467 72.6590499,8.309 C72.2520499,7.601 72.0050499,6.875 71.6500499,6.175 C72.2320499,6.417 73.0450499,6.573 73.3140499,6.62 Z M91.7700499,19.592 C91.6450499,19.592 91.5140499,19.585 91.3670499,19.535 C91.4660499,19.351 91.6210499,19.188 91.8060499,19.036 C91.8150499,19.22 91.7980499,19.406 91.7700499,19.592 Z M95.2630499,24.908 C95.6270499,24.152 96.0300499,23.42 96.4440499,22.689 C96.4900499,22.607 96.5340499,22.524 96.5800499,22.442 C96.6190499,22.539 96.6530499,22.639 96.6780499,22.744 C96.8560499,23.49 96.6830499,23.964 96.9990499,24.689 C97.4090499,25.632 97.6430499,26.316 97.6630499,27.365 C97.6800499,28.194 97.8860499,29.6 97.6740499,30.343 C97.4910499,30.984 97.8820499,30.912 96.9610499,31.43 C96.1020499,31.913 94.8500499,32.057 94.0520499,31.452 C92.6500499,30.389 93.3400499,28.584 94.1310499,26.935 C94.5300499,26.273 94.9140499,25.6 95.2630499,24.908 Z M48.8280499,102.56 C49.0570499,102.727 49.2960499,102.884 49.5400499,103.028 C49.2430499,102.891 48.9560499,102.732 48.6840499,102.55 C48.7310499,102.554 48.7780499,102.556 48.8280499,102.56 Z M94.7370499,101.025 C94.1660499,100.88 91.0590499,101.388 91.4070499,100.082 C92.7680499,99.953 92.9590499,97.511 93.7400499,96.595 C94.2860499,95.957 95.2390499,95.682 96.0830499,95.619 C96.8960499,95.557 97.2410499,95.912 97.9210499,96.254 C98.6240499,96.608 99.1640499,96.877 99.5760499,97.278 C99.5260499,97.324 99.4750499,97.367 99.4260499,97.414 C99.0050499,97.817 98.6060499,98.246 98.2380499,98.705 C98.0550499,98.934 97.8800499,99.172 97.7180499,99.42 C97.6390499,99.538 97.5490499,99.68 97.4830499,99.826 C97.4140499,99.97 97.3600499,100.115 97.3130499,100.257 C97.2180499,100.541 97.1450499,100.809 97.0410499,101.045 C96.9450499,101.275 96.7910499,101.479 96.6200499,101.72 C96.5350499,101.839 96.4470499,101.965 96.3670499,102.106 C96.2960499,102.235 96.2350499,102.335 96.1570499,102.447 C96.0060499,102.663 95.8290499,102.868 95.6380499,103.06 C95.4760499,103.225 95.3010499,103.38 95.1210499,103.528 C95.5770499,102.625 95.7880499,101.293 94.7370499,101.025 Z M86.1820499,110.297 C85.9580499,110.452 85.7260499,110.597 85.4840499,110.741 C85.3560499,110.818 85.2620499,110.871 85.1340499,110.935 L84.7410499,111.139 C84.6050499,111.216 84.4670499,111.291 84.3070499,111.421 C84.2160499,111.499 84.1460499,111.576 84.0860499,111.652 C84.0940499,110.637 84.0080499,109.661 83.9970499,108.717 C83.9960499,108.396 83.9920499,108.072 84.0240499,107.798 C84.0540499,107.507 84.1190499,107.197 84.1820499,106.861 C84.2440499,106.529 84.3010499,106.15 84.3070499,105.781 C84.3150499,105.448 84.3210499,105.127 84.3450499,104.819 C84.3690499,104.512 84.4110499,104.219 84.4830499,103.931 C84.5480499,103.652 84.6680499,103.345 84.7680499,103.044 C84.9920499,102.446 85.2470499,101.857 85.5370499,101.283 C85.6950499,100.976 85.8620499,100.674 86.0370499,100.375 C86.0310499,100.453 86.0490499,100.545 86.1070499,100.657 C86.2290499,100.897 86.5630499,100.905 86.6710499,101.144 C86.7630499,101.347 86.6120499,101.558 86.6730499,101.756 C86.9020499,102.493 87.1510499,101.982 87.7570499,102.393 C88.0390499,102.585 88.2830499,103.09 88.3040499,103.412 C88.6480499,103.469 88.9400499,103.404 89.1920499,103.625 C89.4540499,103.854 89.4340499,104.397 89.7090499,104.618 C90.3590499,104.752 91.0100499,104.708 91.6590499,104.487 C92.2550499,104.455 92.8510499,104.423 93.4450499,104.39 C93.5700499,104.39 93.6780499,104.393 93.7720499,104.399 C93.4800499,104.531 93.1680499,104.652 92.8400499,104.813 C92.5660499,104.946 92.2780499,105.14 92.0540499,105.34 C91.8230499,105.538 91.6170499,105.741 91.4110499,105.931 C91.2020499,106.127 91.0130499,106.283 90.7790499,106.457 L90.0940499,106.969 C89.6330499,107.311 89.1650499,107.661 88.7180499,108.048 C87.8220499,108.824 87.0690499,109.683 86.1820499,110.297 Z M56.6430499,87.194 C56.6790499,87.284 56.7190499,87.374 56.7570499,87.463 C56.7330499,87.422 56.7090499,87.381 56.6850499,87.34 C56.6590499,87.294 56.6320499,87.249 56.6060499,87.203 C56.6180499,87.2 56.6300499,87.197 56.6430499,87.194 Z M85.1960499,53.307 C85.1560499,53.142 85.1160499,52.977 85.0770499,52.812 C85.2080499,52.764 85.3280499,52.726 85.4240499,52.71 C85.4190499,52.854 85.3210499,53.068 85.1960499,53.307 Z M85.8370499,55.695 C85.7740499,55.491 85.7130499,55.286 85.6540499,55.08 C85.7510499,55.085 85.8440499,55.095 85.9270499,55.115 C85.8950499,55.308 85.8640499,55.501 85.8370499,55.695 Z M72.4790499,108.847 C72.2550499,108.342 71.9640499,107.826 71.5640499,107.385 L71.4280499,106.661 C71.3590499,106.184 71.3880499,105.659 71.4030499,105.098 C71.4320499,105.148 71.4630499,105.2 71.4910499,105.249 C71.5890499,105.413 71.6840499,105.579 71.7760499,105.745 C71.9600499,106.079 72.1310499,106.417 72.2880499,106.761 C72.4450499,107.105 72.5890499,107.454 72.7180499,107.81 C72.7840499,107.988 72.8440499,108.168 72.9040499,108.348 L73.0900499,108.915 C73.2040499,109.257 73.3230499,109.595 73.4390499,109.935 C73.3500499,109.847 73.2580499,109.762 73.1710499,109.673 C72.9570499,109.453 72.7470499,109.221 72.5370499,108.988 C72.5170499,108.94 72.4990499,108.894 72.4790499,108.847 Z M58.0220499,88.055 C58.8240499,88.97 59.5480499,89.942 60.3660499,90.885 C60.6530499,91.218 60.9600499,91.543 61.2790499,91.854 C60.6460499,91.375 59.9860499,90.945 59.3420499,90.525 C58.9840499,89.85 58.6480499,89.135 58.2450499,88.441 L58.0220499,88.055 Z M64.3500499,61.304 C64.0960499,61.771 63.7130499,62.228 63.8820499,62.771 C64.0150499,63.203 64.6490499,63.82 65.0790499,63.962 C65.5620499,64.12 66.1330499,64.012 66.6370499,64.023 C67.7230499,64.048 68.3310499,63.957 69.0550499,63.356 C69.3360499,63.452 69.6130499,63.544 69.8930499,63.647 C70.0520499,63.703 70.2130499,63.751 70.3750499,63.797 C70.3630499,63.881 70.3600499,63.965 70.3690499,64.049 C70.4180499,64.481 70.6820499,64.844 70.9170499,65.205 C70.3060499,66.013 70.0680499,66.659 70.0640499,67.161 C70.0610499,67.472 70.2600499,68.4 70.4630499,68.665 C71.0990499,69.499 72.8800499,69.408 73.6680499,69.812 C74.3760499,70.177 74.1490499,71.021 74.9360499,71.395 C75.3380499,71.588 75.7780499,71.526 76.1960499,71.679 C76.6840499,71.858 77.0910499,72.221 77.5300499,72.484 C77.7550499,72.619 77.9800499,72.732 78.2060499,72.825 C78.2340499,72.944 78.2660499,73.063 78.3040499,73.183 L78.7430499,74.366 C78.8810499,74.754 79.0090499,75.142 79.1210499,75.534 C79.3320499,76.276 79.3590499,77.089 79.3430499,77.905 C79.3270499,78.723 79.2570499,79.553 79.2340499,80.405 C79.1970499,81.277 79.3590499,82.135 79.1800499,82.802 C79.1340499,82.979 79.0640499,83.172 79.0010499,83.39 C78.9370499,83.603 78.8840499,83.866 78.8780499,84.105 C78.8570499,84.563 78.8960499,84.977 78.8620499,85.338 C78.8370499,85.676 78.6970499,86.066 78.6130499,86.522 C78.5680499,86.747 78.5540499,87.012 78.5480499,87.209 L78.5390499,87.503 C78.4070499,87.127 78.2360499,86.76 78.0130499,86.419 C77.5430499,85.691 76.9100499,85.132 76.2960499,84.636 C75.6740499,84.135 75.0650499,83.675 74.4730499,83.173 C73.8790499,82.677 73.2980499,82.164 72.7250499,81.64 C72.1520499,81.116 71.5880499,80.582 71.0250499,80.043 C70.9360499,79.957 70.8480499,79.872 70.7600499,79.786 C70.9930499,79.035 71.1730499,78.259 70.9630499,77.548 C70.8640499,77.211 70.5050499,76.809 70.4320499,76.403 C70.2740499,75.522 70.6560499,74.602 70.9220499,73.772 C70.3300499,73.645 70.4890499,73.296 70.0190499,72.766 C69.2370499,71.885 68.2170499,71.929 67.2240499,72.409 C67.4760499,70.837 68.5760499,69.303 67.9190499,67.766 C67.6640499,67.17 66.3590499,66.885 65.7450499,66.614 C65.3570499,66.504 64.9750499,66.377 64.5990499,66.232 C64.2850499,66.082 64.0360499,65.862 63.8510499,65.573 C63.2640499,65.221 62.0060499,65.312 61.6580499,64.658 C61.5170499,64.392 61.5260499,64.115 61.4470499,63.838 C61.6540499,63.742 61.8820499,63.58 62.1100499,63.404 C62.9160499,62.778 63.6390499,62.055 64.3500499,61.304 Z M89.1800499,59.095 L88.2620499,59.808 C87.9940499,60.019 87.7270499,60.237 87.4690499,60.476 C87.3760499,59.963 87.2570499,59.452 87.0940499,58.951 C87.0240499,58.763 86.9630499,58.573 86.8860499,58.388 C86.8710499,58.284 86.8570499,58.179 86.8410499,58.077 C86.7450499,57.346 86.7080499,56.603 86.6990499,55.857 C86.9280499,56.362 86.9660499,56.975 87.3130499,57.459 C87.9180499,58.303 88.9040499,58.321 89.7880499,58.6 C89.5920499,58.77 89.3880499,58.934 89.1800499,59.095 Z M114.28605,70.726 C114.26805,70.669 114.24905,70.606 114.23205,70.535 C114.10805,70.05 113.99705,69.586 113.83905,69.105 C113.81105,69.022 113.78405,68.948 113.75805,68.879 C113.76005,68.878 113.76205,68.877 113.76405,68.876 C114.17605,68.725 114.65705,68.344 115.11305,68.441 C115.68405,68.562 116.06605,69.095 116.27505,69.636 C115.64505,70.064 114.99205,70.45 114.28605,70.726 Z M103.28305,83.081 C103.59705,82.482 103.87005,81.899 104.24505,81.396 C104.61805,80.883 105.07505,80.449 105.58205,80.029 C105.75105,79.887 105.92605,79.756 106.10005,79.623 C106.28505,79.558 106.48005,79.503 106.67805,79.446 C106.83005,79.402 106.98405,79.355 107.14005,79.3 C107.18605,79.33 107.23105,79.361 107.27905,79.39 C107.95505,79.795 109.07205,80.135 108.56205,81.225 C107.84705,81.539 107.14505,80.63 106.34405,81.048 C105.35905,81.561 104.64105,83.245 103.58305,83.393 C103.39605,83.42 103.23805,83.424 103.10205,83.41 C103.16305,83.301 103.22605,83.191 103.28305,83.081 Z M84.0900499,101.576 C84.1000499,101.489 84.1080499,101.405 84.1140499,101.325 C84.1310499,101.158 84.1470499,101.002 84.1690499,100.854 C84.1800499,100.781 84.1940499,100.71 84.2090499,100.641 L84.2340499,100.54 C84.2410499,100.519 84.2470499,100.501 84.2570499,100.476 C84.3420499,100.272 84.5490499,100.015 84.7560499,99.721 C84.8570499,99.572 84.9460499,99.423 85.0300499,99.275 C85.1710499,99.278 85.3110499,99.284 85.4490499,99.292 C85.1360499,99.775 84.8380499,100.269 84.5660499,100.779 C84.5590499,100.791 84.5530499,100.804 84.5470499,100.816 C84.3930499,101.065 84.2390499,101.318 84.0900499,101.576 Z M73.8710499,111.931 C73.9980499,112.048 74.1240499,112.162 74.2500499,112.277 C74.6430499,113.395 75.0360499,114.511 75.4080499,115.628 L75.4730499,115.827 C75.4660499,116.185 75.4590499,116.545 75.4550499,116.903 C75.4390499,116.87 75.4230499,116.836 75.4080499,116.803 C75.1610499,116.284 74.9130499,115.782 74.6930499,115.278 C74.4700499,114.772 74.2970499,114.282 74.1440499,113.743 C73.9470499,113.062 73.7700499,112.342 73.5460499,111.626 C73.6540499,111.727 73.7620499,111.832 73.8710499,111.931 Z M77.0670499,89.429 L76.4920499,88.501 C76.0920499,87.85 75.6970499,87.198 75.3220499,86.538 C75.1340499,86.208 74.9510499,85.876 74.7740499,85.541 C74.5890499,85.198 74.4390499,84.892 74.2960499,84.532 C74.2090499,84.327 74.1170499,84.112 74.0050499,83.897 C74.5730499,84.388 75.1700499,84.857 75.7300499,85.322 C76.3200499,85.812 76.8610499,86.319 77.2330499,86.915 C77.6090499,87.507 77.8050499,88.204 77.9090499,88.936 C77.9320499,89.088 77.9500499,89.242 77.9670499,89.396 C77.6690499,89.429 77.3660499,89.442 77.0670499,89.429 Z M80.1690499,73.045 L80.1610499,74.166 L80.1550499,75.15 C80.1540499,75.27 80.1580499,75.387 80.1630499,75.498 C80.1720499,75.72 80.1300499,75.93 80.1230499,76.124 C80.1170499,76.328 79.9790499,76.455 79.9790499,76.63 L79.9790499,76.631 C79.9790499,76.195 79.9190499,75.758 79.7900499,75.323 C79.6670499,74.913 79.5560499,74.511 79.4080499,74.114 L79.0110499,73.055 C79.3780499,73.114 79.7700499,73.114 80.1690499,73.045 Z M70.2750499,63.422 C70.1830499,63.394 70.0890499,63.37 69.9980499,63.34 C69.9670499,63.329 69.9350499,63.319 69.9030499,63.308 C70.0560499,63.33 70.1660499,63.358 70.2750499,63.422 Z M83.6790499,61.499 C83.6620499,61.491 83.6470499,61.484 83.6300499,61.475 C83.6430499,61.388 83.6550499,61.3 83.6670499,61.211 C83.6710499,61.307 83.6750499,61.404 83.6790499,61.499 Z M116.43705,70.225 C116.59405,71.199 116.99905,72.186 116.55505,73.191 C116.52505,73.261 116.48605,73.329 116.44505,73.395 C116.28905,73.394 116.13305,73.367 115.94205,73.243 C115.36905,72.874 115.22405,72.095 114.86505,71.606 C114.61405,71.262 114.46305,71.177 114.33205,70.849 C115.04005,70.56 115.68805,70.165 116.30905,69.728 C116.36805,69.9 116.41105,70.07 116.43705,70.225 Z M103.97905,80.689 C103.86805,80.793 103.75505,80.893 103.64005,80.993 C103.68305,80.939 103.72205,80.882 103.76905,80.829 C103.88405,80.697 103.99705,80.563 104.12905,80.446 C104.25605,80.324 104.38305,80.202 104.52505,80.095 C104.69805,79.954 104.88205,79.823 105.06905,79.698 C104.84305,79.885 104.61805,80.081 104.40305,80.292 C104.26005,80.425 104.11805,80.558 103.97905,80.689 Z M77.5400499,115.789 C77.5980499,115.884 77.6550499,115.979 77.7100499,116.077 L77.7050499,116.631 L77.6900499,118.698 C77.6720499,118.602 77.6520499,118.505 77.6330499,118.408 C77.5860499,117.539 77.5580499,116.665 77.5400499,115.789 Z M75.6840499,50.795 C75.8940499,51.114 76.0990499,51.432 76.2860499,51.757 C76.6800499,52.439 77.0530499,53.177 77.6130499,53.806 C78.1600499,54.418 78.7590499,54.945 79.2330499,55.553 C79.7040499,56.157 80.0530499,56.855 80.3330499,57.585 C80.3620499,57.663 80.3900499,57.743 80.4180499,57.822 C80.3210499,57.663 80.2220499,57.507 80.1230499,57.353 C79.9090499,57.022 79.6900499,56.694 79.4610499,56.371 C79.0030499,55.725 78.5300499,55.099 78.0030499,54.498 C77.4720499,53.907 76.8970499,53.377 76.4840499,52.736 C76.1050499,52.155 75.8890499,51.48 75.6840499,50.795 Z M84.4940499,73.737 C84.5840499,73.742 84.6650499,73.742 84.7440499,73.74 C84.7160499,73.889 84.6850499,74.037 84.6580499,74.187 C84.5260499,74.946 84.3760499,75.7 84.2180499,76.455 C83.9400499,77.781 83.6370499,79.108 83.3670499,80.448 C83.2500499,80.846 83.1310499,81.244 83.0070499,81.641 C83.0090499,81.574 83.0110499,81.507 83.0140499,81.438 C83.0150499,81.399 83.0170499,81.361 83.0180499,81.321 C83.0270499,81.251 83.0360499,81.179 83.0460499,81.109 L83.2110499,79.929 C83.2690499,79.545 83.3390499,79.134 83.3830499,78.725 C83.4760499,77.909 83.5000499,77.091 83.4970499,76.283 C83.4940499,75.981 83.4920499,75.711 83.5040499,75.435 C83.7300499,74.86 83.9580499,74.281 84.1760499,73.689 C84.2760499,73.712 84.3800499,73.729 84.4940499,73.737 Z M92.3020499,62.782 C92.3190499,62.924 92.3180499,63.063 92.3100499,63.202 C91.9120499,63.555 91.5070499,63.9 91.0970499,64.244 C91.0730499,64.264 91.0500499,64.284 91.0260499,64.304 C90.9590499,64.309 90.8910499,64.311 90.8230499,64.313 C90.8860499,64.234 90.9470499,64.154 91.0110499,64.075 C91.3740499,63.629 91.7600499,63.198 92.1530499,62.773 C92.2020499,62.778 92.2500499,62.783 92.3020499,62.782 Z M107.02805,70.3 C106.55305,70.266 106.24405,70.045 105.79705,69.956 C105.36805,69.872 104.80405,69.971 104.35905,69.972 C104.33805,69.972 104.31705,69.973 104.29605,69.973 C104.60405,69.755 104.90805,69.53 105.20905,69.3 C105.31005,69.32 105.40405,69.337 105.49005,69.345 C106.38305,69.436 107.00405,68.427 107.97205,68.387 C108.75405,68.354 109.39005,68.606 110.03305,68.864 C109.97905,68.924 109.92305,68.981 109.86405,69.034 C109.06405,69.757 108.13205,70.376 107.02805,70.3 Z M96.3730499,80.479 C95.7240499,80.349 95.1270499,79.897 94.4830499,80.264 C94.0720499,80.498 93.8220499,81.058 93.9050499,81.512 C93.5000499,81.626 93.0880499,81.63 92.6740499,81.577 C92.8610499,81.367 93.0490499,81.156 93.2380499,80.945 C93.7200499,80.405 94.2050499,79.861 94.6590499,79.287 C95.1190499,78.715 95.5270499,78.099 95.9230499,77.498 C96.2930499,76.937 96.6540499,76.37 97.0000499,75.792 C96.9280499,76.519 96.5220499,77.262 96.4160499,77.993 C96.3020499,78.784 96.2650499,79.225 97.0320499,79.388 C97.3790499,79.462 97.8920499,79.372 98.4350499,79.22 C97.8170499,79.845 97.4730499,80.699 96.3730499,80.479 Z M83.0660499,101.848 C83.0450499,101.939 83.0230499,102.029 82.9920499,102.119 C82.8860499,102.456 82.8020499,102.79 82.7190499,103.114 C82.6370499,103.439 82.5560499,103.755 82.4610499,104.056 L82.3050499,104.529 C82.2470499,104.696 82.2020499,104.866 82.1530499,105.034 C82.1470499,105.062 82.1410499,105.09 82.1330499,105.118 C82.1270499,104.807 82.1220499,104.498 82.1130499,104.185 C82.1120499,104.176 82.1110499,104.166 82.1110499,104.155 C82.1730499,103.898 82.2330499,103.637 82.2790499,103.367 C82.3440499,103.025 82.3700499,102.662 82.3820499,102.32 C82.6300499,102.021 82.8670499,101.709 83.1010499,101.389 C83.0990499,101.409 83.0980499,101.429 83.0970499,101.448 C83.0880499,101.581 83.0770499,101.715 83.0660499,101.848 Z M92.0970499,64.112 C92.0410499,64.129 91.9840499,64.139 91.9270499,64.153 C92.0020499,64.088 92.0770499,64.022 92.1520499,63.956 C92.1340499,64.008 92.1170499,64.06 92.0970499,64.112 Z M103.24105,69.995 C102.93405,69.993 102.62905,69.972 102.33705,69.901 C101.47105,69.69 101.32205,69.184 100.45705,69.576 C99.5450499,69.987 98.9700499,70.519 98.2670499,71.224 C97.8910499,71.601 97.4830499,72.119 97.0340499,72.559 C97.0320499,72.526 97.0310499,72.495 97.0270499,72.461 C96.9640499,71.949 96.9780499,72.027 96.6130499,71.742 C96.7640499,71.491 96.9020499,71.24 97.0530499,70.993 C97.3840499,70.44 97.7360499,69.899 98.1480499,69.406 C98.5490499,68.903 99.0640499,68.512 99.5560499,68.087 C100.04605,67.664 100.52205,67.198 100.84105,66.623 C101.04605,66.266 101.17105,65.875 101.24005,65.473 C101.29605,65.529 101.35305,65.582 101.41405,65.631 C101.70905,65.866 102.01705,65.845 102.09305,66.283 C102.16505,66.706 101.68405,67.231 101.41205,67.491 C101.52505,67.896 102.83505,68.477 103.27505,68.658 C103.60105,68.791 104.06705,68.97 104.52105,69.114 C104.10205,69.415 103.67305,69.706 103.24105,69.995 Z M91.3570499,81.274 C91.4420499,81.158 91.5280499,81.043 91.6150499,80.928 C92.0890499,80.312 92.5950499,79.72 93.1110499,79.119 C93.6530499,78.477 94.0390499,77.789 94.5670499,77.321 C94.8360499,77.082 95.1560499,76.867 95.4840499,76.625 C95.6470499,76.503 95.8120499,76.373 95.9720499,76.227 L96.4010499,75.81 C96.4430499,75.77 96.4890499,75.733 96.5320499,75.693 C96.2070499,76.212 95.8710499,76.723 95.5250499,77.231 C95.1160499,77.83 94.7150499,78.416 94.2600499,78.964 C93.8080499,79.516 93.3210499,80.046 92.8330499,80.577 C92.5640499,80.868 92.2940499,81.16 92.0260499,81.456 C91.8030499,81.402 91.5800499,81.34 91.3570499,81.274 Z M91.9590499,79.236 C92.5090499,78.205 93.0510499,77.171 93.6290499,76.16 C93.8880499,75.987 94.1450499,75.798 94.4250499,75.605 C94.5630499,75.512 94.7000499,75.418 94.8370499,75.324 C95.2290499,75.244 95.6310499,75.19 96.0010499,75.206 C95.9710499,75.233 95.9400499,75.259 95.9090499,75.287 C95.6030499,75.579 95.3660499,75.811 95.0480499,76.031 C94.7380499,76.255 94.3980499,76.474 94.0700499,76.755 C93.4060499,77.339 93.0060499,78.053 92.5160499,78.603 C92.3290499,78.814 92.1430499,79.029 91.9560499,79.243 C91.9570499,79.241 91.9580499,79.239 91.9590499,79.236 Z M88.8050499,86.472 C88.9190499,86.3 89.0330499,86.13 89.1500499,85.965 C89.3490499,85.692 89.5690499,85.428 89.7940499,85.161 C89.7690499,85.689 89.5900499,86.287 89.1850499,86.491 C89.0560499,86.556 88.9100499,86.59 88.7550499,86.604 C88.7720499,86.56 88.7880499,86.516 88.8050499,86.472 Z M86.2060499,76.885 C86.0860499,77.082 85.9890499,77.283 85.9000499,77.484 C85.7240499,77.887 85.5870499,78.293 85.4540499,78.692 C85.3300499,79.073 85.2110499,79.433 85.0720499,79.798 C85.0760499,79.711 85.0790499,79.625 85.0840499,79.545 C85.0950499,79.349 85.1100499,79.184 85.1500499,78.999 L85.6660499,76.666 L85.8230499,76.083 L86.1190499,75.017 C86.2060499,75.047 86.2970499,75.087 86.3920499,75.144 C86.4030499,75.152 86.4150499,75.163 86.4270499,75.172 C86.4210499,75.326 86.4120499,75.478 86.3950499,75.634 C86.3540499,76.033 86.2840499,76.44 86.2210499,76.861 L86.2060499,76.885 Z M87.3570499,86.417 C87.5160499,86.241 87.6810499,86.067 87.8540499,85.895 C87.9820499,85.766 88.1000499,85.63 88.2120499,85.491 L87.8030499,86.516 C87.6540499,86.485 87.5040499,86.451 87.3570499,86.417 Z M89.6750499,84.333 C89.6500499,84.361 89.6250499,84.39 89.6000499,84.419 C89.6190499,84.374 89.6390499,84.329 89.6570499,84.284 C89.6640499,84.3 89.6690499,84.316 89.6750499,84.333 Z M90.6920499,80.754 L90.6110499,80.886 C90.5760499,80.932 90.5420499,80.981 90.5080499,81.028 C89.8440499,80.851 89.1910499,80.74 88.5650499,80.9 C88.3210499,81.86 88.7210499,82.559 89.1380499,83.273 C88.9780499,83.533 88.8170499,83.792 88.6480499,84.05 C88.3020499,84.596 87.9540499,85.122 87.5110499,85.554 C87.2680499,85.788 87.0250499,86.034 86.7930499,86.295 C86.6240499,86.263 86.4630499,86.242 86.3170499,86.238 C85.5870499,86.221 85.1740499,86.174 84.5270499,85.968 C84.4940499,86.702 84.9830499,86.966 84.5920499,87.788 C84.4190499,88.151 84.0360499,88.452 83.7160499,88.695 L83.5940499,88.352 C83.5940499,88.34 83.5940499,88.328 83.5940499,88.315 L83.8320499,87.887 C83.9440499,87.474 84.1150499,87.1 84.2320499,86.649 C84.3350499,86.217 84.4310499,85.799 84.5160499,85.406 C84.6020499,85.008 84.7160499,84.657 84.8810499,84.305 C84.9630499,84.125 85.0660499,83.933 85.1550499,83.725 C85.2000499,83.621 85.2470499,83.512 85.2860499,83.399 L85.3420499,83.229 L85.3860499,83.087 C85.6210499,82.325 85.9780499,81.569 86.2750499,80.755 C86.5620499,79.936 86.8030499,79.11 86.9190499,78.227 C86.9720499,77.764 86.9860499,77.397 87.0520499,76.979 C87.0530499,76.971 87.0540499,76.964 87.0550499,76.957 C87.0840499,76.933 87.1130499,76.911 87.1460499,76.886 C87.2340499,76.815 87.3330499,76.738 87.4350499,76.607 C87.5230499,76.488 87.5780499,76.37 87.6250499,76.262 C87.6660499,76.165 87.6970499,76.08 87.7290499,76.002 C88.1080499,75.992 88.5240499,75.885 88.8960499,75.79 C89.4130499,76.025 89.9280499,76.269 90.4650499,76.476 C91.0520499,76.702 91.4950499,76.977 92.1640499,76.831 C92.5190499,76.753 92.8240499,76.628 93.1110499,76.474 C92.6110499,77.334 92.1360499,78.205 91.6550499,79.071 C91.3390499,79.636 91.0290499,80.203 90.6920499,80.754 Z M82.3220499,72.838 C82.3220499,72.855 82.3240499,72.876 82.3240499,72.893 C82.2360499,73.607 82.1090499,74.327 81.9840499,75.051 C81.9130499,75.458 81.8460499,75.872 81.7870499,76.288 C81.7270499,76.703 81.6910499,77.141 81.6480499,77.531 C81.6150499,77.818 81.5760499,78.11 81.5370499,78.404 C81.5300499,78.35 81.5230499,78.296 81.5190499,78.242 C81.4860499,77.873 81.4900499,77.492 81.5000499,77.105 C81.5120499,76.719 81.5320499,76.326 81.5380499,75.924 L81.5330499,74.738 L81.5270499,73.574 C81.5330499,73.318 81.5720499,73.057 81.6220499,72.788 C81.8570499,72.772 82.0900499,72.78 82.3220499,72.838 Z M96.6830499,69.34 C97.7490499,68.139 97.5880499,66.771 97.9590499,65.302 C98.1350499,64.605 98.3050499,64.118 98.2480499,63.429 C100.03305,62.823 100.29705,64.491 101.19505,65.428 C101.12105,65.836 100.99005,66.232 100.77705,66.587 C100.45405,67.144 99.9810499,67.593 99.4850499,68.005 C98.9930499,68.417 98.4600499,68.807 98.0400499,69.314 C97.6120499,69.808 97.2460499,70.35 96.9020499,70.902 C96.7510499,71.141 96.6090499,71.387 96.4610499,71.624 C95.9980499,71.264 95.5750499,71.032 95.2370499,70.573 C95.7810499,70.214 96.2750499,69.8 96.6830499,69.34 Z M80.5860499,78.666 C80.6280499,79.006 80.6900499,79.341 80.7630499,79.666 L81.0150499,80.727 C80.9180499,81.201 80.8350499,81.681 80.7750499,82.17 C80.7670499,82.095 80.7550499,82.018 80.7500499,81.944 C80.7360499,81.742 80.7370499,81.545 80.7320499,81.304 C80.7240499,81.077 80.7110499,80.852 80.6950499,80.632 C80.6500499,79.96 80.5850499,79.301 80.5860499,78.666 Z M77.5110499,113.725 L77.4940499,112.129 L77.4860499,111.492 L77.4930499,110.888 C77.5090499,110.486 77.5360499,110.084 77.5860499,109.681 C77.6690499,108.985 77.8040499,108.292 77.9670499,107.598 C77.9700499,107.739 77.9730499,107.881 77.9780499,108.02 C77.9830499,108.157 77.9880499,108.291 77.9930499,108.426 C77.8930499,108.776 77.8060499,109.161 77.7750499,109.553 C77.7560499,109.766 77.7560499,110.014 77.7540499,110.196 L77.7500499,110.78 L77.7400499,111.949 L77.7260499,113.948 C77.6560499,113.871 77.5820499,113.801 77.5110499,113.725 Z M82.9760499,99.346 C83.0250499,99.403 83.0300499,99.416 83.0390499,99.44 C83.0450499,99.448 83.0620499,99.541 83.0750499,99.606 C83.1230499,99.882 83.1390499,100.172 83.1390499,100.469 C83.0400499,100.602 82.9420499,100.737 82.8420499,100.87 C82.6910499,101.077 82.5510499,101.258 82.3880499,101.437 C82.3840499,101.21 82.3780499,100.982 82.3710499,100.757 C82.3590499,100.391 82.3440499,100.029 82.3320499,99.67 C82.3610499,99.522 82.3910499,99.375 82.4200499,99.227 C82.5790499,99.243 82.7400499,99.254 82.9030499,99.261 C82.9310499,99.296 82.9570499,99.326 82.9760499,99.346 Z M83.8130499,99.441 C83.8010499,99.388 83.7930499,99.339 83.7750499,99.275 C83.8290499,99.275 83.8830499,99.275 83.9380499,99.274 C83.8980499,99.328 83.8570499,99.385 83.8130499,99.441 Z M103.36805,80.48 C103.11105,80.762 102.88805,81.09 102.68705,81.39 C102.59005,81.534 102.49605,81.679 102.40105,81.823 C102.47905,81.156 102.60705,80.457 102.29505,80.119 C101.99005,79.787 101.46705,80.05 101.02905,79.963 C100.39005,79.835 99.8260499,79.393 99.3810499,78.915 C99.9770499,78.701 100.51205,78.482 100.78905,78.399 C101.76205,78.109 102.79905,77.712 103.83605,77.816 C104.43405,77.877 105.20205,78.071 105.76005,78.319 C105.90505,78.384 106.03905,78.463 106.16605,78.55 C106.16205,78.551 106.15805,78.553 106.15505,78.554 C105.46705,78.852 104.80205,79.222 104.20305,79.695 C104.04905,79.807 103.90805,79.937 103.76905,80.068 C103.62405,80.193 103.49705,80.338 103.36805,80.48 Z M73.7850499,56.097 C73.6720499,55.914 73.5650499,55.729 73.4620499,55.543 L73.3090499,55.258 C73.2530499,55.15 73.1890499,55.045 73.1180499,54.946 C72.8300499,54.538 72.4560499,54.272 72.1990499,53.971 C71.7070499,53.396 71.3270499,52.658 70.7790499,52.014 C71.4450499,51.902 72.0690499,51.72 72.3020499,51.216 C73.4380499,51.942 74.6670499,52.172 75.2180499,50.594 C75.2410499,50.527 75.2600499,50.459 75.2770499,50.391 C75.3060499,50.486 75.3360499,50.58 75.3620499,50.676 C75.5740499,51.426 75.7880499,52.211 76.2240499,52.902 C76.6560499,53.592 77.2400499,54.142 77.7470499,54.725 C78.2460499,55.311 78.7120499,55.946 79.1520499,56.586 C79.3720499,56.907 79.5840499,57.234 79.7910499,57.564 C79.9970499,57.898 80.2020499,58.224 80.3630499,58.565 C80.5230499,58.903 80.6580499,59.275 80.7580499,59.632 C80.8560499,59.993 80.9000499,60.369 80.9390499,60.759 C80.9400499,60.765 80.9410499,60.772 80.9410499,60.779 C80.5870499,61.044 80.4330499,61.361 79.7280499,61.153 C79.2010499,60.998 78.9420499,60.71 78.4560499,60.607 C78.0740499,60.076 77.6440499,59.599 77.2480499,59.124 C76.9830499,58.812 76.7660499,58.499 76.4770499,58.148 C76.3360499,57.982 76.1790499,57.83 76.0260499,57.675 C75.8610499,57.536 75.7070499,57.382 75.5320499,57.257 C74.9970499,56.845 74.4290499,56.509 73.8530499,56.202 C73.8310499,56.167 73.8070499,56.132 73.7850499,56.097 Z M70.1690499,52.104 C70.1990499,52.137 70.2320499,52.169 70.2600499,52.201 C70.8210499,52.818 71.1910499,53.61 71.7830499,54.331 C72.0960499,54.695 72.4430499,54.953 72.6540499,55.271 C72.7090499,55.351 72.7580499,55.434 72.8020499,55.52 L72.9030499,55.716 C72.3180499,55.422 71.7390499,55.133 71.1940499,54.8 C70.5010499,54.386 69.8680499,53.889 69.3550499,53.286 C69.1570499,53.053 68.9830499,52.801 68.8190499,52.542 C69.0600499,52.275 69.5880499,52.186 70.1690499,52.104 Z M76.8100499,60.36 C76.6610499,60.144 76.4830499,59.978 76.3430499,59.831 C76.2730499,59.757 76.2100499,59.685 76.1560499,59.612 C76.1290499,59.575 76.1040499,59.538 76.0800499,59.499 L75.9940499,59.359 C75.7610499,58.976 75.5130499,58.608 75.2600499,58.247 C75.0530499,57.95 74.8430499,57.657 74.6360499,57.364 C74.8120499,57.483 74.9840499,57.608 75.1500499,57.74 C75.3100499,57.858 75.4460499,58 75.5960499,58.128 C75.7300499,58.269 75.8690499,58.408 75.9930499,58.557 C76.2270499,58.846 76.4790499,59.215 76.7450499,59.536 C77.0300499,59.887 77.3170499,60.225 77.5850499,60.568 C77.3820499,60.574 77.1790499,60.583 76.9820499,60.582 C76.9660499,60.582 76.9550499,60.583 76.9410499,60.583 C76.8990499,60.51 76.8580499,60.435 76.8100499,60.36 Z M86.2300499,60.69 L86.2220499,60.052 C86.2170499,59.588 86.2200499,59.125 86.2300499,58.663 C86.2840499,58.801 86.3310499,58.941 86.3790499,59.082 C86.4360499,59.596 86.4770499,60.107 86.4940499,60.631 C86.5140499,61.007 86.5110499,61.364 86.5290499,61.757 C86.4780499,61.885 86.4320499,62.014 86.3970499,62.147 C86.3060499,62.005 86.2210499,61.861 86.1530499,61.728 C86.1760499,61.613 86.1960499,61.494 86.2090499,61.373 C86.2360499,61.141 86.2340499,60.899 86.2300499,60.69 Z M79.1520499,51.204 C79.9810499,51.345 80.9480499,50.554 81.6230499,51.244 C81.5820499,52.262 81.2760499,52.936 80.9270499,53.879 C81.1800499,54.288 81.8410499,54.177 82.5940499,53.901 C82.6320499,54.066 82.6700499,54.231 82.7090499,54.396 C82.8300499,54.906 82.9480499,55.413 83.0630499,55.92 L83.0400499,58.999 C83.0320499,59.463 83.0450499,59.946 83.0150499,60.377 C82.9990499,60.594 82.9720499,60.812 82.9400499,61.034 C82.6120499,60.785 82.2990499,60.546 81.9000499,60.504 C81.8090499,60.225 81.7190499,59.947 81.6280499,59.671 C81.3770499,58.915 81.1450499,58.144 80.8430499,57.386 C80.5410499,56.629 80.1580499,55.884 79.6350499,55.233 C79.1130499,54.585 78.4950499,54.059 77.9690499,53.486 C77.4520499,52.923 77.0820499,52.226 76.6700499,51.531 C76.2510499,50.83 75.7770499,50.187 75.3360499,49.524 C75.3170499,49.496 75.3000499,49.469 75.2810499,49.442 C75.2320499,49.273 75.1510499,49.122 75.0360499,48.998 C74.9740499,48.852 74.9170499,48.703 74.8610499,48.554 C75.5830499,48.169 76.4300499,47.074 76.9030499,46.825 C77.3980499,48.291 79.0560499,48.236 80.3530499,47.941 C79.9910499,48.928 79.0940499,50.138 79.1520499,51.204 Z M70.6650499,63.041 C70.3490499,62.801 69.9610499,62.785 69.6590499,62.767 C70.0020499,62.373 70.2850499,61.875 70.6730499,61.537 C71.2540499,61.031 71.1070499,61.416 71.6660499,61.209 C72.1540499,61.028 72.4350499,61.143 72.5810499,60.434 C72.7790499,59.471 71.8910499,59.246 71.6640499,58.497 C71.4660499,57.845 71.9670499,57.452 71.9570499,56.866 C71.2110499,56.481 70.2560499,57.655 69.7620499,56.87 C69.5440499,56.524 69.8950499,55.743 69.8040499,55.32 C69.6780499,54.727 69.3030499,54.241 68.9850499,53.723 C68.9240499,53.624 68.8770499,53.534 68.8360499,53.448 C68.8790499,53.503 68.9160499,53.562 68.9610499,53.616 C69.5090499,54.28 70.1890499,54.824 70.9060499,55.266 C71.7360499,55.785 72.6110499,56.201 73.4440499,56.652 C73.8630499,57.323 74.3180499,57.959 74.7520499,58.597 C74.9960499,58.957 75.2320499,59.317 75.4500499,59.685 L75.5340499,59.826 C75.5670499,59.882 75.6020499,59.935 75.6390499,59.987 C75.7130499,60.091 75.7940499,60.185 75.8730499,60.27 C76.0120499,60.419 76.1300499,60.542 76.2240499,60.668 C75.7530499,60.784 75.3940499,60.991 74.7960499,61.137 C73.9770499,61.337 73.1100499,61.089 72.2790499,61.203 C71.5650499,61.301 71.7360499,61.351 71.3640499,62.048 C71.2030499,62.348 70.9120499,62.692 70.6840499,63.055 C70.6770499,63.051 70.6710499,63.047 70.6650499,63.041 Z M79.4530499,87.857 C79.4650499,87.448 79.4480499,87.012 79.5060499,86.679 C79.5640499,86.314 79.7100499,85.909 79.7490499,85.411 C79.7830499,84.938 79.7340499,84.517 79.7500499,84.141 C79.7480499,83.86 79.8470499,83.576 79.9500499,83.221 C79.9560499,83.263 79.9620499,83.306 79.9680499,83.347 C80.0320499,83.779 80.0880499,84.188 80.0970499,84.595 L80.0860499,85.901 L80.0670499,88.515 L80.0620499,89.25 C80.0610499,89.259 80.0610499,89.267 80.0600499,89.276 C79.8470499,89.214 79.6790499,89.163 79.4570499,89.163 C79.4520499,88.726 79.4490499,88.292 79.4530499,87.857 Z M102.51505,83.098 C102.47205,83.033 102.44005,82.96 102.41605,82.88 C102.53505,82.703 102.67505,82.535 102.82405,82.373 C102.89605,82.296 102.97305,82.222 103.04905,82.148 C102.93405,82.359 102.82205,82.569 102.71105,82.772 C102.65005,82.884 102.57905,82.989 102.51505,83.098 Z M90.2050499,58.759 C91.2630499,59.226 90.9420499,59.654 90.8210499,60.597 C90.7440499,61.205 90.8960499,61.928 91.3140499,62.371 C91.2530499,62.429 91.1920499,62.486 91.1350499,62.548 C90.8280499,62.873 90.5720499,63.227 90.3120499,63.499 C90.1880499,63.621 90.0470499,63.715 89.8750499,63.802 C89.7030499,63.888 89.4970499,63.97 89.2890499,64.095 C89.2820499,64.098 89.2750499,64.104 89.2680499,64.108 C89.0750499,64.045 88.8860499,63.971 88.7050499,63.877 C88.4310499,63.733 88.1950499,63.547 87.9380499,63.4 C87.8850499,63.37 87.8120499,63.341 87.7290499,63.311 C87.7200499,62.754 87.6920499,62.195 87.6350499,61.637 C87.6130499,61.428 87.5870499,61.219 87.5570499,61.01 C87.5950499,60.97 87.6320499,60.929 87.6720499,60.89 C88.2060499,60.373 88.8340499,59.901 89.4340499,59.417 C89.6930499,59.21 89.9560499,58.993 90.2050499,58.759 Z M71.2930499,66.053 C71.2070499,65.928 71.1140499,65.69 71.0540499,65.429 C71.1710499,65.63 71.2660499,65.833 71.2930499,66.053 Z M71.0010499,65.1 C70.9530499,64.599 71.0820499,64.146 71.6600499,64.338 C71.4030499,64.607 71.1890499,64.86 71.0010499,65.1 Z M71.0160499,102.054 C70.9920499,102.018 70.9650499,101.984 70.9410499,101.949 C70.8380499,101.512 70.7420499,101.085 70.6700499,100.633 C70.6060499,100.28 70.4970499,99.899 70.3340499,99.557 C70.2540499,99.387 70.1650499,99.226 70.0740499,99.073 L69.8140499,98.641 C69.4860499,98.083 69.1970499,97.447 68.7460499,96.854 C68.6360499,96.711 68.4980499,96.553 68.3740499,96.435 C68.2480499,96.314 68.1260499,96.188 67.9960499,96.071 C67.7390499,95.835 67.4740499,95.609 67.2060499,95.391 C66.1250499,94.525 64.9730499,93.799 63.8790499,93.025 C62.7790499,92.255 61.7540499,91.433 60.8790499,90.43 C59.9920499,89.444 59.1630499,88.346 58.2320499,87.358 C57.8880499,86.975 57.5550499,86.58 57.2160499,86.183 C57.2400499,86.107 57.2610499,86.029 57.2700499,85.945 C57.3600499,85.025 57.1160499,85.262 57.8810499,85.008 C58.3800499,84.842 58.7640499,84.707 59.2950499,84.681 C60.1170499,84.643 60.0350499,84.689 60.5890499,85.139 C61.6970499,86.038 62.7440499,86.416 64.1550499,86.256 C64.9810499,86.162 64.6050499,85.914 65.1560499,85.364 C65.3800499,85.14 66.0320499,85.022 66.3320499,84.99 C66.8100499,84.938 67.2050499,85.107 67.5940499,84.829 C67.9230499,84.594 68.3710499,83.845 68.6740499,83.523 C69.4060499,82.747 70.1070499,82.151 70.3390499,81.172 C70.3420499,81.159 70.3460499,81.147 70.3490499,81.135 C70.5120499,81.238 70.6720499,81.346 70.8250499,81.462 C70.9230499,81.536 71.0140499,81.617 71.1070499,81.697 C71.1360499,81.733 71.1660499,81.767 71.1940499,81.803 C71.4210499,82.085 71.6400499,82.375 71.8600499,82.669 C72.0720499,82.952 72.2620499,83.242 72.4380499,83.551 C72.7890499,84.167 73.0820499,84.829 73.3840499,85.503 C73.6860499,86.174 74.0050499,86.865 74.4030499,87.516 C74.4230499,87.549 74.4430499,87.579 74.4630499,87.61 C74.4220499,87.631 74.3830499,87.646 74.3410499,87.671 C73.7100499,88.038 73.3810499,89.61 72.5600499,89.709 C72.0860499,89.765 72.0600499,89.244 71.7460499,89.09 C71.3510499,89.845 70.6750499,90.323 69.7790499,89.971 C69.3350499,89.798 69.0330499,89.207 68.6800499,88.898 C68.0670499,88.363 67.6370499,88.109 66.8270499,88.091 C66.1870499,88.076 64.3590499,87.831 63.7050499,88.138 C63.4610499,88.254 63.3810499,88.551 63.2420499,88.785 C62.9410499,89.292 62.3580499,89.882 62.1410499,90.433 C61.6950499,91.567 62.8390499,91.75 63.7490499,91.952 C64.6270499,92.147 65.1060499,92.551 65.7610499,93.051 C66.8590499,93.888 68.7850499,94.48 70.0750499,94.82 C70.5590499,94.947 71.8930499,95.16 72.9790499,95.031 C72.9550499,95.109 72.9380499,95.183 72.9300499,95.252 C72.8710499,95.77 73.1580499,96.635 73.4670499,97.072 C73.9810499,97.798 75.0900499,98.012 75.8060499,98.378 C76.2760499,98.618 76.7630499,98.902 77.2790499,99.029 C77.4610499,99.074 77.7020499,99.112 77.9600499,99.137 C77.9530499,99.162 77.9460499,99.186 77.9400499,99.211 C77.7190499,100.088 77.5230499,100.963 77.3140499,101.84 L76.6980499,104.472 C76.5120499,105.371 76.3720499,106.273 76.2500499,107.168 L75.8990499,109.832 C75.8000499,110.538 75.7260499,111.252 75.6650499,111.964 C75.6030499,111.909 75.5400499,111.851 75.4780499,111.797 C75.3460499,111.44 75.2150499,111.082 75.0850499,110.725 C74.8140499,109.986 74.5470499,109.247 74.2890499,108.507 L74.0980499,107.951 C74.0310499,107.758 73.9630499,107.564 73.8890499,107.373 C73.7430499,106.99 73.5810499,106.611 73.4050499,106.24 C73.2290499,105.869 73.0380499,105.506 72.8360499,105.15 C72.7340499,104.973 72.6310499,104.798 72.5250499,104.625 C72.4210499,104.456 72.3260499,104.3 72.2300499,104.131 C71.8450499,103.465 71.4790499,102.749 71.0160499,102.054 Z M84.7380499,55.009 C84.7900499,55.042 84.8700499,55.057 84.9630499,55.065 C85.1060499,55.61 85.2620499,56.153 85.4450499,56.694 C85.5150499,56.899 85.5890499,57.103 85.6670499,57.306 C85.6630499,57.361 85.6570499,57.415 85.6540499,57.47 C85.5970499,58.332 85.5740499,59.194 85.5710499,60.054 C85.5620499,60.481 85.5920499,60.927 85.5460499,61.296 C85.5380499,61.359 85.5250499,61.425 85.5140499,61.489 C85.0900499,61.643 84.8150499,61.763 84.4650499,61.738 C84.4540499,61.457 84.4400499,61.179 84.4260499,60.908 C84.4150499,60.686 84.4060499,60.47 84.4050499,60.253 L84.4020499,59.573 L84.4000499,58.892 C84.3980499,58.651 84.3480499,58.385 84.2910499,58.159 C84.2330499,57.928 84.1680499,57.719 84.1250499,57.519 L83.9970499,56.865 C83.9200499,56.484 83.8320499,56.109 83.7430499,55.734 L83.7380499,54.776 L83.7340499,54.072 L83.7330499,53.72 C83.7310499,53.624 83.7180499,53.524 83.7060499,53.426 C83.9780499,53.299 84.2390499,53.174 84.4830499,53.063 C84.5670499,53.437 84.6520499,53.811 84.7410499,54.185 C84.5800499,54.549 84.5120499,54.868 84.7380499,55.009 Z M65.1460499,96.029 C64.9500499,95.89 64.7560499,95.741 64.5650499,95.588 C64.4400499,95.394 64.3120499,95.205 64.1830499,95.024 L63.5520499,94.141 C63.3340499,93.829 63.0900499,93.522 62.8330499,93.24 C62.7570499,93.157 62.6770499,93.08 62.5990499,93.001 C62.8760499,93.219 63.1570499,93.43 63.4400499,93.637 C64.5410499,94.442 65.6690499,95.183 66.6860499,96.027 C66.9380499,96.24 67.1850499,96.457 67.4220499,96.682 C67.5420499,96.794 67.6520499,96.913 67.7680499,97.028 C67.8880499,97.145 67.9690499,97.246 68.0640499,97.371 C68.4280499,97.862 68.6990499,98.47 69.0410499,99.083 L69.2970499,99.524 C69.3760499,99.663 69.4480499,99.801 69.5100499,99.937 C69.5660499,100.061 69.6110499,100.187 69.6500499,100.317 C69.6090499,100.264 69.5680499,100.214 69.5270499,100.161 C69.0450499,99.544 68.5630499,98.902 68.0150499,98.292 C67.4690499,97.682 66.8520499,97.095 66.1190499,96.643 L65.6110499,96.34 C65.4550499,96.24 65.2990499,96.139 65.1460499,96.029 Z M82.0630499,134.563 C82.0540499,134.965 82.0430499,135.366 82.0310499,135.768 C82.0270499,135.601 82.0240499,135.434 82.0200499,135.267 L81.9870499,133.325 C82.0210499,133.002 82.0520499,132.678 82.0790499,132.352 C82.0840499,133.087 82.0790499,133.824 82.0630499,134.563 Z M86.6140499,99.451 C86.7630499,99.785 86.4420499,99.897 86.2200499,100.075 C86.3470499,99.865 86.4770499,99.656 86.6120499,99.451 C86.6120499,99.451 86.6130499,99.451 86.6140499,99.451 Z M68.6130499,105.262 C68.5130499,105.205 68.4110499,105.15 68.3080499,105.096 C68.2880499,105.068 68.2690499,105.042 68.2500499,105.013 C67.8340499,104.421 67.4480499,103.849 67.1650499,103.241 C66.8770499,102.635 66.6940499,101.982 66.5310499,101.281 C66.4480499,100.932 66.3670499,100.573 66.2720499,100.209 C66.2230499,100.027 66.1720499,99.845 66.1140499,99.661 L65.9420499,99.142 C65.7750499,98.623 65.6450499,98.06 65.4630499,97.486 L65.5540499,97.542 C66.1610499,97.929 66.6970499,98.446 67.1940499,99.017 C67.6920499,99.588 68.1510499,100.216 68.6310499,100.849 C68.8700499,101.166 69.1140499,101.485 69.3750499,101.8 C69.5100499,101.967 69.6190499,102.092 69.7290499,102.241 C69.8380499,102.387 69.9420499,102.539 70.0440499,102.694 C70.0920499,102.769 70.1380499,102.848 70.1850499,102.926 C70.2480499,103.213 70.3070499,103.498 70.3550499,103.78 C70.4110499,104.083 70.4220499,104.376 70.4180499,104.699 C70.4100499,105.251 70.3490499,105.851 70.3890499,106.493 C70.2810499,106.443 70.1730499,106.397 70.0670499,106.358 C69.6230499,105.958 69.1470499,105.583 68.6130499,105.262 Z M60.8440499,103.859 C60.5240499,103.753 60.1870499,103.733 59.8950499,103.733 L58.1850499,103.75 L54.7820499,103.784 C54.0670499,103.789 53.3550499,103.785 52.6510499,103.737 C52.5400499,103.69 52.4280499,103.642 52.3170499,103.594 C51.6930499,103.315 51.0770499,103.012 50.4520499,102.708 C50.3870499,102.678 50.3250499,102.643 50.2610499,102.611 C50.4210499,102.599 50.5730499,102.579 50.7030499,102.542 C51.5080499,102.307 51.3600499,101.321 51.3210499,100.648 C51.2540499,99.522 50.9130499,99.406 49.9040499,99.4 C49.5230499,99.398 48.7190499,99.424 48.5280499,98.95 C48.3530499,98.514 48.8510499,98.029 48.9810499,97.669 C49.4180499,96.454 48.5370499,97.121 47.8790499,97.212 C47.4410499,97.271 47.0740499,97.315 46.9080499,96.915 C46.8410499,96.755 46.9790499,96.449 46.9480499,96.265 C46.9110499,96.035 46.7120499,95.843 46.6820499,95.634 C46.5710499,94.855 47.3700499,94.992 47.7250499,94.243 C48.2730499,93.084 47.3470499,92.893 46.5910499,92.33 C46.0490499,91.926 45.3140499,91.415 44.9300499,90.782 C44.9730499,90.735 45.0160499,90.684 45.0620499,90.625 C45.3160499,90.295 45.5040499,89.569 45.8480499,89.389 C46.3790499,89.111 47.2800499,89.627 47.8080499,89.703 C48.5470499,89.808 48.8180499,89.866 49.2070499,90.608 C49.6740499,90.564 49.6590499,89.875 49.7450499,89.533 C49.9110499,88.877 50.0380499,88.783 50.7150499,88.595 C51.1200499,88.481 51.8500499,88.222 52.2740499,88.482 C52.8650499,88.844 52.5870499,90.039 52.5200499,90.616 C53.0690499,88.713 54.2250499,87.915 55.7900499,87.426 C55.8490499,87.531 55.9100499,87.637 55.9690499,87.743 C56.3230499,88.38 56.6890499,89.031 57.1500499,89.641 C57.5480499,90.179 58.0380499,90.667 58.5870499,91.074 C58.9410499,91.758 59.3470499,92.45 59.8990499,93.054 C60.1830499,93.371 60.5050499,93.663 60.8580499,93.909 L61.3460499,94.247 C61.4990499,94.357 61.6500499,94.469 61.8000499,94.587 C62.3990499,95.057 62.9690499,95.591 63.5810499,96.114 C63.6660499,96.186 63.7540499,96.258 63.8400499,96.33 C64.0430499,96.673 64.2190499,97.02 64.3460499,97.385 C64.5730499,98.019 64.7090499,98.726 64.9280499,99.457 L65.0910499,99.975 C65.1410499,100.138 65.1840499,100.307 65.2270499,100.476 C65.3110499,100.816 65.3840499,101.167 65.4630499,101.525 C65.6180499,102.24 65.8130499,102.999 66.1380499,103.713 C66.2690499,104.007 66.4210499,104.285 66.5790499,104.556 C66.5320499,104.553 66.4850499,104.547 66.4400499,104.544 C66.0630499,104.519 65.7140499,104.528 65.3940499,104.512 C65.2340499,104.504 65.0810499,104.489 64.9340499,104.465 C64.8580499,104.453 64.7930499,104.436 64.7150499,104.42 L64.4660499,104.357 C64.1350499,104.273 63.7970499,104.18 63.4390499,104.105 C63.0810499,104.028 62.7060499,103.978 62.3390499,103.961 C61.9400499,103.939 61.5420499,103.95 61.1480499,103.979 C61.0510499,103.935 60.9510499,103.893 60.8440499,103.859 Z M103.07505,102.155 C102.90705,102.231 102.75205,102.325 102.60705,102.427 C102.15305,102.749 101.76905,103.131 101.38705,103.502 C101.33505,103.553 101.28305,103.601 101.23205,103.651 C100.94105,103.888 100.64605,104.118 100.33505,104.321 C99.9050499,104.605 99.4590499,104.866 99.0020499,105.106 C98.5460499,105.346 98.0780499,105.568 97.6040499,105.778 C97.1330499,105.992 96.6460499,106.179 96.1640499,106.407 C95.2060499,106.855 94.2970499,107.373 93.3640499,107.811 C92.4780499,108.249 91.4110499,108.328 90.3950499,108.818 C89.9580499,109.034 89.5010499,109.209 89.0350499,109.38 C88.9430499,109.385 88.8500499,109.391 88.7480499,109.402 C88.6430499,109.416 88.5420499,109.434 88.4410499,109.453 C88.7130499,109.18 88.9840499,108.913 89.2610499,108.665 C89.6730499,108.294 90.1170499,107.946 90.5690499,107.596 L91.2510499,107.066 C91.4740499,106.894 91.7240499,106.68 91.9280499,106.479 C92.1400499,106.276 92.3380499,106.073 92.5390499,105.894 C92.7410499,105.71 92.9300499,105.578 93.1680499,105.453 C93.6300499,105.21 94.2210499,105.016 94.7310499,104.66 C95.2270499,104.327 95.6900499,103.949 96.1060499,103.513 C96.3130499,103.295 96.5080499,103.06 96.6810499,102.804 C96.7650499,102.679 96.8500499,102.532 96.9150499,102.408 C96.9730499,102.3 97.0470499,102.188 97.1260499,102.072 C97.2810499,101.844 97.4720499,101.583 97.5920499,101.279 C97.7130499,100.986 97.7830499,100.698 97.8660499,100.437 C97.9500499,100.168 98.0380499,99.958 98.1920499,99.725 C98.3400499,99.491 98.5000499,99.263 98.6700499,99.042 C99.0100499,98.599 99.3860499,98.179 99.7840499,97.781 C99.8230499,97.742 99.8650499,97.706 99.9040499,97.668 C100.10905,97.97 100.27105,98.344 100.39405,98.84 C100.53205,99.401 100.49905,100.922 101.04105,101.249 C101.34705,101.433 102.14205,101.281 102.48105,101.276 C103.14905,101.267 103.81605,101.274 104.48405,101.274 C104.49205,101.287 104.50005,101.3 104.50905,101.312 C104.37505,101.38 104.24105,101.448 104.10805,101.518 C103.74505,101.701 103.40305,101.919 103.07505,102.155 Z M140.89005,92.723 C140.87405,92.576 140.94905,92.478 141.11205,92.431 C140.78405,92.062 140.02505,91.733 139.56505,91.429 C139.05005,91.091 138.61305,90.711 138.13005,90.36 C137.97305,90.246 137.93805,90.104 137.78705,90.022 C137.58905,90.485 137.27505,90.797 136.83705,91.038 C136.57605,91.181 136.04105,91.244 135.93505,91.554 C136.04805,91.775 136.19205,91.973 136.36505,92.15 C135.78405,92.376 135.09305,92.18 134.57805,92.041 C134.34205,91.976 133.63305,91.635 133.37305,91.931 C133.07105,92.275 133.43805,93.255 133.29805,93.677 C132.84905,95.035 131.20105,94.895 130.19505,95.458 C130.10705,96.595 129.77405,98.053 128.35905,98.103 C128.02405,97.515 128.96605,97.464 128.46105,96.883 C128.30105,96.698 127.97805,96.713 127.78405,96.556 C127.40305,96.25 127.02705,95.502 126.79105,95.071 C126.42105,94.394 126.55405,94.124 126.90005,93.449 C127.11505,93.028 127.28405,92.642 127.45805,92.205 C127.76005,92.436 128.07405,92.704 128.31705,92.766 C129.27905,93.013 129.63305,92.042 129.81305,91.258 C129.92405,90.776 130.29805,89.959 129.98205,89.6 C129.81605,89.413 129.18405,89.223 128.68305,89.135 C128.65205,89.028 128.60505,88.925 128.53705,88.824 C128.86505,88.527 129.19005,88.054 129.21605,87.79 C129.27205,87.244 129.24505,87.515 129.02805,87.102 C128.90205,86.864 128.74705,86.647 128.63305,86.405 C128.41705,85.947 128.40805,86.046 127.99405,85.634 C127.70605,85.346 127.71005,85.174 127.39505,84.99 C127.02805,84.777 126.51305,84.696 126.12605,84.465 C125.45105,84.059 124.31405,83.23 125.46505,82.736 C125.46405,82.408 125.22605,82.237 125.20505,81.907 C125.76205,81.591 127.20005,82.195 127.60105,82.563 C127.93005,82.865 127.92505,83.332 128.29805,83.461 C129.43305,83.852 129.23005,82.714 129.63305,82.088 C130.20105,81.207 130.59605,81.601 131.37005,81.944 C131.86005,82.161 132.57405,82.362 133.17205,82.168 C134.25405,81.815 133.91505,80.651 134.49305,79.951 C134.96205,79.382 135.79705,79.836 136.46305,79.613 C136.99505,79.436 138.29105,78.216 138.32305,77.788 C138.39805,76.796 136.90205,76.246 135.93805,76.22 C136.97405,76.041 137.70005,74.409 137.67605,73.448 C136.85905,73.273 135.84905,73.409 135.19505,73.921 C135.14105,73.423 134.93305,72.99 134.49605,72.686 C133.72505,72.149 132.52105,72.301 131.85905,71.599 C132.18105,71.493 132.40005,71.56 132.76305,71.554 C133.71605,71.539 134.65205,71.295 135.60505,71.256 C136.09305,71.236 136.91005,71.43 137.35005,71.14 C137.79505,70.846 138.21605,69.732 138.21605,69.224 C138.21705,68.621 137.85505,68.141 138.07405,67.477 C138.23405,66.997 139.33205,65.782 138.07305,65.858 C137.88005,65.392 138.27205,64.596 137.48205,64.597 C137.85105,63.936 138.73205,63.613 139.28005,63.109 C138.31905,62.874 136.70805,63.821 135.90505,63.36 C135.50805,63.133 135.47305,62.908 134.91405,62.701 C133.27405,62.094 132.75705,61.291 132.22405,59.643 C131.97205,58.865 131.40005,58.368 130.52405,58.358 C130.15905,58.354 129.23105,58.887 128.89805,58.685 C128.40505,58.388 128.56105,57.093 128.38705,56.567 C127.47005,56.238 126.30305,57.345 125.52505,57.741 C125.48705,56.073 127.97205,55.156 126.69505,53.451 C126.01605,52.543 124.80405,52.248 124.83905,50.91 C124.86505,49.921 125.49205,49.012 126.44605,48.726 C126.93705,48.579 127.56805,48.7 127.75105,48.085 C128.14505,46.761 126.02505,46.661 126.10605,45.924 C127.06005,45.588 128.23805,46.25 129.12605,45.7 C130.06705,45.118 130.25905,43.814 131.07105,43.142 C131.13905,43.298 131.25805,43.376 131.43005,43.378 C133.03305,41.445 132.60305,38.666 130.48905,37.291 C130.23505,37.126 129.96505,36.997 129.66505,36.941 C129.54005,37.088 129.38405,37.111 129.19605,37.009 C128.65105,36.945 128.12305,36.801 127.61305,36.576 C126.27805,36.4 125.68205,36.634 125.52205,38.107 C125.46205,38.655 125.44705,39.254 125.48405,39.819 C125.29205,38.953 124.31705,37.578 123.61505,37.438 C122.88905,37.292 122.06405,38.856 121.47305,39.115 C120.50905,39.535 119.82105,38.724 118.99105,38.264 C118.63405,38.066 118.12005,37.937 117.99705,37.488 C119.08605,37.23 120.06905,37.105 121.08205,36.57 C122.85905,35.63 121.14505,35.22 120.79305,34.035 C120.54905,33.212 121.17705,31.854 121.43705,31.059 C121.77305,30.03 121.58805,29.97 120.87305,29.202 C120.48905,28.79 120.24505,27.995 119.56805,28.036 C118.73805,28.086 118.56405,29.656 117.55905,29.59 C116.40305,29.513 115.59405,27.924 114.54405,27.536 C113.53205,27.162 112.80605,28.078 112.27505,28.948 C111.29605,27.321 110.03505,25.695 109.38805,23.973 C109.21305,23.507 109.06705,22.5 108.75905,22.121 C108.37705,21.652 106.67505,20.959 106.11405,21.21 C105.97305,22.785 105.10805,23.094 103.62105,23.304 C102.83105,23.415 101.60605,23.861 100.74505,23.615 C100.74505,24.371 100.47505,25.602 99.8850499,25.871 C99.7890499,25.412 99.7450499,25.013 99.5440499,24.583 C99.4160499,24.311 98.6030499,23.607 98.5790499,23.338 C98.5270499,22.769 99.8810499,22.069 100.29305,21.767 C100.91705,21.309 102.30105,20.81 102.15205,19.989 C102.03605,19.341 100.92705,18.666 100.45405,18.258 C99.6160499,17.537 98.7160499,16.95 97.8550499,16.269 C97.3080499,15.836 97.3010499,15.77 96.7120499,16.148 C96.3490499,16.382 95.7180499,17.223 95.3580499,16.46 C94.7860499,16.892 94.3740499,18.477 94.5150499,19.258 C94.7380499,20.498 96.0560499,21.226 96.5480499,22.366 C96.4930499,22.463 96.4410499,22.56 96.3850499,22.656 C95.9620499,23.378 95.5450499,24.112 95.1710499,24.862 C95.0670499,25.06 94.9550499,25.254 94.8470499,25.45 C94.9850499,25.14 95.1030499,24.849 95.1750499,24.588 C95.4240499,23.698 96.1740499,22.798 95.1830499,22.12 C94.5920499,21.716 94.2170499,21.892 93.6200499,21.7 C93.3720499,21.62 93.4900499,21.152 93.0060499,21.337 C92.8250499,20.807 93.0020499,20.155 92.4910499,19.758 C92.2730499,19.588 92.0770499,19.588 91.8700499,19.591 C91.8980499,19.385 91.9110499,19.175 91.8930499,18.968 C92.4200499,18.562 93.1420499,18.229 93.5400499,17.767 C94.0100499,17.22 94.3220499,16.777 94.1500499,16.056 C94.0580499,15.677 93.6670499,14.985 93.2910499,14.85 C92.9400499,14.725 92.5420499,14.991 92.1810499,15.053 C92.2760499,14.771 92.3220499,14.46 92.3190499,14.097 C92.3180499,13.997 92.3210499,13.892 92.3270499,13.784 C92.4200499,13.671 92.5120499,13.574 92.5940499,13.507 C93.2140499,12.999 94.3100499,13.657 94.5760499,12.731 C94.8410499,11.813 91.9300499,9.39 91.2970499,10.445 C91.7610499,9.642 92.0560499,8.66 92.2660499,7.771 C92.3130499,7.574 92.3470499,7.374 92.3930499,7.178 C92.0360499,7.803 91.5160499,8.356 91.1810499,8.966 C90.8700499,9.531 90.8710499,10.352 90.4520499,10.809 C90.3490499,10.756 90.2190499,10.683 90.0830499,10.619 C90.0700499,10.609 90.0560499,10.602 90.0430499,10.591 C89.0540499,9.752 89.8090499,9.066 89.8450499,8.103 C89.5050499,8.504 88.4520499,8.891 87.9140499,8.643 C87.4380499,8.424 87.3640499,7.586 86.7250499,7.282 C86.8240499,6.928 87.0840499,6.941 87.3170499,6.68 C87.8300499,6.106 87.4620499,6.225 87.3800499,5.733 C87.2470499,4.943 87.3260499,4.351 86.9200499,3.604 C86.5920499,3.003 86.1960499,2.301 85.4860499,3.057 C85.1280499,3.439 85.1420499,4.2 84.9000499,4.626 C84.5690499,5.205 84.2380499,5.216 83.8720499,5.036 C83.7210499,4.349 83.8650499,3.582 83.9110499,2.894 C83.9620499,2.121 84.4180499,0.639 83.8600499,0 C82.4580499,0.026 80.7230499,0.198 79.9820499,1.667 C79.9020499,1.921 79.8220499,2.175 79.7420499,2.429 C79.4530499,2.135 79.1470499,1.894 78.9070499,2.087 C78.3350499,2.548 80.0310499,3.744 78.7170499,3.95 C77.9350499,4.073 77.2950499,3.105 77.0380499,3.952 C76.5150499,3.811 75.9880499,3.666 75.4630499,3.611 C74.4030499,3.5 74.1180499,3.893 73.4910499,4.651 C73.1140499,5.106 73.1680499,5.146 72.6080499,5.197 C72.1650499,5.238 71.1410499,4.944 71.0290499,5.534 C69.9400499,5.779 69.0110499,6.452 67.9290499,6.667 C67.5980499,6.733 67.2180499,6.634 66.9020499,6.72 C65.9220499,6.987 65.6720499,8.287 65.2000499,9.033 C64.5410499,8.507 63.7500499,7.355 62.8750499,7.192 C62.2830499,7.082 61.3280499,7.678 60.6920499,7.777 C59.7810499,7.912 58.8650499,7.979 57.9440499,7.979 C57.6430499,7.997 57.3410499,8.016 57.0390499,8.034 C56.3380499,8.678 57.6660499,9.318 58.0300499,9.743 C58.4100499,10.004 58.6510499,10.366 58.7520499,10.827 C58.6810499,11.097 58.6070499,11.366 58.5300499,11.635 C58.4320499,12.574 58.9210499,12.647 59.4120499,13.324 C60.1280499,14.312 59.4870499,15.006 58.5230499,15.431 C58.3560499,15.44 58.1900499,15.455 58.0260499,15.492 C57.8210499,15.539 57.6150499,15.624 57.4640499,15.775 C56.8290499,15.921 56.2020499,15.975 55.8050499,15.941 C56.4740499,16.735 57.7470499,17.151 58.5770499,17.805 C59.7520499,18.732 60.9050499,18.257 62.2280499,18.635 C62.4890499,19.348 62.2460499,20.263 61.9710499,20.953 C61.5510499,22.01 61.1820499,21.866 60.0890499,21.942 C59.1210499,22.01 57.8590499,22.262 56.9700499,21.81 C56.3290499,21.485 56.0600499,20.694 55.3650499,20.495 C55.2360499,20.858 55.0720499,21.203 54.8720499,21.532 C54.2840499,21.522 53.7880499,21.488 53.5420499,20.902 C53.4390499,21.611 51.5350499,21.926 51.3790499,22.034 C50.9740499,21.894 50.7750499,21.434 50.4920499,21.124 C51.0780499,21.316 52.1030499,19.879 51.3350499,19.553 C50.7810499,19.318 49.5090499,19.591 48.9660499,19.729 C48.4020499,19.872 47.2300499,20.059 46.8390499,20.425 C46.5330499,20.711 46.4210499,22.269 46.7110499,22.971 C46.3270499,23.09 45.8380499,23.491 45.6790499,23.645 C45.0490499,24.249 44.8200499,24.281 43.9580499,24.27 C43.4080499,24.263 42.7720499,24.187 42.2300499,24.265 C41.3160499,24.395 41.5830499,24.666 42.1350499,25.193 C41.8900499,25.859 41.3120499,25.951 40.8130499,26.305 C40.2970499,26.672 40.3350499,26.762 40.3580499,27.402 C40.3810499,28.059 40.4160499,28.293 39.8910499,28.63 C39.4980499,28.882 39.2790499,28.761 39.0980499,29.264 C39.0020499,29.532 38.7350499,30.413 38.7820499,30.687 C38.9260499,31.524 40.1210499,31.472 40.6300499,31.853 C41.1950499,32.275 41.0840499,32.823 40.6880499,33.348 C40.2400499,33.944 39.7160499,34.04 40.5090499,34.576 C41.0430499,34.937 41.8370499,35.214 42.4310499,35.501 C43.0580499,35.803 43.6730499,36.161 44.2980499,36.437 C45.0230499,36.756 46.3910499,37.394 45.9720499,38.486 C45.8050499,38.357 45.6500499,38.215 45.5230499,38.044 C45.6480499,38.217 45.8020499,38.362 45.9690499,38.494 C45.8120499,38.889 45.3230499,38.994 45.0460499,39.281 C44.6760499,39.662 44.5540499,40.216 44.2240499,40.633 C45.2690499,41.469 46.7330499,41.525 47.8850499,42.114 C49.2890499,42.832 47.7350499,43.416 47.5890499,44.235 C48.7250499,44.431 49.4720499,45.052 48.8400499,46.095 C50.1540499,46.838 51.5600499,47.434 52.5010499,48.703 C52.9700499,49.335 52.7110499,49.914 53.1070499,50.58 C53.4070499,51.085 53.9630499,51.375 54.4440499,51.66 C54.6670499,51.793 55.1600499,51.957 55.3290499,52.13 C55.6740499,52.485 55.5050499,54.139 55.6100499,54.614 C55.7280499,55.152 55.8860499,55.42 56.0930499,55.891 C56.2730499,56.298 56.2000499,56.611 56.3150499,56.993 C56.4170499,57.333 56.5430499,57.503 56.7020499,57.595 C56.4280499,57.633 56.1600499,57.749 55.7990499,57.665 C55.7400499,57.355 55.6790499,57.045 55.6150499,56.736 C55.1820499,56.631 54.8050499,56.726 54.4830499,57.02 C54.1000499,57.217 53.7490499,57.46 53.4320499,57.752 C53.2060499,57.774 53.1830499,57.599 52.9960499,57.519 C51.7490499,56.988 52.8670499,53.394 52.8240499,52.409 C52.7070499,52.431 52.6270499,52.495 52.5840499,52.599 C52.0890499,52.37 51.3250499,53.041 50.7760499,53.308 C50.6520499,53.081 50.6070499,52.837 50.6390499,52.575 C50.4030499,52.429 50.1470499,52.381 49.8700499,52.43 C49.5280499,51.892 49.8050499,51.03 49.6810499,50.427 C49.6700499,50.374 49.4540499,49.685 49.4350499,49.628 C49.2670499,49.117 49.1960499,48.665 49.0690499,48.112 C48.3870499,48.181 48.5830499,47.602 48.1980499,47.258 C47.9930499,47.166 47.7860499,47.077 47.5770499,46.992 C47.3160499,46.66 47.0070499,46.379 46.6500499,46.149 C45.9490499,45.771 44.9470499,46.154 44.3900499,45.58 C44.0340499,45.213 44.1630499,44.721 43.9180499,44.303 C43.4530499,43.513 42.6260499,43.559 42.2120499,42.599 C41.8240499,41.7 41.5000499,41.043 40.9770499,40.223 C40.6630499,39.731 40.5060499,39.546 40.0540499,39.288 C39.8610499,39.337 39.6750499,39.325 39.4940499,39.251 C39.4000499,39.015 39.2540499,38.816 39.0520499,38.654 C38.2100499,37.981 37.3100499,38.515 36.4850499,38.723 C35.7390499,38.912 35.1350499,39.493 34.4120499,39.631 C33.8500499,39.739 33.3130499,39.393 32.7600499,39.71 C31.7770499,40.274 31.4430499,42.963 30.3650499,43.104 C29.8400499,43.173 28.9850499,42.483 28.4640499,42.341 C27.9150499,42.19 27.4260499,42.116 26.9630499,41.789 C26.7490499,42.704 26.1990499,44.86 27.0400499,45.608 C26.9290499,45.97 26.0200499,46.561 25.7330499,46.697 C25.0850499,47.002 24.2270499,46.831 23.6150499,46.474 C22.7190499,45.951 22.3450499,44.643 21.0550499,44.991 C20.6750499,45.094 20.1170499,45.545 20.2060499,45.862 C19.3180499,46.389 18.5770499,47.043 18.1120499,47.979 C17.8650499,48.476 17.8570499,48.616 17.9500499,49.212 C18.0130499,49.616 18.5540499,50.72 18.3980499,51.04 C18.0010499,51.853 16.2970499,51.469 16.2510499,52.555 C16.2530499,52.675 16.2540499,52.99 16.2550499,53.695 C16.0150499,52.886 13.8330499,52.452 13.1200499,52.434 C12.6680499,52.423 12.3500499,52.618 12.1620499,52.152 C11.9760499,51.69 12.1860499,51.335 11.8950499,50.808 C11.4110499,49.932 10.4570499,48.914 9.36104989,48.985 C8.57704989,49.036 8.57204989,49.675 7.93604989,49.916 C7.58604989,50.048 7.17304989,49.884 6.79504989,49.987 C6.11204989,50.173 5.50404989,50.824 5.34004989,51.504 C4.98504989,52.985 5.96504989,52.867 6.86304989,53.446 C7.34604989,53.757 7.50004989,54.206 7.87904989,54.581 C8.31104989,55.007 8.31304989,54.485 8.43604989,55.254 C8.48404989,55.559 8.51804989,56.172 8.36704989,56.45 C8.21404989,56.731 7.87404989,56.723 7.83404989,57.076 C8.08504989,57.174 8.37804989,57.177 8.64204989,57.115 C7.92004989,57.347 7.37504989,58.829 7.50704989,59.534 C7.40804989,59.375 7.26104989,59.253 7.16904989,59.087 C7.25704989,59.907 6.86104989,60.63 6.87904989,61.434 C7.52204989,61.812 8.99404989,61.497 9.71304989,61.521 C10.5560499,61.552 10.6710499,61.643 10.9420499,62.468 C11.0460499,62.785 11.0440499,62.874 11.1700499,63.163 C11.2350499,63.311 11.4510499,63.66 11.4900499,63.781 C11.7170499,64.488 11.5640499,64.829 12.5000499,64.579 C13.0060499,64.444 13.9420499,63.726 14.3310499,64.307 C14.5050499,64.567 14.2060499,65.005 14.4230499,65.228 C14.6490499,65.462 15.0890499,65.202 15.3160499,65.185 C16.4690499,65.096 16.2160499,66.284 16.5560499,67.154 C16.9520499,68.166 17.5320499,67.728 18.3500499,67.515 C17.8040499,68.018 15.6230499,68.475 15.6390499,69.292 C16.8320499,69.638 18.4400499,69.346 19.6970499,69.346 C20.1370499,69.346 20.5790499,69.361 21.0190499,69.352 C21.4300499,69.344 21.6840499,69.373 22.0330499,69.16 C22.2680499,69.017 22.1760499,68.825 22.4440499,68.745 C22.6090499,69.486 23.0060499,71.593 23.7530499,71.872 C24.2160499,72.045 24.7840499,71.72 25.1800499,71.535 C25.9670499,71.169 26.0910499,71.423 26.4950499,72.012 C27.0280499,71.848 27.5550499,71.673 28.1170499,71.573 C28.6790499,71.473 30.5020499,70.805 30.9320499,71.266 C31.4240499,71.796 30.5720499,73.235 30.4180499,73.728 C30.1510499,74.584 29.5040499,75.644 29.4270499,76.512 C30.4070499,76.606 31.6600499,75.6 32.6080499,75.357 C33.8170499,75.047 33.9500499,75.836 34.8810499,76.326 C35.4720499,76.637 37.5370499,76.231 37.5980499,76.836 C37.7150499,77.992 35.0050499,77.765 34.5250499,78.423 C36.2030499,79.473 37.4720499,77.707 39.0510499,78.151 C39.2570499,78.882 39.4750499,79.588 39.7320499,80.3 C39.8780499,80.705 40.5210499,81.402 40.1700499,81.76 C39.6100499,80.913 36.0910499,80.891 36.2860499,82.137 C36.4780499,82.165 36.6680499,82.199 36.8570499,82.24 C36.8410499,82.723 37.1790499,82.682 37.3570499,83.016 C37.5950499,83.462 37.4100499,83.887 37.5870499,84.331 C38.0530499,84.469 38.4800499,84.329 38.9490499,84.513 C39.3330499,84.663 40.0840499,85.088 40.3790499,85.381 C40.9690499,85.968 40.5670499,86.362 40.0670499,86.867 C39.7760499,87.159 38.5140499,87.902 38.5130499,88.252 C38.5110499,88.907 40.1390499,89.34 40.3340499,90.159 C40.4610499,90.693 40.4450499,91.323 40.4120499,91.941 C40.1200499,91.93 39.8160499,91.894 39.5720499,91.887 C38.9660499,91.865 38.9770499,91.9 38.6360499,91.426 C38.1780499,90.788 38.3240499,90.706 37.5400499,90.633 C37.0710499,90.589 36.5670499,90.496 36.1290499,90.295 C35.2170499,89.874 34.8840499,88.406 36.2410499,88.388 C36.8930499,86.878 34.0280499,87.75 33.3120499,87.333 C32.5870499,86.911 32.5670499,85.669 31.9140499,85.351 C31.0800499,84.946 31.1990499,86.395 30.3950499,86.224 C30.3040499,85.413 29.7680499,84.461 29.3400499,83.77 C28.8530499,83.664 28.4680499,84.575 28.0050499,84.699 C27.6860499,84.784 26.8990499,84.781 26.5680499,84.701 C26.0770499,84.581 25.9540499,84.283 25.3250499,84.366 C24.5940499,84.464 23.4480499,84.58 23.4550499,85.31 C23.8690499,85.212 24.2640499,85.254 24.6420499,85.435 C24.4120499,86.88 22.3170499,87.376 22.8470499,89.379 C23.3620499,91.322 26.8820499,91.687 27.1460499,93.307 C26.5150499,93.337 26.0410499,94.043 25.5850499,94.05 C24.5990499,94.066 24.7780499,93.534 24.0800499,93.188 C23.0600499,92.685 21.4320499,93.366 21.4370499,91.645 C19.8370499,92.34 19.5920499,92.625 18.9210499,90.957 C18.6410499,90.262 18.4610499,89.847 18.4290499,89.069 C18.4160499,88.725 18.6820499,87.58 18.3520499,87.285 C17.5600499,86.579 15.5510499,87.769 14.6920499,87.827 C14.0130499,87.873 13.3350499,87.949 12.7820499,87.531 C12.3460499,87.201 12.4360499,86.552 12.1380499,86.297 C11.4980499,85.748 11.1310499,86.166 10.2730499,85.97 C9.74304989,85.851 9.63004989,85.335 9.07504989,85.265 C7.39204989,85.057 7.71504989,86.572 7.78904989,87.814 C7.87604989,89.292 9.18304989,90.454 7.51304989,90.969 C6.96404989,91.137 6.18904989,90.542 5.92704989,91.306 C5.80204989,91.67 6.03504989,92.029 6.26604989,92.367 C5.63704989,91.666 4.32504989,91.148 4.30804989,90.38 C3.04304989,90.361 3.56104989,88.672 2.49004989,88.718 C1.33004989,88.767 1.39804989,90.164 1.81504989,90.833 C2.10104989,91.291 1.88004989,91.178 2.47604989,91.263 C2.73804989,91.303 3.49204989,91.079 3.68604989,91.299 C4.30804989,92.008 3.12304989,93.526 3.06104989,94.287 C2.56404989,94.625 1.89704989,93.455 1.25404989,93.943 C1.07904989,94.075 1.22404989,94.282 0.941049892,94.413 C0.760049892,94.496 0.236049892,94.377 0.00304989235,94.436 C-0.0719501077,94.799 1.25704989,96.522 1.70204989,96.578 C2.33604989,96.657 2.48504989,95.573 2.52804989,95.06 C2.99604989,94.922 3.44904989,95.114 3.90504989,94.872 C4.47604989,94.568 4.29804989,94.363 4.40604989,93.808 C4.71404989,93.736 5.27104989,93.626 5.55904989,93.816 C5.67204989,93.891 5.75004989,94.328 5.90904989,94.473 C6.44304989,94.962 6.77404989,94.839 6.87304989,95.626 C6.96404989,96.354 6.73804989,97.484 7.62404989,97.83 C8.07004989,98.004 9.56804989,97.42 9.96204989,97.126 C9.79704989,96.584 9.31204989,96.327 9.35504989,95.633 C9.40204989,94.891 9.86404989,94.686 10.6210499,94.686 C11.3460499,94.686 11.8270499,94.886 11.8090499,95.563 C11.8110499,95.515 11.5570499,96.238 11.5530499,96.258 C11.5070499,96.54 11.5200499,96.887 11.5910499,97.158 C12.0970499,97.322 12.6160499,97.142 13.1320499,97.275 C13.4810499,97.365 13.6620499,97.554 14.0720499,97.533 C14.4180499,97.514 14.5620499,97.312 14.8290499,97.267 C15.3880499,97.174 15.5890499,97.307 16.1020499,97.481 C16.8940499,97.749 17.3470499,97.804 17.1220499,98.702 C16.9130499,99.536 16.2680499,100.223 16.6160499,101.251 C17.8300499,101.53 19.7600499,100.925 20.9130499,100.562 C21.3260499,100.433 21.8760499,100.074 22.1900499,100.505 C22.3820499,100.768 22.1390499,101.539 22.2500499,101.884 C22.7980499,103.586 24.8010499,103.804 26.2900499,103.782 C27.0890499,103.77 27.4490499,103.825 28.1490499,104.021 C28.5870499,104.144 28.7910499,104.133 29.1590499,103.887 C30.1000499,103.259 30.4310499,101.803 31.8890499,102.269 C32.8790499,102.587 33.7610499,103.708 34.8830499,103.444 C35.7110499,103.25 36.4920499,102.504 37.3780499,102.501 C38.7440499,102.496 39.5090499,103.99 40.6870499,104.357 C41.7380499,104.685 42.9670499,103.897 43.9030499,103.537 C44.3500499,103.364 44.9830499,103.332 45.3800499,103.168 C45.8100499,102.99 45.6460499,102.687 45.9810499,102.386 C46.4250499,101.984 47.1230499,102.249 47.7450499,102.419 C47.8700499,102.534 47.9990499,102.646 48.1350499,102.752 C49.0660499,103.479 50.1950499,103.928 51.3390499,104.141 C51.5300499,104.179 51.7220499,104.208 51.9140499,104.235 C51.9440499,104.25 51.9740499,104.264 52.0040499,104.279 C52.6400499,104.576 53.2920499,104.85 53.9730499,105.074 C54.6500499,105.291 55.3850499,105.458 56.1220499,105.463 C57.5810499,105.506 58.9760499,105.148 60.3040499,104.969 C60.6420499,104.925 60.9790499,104.891 61.3140499,104.876 C61.3440499,104.887 61.3740499,104.897 61.4030499,104.906 C61.7480499,105.012 62.0800499,104.998 62.3210499,105.023 C62.4470499,105.035 62.5670499,105.055 62.6800499,105.085 C62.7820499,105.11 62.8810499,105.154 63.0090499,105.214 C63.1360499,105.273 63.2950499,105.345 63.4640499,105.391 C63.5540499,105.417 63.6290499,105.431 63.6950499,105.446 L63.9050499,105.491 L64.7460499,105.671 C65.3250499,105.785 65.8860499,105.84 66.3900499,105.976 C66.6360499,106.035 66.8910499,106.148 67.1520499,106.25 L67.9000499,106.545 C67.9100499,106.559 67.9200499,106.574 67.9310499,106.588 C68.1560499,106.888 68.3890499,107.18 68.6260499,107.466 C69.1000499,108.036 69.5870499,108.579 70.0550499,109.123 C70.4960499,109.625 70.8260499,110.227 71.1320499,110.878 C71.3910499,112.198 71.6980499,113.524 72.0910499,114.822 C72.4850499,116.137 72.9430499,117.425 73.4260499,118.697 L74.1630499,120.596 C74.4200499,121.234 74.6460499,121.828 74.8510499,122.464 C75.2610499,123.72 75.5880499,125.014 75.8960499,126.324 C75.9110499,126.387 75.9260499,126.452 75.9410499,126.516 L76.1930499,128.782 C76.2410499,129.182 76.2910499,129.583 76.3430499,129.984 L76.2960499,136.146 L76.2240499,136.596 C76.1020499,137.422 75.9810499,138.26 75.8950499,139.092 C75.5650499,142.427 75.4590499,145.763 75.4590499,149.077 L75.4590499,153.349 L75.2660499,156.928 C75.2550499,157.133 75.2550499,157.338 75.2440499,157.542 C74.9280499,159.379 74.6300499,161.213 74.3130499,163.039 C74.2640499,163.31 74.2200499,163.584 74.1720499,163.856 C73.8020499,164.981 73.4000499,166.116 73.0340499,167.289 C72.7850499,168.082 72.5580499,185.182 72.3730499,186.014 L71.7210499,186.014 C71.4710499,186.791 71.1970499,185.361 70.8470499,186.014 L72.7850499,186.014 C73.2230499,185.168 73.5210499,186.849 73.7790499,186.014 L74.1610499,186.014 C74.1830499,185.702 74.2180499,186.327 74.2600499,186.014 C74.2690499,186.017 74.2770499,186.012 74.2860499,186.014 C74.2470499,186.359 74.2120499,185.67 74.1710499,186.014 L74.3310499,186.014 C74.2200499,186.655 74.0980499,185.38 73.9690499,186.014 C73.8570499,186.393 73.7430499,185.65 73.6180499,186.014 L73.2050499,186.014 C72.9260499,186.832 72.6610499,185.02 72.6010499,186.014 L73.6130499,186.014 C73.5690499,186.72 73.5430499,185.326 73.5370499,186.014 C73.5150499,187.636 73.5490499,184.207 73.5380499,186.014 L75.7300499,186.014 C75.7280499,186.014 75.7230499,186.293 75.7190499,186.014 L76.0330499,186.014 C76.1500499,185.063 76.3670499,187.028 76.5770499,186.014 L77.5670499,186.014 C77.7670499,185.265 77.8900499,186.751 77.9730499,186.014 L78.4520499,186.014 C78.7860499,185.744 79.1130499,186.447 79.3450499,186.014 C79.5680499,185.609 79.6800499,186.406 79.7310499,186.014 C79.7840499,186.5 79.8140499,185.546 79.7990499,186.014 L81.9890499,186.014 C81.9990499,185.137 81.9020499,186.83 81.7660499,186.014 C81.6280499,185.197 81.4580499,186.769 81.3210499,186.014 C81.2370499,185.554 81.1590499,186.014 81.0790499,186.014 L81.6770499,186.014 C81.6650499,184.207 81.6010499,187.69 81.6180499,186.014 C81.6230499,185.595 81.6320499,168.274 81.6490499,167.859 C81.6680499,167.45 81.6930499,167.041 81.7340499,166.633 C81.8130499,165.818 81.9370499,164.996 82.0840499,164.173 C82.3800499,162.525 82.7720499,160.859 83.0890499,159.145 C83.4150499,157.429 83.6090499,155.658 83.6840499,153.918 C83.7220499,153.045 83.7360499,152.175 83.7350499,151.308 L83.7250499,150.012 L83.7130499,149.366 C83.7030499,149.141 83.7000499,148.909 83.6820499,148.683 C83.6270499,147.851 83.5020499,147.046 83.3490499,146.257 C83.3610499,146.137 83.3760499,146.018 83.3880499,145.898 C83.5790499,144.013 83.6670499,142.08 83.6360499,140.196 C83.6260499,138.345 83.6880499,136.475 83.7060499,134.59 C83.7250499,132.704 83.6990499,130.798 83.5010499,128.886 C83.3020499,127.045 83.1540499,125.199 82.9400499,123.333 C83.0430499,122.436 83.1350499,121.531 83.1880499,120.638 C83.2770499,119.408 83.6060499,118.13 83.7510499,116.751 L84.4590499,113.716 C84.5360499,113.423 84.7270499,113.145 84.9450499,112.836 C85.0910499,112.674 85.2370499,112.512 85.3880499,112.352 C85.5630499,112.167 85.7460499,111.97 85.9220499,111.798 C86.0950499,111.627 86.2770499,111.466 86.4760499,111.322 C86.8680499,111.031 87.3050499,110.793 87.7670499,110.587 C88.1920499,110.397 88.6380499,110.23 89.0870499,110.056 C89.2570499,110.043 89.4390499,110.034 89.6120499,110.018 C89.8810499,109.998 90.1520499,109.973 90.4250499,109.939 C90.9690499,109.87 91.5190499,109.757 92.0470499,109.568 C92.3080499,109.478 92.5750499,109.354 92.8110499,109.24 C93.0470499,109.127 93.2870499,109.017 93.5290499,108.91 L94.9940499,108.268 C95.4840499,108.047 95.9730499,107.825 96.4520499,107.554 C96.9270499,107.285 97.3750499,106.989 97.8230499,106.705 C98.0470499,106.563 98.2710499,106.424 98.4970499,106.291 L98.8380499,106.099 C98.9610499,106.031 99.0840499,105.96 99.1980499,105.881 C99.6630499,105.569 100.05705,105.196 100.45605,104.852 C100.55605,104.766 100.65505,104.681 100.75705,104.602 C100.85905,104.521 100.97405,104.428 101.07205,104.336 C101.27605,104.151 101.46505,103.959 101.65205,103.769 C101.68105,103.74 101.70905,103.712 101.73705,103.682 C101.75305,103.669 101.77005,103.656 101.78505,103.642 C102.22505,103.253 102.65505,102.862 103.11005,102.508 C103.22305,102.445 103.33905,102.393 103.45705,102.357 C103.67405,102.295 103.91505,102.317 104.16005,102.386 C104.40605,102.45 104.65605,102.549 104.92805,102.617 C105.01705,102.639 105.11205,102.654 105.20705,102.665 C105.28405,102.853 105.35005,103.041 105.39605,103.221 C105.62705,104.13 104.82205,104.195 104.82705,105.03 C104.83305,106.271 106.08205,105.239 106.73405,105.813 C107.08705,106.125 106.96805,106.851 107.17705,107.237 C107.39905,107.645 107.85705,107.711 108.10905,108.032 C108.36505,108.359 108.35905,108.885 108.55505,109.271 C108.81305,109.777 108.74505,109.712 109.37705,109.728 C109.79505,109.74 110.21705,109.706 110.63505,109.723 C111.04005,109.74 111.30905,110.003 111.60105,110.027 C112.63605,110.112 112.60205,108.534 113.05905,107.872 C113.53605,108.108 114.05605,108.823 114.53705,109.179 C115.01305,109.529 115.99205,110.375 116.59305,110.343 C117.25405,110.307 117.17405,109.082 117.06505,108.466 C116.97905,107.983 116.82905,107.168 116.44505,106.76 C116.58605,106.733 116.72705,106.708 116.86705,106.684 C117.36205,106.797 117.86205,106.955 118.30805,106.924 C118.62805,106.9 118.75405,106.734 118.99605,106.666 C119.23005,106.599 119.70405,106.7 119.88905,106.619 C119.94905,106.594 120.00005,106.552 120.04205,106.499 C120.32005,106.503 120.58705,106.523 120.82005,106.58 C121.18405,106.667 121.30205,106.932 121.73505,106.937 C122.57905,106.946 122.57205,106.203 122.76005,105.508 C122.94805,104.807 123.56005,102.522 124.72905,102.838 C125.26805,102.983 125.24105,103.65 125.56305,104.021 C125.83405,104.336 126.40405,104.688 126.80605,104.757 C127.40705,104.858 127.98205,104.22 128.50005,104.225 C129.01405,104.231 128.88505,104.319 129.40105,104.574 C129.87005,104.805 130.32005,104.694 130.82105,104.712 C131.48905,104.735 131.50305,105.086 132.05005,105.298 C132.97505,105.656 134.54705,104.844 135.27905,104.273 C135.64705,103.987 136.73805,103.084 136.34605,102.597 C136.27405,102.508 135.30805,102.077 135.20305,102.043 C134.63905,101.861 134.47105,102.1 133.81805,102.19 C133.51005,102.233 133.10905,102.317 132.90405,101.993 C132.71705,101.694 133.10005,101.217 132.99205,100.832 C132.91605,100.558 132.47905,100.169 132.26805,100.012 C131.61705,99.524 130.89405,100.017 130.25905,99.646 C129.74605,99.345 129.70105,98.017 129.86005,97.501 C129.98205,97.106 130.55205,96.72 130.82105,96.352 C131.13805,95.922 131.38005,95.421 131.82905,95.111 C132.19805,95.307 132.61905,95.846 132.66905,96.285 C132.75105,96.998 132.49305,96.632 132.41605,97.079 C132.30305,97.728 132.25805,98.712 132.42005,99.362 C133.40705,99.707 134.30105,98.959 135.07005,98.489 C135.54805,98.196 135.37305,98.603 135.83605,97.887 C136.10205,97.476 136.29705,96.857 136.40205,96.381 C136.58905,95.539 136.68005,95.111 137.62505,94.755 C139.08405,94.206 139.44305,95.723 139.68805,96.87 C140.07305,96.026 142.23405,93.525 140.89005,92.723 Z" fill="#313934"></path>
    </g>
</svg>