<?xml version="1.0" encoding="UTF-8"?>
<svg width="169px" height="190px" viewBox="0 0 169 190" version="1.1" xmlns="http://www.w3.org/2000/svg" xmlns:xlink="http://www.w3.org/1999/xlink">
    <!-- Generator: Sketch 51.3 (57544) - http://www.bohemiancoding.com/sketch -->
    <title>Fill 7 Copy</title>
    <desc>Created with Sketch.</desc>
    <defs></defs>
    <g id="tree" stroke="none" stroke-width="1" fill="none" fill-rule="evenodd">
        <path d="M155.183976,115.259 C154.019976,115.545 152.850976,115.929 151.797976,116.539 C151.247976,116.844 150.711976,117.169 150.168976,117.463 C149.523976,117.296 148.899976,117.097 148.341976,116.852 C146.776976,116.164 144.012976,115.085 144.954976,113.1 C145.465976,112.024 146.978976,110.484 148.237976,110.158 C149.485976,109.836 150.443976,110.463 151.661976,110.444 C154.330976,110.405 156.662976,109.578 156.575976,113.174 C156.561976,113.759 156.580976,114.379 156.663976,114.977 C156.160976,115.033 155.667976,115.144 155.183976,115.259 Z M128.589976,130.523 C127.722976,130.554 126.857976,130.496 126.065976,130.219 C125.673976,130.096 125.318976,129.878 124.916976,129.662 C124.519976,129.446 124.062976,129.237 123.556976,129.177 L123.217976,129.147 C123.115976,129.136 123.013976,129.124 122.911976,129.107 C122.706976,129.073 122.502976,129.026 122.297976,128.97 C121.885976,128.86 121.466976,128.718 121.027976,128.594 C120.112976,128.347 119.181976,128.291 118.263976,128.331 C117.343976,128.374 116.426976,128.515 115.526976,128.811 L115.190976,128.933 L114.857976,129.078 C114.746976,129.131 114.637976,129.191 114.528976,129.248 C114.422976,129.306 114.329976,129.363 114.230976,129.422 C113.841976,129.654 113.463976,129.896 113.090976,130.136 C112.716976,130.377 112.348976,130.615 111.978976,130.841 C111.861976,130.914 111.742976,130.981 111.623976,131.05 C111.890976,130.767 112.159976,130.501 112.439976,130.264 C112.644976,130.091 112.853976,129.928 113.071976,129.791 L113.839976,129.294 C115.903976,127.896 117.647976,126.17 119.316976,124.451 C119.442976,124.322 119.566976,124.193 119.691976,124.063 C120.996976,124.019 121.410976,126.751 123.401976,126.386 C124.625976,126.161 126.035976,124.683 127.260976,124.185 C129.284976,123.361 129.456976,123.076 131.248976,124.107 C132.486976,124.818 134.087976,125.023 133.350976,126.983 C132.994976,127.928 130.846976,129.127 130.528976,130.371 C129.876976,130.43 129.230976,130.5 128.589976,130.523 Z M70.6499761,131.456 C70.1279761,131.292 69.6019761,131.097 69.0669761,130.892 C68.5309761,130.688 67.9879761,130.474 67.4189761,130.28 C67.1389761,130.182 66.8369761,130.091 66.5539761,130.011 C66.2799761,129.933 66.0079761,129.856 65.7419761,129.774 C64.6669761,129.453 63.7089761,129.039 62.8699761,128.385 C62.4399761,128.06 62.0709761,127.694 61.6429761,127.277 C61.2209761,126.873 60.7969761,126.469 60.3489761,126.08 C59.4559761,125.305 58.4969761,124.566 57.3969761,124.013 C56.8549761,123.727 56.2589761,123.52 55.6499761,123.369 C55.0359761,123.219 54.3899761,123.191 53.7549761,123.24 C52.4809761,123.392 51.3369761,123.917 50.3349761,124.558 C50.0759761,124.723 49.8239761,124.895 49.5759761,125.07 C49.8739761,123.644 50.5059761,122.544 52.4059761,122.553 C54.8399761,122.565 57.0579761,123.584 59.5479761,123.264 C60.9859761,123.08 61.7079761,122.579 62.8749761,121.7 C63.2389761,122.147 63.5989761,122.596 63.9729761,123.041 C64.3999761,123.531 64.8439761,124.017 65.3499761,124.473 C65.4759761,124.588 65.6069761,124.7 65.7419761,124.808 C65.8789761,124.92 66.0269761,125.025 66.1369761,125.109 C66.3779761,125.292 66.6189761,125.488 66.8729761,125.689 C67.1269761,125.89 67.3939761,126.096 67.6829761,126.291 C67.8269761,126.387 67.9759761,126.482 68.1319761,126.57 C68.2859761,126.66 68.4539761,126.742 68.5839761,126.809 C68.9699761,127.007 69.3409761,127.207 69.6909761,127.423 C69.7069761,127.448 69.7229761,127.473 69.7389761,127.499 C70.1229761,128.097 70.5489761,128.618 70.9339761,129.121 L70.9559761,129.149 C71.0439761,129.322 71.1339761,129.496 71.2199761,129.666 C71.5769761,130.359 71.8759761,131.085 72.1669761,131.831 C71.6249761,131.719 71.1479761,131.615 70.6499761,131.456 Z M26.0799761,126.174 C25.6909761,126.198 25.3069761,126.237 24.9259761,126.249 C25.1579761,125.981 25.4919761,125.777 26.0179761,125.696 C26.7649761,125.582 27.2029761,125.885 27.5539761,126.281 C27.0709761,126.153 26.5609761,126.14 26.0799761,126.174 Z M14.3339761,117.782 C15.4369761,118.036 16.6899761,118.025 17.6129761,118.227 C20.0569761,118.765 20.1759761,119.597 20.8779761,116.301 C22.4879761,116.649 21.1359761,121.576 18.8479761,121.428 C17.1769761,121.321 14.3139761,119.586 14.3339761,117.782 Z M35.0329761,92.937 C34.9009761,92.791 34.7589761,92.651 34.6169761,92.511 C34.4809761,92.377 34.3489761,92.253 34.2189761,92.116 C33.6949761,91.578 33.1919761,90.995 32.6399761,90.442 C32.0899761,89.889 31.4839761,89.356 30.7599761,88.969 C30.3979761,88.777 29.9959761,88.644 29.6189761,88.547 C29.4429761,88.501 29.2649761,88.462 29.0869761,88.427 C29.4709761,88.016 29.8629761,87.642 30.6979761,87.554 C32.6019761,87.356 34.1309761,87.737 35.9869761,86.948 C36.0089761,86.939 36.0289761,86.927 36.0509761,86.918 C36.2879761,87.121 36.5269761,87.32 36.7639761,87.517 C37.3249761,87.984 37.8889761,88.44 38.3819761,88.944 C38.8729761,89.425 39.2219761,90.034 39.5999761,90.664 C39.7909761,90.978 39.9849761,91.3 40.2149761,91.61 L40.8869761,92.478 C41.0999761,92.76 41.2789761,93.037 41.3969761,93.332 C41.4089761,93.363 41.4189761,93.396 41.4299761,93.429 C40.6739761,93.372 40.6289761,93.764 39.8359761,94.168 C38.7629761,94.713 37.4569761,94.442 36.2679761,94.431 C36.1129761,94.231 35.9579761,94.03 35.7989761,93.831 C35.5569761,93.527 35.3029761,93.226 35.0329761,92.937 Z M44.1909761,33.081 C44.4909761,33.679 44.7959761,34.276 45.1049761,34.87 C44.6779761,34.278 44.2499761,33.697 43.9919761,33.02 C44.0579761,33.042 44.1239761,33.063 44.1909761,33.081 Z M45.1119761,33.15 C46.1769761,33.015 47.1199761,31.922 48.2719761,32.589 C48.8619761,32.93 49.0889761,33.783 49.6329761,34.214 C49.9629761,34.475 50.8229761,34.935 51.1999761,35.155 C51.8469761,35.532 53.0889761,35.653 53.2549761,36.545 C53.4969761,37.847 52.2669761,37.49 51.3699761,37.486 C50.1989761,37.479 49.6029761,37.965 48.5559761,38.08 C47.7719761,38.167 47.3239761,37.855 46.7849761,37.468 C46.4989761,36.888 46.2059761,36.311 45.8909761,35.745 C45.4199761,34.88 44.9489761,34.013 44.4899761,33.141 C44.6969761,33.171 44.9049761,33.176 45.1119761,33.15 Z M133.841976,55.105 C133.775976,55.219 133.708976,55.332 133.642976,55.445 C132.834976,55.112 132.063976,54.738 131.497976,54.426 C131.697976,54.222 131.902976,53.993 132.115976,53.734 C132.915976,54.014 133.473976,54.449 134.001976,54.815 L133.841976,55.105 Z M112.749976,126.867 C113.010976,127.152 113.313976,127.38 113.647976,127.535 C113.426976,127.688 113.205976,127.839 112.979976,127.982 L112.284976,128.405 C112.438976,127.889 112.592976,127.377 112.749976,126.867 Z M91.8809761,164.812 L91.8839761,164.638 L91.8839761,164.45 L91.8649761,163.734 L91.8499761,163.079 L91.8509761,162.912 C91.8739761,162.815 91.8989761,162.72 91.9229761,162.625 C91.9389761,163.022 91.9529761,163.421 91.9669761,163.819 C91.9799761,164.237 91.9839761,164.655 91.9919761,165.073 C91.9549761,164.986 91.9169761,164.897 91.8809761,164.812 Z M64.9439761,120.176 C66.1519761,121.591 67.1489761,123.203 68.1359761,124.855 C68.0049761,124.763 67.8739761,124.668 67.7399761,124.567 C67.4919761,124.381 67.2349761,124.181 66.9649761,123.987 C66.8189761,123.883 66.7059761,123.807 66.5939761,123.72 C66.4799761,123.634 66.3659761,123.542 66.2549761,123.445 C65.8059761,123.061 65.3789761,122.621 64.9599761,122.163 C64.6059761,121.763 64.2589761,121.353 63.9089761,120.946 C64.2179761,120.725 64.5869761,120.458 64.9439761,120.176 Z M32.0389761,119.625 C31.4489761,117.523 29.8099761,119.091 28.9329761,118.155 C28.0829761,117.248 29.2849761,116.493 29.6319761,115.913 C30.2289761,114.913 29.7799761,114.318 30.0299761,113.224 C30.3939761,111.626 33.0539761,111.38 34.3739761,112.207 C35.7169761,113.049 36.1619761,115.023 36.8029761,116.367 C37.4729761,117.77 39.3879761,118.969 39.5979761,120.419 C40.0139761,123.291 35.4659761,122.645 34.1039761,123.314 C32.2629761,124.219 33.8799761,125.36 33.8129761,126.948 C32.8749761,127.213 31.0599761,126.567 30.7409761,127.404 C30.4399761,127.38 30.1469761,127.329 29.8609761,127.243 C30.6179761,126.337 30.8229761,124.005 31.1809761,123.207 C31.6779761,122.101 32.4069761,120.933 32.0389761,119.625 Z M40.1029761,85.022 C40.6299761,85.139 41.0739761,85.457 41.4919761,85.826 C41.5109761,85.868 41.5279761,85.912 41.5479761,85.953 C41.6819761,86.245 41.8299761,86.555 42.0229761,86.831 C42.3999761,87.392 42.8989761,87.841 43.3569761,88.289 L43.6959761,88.629 C43.8109761,88.747 43.9309761,88.866 44.0549761,88.976 C44.3019761,89.2 44.5609761,89.405 44.8199761,89.604 C45.3329761,90.001 45.8589761,90.38 46.2759761,90.827 C46.6969761,91.282 47.0399761,91.824 47.4289761,92.356 C47.8069761,92.863 48.1169761,93.407 48.3899761,93.982 C48.4519761,94.112 48.5119761,94.244 48.5719761,94.376 C47.8729761,94.841 47.0929761,95.133 46.3579761,95.155 C44.6189761,95.209 43.6659761,94.083 42.2819761,93.613 C42.2369761,93.42 42.1759761,93.227 42.0969761,93.041 C41.9349761,92.66 41.7019761,92.326 41.4689761,92.031 L40.7809761,91.182 C40.5689761,90.911 40.3779761,90.611 40.1839761,90.305 C39.7979761,89.696 39.3999761,89.029 38.8309761,88.494 C38.2889761,87.967 37.7049761,87.515 37.1339761,87.061 C36.9509761,86.916 36.7679761,86.769 36.5859761,86.622 C37.7459761,85.862 38.4839761,84.663 40.1029761,85.022 Z M124.562976,57.505 C124.299976,57.53 124.030976,57.499 123.765976,57.432 C123.806976,57.364 123.842976,57.294 123.886976,57.228 C124.091976,56.927 124.313976,56.636 124.512976,56.328 C124.701976,56.022 124.914976,55.699 124.931976,55.328 C124.906976,55.698 124.687976,56.013 124.491976,56.315 C124.286976,56.616 124.059976,56.902 123.846976,57.2 C123.797976,57.27 123.756976,57.344 123.711976,57.416 C123.046976,57.232 122.413976,56.786 121.955976,56.194 C122.371976,55.5 122.810976,54.817 123.257976,54.138 C123.662976,53.491 124.134976,52.91 124.657976,52.359 C125.489976,52.879 126.275976,53.653 126.794976,54.125 C127.456976,54.727 128.034976,55.13 128.569976,55.344 C127.234976,56.337 125.766976,57.391 124.562976,57.505 Z M146.821976,86.942 C146.981976,87.324 147.278976,87.816 147.658976,88.302 C147.284976,88.228 146.957976,88.234 146.500976,88.188 C143.857976,87.924 143.974976,85.219 145.991976,83.792 C146.139976,83.686 146.292976,83.583 146.446976,83.48 C146.641976,84.488 146.403976,85.945 146.821976,86.942 Z M97.3689761,145.24 C97.7169761,144.939 98.0599761,144.645 98.4059761,144.376 C98.8249761,144.052 99.3029761,143.705 99.7589761,143.363 C99.7779761,143.349 99.7969761,143.335 99.8149761,143.321 C99.5089761,143.592 99.2049761,143.87 98.9069761,144.17 C98.6649761,144.415 98.4259761,144.67 98.1979761,144.944 C98.0829761,145.079 97.9719761,145.221 97.8629761,145.366 L97.5739761,145.755 C97.2869761,146.14 96.9879761,146.539 96.6909761,146.946 C96.9129761,146.38 97.1409761,145.811 97.3689761,145.24 Z M69.1759761,120.813 C68.7499761,120.189 68.2809761,119.6 67.8739761,119.033 C67.4549761,118.45 67.0379761,117.843 66.5839761,117.24 C66.5299761,117.17 66.4739761,117.099 66.4189761,117.029 C65.8139761,114.823 62.6139761,113.043 61.3729761,111.636 C60.8189761,111.01 59.7269761,109.184 59.9879761,108.321 C60.4849761,106.682 62.6389761,106.882 64.1109761,106.635 C65.2649761,106.44 66.4149761,106.47 67.4949761,106.062 C67.5819761,105.92 67.6779761,105.795 67.7829761,105.684 C68.0589761,106.114 68.3409761,106.542 68.6399761,106.962 C69.1159761,107.636 69.6219761,108.3 70.1669761,108.932 C70.4399761,109.25 70.7199761,109.56 71.0119761,109.86 C71.3059761,110.165 71.5669761,110.426 71.8119761,110.713 C72.3009761,111.272 72.6819761,111.872 72.7869761,112.44 C72.8129761,112.568 72.8289761,112.758 72.8379761,112.929 C72.8469761,113.107 72.8469761,113.291 72.8429761,113.479 C72.8359761,113.856 72.8089761,114.251 72.7869761,114.661 C72.7399761,115.52 72.7579761,116.306 72.7419761,117.117 L72.7299761,118.326 C72.7289761,118.515 72.7229761,118.754 72.7339761,118.981 C72.7449761,119.209 72.7619761,119.434 72.7909761,119.655 C72.9009761,120.543 73.1319761,121.366 73.3389761,122.141 C73.5429761,122.908 73.7339761,123.681 73.9139761,124.462 C73.9189761,124.48 73.9229761,124.5 73.9269761,124.518 C72.7149761,123.357 71.3199761,122.589 70.0329761,121.82 C69.9219761,121.754 69.8169761,121.686 69.7059761,121.621 C69.5329761,121.344 69.3549761,121.078 69.1759761,120.813 Z M121.433976,53.327 C122.122976,51.542 123.273976,51.595 124.383976,52.199 C123.861976,52.734 123.370976,53.318 122.964976,53.941 C122.536976,54.563 122.115976,55.193 121.710976,55.833 C121.269976,55.092 121.098976,54.196 121.433976,53.327 Z M71.0089761,106.03 C71.3639761,106.214 71.7219761,106.391 72.0819761,106.567 C72.0869761,106.573 72.0919761,106.579 72.0959761,106.585 C72.6159761,107.265 73.1499761,107.887 73.5839761,108.524 C73.8029761,108.845 73.9939761,109.159 74.1619761,109.502 C74.3539761,109.883 74.5539761,110.258 74.7589761,110.628 C74.9659761,110.998 75.1769761,111.364 75.3929761,111.726 L75.7209761,112.267 L75.8869761,112.536 C75.9409761,112.626 75.9769761,112.681 76.0179761,112.761 C76.3429761,113.352 76.5219761,114.119 76.7939761,114.959 C77.0749761,115.812 77.4449761,116.607 77.8659761,117.375 C77.9719761,117.567 78.0829761,117.757 78.1969761,117.945 L78.5139761,118.469 L79.1489761,119.542 C79.3679761,119.905 79.5969761,120.273 79.8519761,120.638 C79.9249761,120.744 80.0039761,120.852 80.0869761,120.962 C80.0329761,121.132 79.9789761,121.302 79.9299761,121.475 C79.8149761,121.883 79.7119761,122.293 79.6229761,122.707 C79.4469761,123.534 79.3239761,124.373 79.2559761,125.211 C79.2209761,125.631 79.1969761,126.051 79.1859761,126.469 C79.1779761,126.916 79.1709761,127.233 79.1519761,127.671 C79.1459761,127.886 79.1419761,128.116 79.1579761,128.365 C79.1649761,128.488 79.1789761,128.618 79.1969761,128.749 C79.2089761,128.815 79.2169761,128.881 79.2319761,128.949 L79.2669761,129.113 C79.3369761,129.429 79.3669761,129.778 79.4159761,130.209 C79.4339761,130.366 79.4569761,130.525 79.4849761,130.694 C79.1499761,131.843 78.8859761,133.033 78.7359761,134.236 C78.7299761,134.287 78.7259761,134.338 78.7199761,134.388 L78.6969761,134.338 C78.5509761,133.978 78.3999761,133.619 78.2659761,133.253 C78.2179761,133.128 78.1769761,133.001 78.1319761,132.875 C78.1209761,132.617 78.1039761,132.355 78.0679761,132.085 C78.0499761,131.972 78.0369761,131.863 78.0129761,131.749 C77.9909761,131.637 77.9709761,131.526 77.9299761,131.385 C77.8569761,131.12 77.7589761,130.885 77.6519761,130.673 C77.5059761,130.386 77.3469761,130.129 77.1869761,129.888 C77.0799761,129.503 76.9769761,129.114 76.8769761,128.724 C76.4769761,127.178 76.1179761,125.603 75.7169761,124.024 C75.5179761,123.234 75.3059761,122.443 75.0789761,121.654 C74.8519761,120.875 74.6359761,120.139 74.5329761,119.424 C74.5059761,119.245 74.4899761,119.068 74.4769761,118.892 C74.4659761,118.717 74.4659761,118.551 74.4629761,118.337 L74.4509761,117.123 C74.4499761,116.318 74.4179761,115.488 74.4459761,114.734 C74.4589761,114.338 74.4789761,113.926 74.4789761,113.495 C74.4789761,113.279 74.4739761,113.059 74.4579761,112.833 C74.4409761,112.602 74.4229761,112.389 74.3669761,112.121 C74.1399761,111.094 73.5569761,110.321 72.9839761,109.679 C72.6969761,109.357 72.3809761,109.053 72.1089761,108.782 C71.8319761,108.509 71.5659761,108.225 71.3049761,107.934 C70.7849761,107.354 70.2969761,106.741 69.8289761,106.106 C69.6089761,105.809 69.3959761,105.507 69.1859761,105.201 C69.8119761,105.437 70.4199761,105.713 71.0089761,106.03 Z M79.5869761,116.412 C79.8759761,116.76 80.1649761,117.106 80.4269761,117.461 L80.9749761,118.199 C80.9209761,118.388 80.8629761,118.579 80.8039761,118.77 C80.7659761,118.711 80.7279761,118.653 80.6909761,118.594 L80.0389761,117.541 L79.7019761,117.008 C79.5979761,116.844 79.4969761,116.677 79.3989761,116.51 C79.2459761,116.243 79.1029761,115.971 78.9669761,115.696 C79.1769761,115.935 79.3849761,116.174 79.5869761,116.412 Z M77.4459761,111.032 C76.9579761,110.318 76.6009761,109.574 76.3229761,108.76 C76.3649761,108.809 76.4079761,108.857 76.4519761,108.908 C76.6599761,109.147 76.9039761,109.412 77.1739761,109.652 C77.3429761,109.923 77.5149761,110.193 77.7029761,110.462 C77.9229761,110.778 78.1039761,111.056 78.2899761,111.375 C78.6459761,111.984 78.9629761,112.636 79.2779761,113.306 C78.6059761,112.563 77.9709761,111.822 77.4459761,111.032 Z M82.9189761,111.379 C82.9159761,111.077 82.9049761,110.786 82.8919761,110.501 C82.9329761,110.823 82.9709761,111.137 83.0009761,111.442 C82.9779761,111.726 82.9539761,112.011 82.9319761,112.299 C82.9059761,112.65 82.8809761,113.005 82.8599761,113.361 C82.8489761,113.336 82.8389761,113.31 82.8269761,113.285 C82.8369761,113.105 82.8469761,112.924 82.8589761,112.742 C82.8859761,112.309 82.9189761,111.865 82.9189761,111.379 Z M81.3929761,123.64 C81.4219761,123.456 81.4539761,123.271 81.4889761,123.088 C81.5079761,122.991 81.5299761,122.896 81.5499761,122.8 C81.5069761,123.078 81.4519761,123.359 81.3929761,123.64 Z M92.3529761,119.627 C92.1779761,118.976 91.9879761,118.379 91.8929761,117.749 C91.9999761,117.381 92.0759761,117.017 92.1829761,116.663 C92.2449761,116.456 92.3009761,116.26 92.3659761,116.057 C92.3889761,116.692 92.5139761,117.325 92.5239761,117.958 C92.5399761,118.719 92.6329761,119.459 92.6329761,120.231 L92.6329761,120.289 C91.7289761,120.068 92.4089761,119.846 92.3529761,119.627 Z M91.5239761,125.258 C91.5359761,125.171 91.5439761,125.076 91.5549761,124.985 C91.6259761,125.433 91.6859761,125.881 91.7359761,126.329 C91.6629761,125.973 91.5919761,125.617 91.5239761,125.258 Z M98.3839761,124.846 C98.3899761,125.212 98.3699761,125.602 98.3489761,126.011 L98.3309761,126.399 C98.2569761,126.746 98.1799761,127.091 98.0939761,127.431 C97.8979761,128.208 97.6619761,128.966 97.3749761,129.685 C97.2349761,130.048 97.0719761,130.393 96.9009761,130.73 C96.6979761,131.118 96.5019761,131.547 96.3369761,131.946 C95.9989761,132.755 95.7259761,133.529 95.4009761,134.222 C95.2549761,134.528 95.0189761,134.992 94.8599761,135.348 C94.7749761,135.529 94.6929761,135.698 94.6109761,135.848 C94.5679761,135.927 94.5289761,135.992 94.4959761,136.042 C94.4609761,136.096 94.5779761,136.157 94.5279761,136.222 L94.4399761,136.529 C94.4399761,136.449 94.4399761,136.368 94.4399761,136.287 C94.4399761,134.947 94.3179761,133.609 94.3619761,132.272 C94.4839761,130.744 94.5349761,129.218 94.6869761,127.694 C94.7709761,127.496 94.8129761,127.296 94.8989761,127.098 C95.1369761,126.556 95.3679761,126.024 95.6339761,125.502 C95.8089761,125.249 95.9699761,124.992 96.1379761,124.73 C96.9929761,124.753 97.6939761,124.321 98.2659761,123.655 C98.3339761,124.081 98.3849761,124.474 98.3839761,124.846 Z M81.9479761,141.942 C81.7859761,140.944 81.4859761,140.092 81.2709761,139.306 C81.4139761,138.691 81.5399761,138.051 81.6259761,137.424 C81.7449761,136.586 81.8139761,135.742 81.8409761,134.907 C81.8549761,134.49 81.8599761,134.074 81.8579761,133.661 L81.8449761,132.46 L81.8419761,132.162 L81.8409761,132.004 C81.8399761,131.932 81.8379761,131.86 81.8329761,131.787 C81.8159761,131.495 81.7479761,131.199 81.6829761,130.978 C81.6809761,130.969 81.6789761,130.963 81.6759761,130.955 C81.6879761,130.916 81.6979761,130.877 81.7089761,130.838 L81.8949761,130.237 L82.0989761,129.621 C82.3979761,128.72 82.5919761,127.825 82.7719761,126.961 L83.0389761,125.689 C83.1179761,125.329 83.2129761,124.933 83.2969761,124.536 C83.4529761,124.767 83.6149761,125.008 83.7909761,125.259 C83.8689761,125.544 83.9529761,125.83 84.0449761,126.105 C84.2989761,126.872 84.5919761,127.601 84.8739761,128.309 C85.0399761,128.723 85.1969761,129.131 85.3439761,129.533 L85.3319761,131.85 L85.3229761,133.049 C85.3269761,133.469 85.3479761,133.881 85.3749761,134.285 C85.4279761,135.095 85.5089761,135.876 85.5529761,136.626 C85.5629761,136.786 85.5699761,136.945 85.5749761,137.103 C85.4589761,138.109 85.4039761,139.109 85.3699761,140.093 L85.3379761,141.198 C85.3339761,141.369 85.3279761,141.592 85.3339761,141.797 C85.3379761,142.005 85.3499761,142.209 85.3669761,142.411 C85.4169761,142.988 85.5079761,143.546 85.6229761,144.092 C85.6219761,144.226 85.6209761,144.361 85.6159761,144.488 C85.6099761,144.661 85.5979761,144.804 85.5799761,144.979 L85.5219761,145.522 C85.4379761,146.248 85.1009761,146.983 85.0019761,147.728 C84.9019761,148.474 84.4979761,149.233 84.4979761,150.006 C84.4979761,150.007 84.4979761,150.008 84.4979761,150.009 C84.4979761,150.003 84.7259761,149.996 84.7219761,149.989 C84.3999761,149.44 84.1729761,148.94 83.8309761,148.461 C83.6959761,148.27 83.6199761,148.084 83.4869761,147.899 L83.2589761,146.889 C83.1339761,146.409 82.9969761,145.965 82.8629761,145.559 C82.7959761,145.355 82.7409761,145.161 82.6839761,144.969 L82.4989761,144.336 C82.3729761,143.918 82.2559761,143.518 82.1609761,143.134 C82.1129761,142.94 82.0729761,142.753 82.0399761,142.568 C82.0049761,142.379 81.9899761,142.232 81.9479761,141.942 Z M90.3699761,103.231 C90.5859761,104.159 90.6029761,105.54 90.9419761,106.61 C90.9219761,106.692 90.8969761,106.772 90.8799761,106.856 C90.8769761,106.871 90.8749761,106.884 90.8719761,106.898 C90.7599761,107.194 90.6549761,107.494 90.5619761,107.802 C90.3589761,108.486 90.1809761,109.154 90.0069761,109.834 C89.8339761,110.511 89.6699761,111.19 89.5119761,111.869 L89.4729761,112.04 C89.2829761,112.403 89.0959761,112.772 88.9149761,113.148 C88.8189761,113.348 88.7289761,113.552 88.6359761,113.753 C88.4609761,113.115 88.2949761,112.476 88.1569761,111.838 C88.0709761,111.43 87.9929761,111.031 87.9269761,110.618 C87.8599761,110.204 87.7969761,109.774 87.7119761,109.33 C87.6279761,108.886 87.5179761,108.43 87.3709761,107.983 C87.2359761,107.576 87.1069761,107.182 86.9929761,106.789 C86.8479761,106.295 86.7379761,105.806 86.6639761,105.319 L86.6549761,104.798 C87.8469761,104.046 89.0399761,103.359 90.3699761,103.231 Z M79.1249761,106.864 C79.9059761,107.011 80.6909761,107.072 81.4799761,107.018 C81.4569761,107.104 81.4349761,107.188 81.4109761,107.275 C81.3839761,107.373 81.3519761,107.503 81.3219761,107.627 C81.2969761,107.75 81.2709761,107.875 81.2529761,107.997 C81.2109761,108.243 81.1909761,108.484 81.1729761,108.723 C81.1429761,109.199 81.1469761,109.659 81.1569761,110.1 C81.1629761,110.355 81.1689761,110.602 81.1739761,110.845 C80.6619761,110.166 80.1099761,109.534 79.5569761,108.938 L78.6589761,107.982 L77.7619761,107.01 C77.4719761,106.705 77.1629761,106.4 76.8309761,106.11 C76.8139761,106.084 76.7949761,106.058 76.7769761,106.032 C77.5099761,106.462 78.2919761,106.743 79.1249761,106.864 Z M109.015976,129.052 L108.668976,129.812 C108.556976,130.055 108.440976,130.269 108.302976,130.507 C108.033976,130.967 107.700976,131.482 107.428976,132.037 C106.940976,133 106.350976,133.924 105.690976,134.804 C104.373976,136.567 102.806976,138.178 101.162976,139.681 C100.427976,140.344 99.6129761,140.948 98.7669761,141.548 C98.9669761,140.969 99.1599761,140.385 99.3329761,139.79 C99.8059761,138.161 100.154976,136.463 100.256976,134.727 C100.288976,134.295 100.275976,133.858 100.286976,133.424 L100.275976,132.19 L100.259976,130.799 C100.388976,130.526 100.516976,130.254 100.635976,129.975 C100.931976,129.284 101.198976,128.575 101.417976,127.847 C101.469976,127.665 101.527976,127.484 101.573976,127.3 L101.711976,126.767 L101.987976,125.72 C102.079976,125.36 102.169976,124.993 102.241976,124.607 C102.277976,124.415 102.309976,124.219 102.334976,124.016 C102.345976,123.924 102.360976,123.794 102.364976,123.682 C102.370976,123.568 102.370976,123.46 102.368976,123.353 C102.359976,122.932 102.315976,122.574 102.309976,122.272 C102.301976,121.971 102.331976,121.772 102.417976,121.417 C102.457976,121.244 102.507976,121.04 102.539976,120.832 C102.573976,120.626 102.598976,120.421 102.612976,120.22 C102.643976,119.817 102.642976,119.427 102.630976,119.051 C102.625976,118.881 102.617976,118.714 102.609976,118.549 C103.299976,118.706 103.985976,118.89 104.559976,118.964 C104.641976,119.804 104.428976,120.629 105.235976,121.243 C106.841976,120.992 107.526976,120.315 108.819976,119.412 C108.537976,120.092 108.127976,121.148 108.191976,121.871 C108.357976,123.762 109.437976,123.304 110.664976,123.891 C110.710976,123.913 110.750976,123.936 110.792976,123.959 L110.699976,124.321 C110.556976,124.845 110.383976,125.37 110.195976,125.899 L109.617976,127.514 C109.436976,128.045 109.239976,128.541 109.015976,129.052 Z M71.8449761,126.894 C71.6859761,126.583 71.5289761,126.261 71.3979761,125.959 C71.2739761,125.671 71.1669761,125.355 71.0649761,125.021 C71.0089761,124.839 70.9539761,124.649 70.8989761,124.457 C71.5479761,124.896 72.1519761,125.356 72.6649761,125.88 C72.9099761,126.12 73.1219761,126.381 73.3229761,126.646 C73.4209761,126.778 73.5109761,126.924 73.5979761,127.052 C73.6529761,127.143 73.7059761,127.262 73.7559761,127.403 C73.8579761,127.685 73.9389761,128.046 74.0639761,128.46 C74.1279761,128.669 74.2059761,128.893 74.3189761,129.131 C74.4139761,129.324 74.5019761,129.469 74.5879761,129.603 C73.9739761,128.866 73.2829761,128.242 72.5779761,127.655 C72.3919761,127.502 72.2019761,127.356 72.0129761,127.211 C71.9579761,127.105 71.8989761,126.999 71.8449761,126.894 Z M139.644976,21.834 C140.159976,23.34 139.828976,22.836 141.522976,23.541 C141.853976,23.678 142.216976,23.837 142.566976,24.028 C142.769976,25.863 142.333976,27.398 142.247976,29.221 C142.167976,30.927 143.091976,31.666 144.052976,32.926 C144.034976,33.068 144.013976,33.208 143.987976,33.343 C143.301976,34.529 140.671976,34.28 139.694976,34.365 C138.535976,34.467 138.168976,34.865 137.134976,35.052 C135.456976,35.356 132.453976,34.786 131.447976,33.356 C131.220976,33.034 131.110976,32.691 131.058976,32.339 C132.659976,32.136 134.289976,31.65 135.012976,30.359 C135.652976,29.215 135.112976,27.815 135.672976,26.648 C136.295976,25.35 138.585976,23.91 137.744976,22.195 C137.519976,21.735 136.928976,21.61 136.530976,21.273 C136.338976,21.11 136.151976,20.919 135.973976,20.709 C136.617976,20.678 137.269976,20.594 137.778976,20.584 C137.939976,20.582 138.857976,20.448 139.062976,20.538 C140.023976,20.959 139.347976,20.967 139.644976,21.834 Z M48.9159761,93.722 C48.6199761,93.135 48.2689761,92.555 47.8599761,92.032 C47.4699761,91.53 47.1039761,90.978 46.6309761,90.491 C46.1489761,90.001 45.6029761,89.635 45.0839761,89.252 C44.8229761,89.062 44.5689761,88.871 44.3299761,88.665 C44.2099761,88.562 44.0969761,88.456 43.9829761,88.345 L43.6259761,88.006 C43.1479761,87.561 42.6639761,87.145 42.3039761,86.636 C42.2769761,86.598 42.2559761,86.557 42.2309761,86.52 C42.8069761,87.064 43.3939761,87.544 44.1489761,87.538 C45.4379761,87.529 47.4989761,85.811 48.7409761,86.429 C49.4749761,86.795 50.8069761,89.896 50.8059761,90.7 C50.8049761,91.959 50.0639761,93.172 49.0559761,94.014 C49.0089761,93.918 48.9649761,93.819 48.9159761,93.722 Z M164.705976,110.353 C164.223976,110.941 162.595976,111.042 162.231976,110.154 C161.786976,109.068 163.553976,108.427 164.059976,107.772 C164.100976,108.627 164.458976,109.887 165.297976,110.283 C165.789976,110.049 166.324976,109.63 166.623976,109.172 C167.093976,108.449 166.943976,108.746 166.900976,107.927 C166.875976,107.451 166.463976,106.677 166.758976,106.382 C166.294976,106.393 165.836976,106.373 165.369976,106.256 C165.101976,105.248 165.344976,104.031 165.257976,102.977 C166.041976,103.451 168.911976,102.138 168.689976,101.111 C166.832976,100.277 166.015976,101.299 164.403976,101.633 C163.032976,101.916 162.645976,101.591 161.588976,100.365 C159.505976,100.693 159.424976,103.158 157.740976,103.937 C156.373976,102.236 155.930976,97.105 156.685976,94.772 C156.696976,94.755 156.707976,94.737 156.717976,94.719 C157.040976,94.168 157.328976,93.596 157.731976,93.103 C157.935976,92.862 158.168976,92.642 158.446976,92.486 C158.728976,92.339 159.045976,92.272 159.364976,92.264 C159.045976,92.263 158.724976,92.322 158.434976,92.465 C158.149976,92.615 157.906976,92.833 157.693976,93.072 C157.400976,93.414 157.163976,93.795 156.932976,94.177 C157.632976,92.823 158.974976,91.924 158.328976,90.198 C158.069976,89.506 157.343976,89.203 157.194976,88.468 C157.013976,87.579 157.618976,86.854 157.415976,85.899 C155.614976,85.487 152.449976,84.813 151.272976,86.656 C151.251976,86.688 151.234976,86.721 151.215976,86.754 C151.144976,86.612 151.083976,86.467 151.037976,86.317 C150.746976,85.356 150.694976,83.542 151.022976,82.609 C152.068976,82.622 151.862976,83.696 152.773976,83.875 C153.570976,84.03 154.064976,83.602 154.527976,83.046 C155.164976,82.281 155.086976,80.718 156.052976,80.261 C154.489976,80.262 153.364976,79.232 152.853976,77.677 C153.433976,77.59 153.991976,77.519 154.576976,77.46 C155.019976,75.596 154.419976,75.006 153.183976,73.877 C153.455976,73.394 153.785976,72.926 154.182976,72.401 C154.510976,72.188 154.839976,71.975 155.168976,71.762 C155.258976,71.601 155.342976,71.437 155.423976,71.273 C155.843976,71.243 156.244976,71.135 156.591976,70.85 C157.507976,70.1 157.400976,68.148 157.066976,67.016 C156.919976,66.99 156.773976,66.96 156.627976,66.928 C156.675976,66.471 156.630976,66.026 156.372976,65.629 C156.108976,65.22 155.525976,64.733 154.916976,64.391 C154.097976,63.55 152.946976,63.033 151.845976,63.207 C150.676976,63.392 150.761976,63.891 149.832976,63.014 C148.880976,62.116 148.787976,61.902 148.250976,62.388 C147.711976,61.808 147.147976,61.303 146.496976,61.133 C145.642976,60.909 144.358976,61.36 143.401976,61.249 C142.097976,61.096 141.385976,60.449 140.245976,60.128 C139.278976,59.855 138.321976,60.164 137.326976,60.047 C136.644976,58.808 137.259976,57.129 137.671976,55.913 C137.407976,56.675 135.631976,56.235 133.924976,55.558 C133.981976,55.455 134.040976,55.352 134.096976,55.248 L134.241976,54.976 C134.946976,55.434 135.652976,55.705 136.868976,55.239 C137.853976,54.861 138.392976,54.15 139.122976,53.641 C140.774976,54.289 143.486976,53.967 144.355976,52.533 C144.713976,51.943 144.696976,51.2 145.092976,50.598 C145.427976,50.089 145.842976,50.054 146.222976,49.641 C147.207976,48.571 147.545976,48.07 146.391976,47.015 C146.207976,46.848 145.746976,46.951 145.500976,46.847 C146.278976,46.359 146.772976,45.659 146.975976,44.743 C147.772976,43.542 147.654976,42.304 146.623976,41.031 C145.412976,39.647 144.355976,40.033 143.230976,40.141 C143.880976,39.959 144.513976,39.639 145.186976,38.983 C145.631976,38.548 146.050976,38.015 146.457976,37.449 C146.915976,37.413 147.362976,37.334 147.788976,37.178 C149.699976,36.481 150.280976,35.404 150.284976,33.416 C150.285976,33.112 150.258976,32.82 150.218976,32.532 C151.722976,30.643 153.176976,28.2 151.681976,26.212 C151.057976,25.792 150.436976,25.366 149.814976,24.944 C149.769976,24.868 149.720976,24.788 149.665976,24.705 C149.062976,23.783 148.577976,23.283 148.391976,22.141 C148.089976,20.285 148.326976,20.583 146.528976,21.071 C145.904976,21.24 145.393976,21.292 144.912976,21.212 C144.190976,20.681 143.462976,20.159 142.721976,19.653 C142.433976,18.937 142.001976,18.326 141.425976,17.819 C140.921976,17.328 140.355976,17.016 139.759976,16.786 C139.141976,15.597 139.443976,15.515 137.763976,15.574 C136.324976,15.624 135.838976,15.593 135.090976,14.322 C134.455976,13.244 133.856976,12.909 133.133976,11.852 C131.964976,10.143 130.426976,9.57 128.439976,10.008 C128.146976,10.75 128.304976,11.596 128.355976,12.43 C128.005976,12.525 127.632976,12.652 127.227976,12.818 C126.659976,13.051 126.130976,13.339 125.614976,13.602 C125.013976,13.479 124.446976,13.276 123.992976,12.963 C123.296976,12.483 123.105976,11.877 122.569976,11.316 C121.858976,10.574 121.671976,10.931 120.844976,10.583 C120.064976,10.255 119.896976,10.034 119.001976,9.923 C118.352976,9.842 117.882976,9.935 117.245976,9.8 C116.563976,9.656 116.160976,9.3 115.226976,9.316 C115.007976,9.32 114.786976,9.329 114.565976,9.337 C113.915976,9.075 113.287976,8.769 112.672976,8.437 C112.390976,7.491 111.801976,6.61 111.157976,5.889 C110.121976,4.727 110.255976,5.132 109.227976,5.552 C108.972976,5.656 108.572976,5.804 108.106976,5.949 C107.297976,5.586 106.460976,5.286 105.563976,5.108 C104.993976,5.104 104.431976,5.07 103.874976,5.012 C103.828976,4.593 103.759976,4.153 103.380976,3.804 C102.703976,3.181 102.010976,3.129 101.440976,2.427 C100.666976,1.472 99.7279761,0.405 98.4969761,0 C98.0039761,1.17 97.4249761,0.926 96.4309761,1.312 C95.7579761,1.573 95.3219761,2.216 94.7089761,2.336 C94.6619761,2.013 94.5749761,1.702 94.4459761,1.405 C93.1439761,1.753 90.7479761,3.255 91.5659761,4.808 C91.9859761,5.606 92.7389761,5.418 92.6879761,6.479 C92.6349761,7.595 91.1829761,8.115 90.2519761,8.198 C90.3669761,9.163 92.5799761,10.042 91.0949761,11.163 C90.4409761,11.656 89.7659761,10.627 89.4859761,11.771 C89.4129761,12.07 89.5579761,12.447 89.7819761,12.805 C89.6619761,12.824 89.5429761,12.843 89.4229761,12.863 C87.6979761,13.15 87.2449761,13.384 87.0299761,15.172 C86.7339761,17.636 87.3379761,20.175 87.1079761,22.643 C85.7069761,21.96 82.6109761,20.238 82.0969761,18.684 C81.6449761,17.318 82.7789761,16.291 82.8949761,15 C81.5699761,14.55 80.2279761,14.417 78.8339761,14.432 C77.5559761,14.446 76.1969761,14.993 74.9379761,14.849 C72.0909761,14.521 69.9419761,12.103 67.5149761,10.846 C67.0289761,13.547 64.7039761,10.628 63.6749761,10.108 C62.4989761,9.515 59.8699761,8.393 59.6269761,10.748 C57.8759761,10.615 55.5009761,8.733 53.9339761,8.039 C52.7659761,9.502 53.2589761,10.582 53.9039761,12.279 C54.5909761,14.089 55.1829761,14.762 55.0349761,16.801 C51.4769761,17.797 51.2659761,11.595 47.3339761,12.331 C45.8999761,12.599 45.9419761,13.957 45.4309761,15.198 C44.6989761,16.974 44.0979761,17.49 43.8599761,16.2 C43.1299761,16.208 42.0059761,15.961 41.3249761,16.17 C40.5809761,16.398 40.3929761,17.021 39.7959761,17.458 C38.3659761,18.506 36.4029761,17.376 35.0669761,18.363 C34.3439761,18.896 34.4829761,19.448 34.4619761,20.262 C34.4279761,21.525 34.6529761,21.721 33.8569761,22.475 C33.3419761,22.963 32.8149761,22.825 32.5609761,23.682 C32.3849761,24.27 32.4499761,25.944 32.5689761,26.552 C32.7589761,27.531 33.3229761,27.468 33.7179761,28.219 C34.0939761,28.936 33.5489761,29.781 33.9699761,30.472 C34.9739761,32.121 37.3469761,30.566 38.8509761,30.603 C40.7689761,30.651 41.3219761,31.187 42.7319761,32.32 C43.0489761,32.574 43.4179761,32.802 43.8099761,32.957 C43.8169761,32.973 43.8219761,32.99 43.8289761,33.007 C44.1149761,33.851 44.6749761,34.564 45.1569761,35.28 C45.4079761,35.637 45.5959761,36.017 45.8169761,36.406 C45.9529761,36.641 46.0969761,36.871 46.2429761,37.098 C44.6149761,36.073 42.9799761,36.146 41.0359761,36.227 C40.1229761,36.265 39.7919761,36.718 39.1049761,36.812 C37.9519761,36.97 37.9239761,36.423 37.0059761,36.201 C34.7019761,35.644 33.3729761,37.025 31.4759761,37.97 C30.7179761,38.347 29.6579761,39.076 28.8039761,38.643 C28.1799761,38.326 28.0929761,37.279 27.4579761,36.972 C26.6369761,36.576 23.2099761,38.014 22.7029761,38.863 C21.5059761,40.865 24.4169761,41.323 25.0469761,42.212 C25.4849761,42.83 24.9359761,44.572 25.1259761,45.312 C25.3459761,46.174 25.9189761,47.927 26.3159761,48.645 C26.8219761,49.56 27.6449761,50.172 28.8319761,50.51 C29.7109761,50.761 30.6559761,50.447 31.2119761,51.386 C31.7159761,52.238 31.6759761,56.281 30.9609761,56.952 C31.6449761,57.01 31.7979761,56.442 32.3329761,56.321 C33.0129761,56.166 33.8469761,56.497 34.4989761,56.297 C35.4819761,55.995 35.7779761,54.54 36.9879761,55.11 C37.2619761,55.238 38.3509761,56.546 38.2999761,56.907 C38.1929761,57.671 37.5789761,57.441 36.9849761,57.673 C35.6139761,58.208 34.2899761,58.48 32.9039761,58.831 C32.1099761,59.031 31.6069761,59.524 30.7269761,59.444 C29.8879761,59.367 29.2419761,58.612 28.3469761,58.694 C27.1259761,58.807 27.2279761,59.427 26.3179761,60.07 C25.0069761,60.996 25.7489761,60.3 24.7129761,60.027 C23.7679761,59.779 22.2659761,58.422 21.3059761,58.866 C20.6219761,59.181 19.3499761,61.123 19.3489761,61.822 C17.5999761,62.036 16.2939761,59.712 14.7199761,59.964 C13.6059761,60.142 13.5639761,61.292 13.1819761,62.214 C12.6759761,63.434 12.3219761,64.127 10.6769761,63.809 C10.0519761,63.689 9.38597606,63.008 8.77097606,63.091 C8.19397606,63.169 8.15197606,63.709 7.71997606,63.951 C6.85697606,64.435 5.17597606,64.255 4.51297606,65.161 C3.77997606,66.163 4.78497606,68.129 4.90497606,68.862 C5.15697606,70.392 5.36397606,72.751 4.90297606,74.279 C4.52997606,75.515 3.82097606,76.021 3.69997606,77.46 C2.31497606,77.883 0.641976062,77.266 0.0789760623,79.173 C-0.163023938,79.99 0.199976062,80.58 0.509976062,81.321 C0.637976062,81.626 0.558976062,82.201 0.785976062,82.452 C0.977976062,82.665 1.56797606,82.503 1.77497606,82.7 C3.79797606,84.625 1.76597606,90.381 5.04697606,90.726 C5.86097606,90.812 6.77097606,90.724 7.55097606,90.548 C8.83297606,90.258 8.62697606,90.19 10.0529761,90.93 C10.8409761,91.34 11.8339761,91.562 12.5699761,92.074 C13.5729761,92.772 13.6049761,93.556 14.7249761,93.858 C15.8599761,94.164 17.9299761,93.897 19.0759761,93.771 C19.9729761,93.673 19.6759761,92.832 20.5719761,93.785 C21.1559761,94.406 20.5499761,95.345 21.6879761,95.688 C23.7109761,96.297 23.2179761,93.023 23.1959761,91.945 C23.1699761,90.661 22.9749761,90.542 23.8879761,89.891 C25.0959761,89.031 26.6729761,89.904 27.8529761,89.401 C28.1539761,89.273 28.3829761,89.111 28.5809761,88.937 C29.2439761,89.061 29.9049761,89.227 30.4589761,89.529 C31.0819761,89.88 31.6339761,90.379 32.1499761,90.921 C32.6689761,91.462 33.1549761,92.051 33.6879761,92.622 C33.8179761,92.764 33.9619761,92.907 34.0949761,93.045 C34.2229761,93.177 34.3519761,93.307 34.4729761,93.448 C34.7199761,93.723 34.9549761,94.014 35.1829761,94.314 C35.2409761,94.389 35.2989761,94.468 35.3569761,94.545 C34.7909761,94.741 34.3239761,95.146 33.8429761,95.146 C33.1819761,95.146 32.8309761,94.38 32.0109761,94.383 C30.3719761,94.387 29.2569761,96.319 28.3979761,97.462 C29.0719761,97.959 30.5329761,98.679 30.1419761,99.731 C29.7799761,100.702 25.9829761,101.042 25.0309761,101.218 C23.8679761,101.432 22.1299761,101.592 20.9869761,101.295 C19.9279761,101.02 19.1739761,100.192 18.0519761,100.046 C17.2829761,99.945 15.6659761,100.108 15.1559761,100.844 C14.7789761,101.387 14.7789761,102.866 14.4649761,103.594 C14.1059761,104.426 13.5919761,104.916 13.1549761,105.615 C12.9499761,105.943 12.4889761,105.801 12.4829761,106.346 C12.4719761,107.203 13.7199761,107.357 13.7919761,108.219 C12.4009761,109.321 7.68097606,111.299 10.3559761,113.188 C11.4999761,113.997 12.9209761,114.394 14.3259761,114.596 C14.3429761,115.261 14.7689761,115.784 15.0679761,116.277 C14.0349761,116.345 13.0099761,115.538 12.0239761,115.955 C12.3029761,116.802 12.8929761,117.279 13.6159761,117.564 C12.2339761,117.507 10.7099761,118.672 9.42697606,118.902 C7.76097606,119.2 4.79097606,116.745 3.50597606,117.638 C3.08797606,117.928 2.91597606,119.225 3.03897606,119.794 C3.37397606,121.336 6.36297606,122.275 7.84297606,122.002 C8.88997606,121.807 8.38897606,121.181 9.78697606,121.73 C10.8989761,122.166 11.8789761,123.068 13.0859761,123.189 C13.3139761,122.386 13.0719761,121.629 13.2459761,120.817 C15.3659761,119.7 16.3269761,123.143 16.8749761,124.379 C15.7249761,124.787 11.0329761,123.791 10.6819761,124.961 C11.9759761,125.809 13.6019761,125.75 15.0729761,125.759 C15.7119761,125.761 16.3239761,125.626 16.9399761,125.865 C17.4179761,126.052 17.7099761,126.725 18.1899761,126.905 C18.7679761,127.123 19.4129761,126.829 19.9449761,127.133 C20.2439761,127.303 20.3899761,127.747 20.6729761,127.949 C21.4309761,128.493 22.4989761,129.337 23.4599761,128.823 C24.3589761,128.344 24.2899761,127.229 24.7709761,126.46 C25.2169761,126.469 25.6579761,126.43 26.0919761,126.417 C26.6619761,126.395 27.2229761,126.433 27.7379761,126.644 C27.7929761,126.666 27.8469761,126.692 27.9019761,126.716 C28.2439761,127.173 28.5739761,127.607 29.1699761,127.609 C29.3099761,127.61 29.4379761,127.572 29.5549761,127.506 C29.9199761,127.647 30.3079761,127.739 30.6959761,127.782 C30.7049761,127.912 30.7319761,128.06 30.7819761,128.233 C30.9949761,128.952 32.6029761,130.293 33.1399761,130.559 C34.8839761,131.426 36.1149761,130.52 37.5249761,129.636 C38.7499761,128.868 38.4199761,128.738 40.0539761,129.469 C41.2799761,130.018 42.2729761,130.973 43.7329761,130.704 C44.5099761,130.561 45.1809761,129.747 45.9779761,129.542 C46.8969761,129.306 47.8379761,129.692 48.7759761,129.511 C49.1609761,128.593 49.2549761,127.449 49.3829761,126.355 C49.8659761,126.014 50.3489761,125.684 50.8439761,125.388 C51.7939761,124.814 52.8219761,124.401 53.8479761,124.307 C54.3629761,124.286 54.8809761,124.317 55.3859761,124.458 C55.8889761,124.599 56.3879761,124.783 56.8589761,125.052 C57.8099761,125.561 58.6789761,126.263 59.5029761,127.022 C59.9169761,127.401 60.3159761,127.803 60.7169761,128.209 C61.1019761,128.607 61.5409761,129.069 62.0239761,129.453 C62.5069761,129.844 63.0379761,130.196 63.5969761,130.473 C64.1549761,130.755 64.7289761,130.973 65.2919761,131.163 C65.5739761,131.26 65.8539761,131.347 66.1329761,131.434 C66.4029761,131.519 66.6499761,131.602 66.9119761,131.702 C67.4299761,131.894 67.9539761,132.118 68.4899761,132.34 C69.0259761,132.562 69.5769761,132.784 70.1489761,132.982 C70.7179761,133.183 71.3449761,133.338 71.8909761,133.465 C72.2349761,133.546 72.5719761,133.63 72.8999761,133.721 C73.1659761,134.389 73.4589761,135.065 73.8129761,135.728 C73.9019761,135.902 74.0019761,136.073 74.0999761,136.244 L74.3579761,136.697 C74.5239761,136.993 74.6739761,137.3 74.8189761,137.609 C75.2029761,138.442 75.5069761,139.316 75.7729761,140.22 C75.8779761,140.932 75.9859761,141.651 76.1149761,142.376 C76.2909761,143.389 76.5559761,144.387 76.8639761,145.354 L76.9939761,145.868 C77.1859761,146.59 77.3929761,147.31 77.6239761,148.027 L77.8009761,148.564 L77.8829761,148.81 L77.9509761,149.033 C77.9669761,149.132 77.9799761,149.235 77.9959761,149.333 L78.1949761,150.521 L78.3789761,151.71 C78.5159761,152.554 78.7089761,153.395 78.9589761,154.219 C79.0839761,154.631 79.2229761,155.038 79.3739761,155.439 C79.4499761,155.64 79.5289761,155.84 79.6109761,156.037 L79.7349761,156.333 L79.8759761,156.645 C80.2639761,157.469 80.7259761,158.194 81.1469761,158.872 C81.2109761,158.974 81.2719761,159.074 81.3339761,159.175 C81.3479761,159.222 81.3619761,159.272 81.3759761,159.319 C81.5779761,159.982 81.7919761,160.578 81.9369761,161.133 C81.9719761,161.271 82.0059761,161.408 82.0319761,161.54 L82.1309761,162.018 C82.1989761,162.349 82.2739761,162.678 82.3529761,163.004 C82.3669761,163.063 82.3839761,163.123 82.3979761,163.183 C82.3489761,163.317 82.2889761,163.475 82.2209761,163.67 C82.1059761,163.999 81.9969761,164.413 81.9649761,164.833 C81.9549761,164.937 81.9499761,165.042 81.9489761,165.146 L81.9459761,165.384 L81.9389761,165.812 L81.9129761,167.527 L81.9019761,168.393 C81.8989761,168.721 81.9059761,169.051 81.9309761,169.374 C82.0219761,170.687 82.4379761,171.835 82.5239761,172.839 C82.5499761,173.094 82.6899761,173.344 82.6899761,173.593 L82.6899761,173.967 L82.5569761,174.374 C82.5379761,174.929 82.4429761,175.526 82.4509761,176.172 L82.4259761,176.417 C82.4279761,176.496 82.4159761,176.582 82.4249761,176.685 C82.4359761,176.883 82.4539761,188.147 82.4859761,188.335 C82.5489761,188.709 82.6379761,188.028 82.7309761,188.335 C82.8709761,188.785 82.9909761,188.011 83.0719761,188.335 C83.0299761,188.662 82.9839761,188.02 82.9329761,188.335 C82.8779761,188.664 82.8169761,188.263 82.7449761,188.556 C82.6749761,188.846 82.5859761,187.875 82.5099761,188.779 L82.9689761,188.779 C82.9229761,188.779 82.8769761,187.875 82.8289761,188.779 L82.3619761,188.779 C82.3639761,187.875 82.3599761,188.458 82.3509761,188.556 C82.3429761,188.66 82.3289761,188.453 82.3349761,188.668 C82.3359761,188.719 82.3389761,187.875 82.3469761,188.779 L82.4139761,188.779 C82.4289761,188.779 82.4469761,188.506 82.4659761,188.556 C82.4979761,188.65 82.5579761,188.332 82.6289761,188.445 C82.7699761,188.682 83.0069761,188.242 83.2639761,188.389 C83.3779761,188.454 83.5109761,188.548 83.6259761,188.585 C83.7279761,188.616 83.8339761,187.875 83.9389761,188.779 L86.8329761,188.779 C86.8769761,187.875 86.9109761,188.64 86.9409761,188.556 C86.9749761,188.691 87.0129761,188.304 87.0589761,188.445 C87.1529761,188.719 87.2539761,188.043 87.4689761,188.389 C87.5749761,188.56 87.7199761,188.385 87.9389761,188.585 C88.1699761,188.79 88.5089761,187.875 88.9509761,188.779 L89.5449761,188.779 C89.7849761,188.779 89.9429761,188.484 90.0189761,188.556 C90.0539761,188.588 90.0749761,188.429 90.0869761,188.445 C90.0679761,188.41 90.0329761,188.695 90.0049761,188.612 C89.9899761,188.571 89.9759761,188.779 89.9629761,188.779 L92.6909761,188.779 C92.6779761,187.875 92.6369761,189.683 92.5979761,188.779 L94.8829761,188.779 C94.8179761,182.452 95.0159761,170.291 94.7039761,164.106 C94.6599761,163.333 94.6169761,162.361 94.5569761,161.588 C94.5309761,161.201 94.4979761,160.715 94.4629761,160.328 L94.3619761,159.139 C94.3249761,158.714 94.2989761,158.26 94.2769761,157.828 C94.3639761,157.692 94.4529761,157.546 94.5339761,157.406 C94.6169761,157.264 94.6919761,157.12 94.7689761,156.981 C95.1779761,156.498 95.5909761,156.014 96.0089761,155.543 C96.3989761,155.102 96.7909761,154.671 97.1929761,154.241 C97.5979761,153.808 98.0179761,153.365 98.4319761,152.897 C98.6389761,152.663 98.8449761,152.421 99.0469761,152.17 C99.2359761,151.938 99.4839761,151.609 99.6579761,151.306 C100.018976,150.695 100.250976,150.127 100.498976,149.666 L100.716976,149.258 L100.934976,148.819 C101.070976,148.526 101.199976,148.233 101.316976,147.942 C101.552976,147.36 101.759976,146.784 101.961976,146.223 C102.139976,145.732 102.316976,145.254 102.502976,144.791 L103.048976,144.085 C103.306976,143.745 103.576976,143.41 103.856976,143.068 C104.314976,142.506 104.790976,141.924 105.230976,141.293 C105.515976,141.004 105.796976,140.702 106.066976,140.38 L106.231976,140.177 L106.380976,139.991 C106.468976,139.878 106.564976,139.765 106.661976,139.651 C106.857976,139.424 107.067976,139.193 107.283976,138.955 C107.499976,138.717 107.721976,138.469 107.941976,138.205 C108.156976,137.946 108.390976,137.647 108.568976,137.368 C108.757976,137.086 108.949976,136.805 109.114976,136.512 L109.373976,136.078 L109.609976,135.634 C110.075976,134.746 110.471976,133.836 110.820976,132.918 C111.015976,132.775 111.223976,132.639 111.442976,132.504 C111.804976,132.28 112.208976,132.042 112.583976,131.79 C112.960976,131.54 113.326976,131.283 113.689976,131.03 C114.051976,130.777 114.410976,130.528 114.773976,130.294 C114.862976,130.236 114.957976,130.174 115.043976,130.123 C115.128976,130.075 115.211976,130.024 115.299976,129.978 L115.571976,129.847 L115.855976,129.733 C116.628976,129.446 117.471976,129.279 118.318976,129.21 C119.164976,129.14 120.025976,129.166 120.829976,129.352 C121.247976,129.452 121.672976,129.58 122.121976,129.682 C122.344976,129.734 122.574976,129.778 122.808976,129.808 C122.925976,129.823 123.043976,129.835 123.162976,129.843 L123.485976,129.859 C123.865976,129.888 124.238976,130.035 124.625976,130.226 C125.008976,130.415 125.423976,130.65 125.885976,130.777 C126.782976,131.054 127.719976,131.077 128.615976,131.012 C129.252976,130.965 129.876976,130.876 130.496976,130.796 C130.524976,131.035 130.632976,131.276 130.850976,131.516 C131.590976,132.332 133.701976,131.99 134.641976,132.396 C135.569976,132.798 135.604976,133.232 136.804976,133.123 C137.804976,133.031 138.677976,131.987 139.656976,132.193 C140.254976,132.32 140.686976,133.75 141.520976,133.891 C142.438976,134.047 142.779976,133.324 143.434976,132.97 C145.286976,131.969 146.904976,130.249 147.148976,127.991 C147.339976,126.219 145.641976,126.575 145.881976,125.167 C146.223976,123.157 150.631976,123.059 151.982976,123.377 C152.949976,123.603 152.875976,123.944 153.828976,123.506 C154.439976,123.224 155.227976,122.149 155.237976,121.483 C154.903976,121.339 154.661976,121.1 154.511976,120.768 C154.993976,119.511 158.060976,119.244 159.229976,118.668 C158.762976,117.927 154.063976,118.123 154.053976,118.122 C153.067976,118.02 151.916976,117.862 150.795976,117.613 C151.198976,117.369 151.594976,117.119 151.994976,116.884 C152.998976,116.265 154.113976,115.864 155.258976,115.55 C155.739976,115.422 156.218976,115.3 156.703976,115.233 C156.998976,116.931 157.862976,118.375 160.051976,118.185 C160.345976,118.023 160.639976,117.862 160.932976,117.7 C161.762976,117.779 162.477976,118.138 163.079976,118.777 C164.372976,119.393 165.472976,119.629 166.274976,118.321 C166.955976,117.209 168.844976,113.74 168.576976,112.538 C168.184976,110.781 164.138976,112.087 164.705976,110.353 Z" fill="#313934"></path>
    </g>
</svg>