<?xml version="1.0" encoding="UTF-8"?>
<svg width="166px" height="188px" viewBox="0 0 166 188" version="1.1" xmlns="http://www.w3.org/2000/svg" xmlns:xlink="http://www.w3.org/1999/xlink">
    <!-- Generator: Sketch 51.3 (57544) - http://www.bohemiancoding.com/sketch -->
    <title>Fill 24 Copy</title>
    <desc>Created with Sketch.</desc>
    <defs></defs>
    <g id="tree" stroke="none" stroke-width="1" fill="none" fill-rule="evenodd">
        <path d="M133.844537,89.167 C133.819537,89.352 133.809537,89.538 133.805537,89.722 C133.798537,89.534 133.806537,89.347 133.844537,89.167 Z M52.6935371,105.965 C52.1005371,105.654 51.5545371,105.291 51.0995371,104.847 L50.3415371,104.112 L49.9595371,103.741 L49.7685371,103.555 C49.7175371,103.5 49.6675371,103.446 49.6175371,103.386 C49.5455371,103.302 49.4765371,103.209 49.4065371,103.115 C49.7995371,103.105 50.2655371,103.155 50.7475371,103.15 C49.3095371,102.084 49.2775371,101.958 49.2475371,101.833 C48.4825371,101.78 48.1495371,101.25 47.6695371,101.074 C47.3055371,100.763 46.9295371,100.474 46.5345371,100.205 C46.0615371,99.881 45.5695371,99.592 45.0695371,99.328 C45.2855371,99.345 45.4945371,99.35 45.6555371,99.363 C45.9545371,99.387 46.2425371,99.442 46.5225371,99.531 C46.6725371,99.579 46.8225371,99.639 46.9725371,99.705 C47.0505371,99.753 47.1315371,99.798 47.2095371,99.848 C47.7055371,100.172 48.1795371,100.529 48.6315371,100.913 C49.5345371,101.679 50.3505371,102.548 51.0705371,103.489 C51.2525371,103.724 51.4205371,103.963 51.5955371,104.208 C51.7745371,104.466 51.9885371,104.699 52.2235371,104.905 C52.6925371,105.319 53.2335371,105.623 53.7645371,105.902 L54.5555371,106.319 L54.7475371,106.427 C54.8035371,106.458 54.8415371,106.488 54.8825371,106.528 C54.9595371,106.602 55.0365371,106.745 55.1775371,106.875 C55.4665371,107.138 55.8095371,107.177 56.0465371,107.279 C56.1505371,107.348 56.2525371,107.417 56.3575371,107.483 C55.0925371,106.975 53.8065371,106.545 52.6935371,105.965 Z M43.9405371,102.689 C43.3605371,102.686 42.7725371,102.746 42.2745371,102.362 C41.8255371,102.017 41.8805371,101.44 41.4955371,101.111 C40.2885371,100.08 38.1945371,102.792 36.7415371,102.645 C37.6445371,101.941 38.3025371,100.991 39.0385371,100.146 C39.4245371,99.696 39.8435371,99.261 40.3895371,99.055 C40.6855371,98.938 41.0005371,98.889 41.3225371,98.868 C41.6155371,98.978 41.9065371,99.09 42.1955371,99.208 C43.4965371,99.744 44.7515371,100.363 45.8625371,101.167 C45.9995371,101.265 46.1345371,101.368 46.2675371,101.472 C45.5135371,102.016 45.2025371,102.695 43.9405371,102.689 Z M63.4445371,69.911 C63.2635371,69.787 63.0795371,69.666 62.9005371,69.538 C62.6965371,69.394 62.4985371,69.244 62.2985371,69.097 C62.7905371,69.064 63.1425371,69.41 63.4445371,69.911 Z M76.0135371,66.699 C79.6075371,67.821 76.0085371,70.721 75.4635371,72.705 C75.5575371,73.124 75.5545371,73.549 75.4545371,73.981 C75.2405371,74.42 75.0275371,74.861 74.8155371,75.3 C74.2585371,76.464 73.9635371,77.449 74.2325371,78.738 C74.5225371,80.13 74.9735371,80.307 76.1465371,80.774 C77.1325371,81.167 77.3095371,81.177 76.8815371,82.23 C76.6255371,82.86 76.0045371,83.34 75.6335371,83.897 C74.7075371,85.286 74.1945371,87.56 74.2835371,89.202 C74.3465371,90.371 74.4725371,91.649 74.9645371,92.684 C76.5275371,95.975 72.8845371,98.919 71.7775371,101.801 C72.7415371,103.061 75.7475371,101.8 77.1085371,102.662 C77.1755371,103.671 75.2965371,103.422 75.6445371,105.043 C76.0475371,106.923 79.0245371,108.894 80.2035371,110.212 C81.0615371,111.17 81.1595371,111.801 82.2205371,111.532 C83.0505371,111.32 82.8695371,110.967 83.1265371,110.46 C83.0505371,110.166 83.1145371,109.887 83.3205371,109.625 C83.7125371,109.178 84.1015371,108.729 84.4865371,108.278 C85.6495371,106.814 86.7995371,105.351 88.0395371,103.948 C88.9755371,102.888 88.9995371,102.939 90.2095371,103.296 C91.4325371,103.658 92.6455371,103.974 93.8585371,104.252 L93.7775371,104.423 C93.6775371,104.644 93.5785371,104.875 93.4895371,105.122 C93.4455371,105.246 93.4025371,105.373 93.3645371,105.505 L93.3105371,105.708 L92.9405371,107.179 C92.7175371,108.061 92.4965371,108.972 92.3495371,109.92 C92.2765371,110.394 92.2225371,110.876 92.1925371,111.363 C92.1605371,111.85 92.1595371,112.343 92.1695371,112.803 C92.1785371,113.214 92.1915371,113.613 92.1955371,114 C91.7145371,114.706 91.2435371,115.458 90.8615371,116.307 C90.0455371,118.142 89.5555371,120.04 89.1245371,121.884 L88.4985371,124.62 C88.3925371,125.067 88.2825371,125.511 88.1665371,125.949 L87.7995371,127.302 C87.6805371,127.748 87.5635371,128.161 87.4255371,128.537 L87.3105371,128.834 C87.2495371,128.991 87.1985371,129.146 87.1585371,129.293 C87.0765371,129.591 87.0265371,129.867 86.9845371,130.113 C86.9555371,130.286 86.9295371,130.438 86.9025371,130.581 L86.6365371,130.958 C86.3725371,131.338 86.1135371,131.719 85.8605371,132.104 C85.3525371,132.873 84.8615371,133.652 84.3855371,134.439 C84.0815371,134.94 83.7905371,135.445 83.5065371,135.95 C83.3245371,136.125 83.1405371,136.302 82.9525371,136.481 C82.3295371,137.074 81.6805371,137.687 81.0535371,138.374 C80.4265371,139.055 79.8235371,139.83 79.3345371,140.708 C79.2755371,140.816 79.2085371,140.93 79.1555371,141.034 L79.0025371,141.338 C78.8995371,141.542 78.8055371,141.749 78.7055371,141.954 C78.6725371,142.026 78.6415371,142.099 78.6085371,142.171 C78.5765371,142.08 78.5415371,141.985 78.5125371,141.895 C78.4685371,141.767 78.4325371,141.643 78.3945371,141.518 C78.3285371,141.249 78.2505371,140.984 78.1745371,140.741 L78.1445371,140.63 C78.0635371,140.362 77.9765371,140.104 77.8845371,139.853 C77.6265371,139.065 77.3665371,138.27 77.0805371,137.467 C76.8535371,136.826 76.6065371,136.181 76.3365371,135.541 C76.3235371,135.471 76.3125371,135.396 76.2995371,135.322 L76.2465371,134.989 L76.1485371,134.332 C76.0865371,133.897 76.0325371,133.47 75.9955371,133.048 C75.9575371,132.626 75.9375371,132.209 75.9335371,131.792 C75.9345371,131.214 75.8355371,130.64 75.7485371,130.192 C75.6595371,129.735 75.5965371,129.38 75.5905371,129.066 L75.5845371,128.694 C75.5785371,128.546 75.5685371,128.401 75.5525371,128.257 C75.5205371,127.971 75.4695371,127.695 75.4095371,127.433 C75.2875371,126.909 75.1315371,126.441 74.9945371,126.017 L74.8965371,125.705 L74.8585371,125.579 C74.8495371,125.55 74.8415371,125.511 74.8315371,125.476 C74.7975371,125.324 74.7675371,125.125 74.7335371,124.893 C74.6975371,124.661 74.6595371,124.397 74.5855371,124.097 C74.5515371,123.952 74.4985371,123.783 74.4415371,123.627 C74.3875371,123.485 74.3305371,123.354 74.2755371,123.232 L73.9715371,122.603 C73.9295371,122.513 73.8915371,122.431 73.8605371,122.355 L73.8185371,122.246 L73.7505371,122.062 C73.5485371,121.516 73.2415371,121.009 72.9975371,120.631 C72.7505371,120.245 72.5765371,119.955 72.4325371,119.611 C72.2825371,119.268 72.1545371,118.862 72.0005371,118.41 C71.8445371,117.958 71.6585371,117.453 71.3815371,116.955 C71.3185371,116.837 71.2265371,116.691 71.1715371,116.602 L70.9965371,116.323 L70.6565371,115.762 C70.4385371,115.385 70.2235371,115.007 70.0275371,114.623 C69.8525371,114.283 69.6875371,113.937 69.5325371,113.589 C69.5135371,113.291 69.4875371,112.991 69.4505371,112.688 C69.4035371,112.309 69.3415371,111.929 69.2605371,111.551 C69.2215371,111.366 69.1755371,111.182 69.1275371,110.999 C69.1495371,110.874 69.1725371,110.748 69.1965371,110.619 L69.3355371,109.888 L69.4035371,109.504 L69.4635371,109.132 C69.5365371,108.665 69.6235371,108.191 69.7145371,107.71 C69.8945371,106.75 70.0925371,105.766 70.2265371,104.744 C70.4965371,102.714 70.5105371,100.461 69.5295371,98.364 C69.4795371,98.262 69.0695371,98.168 69.0145371,98.075 C68.8465371,97.454 68.9915371,96.842 68.0875371,96.241 L68.0875371,96.226 L68.4395371,95.895 C68.4365371,95.771 68.6145371,95.637 68.6055371,95.51 C68.5925371,95.253 68.6485371,95.004 68.6115371,94.762 C68.5345371,94.279 68.4725371,93.834 68.3895371,93.423 C68.3085371,93.012 68.2705371,92.63 68.2645371,92.259 L68.2725371,91.929 C68.2695371,91.806 68.2715371,91.682 68.2625371,91.56 C68.2485371,91.314 68.2255371,91.073 68.1935371,90.833 C68.1275371,90.356 68.0315371,89.89 67.9155371,89.437 C67.8585371,89.21 67.7965371,88.986 67.7305371,88.765 L67.6265371,88.427 C67.6095371,88.373 67.5895371,88.321 67.5705371,88.27 C67.6045371,88.093 67.6395371,87.917 67.6865371,87.744 C67.7435371,87.533 67.8095371,87.324 67.8855371,87.119 L68.1515371,86.453 C68.3385371,85.983 68.5145371,85.511 68.6815371,85.041 C69.0175371,84.096 69.3205371,83.164 69.6355371,82.226 C69.9805371,81.204 70.1215371,80.105 70.1075371,79.059 L70.0975371,78.667 L70.0895371,78.472 L70.0715371,78.249 C70.0495371,78.027 70.0055371,77.812 69.9525371,77.602 C69.9635371,77.493 69.9705371,77.375 69.9765371,77.264 C69.9625371,76.647 69.7555371,76.139 69.5295371,75.687 C69.3195371,75.302 69.0785371,74.955 68.8255371,74.625 C68.8125371,74.562 68.8005371,74.499 68.7845371,74.435 C68.6665371,73.963 68.5065371,73.543 68.3095371,73.112 C68.1095371,72.683 67.8445371,72.271 67.5695371,71.913 C67.3925371,71.68 67.2195371,71.463 67.0535371,71.25 C68.4195371,69.737 69.6105371,67.931 71.3235371,66.924 C72.5395371,66.21 74.7515371,66.305 76.0135371,66.699 Z M120.169537,116.111 L119.697537,116.33 C119.540537,116.404 119.400537,116.466 119.214537,116.562 C118.865537,116.747 118.555537,116.98 118.279537,117.207 C118.005537,117.435 117.760537,117.652 117.512537,117.836 C117.268537,118.017 116.992537,118.191 116.704537,118.372 C116.129537,118.734 115.520537,119.111 114.953537,119.636 C114.672537,119.9 114.399537,120.216 114.194537,120.619 C114.095537,120.821 114.015537,121.043 113.973537,121.281 C113.928537,121.512 113.925537,121.729 113.934537,121.939 C113.954537,122.356 114.039537,122.729 114.121537,123.072 L114.240537,123.561 C114.274537,123.712 114.319537,123.909 114.365537,124.079 C114.461537,124.432 114.573537,124.784 114.723537,125.138 C114.799537,125.316 114.884537,125.494 114.986537,125.672 C115.087537,125.844 115.175537,125.986 115.274537,126.139 C115.510537,126.506 115.753537,126.852 115.988537,127.191 L115.978537,127.952 C115.906537,127.81 115.838537,127.668 115.774537,127.527 L115.582537,127.111 L115.373537,126.696 L114.959537,125.907 C114.827537,125.647 114.707537,125.403 114.611537,125.148 C114.512537,124.89 114.424537,124.614 114.330537,124.328 C114.237537,124.042 114.138537,123.744 114.011537,123.445 L113.824537,123.03 L113.656537,122.634 C113.443537,122.106 113.274537,121.568 113.199537,121.035 C113.124537,120.496 113.156537,119.991 113.365537,119.517 C113.561537,119.039 113.908537,118.6 114.298537,118.184 C114.690537,117.767 115.134537,117.373 115.566537,116.935 C116.006537,116.487 116.380537,116.011 116.742537,115.521 C117.462537,114.539 118.070537,113.49 118.621537,112.422 L118.777537,112.11 C118.926537,112.149 119.073537,112.188 119.229537,112.226 C119.320537,113.021 119.402537,113.816 119.474537,114.612 C119.732537,115.222 120.182537,115.522 120.825537,115.512 C120.951537,115.581 121.064537,115.634 121.172537,115.681 C121.139537,115.704 121.109537,115.726 121.075537,115.748 C120.762537,115.856 120.459537,115.98 120.169537,116.111 Z M116.081537,120.51 L116.026537,124.525 C115.909537,124.265 115.808537,123.985 115.721537,123.697 C115.674537,123.541 115.639537,123.406 115.593537,123.227 L115.457537,122.729 C115.370537,122.414 115.301537,122.121 115.281537,121.858 C115.272537,121.729 115.271537,121.603 115.290537,121.5 C115.304537,121.402 115.335537,121.301 115.382537,121.197 C115.479537,120.988 115.643537,120.769 115.852537,120.564 C115.924537,120.492 116.004537,120.423 116.083537,120.355 C116.083537,120.407 116.082537,120.458 116.081537,120.51 Z M49.9445371,101.195 C50.0025371,101.233 50.0585371,101.272 50.1115371,101.312 L50.2905371,101.456 C50.4115371,101.547 50.5245371,101.655 50.6405371,101.755 C50.8665371,101.966 51.0875371,102.186 51.2985371,102.42 C52.1515371,103.351 52.9025371,104.363 53.8325371,105.362 C53.8695371,105.401 53.9095371,105.409 53.9465371,105.409 C53.4175371,105.409 52.9025371,104.928 52.4675371,104.554 C52.2505371,104.368 52.0525371,104.196 51.8875371,103.964 C51.7115371,103.724 51.5315371,103.495 51.3455371,103.258 C50.5975371,102.31 49.7535371,101.445 48.8215371,100.675 C48.7905371,100.65 48.7575371,100.63 48.7265371,100.605 C49.1745371,100.809 49.6055371,100.975 49.9445371,101.195 Z M67.0835371,84.454 C67.0115371,84.645 66.9335371,84.831 66.8585371,85.02 L66.8465371,84.968 C66.8115371,84.816 66.8005371,84.671 66.8115371,84.528 C66.8275371,84.244 66.9445371,83.945 67.1375371,83.612 C67.2965371,83.339 67.4985371,83.052 67.7085371,82.739 C67.5035371,83.316 67.2965371,83.891 67.0835371,84.454 Z M72.8785371,128.592 L72.7085371,128.114 C72.6355371,127.911 72.5535371,127.707 72.4775371,127.503 C72.2115371,126.34 71.8745371,125.219 71.5325371,124.121 L70.8105371,121.839 C70.8305371,121.874 70.8535371,121.913 70.8735371,121.945 C71.1135371,122.338 71.2715371,122.624 71.3795371,122.937 L71.4265371,123.076 L71.5035371,123.287 C71.5555371,123.422 71.6105371,123.548 71.6625371,123.667 L71.9415371,124.275 C71.9785371,124.361 72.0105371,124.44 72.0345371,124.511 C72.0535371,124.571 72.0695371,124.62 72.0855371,124.697 C72.1175371,124.839 72.1445371,125.028 72.1715371,125.248 C72.1995371,125.467 72.2295371,125.72 72.2875371,126.014 C72.3045371,126.09 72.3195371,126.164 72.3415371,126.245 L72.3975371,126.448 L72.4965371,126.79 C72.6305371,127.235 72.7525371,127.637 72.8275371,128.003 C72.8655371,128.187 72.8925371,128.361 72.9065371,128.528 C72.9115371,128.576 72.9125371,128.623 72.9145371,128.669 C72.9025371,128.644 72.8905371,128.618 72.8785371,128.592 Z M112.561537,119.162 C112.471537,119.355 112.398537,119.564 112.344537,119.777 C112.318537,119.718 112.289537,119.66 112.256537,119.599 C111.535537,118.265 109.581537,117.884 110.664537,116.227 C111.202537,115.404 112.278537,115.165 112.226537,113.97 C112.201537,113.419 111.867537,113.076 111.756537,112.553 C111.657537,112.087 111.658537,110.96 111.648537,110.5 C111.632537,109.833 111.326537,109.924 111.991537,109.654 C112.729537,109.355 113.658537,110.058 114.255537,110.38 C115.633537,111.125 116.824537,111.568 118.207537,111.955 L118.104537,112.144 C117.528537,113.177 116.902537,114.177 116.181537,115.096 C115.820537,115.552 115.439537,116.003 115.029537,116.392 C114.611537,116.79 114.150537,117.174 113.709537,117.611 C113.274537,118.048 112.841537,118.542 112.561537,119.162 Z M113.052537,125.791 C112.634537,125.517 112.215537,125.263 111.800537,125.01 C111.021537,124.528 110.250537,124.032 109.690537,123.358 C110.682537,122.829 111.827537,122.307 112.321537,121.518 C112.408537,122.031 112.553537,122.522 112.725537,122.993 C112.779537,123.138 112.835537,123.283 112.893537,123.425 L113.060537,123.832 C113.157537,124.085 113.239537,124.356 113.321537,124.639 C113.403537,124.922 113.486537,125.218 113.591537,125.52 C113.695537,125.827 113.829537,126.123 113.958537,126.399 L113.995537,126.474 C113.689537,126.239 113.378537,126.006 113.052537,125.791 Z M113.663537,138.104 L114.013537,137.728 L114.211537,137.512 C114.281537,137.43 114.351537,137.346 114.413537,137.263 C114.618537,136.997 114.783537,136.732 114.932537,136.48 C115.003537,136.412 115.078537,136.347 115.150537,136.278 C115.152537,136.276 115.154537,136.273 115.156537,136.271 C114.784537,136.842 114.364537,137.383 113.893537,137.89 L113.561537,138.235 L113.323537,138.468 C113.437537,138.347 113.550537,138.225 113.663537,138.104 Z M33.2825371,94.687 C32.5605371,93.74 30.3945371,93.316 30.0955371,92.133 C29.9145371,91.416 30.6145371,90.462 31.1105371,89.994 C31.1535371,89.953 31.1955371,89.916 31.2385371,89.878 C31.5715371,90.042 31.8995371,90.214 32.2195371,90.4 C32.7785371,90.725 33.3195371,91.084 33.8365371,91.473 C34.3595371,91.863 34.8455371,92.273 35.2775371,92.746 C36.1515371,93.687 36.8595371,94.786 37.6685371,95.834 C37.9475371,96.196 38.2405371,96.55 38.5555371,96.889 C38.5295371,96.881 38.5035371,96.874 38.4785371,96.865 C36.7935371,96.322 35.1375371,95.648 33.4535371,95.016 C33.4075371,94.893 33.3535371,94.779 33.2825371,94.687 Z M64.5385371,72.338 C64.7035371,72.454 64.8655371,72.57 65.0275371,72.687 C65.1015371,72.754 65.1795371,72.817 65.2625371,72.868 L65.2635371,72.867 C65.7525371,73.273 66.2245371,73.703 66.6675371,74.153 C66.8795371,74.468 67.0675371,74.84 67.2535371,75.239 L67.5725371,75.917 L67.7365371,76.249 C67.7365371,76.541 67.7315371,76.833 67.7095371,77.099 C67.6865371,77.384 67.6385371,77.64 67.5585371,77.894 C67.4985371,77.752 67.4685371,77.655 67.4445371,77.529 C67.4305371,77.451 67.4215371,77.364 67.4065371,77.233 C67.3935371,77.107 67.3675371,76.934 67.3155371,76.761 C67.2665371,76.59 67.1695371,76.406 67.1425371,76.348 C67.0995371,76.26 67.0595371,76.167 67.0185371,76.069 L66.7675371,75.439 C66.6745371,75.211 66.5795371,74.99 66.4315371,74.726 C66.2845371,74.479 66.1135371,74.255 65.9335371,74.055 C65.5695371,73.659 65.1715371,73.352 64.8045371,73.074 C64.6195371,72.934 64.4405371,72.801 64.2755371,72.669 C64.1005371,72.531 63.9745371,72.419 63.7855371,72.25 C63.4325371,71.933 63.0715371,71.637 62.7135371,71.348 C62.4585371,71.141 62.2045371,70.939 61.9525371,70.737 C62.2415371,70.895 62.5295371,71.052 62.8125371,71.211 C63.0155371,71.326 63.2145371,71.442 63.4105371,71.56 C63.7905371,71.823 64.1705371,72.083 64.5385371,72.338 Z M64.7625371,92.966 C64.8305371,93.284 64.8715371,93.609 64.9115371,93.958 C64.9505371,94.307 64.9865371,94.673 65.0505371,95.054 C65.0555371,95.084 65.0645371,95.116 65.0695371,95.146 L65.0155371,95.026 C64.8585371,94.657 64.7365371,94.282 64.6555371,93.901 C64.6155371,93.71 64.5855371,93.519 64.5675371,93.326 C64.5575371,93.229 64.5495371,93.132 64.5455371,93.035 L64.5405371,92.888 L64.5375371,92.721 C64.5335371,92.497 64.5235371,92.283 64.5115371,92.076 C64.6165371,92.332 64.6915371,92.635 64.7625371,92.966 Z M66.2295371,79.451 C66.1885371,79.613 66.1075371,79.821 66.0305371,80.087 C65.9925371,80.217 65.9585371,80.371 65.9375371,80.506 C65.9155371,80.635 65.8985371,80.762 65.8845371,80.88 C65.8565371,81.122 65.8345371,81.301 65.7945371,81.46 C65.7745371,81.541 65.7495371,81.62 65.7185371,81.702 C65.6815371,81.802 65.6275371,81.955 65.5935371,82.076 C65.4935371,82.421 65.4365371,82.726 65.3745371,83.005 C65.2435371,83.353 65.1435371,83.71 65.0645371,84.07 C64.7245371,85.028 64.2355371,85.98 63.7645371,86.994 C63.0765371,86.873 62.3555371,86.97 61.5975371,87.3 C61.2315371,87.33 60.8705371,87.379 60.5135371,87.438 C61.5625371,87.63 62.5145371,87.613 63.5505371,87.468 C63.4445371,87.708 63.3405371,87.953 63.2405371,88.202 C63.1565371,88.157 63.0725371,88.119 62.9925371,88.086 C62.5985371,87.937 62.2395371,87.903 61.9285371,87.841 C61.7655371,87.811 61.6465371,87.783 61.4805371,87.734 C61.3105371,87.683 61.1415371,87.641 60.9715371,87.599 C60.7615371,87.549 60.5525371,87.506 60.3435371,87.466 C60.4005371,87.457 60.4565371,87.447 60.5135371,87.438 C60.2745371,87.394 60.0305371,87.342 59.7785371,87.275 C59.5475371,86.632 60.8585371,85.016 61.0905371,84.45 C60.2785371,83.481 59.2255371,82.97 57.9295371,82.917 C57.9185371,81.308 62.5925371,82.573 63.4295371,81.182 C61.4175371,79.274 59.5735371,76.636 59.6835371,73.672 C59.7165371,72.771 59.8005371,71.798 60.1745371,70.963 C60.7315371,71.464 61.3005371,71.929 61.8495371,72.394 C62.1945371,72.685 62.5325371,72.975 62.8525371,73.274 C62.9985371,73.412 63.2095371,73.608 63.3915371,73.755 C63.5785371,73.912 63.7625371,74.053 63.9385371,74.193 C64.2915371,74.471 64.6115371,74.737 64.8575371,75.018 C64.9785371,75.16 65.0805371,75.303 65.1645371,75.45 C65.2365371,75.584 65.3225371,75.783 65.3965371,75.98 L65.6385371,76.625 C65.6835371,76.74 65.7305371,76.856 65.7835371,76.974 C65.8525371,77.123 65.8615371,77.142 65.8745371,77.191 C65.8875371,77.237 65.8965371,77.291 65.9045371,77.391 C65.9135371,77.488 65.9245371,77.627 65.9465371,77.774 C65.9705371,77.924 66.0055371,78.074 66.0505371,78.218 C66.0955371,78.362 66.1525371,78.5 66.1935371,78.598 C66.2735371,78.797 66.2785371,78.84 66.2865371,78.992 C66.2865371,79.15 66.2735371,79.291 66.2295371,79.451 Z M64.7315371,89.264 C64.7325371,89.329 64.7355371,89.394 64.7375371,89.459 C64.7195371,89.445 64.6995371,89.434 64.6815371,89.421 C64.6965371,89.369 64.7135371,89.317 64.7315371,89.264 Z M98.8055371,113.618 C98.9405371,113.044 99.0565371,112.461 99.1425371,111.872 C99.1995371,111.483 99.2445371,111.095 99.2805371,110.708 C99.4615371,110.269 99.6435371,109.831 99.8295371,109.394 L99.9955371,109.01 C100.004537,110.659 99.9375371,112.536 98.8055371,113.618 Z M114.685537,127.964 L114.699537,127.999 C115.126537,129.006 115.652537,129.909 115.939537,130.809 C115.921537,130.894 115.899537,130.985 115.868537,131.083 C115.785537,131.35 115.663537,131.642 115.528537,131.95 L115.319537,132.432 L115.269537,132.553 L115.235537,132.626 C115.209537,132.678 115.179537,132.734 115.146537,132.792 C115.009537,133.023 114.823537,133.276 114.625537,133.533 C114.422537,133.797 114.211537,134.043 113.970537,134.379 C113.741537,134.702 113.555537,135.016 113.379537,135.3 C113.203537,135.585 113.037537,135.841 112.867537,136.049 C112.825537,136.102 112.782537,136.15 112.739537,136.196 L112.584537,136.356 L112.221537,136.725 C111.866537,137.084 111.515537,137.442 111.162537,137.794 C111.082537,137.841 111.005537,137.885 110.922537,137.932 C110.493537,138.177 110.025537,138.476 109.620537,138.816 C108.811537,139.481 108.130537,140.244 107.480537,140.969 C107.399537,141.06 107.318537,141.148 107.236537,141.238 C106.885537,141.489 106.519537,141.741 106.157537,141.992 C105.032537,142.769 103.888537,143.54 102.751537,144.345 C102.182537,144.749 101.615537,145.16 101.055537,145.585 C100.492537,146.009 99.9355371,146.463 99.4165371,146.87 C98.9855371,147.208 98.5435371,147.536 98.1025371,147.86 C97.8015371,147.982 97.4965371,148.1 97.1885371,148.216 C96.5345371,148.467 96.0105371,148.652 95.3755371,148.811 C94.7535371,148.974 94.0865371,149.118 93.3905371,149.304 C93.0415371,149.399 92.6855371,149.502 92.3245371,149.626 C91.9645371,149.751 91.5965371,149.905 91.2535371,150.067 C90.5605371,150.393 89.9165371,150.779 89.3145371,151.182 C88.1075371,151.99 87.0505371,152.864 85.9965371,153.584 C85.7345371,153.764 85.4715371,153.933 85.2085371,154.094 L84.8155371,154.322 L84.3125371,154.62 C83.6565371,155.032 83.0585371,155.494 82.4995371,155.979 C82.2005371,156.241 81.9135371,156.51 81.6335371,156.784 C81.5805371,156.82 81.5245371,156.85 81.4715371,156.889 C81.1625371,157.116 80.8645371,157.378 80.5905371,157.709 C80.3245371,157.885 80.0595371,158.075 79.8015371,158.295 C79.6495371,158.419 79.4905371,158.573 79.3575371,158.704 L79.3535371,158.672 L79.3415371,158.58 L80.7355371,151.971 L80.9865371,150.774 C81.0865371,150.241 81.1005371,149.741 81.0975371,149.293 L81.0945371,149.205 C81.2215371,149.16 81.3775371,149.096 81.5845371,148.968 C81.6695371,148.914 81.6995371,148.889 81.7385371,148.86 C81.7775371,148.831 81.8185371,148.799 81.8495371,148.772 C81.9195371,148.713 81.9835371,148.657 82.0395371,148.602 C82.2665371,148.382 82.4195371,148.195 82.5485371,148.045 C82.6765371,147.895 82.7785371,147.782 82.8495371,147.715 L82.8945371,147.674 L82.9105371,147.661 L82.9765371,147.612 C83.0785371,147.537 83.1835371,147.453 83.2875371,147.366 C83.4955371,147.189 83.7055371,146.985 83.8865371,146.774 C84.2475371,146.357 84.5015371,145.921 84.6615371,145.722 C84.8595371,145.464 85.1155371,145.186 85.4075371,144.859 C85.6955371,144.542 86.0285371,144.125 86.2835371,143.739 C86.7855371,142.991 87.1705371,142.211 87.4985371,141.435 C88.1515371,140.799 88.7905371,140.138 89.3995371,139.432 C89.9575371,138.775 90.4425371,138.158 90.9505371,137.509 C91.4525371,136.864 91.9465371,136.205 92.4235371,135.526 C93.3745371,134.168 94.2535371,132.725 94.9565371,131.18 C96.3595371,128.105 97.0755371,124.732 97.1095371,121.391 C97.1145371,120.514 97.0915371,119.657 97.0605371,118.809 C97.6405371,117.4 98.1875371,115.95 98.6015371,114.428 C98.6245371,114.344 98.6455371,114.258 98.6675371,114.172 C99.6995371,114.958 100.816537,117.107 101.419537,117.296 C102.117537,117.516 102.746537,117.111 103.568537,117.555 C105.312537,118.5 105.182537,120.89 105.690537,122.559 C106.333537,124.677 107.625537,124.572 109.160537,123.655 C109.195537,123.633 109.233537,123.612 109.269537,123.591 C109.871537,124.403 110.696537,124.969 111.483537,125.503 C111.890537,125.776 112.296537,126.043 112.684537,126.321 C113.069537,126.598 113.439537,126.904 113.808537,127.217 C114.097537,127.463 114.388537,127.714 114.685537,127.964 Z M64.2185371,111.7 C63.8295371,111.076 63.3715371,110.5 62.8475371,110.015 C62.3205371,109.539 61.7645371,109.107 61.1855371,108.746 C60.0345371,108.003 58.8395371,107.432 57.7165371,106.805 C57.1495371,106.498 56.6115371,106.167 56.0955371,105.816 C55.5835371,105.458 55.1235371,105.071 54.6805371,104.621 C53.7945371,103.728 53.0125371,102.672 52.0675371,101.696 C51.8325371,101.451 51.5815371,101.214 51.3215371,100.987 C51.1875371,100.877 51.0585371,100.762 50.9165371,100.659 L50.7065371,100.501 C50.6275371,100.446 50.5475371,100.393 50.4665371,100.345 C49.8135371,99.962 49.1715371,99.805 48.6475371,99.521 C48.0725371,99.232 47.4765371,98.891 46.7775371,98.688 C46.4295371,98.588 46.0685371,98.532 45.7125371,98.513 C45.3305371,98.499 45.0725371,98.515 44.7815371,98.46 C44.4955371,98.413 44.2015371,98.317 43.8705371,98.223 C43.5445371,98.129 43.1635371,98.064 42.8345371,98.042 C42.5125371,98.011 42.1975371,98 41.8965371,97.979 C41.2795371,97.761 40.6615371,97.557 40.0445371,97.361 C39.8365371,97.213 39.6355371,97.045 39.4375371,96.869 C38.9665371,96.447 38.5375371,95.969 38.1275371,95.469 C37.3065371,94.471 36.5575371,93.376 35.6165371,92.421 C35.1505371,91.94 34.6175371,91.518 34.0785371,91.141 C33.5365371,90.759 32.9735371,90.409 32.3915371,90.093 C32.1075371,89.939 31.8175371,89.794 31.5245371,89.658 C32.2545371,89.155 32.8945371,89.201 33.7965371,88.972 C33.7145371,88.428 33.0805371,88.222 32.8835371,87.676 C32.6625371,87.066 32.8785371,85.32 33.1595371,84.898 C33.6465371,84.167 34.3375371,84.236 35.1515371,84.473 C35.8255371,84.671 36.2245371,84.845 37.1125371,84.837 C38.2875371,84.826 40.0805371,84.492 41.1165371,85.087 C42.0965371,85.651 42.5275371,86.916 43.3415371,87.678 C43.5175371,87.842 43.6895371,87.987 43.8615371,88.122 C43.6245371,88.447 43.4035371,88.756 43.2765371,89.032 C42.7475371,90.171 42.7225371,91.205 42.9655371,92.425 C43.0165371,92.679 43.3285371,93.737 43.2975371,94.375 C44.9865371,93.865 46.5995371,93.53 48.4135371,93.646 C48.6015371,94.685 48.1765371,94.924 48.9945371,95.961 C49.6555371,96.799 50.8195371,97.239 51.5035371,98.061 C52.0555371,98.725 52.9465371,102.488 54.4235371,101.722 C54.6885371,100.29 54.3325371,99.327 55.9885371,98.771 C56.8415371,98.744 57.5815371,98.449 58.2095371,97.886 C58.4065371,97.236 58.1415371,96.844 57.4135371,96.712 C56.2105371,95.978 55.4475371,94.9 55.1245371,93.478 C54.4925371,91.828 54.7725371,90.381 55.9625371,89.137 C56.5775371,88.758 57.2135371,88.439 57.8675371,88.175 C57.9115371,88.181 57.9575371,88.186 58.0025371,88.193 C58.6945371,88.296 59.3815371,88.421 60.0525371,88.586 C60.3875371,88.667 60.7175371,88.762 61.0415371,88.867 C61.2035371,88.918 61.3615371,88.976 61.5205371,89.034 C61.6635371,89.089 61.7985371,89.15 61.9295371,89.223 C62.2165371,89.378 62.4735371,89.592 62.7235371,89.838 C62.7225371,89.841 62.7225371,89.844 62.7215371,89.846 C62.6265371,90.404 62.6195371,90.917 62.6325371,91.394 C62.6475371,91.872 62.6645371,92.324 62.6645371,92.727 L62.6645371,92.902 L62.6765371,93.097 C62.6785371,93.228 62.6905371,93.359 62.7005371,93.489 C62.7215371,93.75 62.7575371,94.01 62.8065371,94.267 C62.9025371,94.781 63.0555371,95.28 63.2455371,95.753 L63.5205371,96.403 C63.6065371,96.608 63.6955371,96.811 63.7765371,97.019 C64.1125371,97.841 64.4085371,98.679 64.6835371,99.522 C65.1865371,101.088 65.5775371,102.687 65.8435371,104.302 C65.6215371,104.97 65.3955371,105.65 65.1985371,106.364 C65.1325371,106.583 65.0805371,106.822 65.0325371,107.064 C64.9855371,107.303 64.9275371,107.542 64.8905371,107.785 C64.8415371,108.27 64.7665371,108.757 64.7775371,109.244 C64.7365371,110.779 65.0225371,112.258 65.4225371,113.665 L65.4185371,113.975 C65.2675371,113.75 65.1145371,113.527 64.9585371,113.306 C64.7565371,112.783 64.5295371,112.238 64.2185371,111.7 Z M36.6985371,102.548 C36.6095371,101.667 36.1765371,101.075 35.7235371,100.343 C35.1115371,99.356 35.1825371,98.462 34.7955371,97.482 C34.6035371,96.994 34.1865371,96.71 33.8985371,96.289 C33.8395371,96.203 33.7935371,96.102 33.7525371,95.996 C35.2095371,96.597 36.6685371,97.221 38.1775371,97.754 C39.1085371,98.081 40.0315371,98.392 40.9405371,98.726 C40.7325371,98.76 40.5265371,98.812 40.3245371,98.894 C39.7395371,99.125 39.3055371,99.594 38.9255371,100.049 C38.1995371,100.907 37.5655371,101.847 36.6985371,102.548 Z M162.467537,65.131 C163.256537,64.341 164.511537,64.809 165.247537,64.017 C164.664537,62.534 162.530537,62.167 162.033537,60.86 C161.830537,60.329 162.182537,59.751 162.043537,59.229 C161.800537,58.307 161.875537,58.861 161.092537,58.561 C160.503537,58.335 159.878537,58.067 159.240537,57.995 C159.106537,57.218 160.260537,57.065 160.098537,56.303 C159.438537,56.071 159.098537,55.571 159.149537,54.867 C157.992537,54.673 157.262537,54.786 156.906537,53.414 C156.626537,52.333 157.023537,51.887 157.224537,50.907 C157.500537,49.56 157.164537,48.502 157.795537,47.337 C156.628537,47.198 155.730537,48.309 154.530537,48.171 C154.516537,47.9 154.480537,47.631 154.423537,47.366 C154.167537,47.301 153.909537,47.246 153.651537,47.198 C153.222537,46.014 153.388537,40.757 151.288537,41.665 C150.968537,43.42 151.387537,44.46 149.166537,44.933 C147.114537,45.371 146.416537,43.822 144.816537,43.557 C144.986537,43.794 145.069537,44.058 145.063537,44.347 C144.564537,44.639 143.923537,45.458 143.334537,45.388 C142.652537,43.976 142.495537,42.825 142.323537,41.352 C142.237537,40.622 142.266537,40.016 141.392537,39.77 C140.294537,39.759 139.288537,40.093 138.375537,40.773 C137.053537,41.583 135.659537,42.236 134.194537,42.731 C132.984537,41.074 133.831537,38.813 134.284537,36.907 C134.641537,35.412 135.600537,33.589 135.102537,32.067 C134.732537,32.239 134.375537,32.243 134.032537,32.078 C134.962537,30.449 135.844537,28.667 137.017537,27.198 C136.263537,27.97 135.983537,27.237 135.311537,27.06 C134.762537,26.915 134.186537,27.467 133.712537,26.992 C133.268537,26.545 133.906537,26.044 133.829537,25.525 C133.622537,24.139 132.597537,25.332 131.911537,24.377 C131.673537,24.045 131.910537,22.303 131.722537,21.751 C131.378537,20.748 131.120537,21.027 130.538537,20.394 C129.849537,19.645 129.851537,19.125 128.691537,19.085 C127.912537,19.06 127.073537,19.037 126.295537,19.082 C125.051537,19.152 123.713537,20.016 122.791537,19.077 C122.501537,18.78 122.509537,18.294 122.136537,18.015 C121.835537,17.791 121.492537,17.838 121.172537,17.711 C120.330537,17.377 119.583537,16.726 118.828537,16.186 C118.200537,15.737 117.777537,14.72 117.200537,14.374 C116.470537,13.933 115.845537,14.636 115.047537,14.459 C114.603537,14.361 114.589537,14.142 114.246537,13.943 C114.223537,13.638 114.078537,13.491 113.812537,13.5 C113.610537,13.435 113.403537,13.424 113.193537,13.467 C112.787537,13.349 112.489537,13.304 112.138537,13.132 C111.852537,12.992 111.643537,12.736 111.325537,12.627 C110.449537,12.328 109.992537,12.766 109.330537,12.123 C108.983537,11.784 108.867537,11.137 108.545537,10.758 C108.020537,10.142 107.280537,10.017 106.694537,9.516 C105.510537,8.504 106.202537,6.795 105.149537,5.67 C103.621537,5.688 102.926537,7.786 101.512537,8.275 C101.011537,8.449 100.545537,8.431 100.048537,8.648 C98.6775371,9.243 97.7685371,9.207 96.2785371,9.249 C95.7265371,9.265 95.1235371,9.488 94.6435371,9.503 C93.5825371,9.539 94.0545371,9.614 93.4975371,8.775 C92.9675371,7.977 92.8325371,8.251 92.0385371,7.734 C91.3975371,7.317 91.2985371,6.386 90.6575371,6.11 C90.2615371,6.355 90.1565371,6.673 89.8115371,6.868 C89.6505371,6.408 89.7755371,5.98 89.6345371,5.516 C88.6015371,5.895 88.3935371,7.656 86.8775371,7.403 C86.5375371,7.346 86.4715371,6.966 86.1565371,6.979 C85.7395371,6.997 85.4275371,7.431 84.9945371,7.419 C84.7025371,7.412 84.3235371,6.953 84.0155371,6.874 C83.4475371,6.729 82.7535371,7.16 82.2055371,6.9 C81.2535371,6.448 81.9235371,5.091 81.6545371,4.175 C80.4405371,4.208 80.9375371,2.978 80.7485371,2.22 C79.3795371,1.954 78.4715371,4.936 77.3015371,4.577 C76.6295371,4.371 76.6155371,3.044 75.8785371,2.698 C75.5635371,2.549 75.1475371,2.667 74.7935371,2.568 C74.6595371,2.531 73.5965371,2.01 73.5555371,1.994 C72.5665371,1.605 71.2605371,1.094 70.9075371,0 C71.5205371,1.359 68.5465371,2.3 67.7335371,2.673 C66.3935371,3.288 65.0965371,3.514 63.6285371,3.377 C62.9125371,3.311 61.5845371,2.93 60.8805371,3.165 C60.2905371,3.362 59.9615371,3.987 59.1965371,4.105 C58.5865371,4.2 57.9955371,3.968 57.3885371,4.152 C57.2815371,6.832 54.9185371,5.002 53.9075371,3.741 C53.4755371,4.06 53.2275371,4.518 52.9645371,4.978 C52.6035371,4.771 52.1055371,4.442 51.6915371,4.308 C50.9245371,4.062 50.7705371,4.303 49.9755371,4.503 C50.1955371,3.714 50.8035371,3.124 51.0715371,2.348 C50.2905371,1.566 46.1455371,5.939 45.6075371,6.314 C45.6475371,6.042 45.7355371,5.786 45.8695371,5.543 C45.3225371,5.625 45.1295371,6.126 44.6525371,6.341 C44.2325371,6.53 43.6805371,6.554 43.2365371,6.668 C41.9985371,6.985 41.7835371,6.682 40.6525371,6.466 C39.0015371,6.152 39.1525371,7.181 38.4265371,8.23 C38.1115371,8.686 37.0525371,9.217 37.8975371,9.741 C37.0635371,9.62 35.9715371,10.208 35.0195371,10.186 C34.0025371,10.164 33.1605371,10.153 32.4125371,10.988 C30.8515371,12.73 31.0475371,15.818 29.1595371,17.264 C28.1895371,18.007 26.8065371,17.685 25.8295371,18.134 C24.6375371,18.684 24.2775371,22.353 23.9735371,23.519 C23.7515371,24.37 23.5375371,25.102 23.1525371,25.825 C23.0255371,26.064 22.7415371,26.533 22.6835371,26.725 C22.4325371,27.546 22.7595371,28.393 22.5935371,29.218 C22.4165371,30.099 21.7005371,30.571 20.9025371,31.027 C19.3845371,31.893 18.2615371,31.408 16.7225371,31.762 C15.5365371,32.035 16.0765371,32.89 16.0145371,34.027 C15.9665371,34.901 15.7025371,36.293 15.1005371,36.971 C13.8095371,38.423 10.6745371,38.032 10.3615371,40.224 C10.0595371,42.35 12.0495371,43.204 12.6465371,44.803 C11.6995371,45.546 11.3095371,47.958 11.8615371,49.049 C12.5395371,50.388 15.2445371,51.074 16.4975371,51.62 C17.9955371,52.272 19.7825371,53.218 19.0205371,55.025 C18.6665371,55.862 18.2865371,56.127 18.3435371,57.137 C18.3985371,58.103 18.7035371,58.635 19.5215371,59.214 C20.3175371,59.779 21.1455371,59.944 21.8375371,60.66 C22.2985371,61.137 22.5235371,61.81 22.9195371,62.314 C23.7675371,63.389 25.2005371,63.958 26.5855371,63.728 C27.1675371,63.631 27.5895371,63.065 28.2235371,63.197 C28.9405371,63.346 28.9425371,64.092 29.1205371,64.681 C28.8855371,65.073 28.6655371,65.476 28.4295371,65.789 C27.8935371,66.496 27.5415371,67.583 26.8245371,68.074 C25.9105371,68.701 24.8055371,68.573 24.3505371,67.524 C23.3215371,67.522 22.7485371,68.791 21.8675371,68.817 C20.9905371,68.842 20.8685371,67.972 20.2415371,67.681 C19.3095371,67.248 16.2015371,69.149 16.4305371,70.541 C16.5675371,71.368 17.8845371,71.689 18.6925371,72.048 C19.9395371,72.603 21.0415371,72.786 21.2115371,74.37 C21.4195371,76.316 20.7715371,78.925 18.4315371,78.185 C18.5575371,76.694 16.7785371,77.618 16.0055371,77.785 C14.8935371,78.025 14.3235371,78.333 14.9175371,79.323 C15.5175371,80.323 17.4125371,80.395 17.8305371,81.529 C18.1355371,82.353 17.1575371,83.872 16.3815371,84.272 C14.4155371,85.288 12.6935371,81.933 10.6215371,82.682 C9.36853712,83.135 8.35553712,84.521 7.31953712,85.311 C6.83253712,85.681 6.28653712,86.166 5.67653712,86.284 C5.22653712,86.371 4.81653712,86.155 4.34653712,86.317 C4.33453712,87.213 3.63153712,87.846 2.88153712,88.252 C2.05953712,88.697 1.19753712,88.244 0.476537124,88.561 C-0.452462876,88.97 0.213537124,91.921 0.498537124,92.684 C0.784537124,93.446 1.37553712,93.692 1.91853712,94.333 C2.63553712,95.181 4.10253712,97.221 5.18053712,97.55 C6.11253712,97.835 6.81453712,97.412 7.78653712,97.963 C8.56853712,98.408 9.11653712,99.601 9.80653712,99.826 C9.88353712,99.308 10.4895371,96.188 11.4395371,97.907 C13.0225371,97.256 14.7905371,97.452 16.4835371,98.091 C17.5345371,98.489 17.6525371,98.992 16.8495371,99.734 C15.5095371,100.973 15.2675371,100.711 16.6465371,102.209 C17.0385371,102.636 17.7555371,103.252 17.8215371,103.819 C17.8585371,104.125 17.4115371,104.197 17.3775371,104.544 C17.2625371,105.714 18.4545371,105.897 19.2915371,106.436 C20.3225371,107.1 21.4485371,107.502 22.5875371,107.972 C23.0805371,108.175 23.5345371,108.159 24.0095371,108.301 C24.3185371,108.393 24.4455371,108.692 24.7305371,108.744 C26.3925371,109.049 28.3825371,108.784 30.0895371,108.784 C31.0065371,108.784 32.0105371,108.658 32.9165371,108.773 C33.8035371,108.886 34.3505371,109.383 35.2555371,109.615 C37.7095371,110.244 37.7125371,108.152 38.1645371,106.438 C38.4215371,105.464 39.2765371,104.564 40.3245371,105.123 C40.9175371,105.439 40.9695371,106.345 41.6975371,105.578 C42.3095371,106.332 43.7395371,106.737 44.6445371,107.021 C45.5335371,107.3 47.4865371,107.818 48.4335371,107.409 C49.5445371,106.929 48.5185371,105.38 48.3915371,104.571 C48.3445371,104.278 48.3415371,104.048 48.3665371,103.859 C48.4445371,103.972 48.5265371,104.085 48.6145371,104.199 C48.6775371,104.279 48.7465371,104.359 48.8155371,104.437 L49.0045371,104.631 L49.3815371,105.019 L50.1455371,105.802 C50.7025371,106.376 51.3545371,106.83 52.0185371,107.202 C52.6845371,107.575 53.3665371,107.875 54.0345371,108.155 L56.0085371,108.987 C57.3085371,109.55 58.5795371,110.144 59.7475371,110.863 C60.3325371,111.22 60.8955371,111.604 61.4085371,112.034 C61.9245371,112.459 62.4085371,112.917 62.8195371,113.424 C62.9285371,113.546 63.0275371,113.676 63.1205371,113.809 C63.2165371,113.945 63.3125371,114.063 63.4085371,114.211 C63.5605371,114.435 63.7045371,114.664 63.8485371,114.891 C63.9955371,115.284 64.1615371,115.685 64.3735371,116.089 C64.7325371,116.753 65.1525371,117.273 65.4005371,117.755 C65.4015371,117.755 65.4015371,117.756 65.4015371,117.757 C65.4095371,118.074 65.4215371,118.391 65.4425371,118.711 C65.4965371,119.615 65.6175371,120.539 65.8395371,121.458 C65.9465371,121.917 66.0925371,122.373 66.2535371,122.824 C66.4335371,123.28 66.6125371,123.699 66.8095371,124.102 C67.2325371,124.985 67.6915371,125.823 68.1435371,126.642 C68.1455371,126.676 68.1465371,126.711 68.1495371,126.746 C68.1825371,127.141 68.2355371,127.529 68.3045371,127.912 C68.4435371,128.677 68.6405371,129.419 68.8815371,130.144 C69.3835371,131.631 70.1115371,132.951 70.7825371,134.199 C70.7955371,134.222 70.8075371,134.245 70.8195371,134.268 C70.8765371,134.578 70.9325371,134.887 70.9945371,135.194 L71.1385371,135.862 L71.1985371,136.153 L71.2485371,136.439 C71.3135371,136.827 71.3645371,137.313 71.4925371,137.847 C71.6275371,138.403 71.8025371,138.843 71.9305371,139.234 C71.9955371,139.429 72.0525371,139.611 72.0915371,139.768 L72.2415371,140.406 C72.4105371,141.091 72.6035371,141.756 72.7995371,142.414 C72.8115371,142.506 72.8235371,142.6 72.8425371,142.695 L72.9525371,143.195 C72.9785371,143.336 73.0095371,143.476 73.0285371,143.622 C73.1205371,144.195 73.1605371,144.793 73.1765371,145.407 C73.1895371,146.023 73.1775371,146.655 73.1565371,147.303 L73.1305371,148.317 C73.1275371,148.767 73.1945371,149.205 73.2775371,149.579 C73.3585371,149.953 73.4465371,150.268 73.4975371,150.527 C73.5265371,150.659 73.5435371,150.774 73.5555371,150.885 C73.5665371,150.986 73.5675371,151.044 73.5715371,151.188 C73.5185371,151.38 73.4635371,151.572 73.4135371,151.764 C73.1525371,152.794 72.9715371,153.834 72.8525371,154.875 C72.7345371,155.916 72.6765371,156.958 72.6735371,157.998 C72.6745371,158.517 72.6855371,159.037 72.7085371,159.555 L72.7555371,160.333 L72.7865371,160.72 L72.8025371,160.915 L72.8275371,161.152 C72.8985371,161.698 73.0215371,162.157 73.1125371,162.531 C72.5935371,165.02 72.3955371,167.532 72.3555371,170.006 C72.3395371,170.219 72.3205371,170.432 72.3085371,170.645 C72.3075371,170.66 72.3065371,170.675 72.3055371,170.69 C72.2805371,170.761 72.2545371,170.832 72.2315371,170.904 L72.0655371,171.413 C71.6755371,172.617 71.1435371,173.907 70.6515371,175.26 C70.1615371,176.612 69.7015371,184.949 69.5635371,186.756 L72.1265371,186.756 C72.1245371,187.661 72.1215371,185.853 72.1145371,186.756 L72.5825371,186.756 C72.5845371,186.756 72.5865371,186.384 72.5875371,186.756 C72.5865371,186.845 72.5865371,186.756 72.5845371,186.756 L72.5895371,186.756 C72.5895371,186.756 72.5875371,186.756 72.5865371,186.756 C72.5865371,186.756 72.5855371,186.756 72.5845371,186.756 L72.5865371,186.756 C72.5855371,186.756 72.5865371,185.853 72.5845371,186.756 L73.9675371,186.756 C73.9865371,186.756 74.0015371,186.756 74.0115371,186.756 L76.1145371,186.756 C76.1695371,186.756 76.2365371,186.496 76.3305371,186.717 C76.3575371,186.778 76.3915371,186.673 76.4225371,186.737 C76.4535371,186.8 76.4865371,186.756 76.5335371,186.756 L76.6695371,186.756 C76.7305371,186.756 76.7935371,186.639 76.8605371,186.717 C76.9165371,186.79 77.0165371,186.616 77.1075371,186.697 C77.1975371,186.779 77.2915371,186.606 77.4255371,186.687 C77.5535371,186.765 77.6695371,186.665 77.8205371,186.722 C77.9695371,186.78 78.1235371,186.756 78.2785371,186.756 L78.9935371,186.756 C79.0775371,186.756 79.1615371,186.681 79.2385371,186.717 C79.3185371,186.755 79.3755371,186.653 79.4385371,186.697 C79.5035371,186.745 79.5435371,186.657 79.5795371,186.687 C79.6155371,186.717 79.6535371,186.67 79.6685371,186.682 C79.6875371,186.703 79.7035371,186.656 79.7175371,186.68 C79.7195371,186.682 79.7205371,186.715 79.7225371,186.718 C79.6865371,186.641 79.6255371,186.756 79.5735371,186.756 L79.3685371,186.756 C79.3095371,186.756 79.2565371,186.977 79.2115371,186.717 C79.1205371,186.199 79.0565371,187.303 78.9835371,186.697 C78.9455371,186.395 78.9065371,187.009 78.8575371,186.687 L78.7775371,178.231 L78.6995371,177.792 C78.6745371,177.648 78.6545371,177.5 78.6335371,177.355 L78.6255371,176.697 L78.6195371,176.069 C78.6175371,175.875 78.6255371,175.677 78.6325371,175.48 C78.6475371,175.084 78.6835371,174.681 78.7255371,174.273 C78.8145371,173.455 78.9505371,172.612 79.0965371,171.74 L79.3135371,170.409 L79.4135371,169.725 C79.4455371,169.493 79.4805371,169.216 79.4995371,168.97 C79.5835371,167.958 79.5585371,167.003 79.5205371,166.095 C79.5175371,166.025 79.5135371,165.958 79.5105371,165.888 C79.5735371,165.705 79.6445371,165.5 79.7115371,165.272 C79.7905371,165.004 79.8655371,164.759 79.9555371,164.505 C80.2385371,163.703 80.6085371,162.925 81.0445371,162.172 C81.0825371,162.158 81.1225371,162.146 81.1605371,162.131 C81.7155371,161.924 82.2165371,161.666 82.6735371,161.409 C84.4835371,160.388 86.0855371,159.179 87.6515371,158.04 C88.4345371,157.469 89.2105371,156.913 89.9965371,156.398 C90.3905371,156.14 90.7865371,155.894 91.1875371,155.661 L91.5085371,155.475 C91.6375371,155.402 91.7585371,155.324 91.8785371,155.245 C92.1155371,155.086 92.3375371,154.922 92.5455371,154.758 C92.8615371,154.509 93.1445371,154.27 93.4185371,154.043 C93.4815371,154.01 93.5425371,153.978 93.6055371,153.942 L94.0705371,153.668 C95.2835371,152.946 96.4685371,152.177 97.6165371,151.361 C97.6925371,151.307 97.7645371,151.25 97.8385371,151.197 L98.2665371,150.925 C98.3615371,150.881 98.4575371,150.84 98.5535371,150.795 C98.8355371,150.661 99.1155371,150.519 99.3945371,150.372 C99.6955371,150.212 99.9785371,150.039 100.245537,149.866 C100.778537,149.517 101.256537,149.167 101.719537,148.872 C101.954537,148.721 102.170537,148.593 102.409537,148.47 C102.665537,148.338 102.925537,148.209 103.186537,148.083 C103.708537,147.829 104.242537,147.584 104.783537,147.341 C104.962537,147.26 105.143537,147.179 105.323537,147.098 C105.353537,147.087 105.383537,147.077 105.412537,147.066 C105.802537,146.919 106.173537,146.745 106.528537,146.552 C107.040537,146.317 107.554537,146.075 108.065537,145.816 C109.165537,145.258 110.225537,144.648 111.254537,143.938 C112.278537,143.227 113.250537,142.401 114.088537,141.449 C114.926537,140.492 115.624537,139.452 116.197537,138.319 C116.354537,138.006 116.494537,137.686 116.621537,137.36 C117.001537,136.753 117.333537,136.117 117.604537,135.462 C117.888537,134.799 118.107537,134.104 118.310537,133.465 C118.518537,132.803 118.723537,132.112 118.842537,131.369 C118.953537,130.629 119.001537,129.817 118.754537,128.992 C118.728537,128.889 118.692537,128.788 118.650537,128.688 C118.611537,128.59 118.569537,128.48 118.528537,128.402 C118.447537,128.232 118.361537,128.066 118.270537,127.904 C118.089537,127.58 117.891537,127.272 117.688537,126.98 C117.678537,126.964 117.667537,126.95 117.656537,126.935 L117.646537,126.195 L117.586537,122.074 L117.570537,121.042 L117.563537,120.528 C117.561537,120.358 117.556537,120.165 117.563537,120.078 C117.588537,119.857 117.616537,119.785 117.775537,119.614 C117.937537,119.45 118.234537,119.243 118.517537,119.014 C118.963537,118.651 119.566537,118.362 120.194537,117.985 C120.859537,117.594 121.386537,117.094 121.893537,116.752 C121.992537,116.675 122.104537,116.609 122.219537,116.547 C122.277537,116.538 122.334537,116.529 122.396537,116.521 C122.703537,116.481 123.041537,116.467 123.402537,116.428 C123.582537,116.409 123.768537,116.383 123.956537,116.343 C124.163537,116.298 124.288537,116.26 124.441537,116.234 C124.482537,116.226 124.526537,116.224 124.567537,116.217 C124.696537,116.334 124.828537,116.493 124.968537,116.713 C125.676537,117.828 125.929537,119.144 127.060537,119.956 C129.680537,121.836 134.643537,119.817 137.314537,118.637 C141.732537,116.685 131.821537,113.034 133.076537,110.347 C134.965537,110.492 136.843537,110.724 138.710537,111.045 C139.615537,111.378 140.483537,111.383 141.312537,111.062 C140.992537,110.856 140.896537,110.584 141.023537,110.247 C141.842537,110.124 142.422537,110.637 143.208537,110.652 C143.633537,109.105 142.551537,108.162 144.667537,107.815 C146.569537,107.504 146.967537,108.175 147.543537,109.668 C148.170537,109.772 148.716537,109.644 149.233537,110.072 C149.694537,110.455 149.847537,111.854 150.212537,112.376 C151.855537,114.731 152.653537,112.231 154.432537,113.046 C154.266537,114.402 155.648537,115.125 156.798537,115.266 C158.428537,115.464 159.072537,114.884 159.234537,113.26 C159.354537,112.048 158.632537,111.095 158.730537,109.931 C158.859537,108.395 160.328537,106.838 160.995537,105.515 C160.590537,104.788 160.169537,104.638 159.990537,103.811 C159.690537,102.422 160.823537,101.588 161.166537,100.398 C161.626537,98.801 160.454537,97.288 159.395537,96.068 C158.492537,95.029 158.184537,94.949 158.485537,93.697 C158.646537,93.027 159.083537,92.457 159.181537,91.766 C159.438537,89.942 159.527537,88.246 160.048537,86.435 C159.293537,85.674 156.955537,86.642 155.964537,86.712 C154.496537,86.816 154.944537,86.738 154.362537,87.917 C153.857537,88.945 152.572537,91.635 150.914537,90.965 C149.309537,90.316 150.129537,87.569 148.879537,86.819 C147.827537,88.051 148.007537,89.791 147.936537,91.299 C147.896537,92.146 148.130537,92.907 147.252537,92.92 C146.623537,92.93 146.517537,92.582 146.099537,92.255 C145.565537,91.838 144.563537,91.492 144.210537,90.937 C144.437537,90.713 144.578537,90.451 144.635537,90.148 C144.074537,90.483 143.513537,91.096 142.895537,90.76 C143.172537,89.72 143.821537,88.402 143.665537,87.3 C142.027537,86.74 143.104537,86.635 142.653537,85.282 C141.684537,84.781 140.630537,84.456 139.636537,83.988 C138.541537,83.471 136.787537,82.924 135.739537,83.934 C135.204537,84.45 134.614537,86.503 134.417537,87.041 C134.386537,87.126 134.355537,87.215 134.323537,87.304 C133.294537,86.872 131.600537,87.294 131.053537,86.455 C130.712537,85.931 130.999537,84.146 131.013537,83.524 C131.049537,81.899 131.454537,81.239 133.156537,81.577 C135.046537,81.953 136.645537,83.111 138.493537,83.531 C137.674537,83.102 136.421537,82.347 136.694537,81.244 C137.426537,80.686 138.057537,81.417 138.516537,80.395 C138.678537,80.034 138.370537,79.816 138.601537,79.479 C138.876537,79.077 140.231537,79.003 140.660537,78.91 C141.996537,78.616 144.377537,77.479 145.534537,78.78 C146.748537,80.144 145.840537,82.844 145.569537,84.384 C146.715537,84.549 147.850537,84.125 148.980537,83.998 C149.736537,83.912 151.970537,84.299 152.670537,83.682 C152.627537,82.666 152.589537,81.516 151.899537,80.703 C151.463537,80.189 150.827537,80.21 150.479537,79.658 C151.028537,79.18 151.838537,79.146 152.520537,79.227 C150.563537,79.079 152.542537,77.05 153.268537,76.641 C154.874537,75.735 156.540537,76.245 158.230537,75.876 C158.453537,75.047 158.599537,74.371 159.434537,74.279 C159.857537,74.232 160.168537,74.723 160.648537,74.451 C161.117537,74.185 161.786537,72.117 161.717537,71.704 C161.586537,70.912 160.963537,70.907 161.131537,69.934 C161.272537,69.117 161.904537,68.741 162.503537,68.381 C163.299537,67.905 163.089537,68.411 163.567537,67.374 C163.778537,66.913 164.110537,66.126 163.856537,65.658 C163.330537,65.596 162.648537,65.708 162.467537,65.131 Z" fill="#313934"></path>
    </g>
</svg>