<?xml version="1.0" encoding="UTF-8"?>
<svg width="182px" height="191px" viewBox="0 0 182 191" version="1.1" xmlns="http://www.w3.org/2000/svg" xmlns:xlink="http://www.w3.org/1999/xlink">
    <!-- Generator: Sketch 51.3 (57544) - http://www.bohemiancoding.com/sketch -->
    <title>Fill 31 Copy</title>
    <desc>Created with Sketch.</desc>
    <defs></defs>
    <g id="tree" stroke="none" stroke-width="1" fill="none" fill-rule="evenodd">
        <path d="M158.38633,109.10837 C158.29033,109.02637 158.25333,108.89637 158.23233,108.75437 C158.38433,108.87937 158.52333,109.05237 158.67933,109.12237 C158.70833,109.13437 158.73733,109.13837 158.76533,109.14737 C158.62033,109.18837 158.48533,109.19137 158.38633,109.10837 Z M126.63433,114.52837 C126.49433,114.65737 126.34833,114.77937 126.20033,114.89737 C126.17733,114.85837 126.14833,114.81937 126.10933,114.78137 C125.85833,114.53837 125.33333,114.54737 125.04033,114.35537 C124.60133,114.06837 124.17833,113.64637 123.75433,113.32637 C123.49033,113.27337 123.35533,113.12037 123.34833,112.86637 C123.47133,112.65037 123.44433,112.47537 123.26433,112.33937 C122.71133,112.54737 122.13733,113.06737 121.53333,112.89337 C121.45933,112.83237 121.38433,112.77037 121.31033,112.70837 C121.04233,112.49537 120.73133,112.42837 120.37733,112.50937 C119.41933,112.47937 118.90333,112.38837 118.17433,111.65137 C117.79733,111.26937 117.00433,110.43837 117.09833,109.78337 C117.18333,109.19437 117.71133,108.56637 117.86733,107.95437 C117.91633,107.76437 117.95933,107.56837 117.97733,107.37537 C118.07433,107.45437 118.17333,107.53437 118.27833,107.60737 C118.44733,107.72837 118.61033,107.83437 118.74133,107.95137 C118.99833,108.17237 119.17633,108.53737 119.38633,108.88237 C119.58933,109.23637 119.84033,109.58637 120.12433,109.88337 C120.19533,109.95937 120.26833,110.03337 120.34433,110.10437 L120.46333,110.20937 C120.49733,110.24137 120.56533,110.29037 120.61233,110.31337 C120.81633,110.41537 121.01333,110.46337 121.21033,110.51737 L122.38133,110.81637 L123.56333,111.07837 C123.75833,111.11437 123.94333,111.19237 124.14433,111.23837 C124.34833,111.28337 124.54933,111.22937 124.74533,111.28137 L124.79533,111.40737 L124.79233,111.27637 L124.79233,111.86337 L124.76033,111.86337 C124.56633,111.86337 124.34833,111.54337 124.16133,111.48737 C123.97233,111.43237 123.78533,111.19237 123.58733,111.14337 L122.42833,110.73337 L121.28033,110.32437 C121.09233,110.26137 120.90033,110.17737 120.75033,110.08837 C120.70833,110.06237 120.69433,110.04237 120.65633,110.00437 L120.55433,109.89737 C120.48833,109.82737 120.42433,109.75137 120.36233,109.67637 C120.10933,109.37337 119.90833,109.05137 119.73233,108.69337 C119.72233,108.67337 119.71233,108.65237 119.70133,108.63237 C119.90733,108.77737 120.12533,108.89337 120.34033,108.99837 C120.50133,109.07337 120.64933,109.15337 120.83233,109.21837 C121.00833,109.28037 121.19233,109.31437 121.37333,109.32837 C121.73533,109.35637 122.08633,109.31837 122.42933,109.30437 C122.77533,109.29437 123.13633,109.27737 123.47933,109.17137 C123.65033,109.11937 123.81433,109.04337 123.96533,108.95337 C124.04233,108.90737 124.11533,108.85937 124.18633,108.80437 C124.26033,108.74537 124.31333,108.67137 124.36133,108.59837 C124.45533,108.45837 124.53333,108.31337 124.63333,108.18337 C124.88333,108.24037 125.13433,108.28137 125.36233,108.45237 C125.70333,108.70937 125.82233,109.20637 126.16433,109.43437 C126.65733,109.76237 126.96333,109.48237 127.08533,110.24937 C127.16733,110.76337 127.00233,111.15137 127.31633,111.51037 C127.60733,111.84237 128.06933,111.86537 128.38133,112.13437 C128.17233,113.15537 127.40833,113.88037 126.63433,114.52837 Z M124.60033,108.17537 C124.49533,108.29937 124.40933,108.43837 124.31333,108.56437 C124.26233,108.63237 124.20833,108.70037 124.14233,108.74637 C124.07433,108.79237 123.99833,108.83637 123.92333,108.87637 C123.77133,108.95537 123.61233,109.01837 123.44833,109.05837 C123.11833,109.14037 122.77533,109.13837 122.42733,109.12837 C122.07633,109.12337 121.72833,109.13937 121.39833,109.09437 C121.23233,109.07337 121.07333,109.03337 120.92433,108.97137 C120.78233,108.91237 120.62733,108.81937 120.47633,108.73837 C120.17733,108.57137 119.88933,108.39137 119.67333,108.16037 C119.24533,107.64537 118.78333,107.07337 118.20933,106.62837 C117.94533,106.42237 117.65533,106.24537 117.34733,106.10037 C117.33033,105.84637 117.31633,105.59237 117.30433,105.33837 C117.28033,105.19137 117.24133,105.06737 117.19333,104.95637 L117.50333,104.91237 C118.25133,104.79837 118.96233,104.74237 119.70633,104.70337 C120.07533,104.68437 120.44633,104.67237 120.81933,104.66537 C121.18433,104.65637 121.55633,104.65937 121.94133,104.65937 C122.29933,104.65937 122.67233,104.65537 123.04933,104.63537 C123.16633,104.91437 123.20533,105.21137 123.16233,105.52737 C123.02833,105.83437 123.05633,106.10837 123.24833,106.34937 C123.68833,106.30237 124.59933,105.95337 124.80833,106.55237 C124.93033,106.90237 124.39033,107.72737 124.24233,108.05837 C124.35933,108.11437 124.47933,108.14737 124.60033,108.17537 Z M116.42233,102.93837 C116.58033,102.86037 116.73733,102.78137 116.89833,102.68637 C117.15333,102.52737 117.37433,102.32537 117.55933,102.10237 C117.93233,101.65337 118.17333,101.14237 118.40933,100.64637 L118.58833,100.27637 C118.64533,100.16037 118.71733,100.02437 118.76033,99.8893704 C118.85133,99.6253704 118.91633,99.3573704 119.04833,99.1343704 C119.11833,99.0263704 119.20133,98.9243704 119.32233,98.9343704 C119.38433,98.9333704 119.45833,98.9473704 119.53733,98.9313704 C119.60833,98.9153704 119.67433,98.8893704 119.73833,98.8623704 C119.98033,98.7493704 120.26533,98.7243704 120.51033,98.5983704 L120.54833,98.7293704 L120.51833,98.5893704 L120.51733,98.5833704 L120.51133,98.5863704 C120.25733,98.6973704 119.97933,98.6983704 119.71433,98.7983704 C119.64933,98.8213704 119.58633,98.8403704 119.52233,98.8503704 C119.46433,98.8583704 119.40033,98.8423704 119.32633,98.8363704 C119.25433,98.8273704 119.15533,98.8523704 119.09833,98.9023704 C119.03733,98.9483704 118.98533,99.0043704 118.94433,99.0643704 C118.77733,99.3053704 118.69533,99.5753704 118.58833,99.8233704 C118.53933,99.9473704 118.47333,100.05037 118.39933,100.17537 L118.19433,100.53537 C117.92433,101.01237 117.65333,101.48837 117.29233,101.86337 C117.11233,102.05037 116.91133,102.20837 116.68933,102.32637 C116.60633,102.36737 116.51533,102.40537 116.42533,102.44337 C116.43433,102.13137 116.44533,101.82537 116.42133,101.55437 C116.36633,100.95537 116.24433,100.64037 116.74033,100.19537 C117.38233,99.6183704 118.28033,99.3573704 118.80933,98.7043704 C118.84733,98.3753704 119.00833,98.1153704 119.29133,97.9253704 C119.53033,97.8353704 119.76933,97.7453704 120.00833,97.6553704 C120.62033,97.4813704 121.44433,97.3593704 122.08533,97.4723704 C122.79233,97.5973704 123.38833,98.0933704 124.02833,98.4153704 C124.53533,98.6863704 125.05833,98.9213704 125.59633,99.1233704 C125.96833,99.1293704 126.18233,99.2883704 126.24133,99.5983704 C125.60333,100.26937 124.73233,100.47637 124.05233,101.04937 C124.15933,101.36937 124.52533,102.17837 124.44933,102.49737 C124.39833,102.70837 124.21233,102.91637 123.99433,103.10837 C123.34833,103.19937 122.68033,103.19037 121.96933,103.16337 C121.59533,103.14837 121.21033,103.13037 120.81833,103.12437 C120.43233,103.11737 120.04633,103.11437 119.65833,103.11937 C118.88733,103.12837 118.08333,103.16337 117.32733,103.24937 L116.44633,103.33937 C116.43133,103.20837 116.42333,103.07537 116.42233,102.93837 Z M113.86233,95.1943704 C113.59733,95.3333704 113.38433,95.5873704 113.26033,95.8083704 C113.13033,96.0313704 113.03733,96.2173704 112.91933,96.3743704 C112.79433,96.5413704 112.64333,96.7053704 112.48633,96.8813704 C112.33033,97.0583704 112.16533,97.2503704 112.02333,97.4763704 C111.98933,97.5283704 111.95133,97.5993704 111.92433,97.6423704 C111.90333,97.6823704 111.87833,97.7213704 111.85133,97.7603704 C111.79633,97.8393704 111.73233,97.9173704 111.66233,97.9943704 C111.52233,98.1493704 111.35633,98.3023704 111.18633,98.4683704 C111.10033,98.5523704 111.01333,98.6393704 110.92733,98.7333704 C110.83933,98.8333704 110.78133,98.8973704 110.70133,98.9773704 C110.40333,99.2783704 110.02733,99.5643704 109.67733,99.8893704 C109.33233,100.20237 108.98133,100.52137 108.64833,100.87137 C108.31633,101.22037 107.99833,101.59737 107.73033,102.02137 C107.59933,102.22737 107.46633,102.46437 107.37233,102.69737 C107.34033,102.77237 107.31233,102.84637 107.28433,102.92037 C107.16533,103.12337 107.04933,103.32537 106.94033,103.52437 L105.94533,105.37337 C105.77533,105.71837 105.64233,106.02137 105.51133,106.26437 C105.47933,106.32537 105.44733,106.38337 105.41533,106.43737 C105.38033,106.49737 105.35833,106.52937 105.30533,106.61137 L105.01733,107.07137 C104.82033,107.39637 104.61633,107.77537 104.45633,108.18937 L104.36833,108.41737 C104.34733,108.47237 104.31933,108.52937 104.29533,108.58537 C104.23833,108.69937 104.18033,108.81537 104.10833,108.93737 C103.98033,109.16137 103.82033,109.40237 103.64633,109.66437 C103.19333,109.50737 102.74833,109.33237 102.30933,109.13737 C102.44933,108.06437 102.56233,107.02837 102.72933,106.02237 C102.87833,105.07837 102.97733,104.15837 103.08333,103.27137 C103.13533,102.82837 103.18933,102.39337 103.25133,101.96537 L103.34933,101.33137 C103.39533,101.06537 103.42733,100.79537 103.45233,100.55737 C103.50033,100.07537 103.53033,99.6873704 103.59533,99.3703704 C103.66533,99.0283704 103.78833,98.6263704 103.92133,98.1793704 C103.98733,97.9543704 104.05633,97.7173704 104.12033,97.4633704 L104.27433,96.8173704 C104.37533,96.4193704 104.51233,95.9743704 104.63133,95.4683704 C104.68933,95.2163704 104.74233,94.9493704 104.78133,94.6713704 C104.81133,94.4433704 104.83633,94.2663704 104.87333,94.0583704 C104.94333,93.6553704 105.03333,93.2483704 105.13733,92.8453704 C105.13833,92.8403704 105.14033,92.8353704 105.14133,92.8303704 C106.91733,91.9283704 108.76233,91.0953704 110.61733,90.5773704 C111.93733,90.1593704 113.28333,90.0273704 114.65533,90.1823704 C115.51033,90.1313704 116.04033,90.4743704 116.24233,91.2113704 C116.29533,91.8283704 114.04933,94.0483704 113.86233,95.1943704 Z M112.71033,97.7433704 C112.79933,97.6113704 112.90233,97.4793704 113.01833,97.3433704 C113.16633,97.1693704 113.32633,96.9883704 113.47533,96.7813704 C113.63233,96.5623704 113.74133,96.3283704 113.84233,96.1493704 C113.93233,95.9903704 114.02033,95.8843704 114.13833,95.8023704 C113.87033,96.4463704 113.25033,97.1633704 112.71033,97.7433704 Z M108.96233,105.06337 L109.14933,104.68437 C109.18933,104.60437 109.23033,104.52637 109.27033,104.44737 C109.32033,104.59337 109.37233,104.73937 109.42533,104.88537 C109.39933,104.89437 109.37233,104.90137 109.34733,104.91037 C109.21633,104.95437 109.08833,105.00637 108.96233,105.06337 Z M109.35933,111.26837 C109.36933,111.29737 109.37433,111.32737 109.38233,111.35737 C108.57833,110.96837 107.66333,110.75037 106.78733,110.54237 C106.80633,110.49937 106.82633,110.45337 106.84633,110.41137 C106.99033,110.10737 107.14433,109.83537 107.32133,109.57937 L107.97533,108.67637 C108.27633,108.26237 108.57433,107.88337 108.88333,107.56637 C109.17833,107.47537 109.48033,107.39937 109.78333,107.33637 C110.15833,107.25937 110.53933,107.20737 110.92133,107.17137 C110.93733,107.26837 110.95433,107.36537 110.98133,107.46337 C111.10733,107.92237 111.46933,108.29237 111.55133,108.74837 C111.72533,109.72137 110.03633,110.67737 109.35933,111.26837 Z M108.85333,124.30337 C108.85233,124.30237 108.85133,124.30137 108.85133,124.30137 C108.79633,124.15337 108.73633,124.00637 108.66433,123.86337 C108.48033,123.48637 108.21933,123.12537 107.87033,122.85137 C107.69033,122.72037 107.50333,122.60437 107.28333,122.52637 C107.15733,122.48037 107.02733,122.45237 106.89733,122.43537 C106.52533,122.25437 106.08133,122.14837 105.63033,122.21037 L105.68033,122.51837 C105.58133,122.53637 105.48333,122.55537 105.38733,122.57137 C105.05033,122.63137 104.70433,122.68737 104.35333,122.76437 C104.56933,122.59337 104.78233,122.40937 104.97833,122.18437 C105.25133,121.86137 105.36433,121.48837 105.48733,121.17537 C105.61033,120.86037 105.74533,120.58637 105.99833,120.43337 C106.25933,120.26437 106.58533,120.14237 106.90433,120.06937 C106.93133,120.06337 106.95633,120.06237 106.98233,120.05737 C107.24133,120.73237 107.53533,121.38937 107.86933,121.94037 C108.38233,122.78637 109.03433,123.19237 109.03433,124.25637 C108.97333,124.27337 108.91333,124.28937 108.85333,124.30337 Z M106.88233,124.39937 C106.74433,124.14037 106.57333,123.90737 106.36333,123.70237 C106.13633,123.48237 105.86333,123.29037 105.52333,123.17637 C105.45733,123.15337 105.38333,123.13837 105.31133,123.12437 C105.36933,123.11337 105.42733,123.10237 105.48633,123.09037 C105.84933,123.01737 106.18933,122.93537 106.51833,122.91837 C106.56733,122.93637 106.61733,122.95237 106.66633,122.97437 C106.97533,123.11437 107.27033,123.32137 107.54133,123.55837 C107.81133,123.79537 108.05733,124.06837 108.27833,124.35737 C108.28633,124.36737 108.29233,124.37737 108.29933,124.38837 C107.85433,124.42637 107.39033,124.40637 106.88233,124.39937 Z M108.16033,127.13137 C107.79833,126.81437 107.42333,126.50637 107.00133,126.32637 C107.10733,126.03037 107.16533,125.71237 107.14733,125.39037 C107.14633,125.32537 107.13933,125.26337 107.13233,125.20037 L108.28333,126.58137 C108.24733,126.77737 108.20933,126.95837 108.16033,127.13137 Z M106.38133,126.17237 C106.11033,126.15037 105.82133,126.18337 105.50233,126.30037 C104.29433,126.74637 104.14233,127.64637 104.04533,128.61537 C103.94333,128.69137 103.84233,128.76937 103.74333,128.85137 C103.47333,129.07137 103.21533,129.32637 103.00933,129.61737 C102.08133,129.36037 101.33633,129.64137 100.22633,129.88837 L100.22333,129.72337 L100.20033,128.40937 C100.20433,128.23237 100.22133,127.98437 100.22433,127.67037 C100.22433,127.51237 100.22233,127.33437 100.20333,127.12437 C100.19333,127.01837 100.17833,126.90537 100.15733,126.78237 L100.13833,126.68737 C100.15933,126.60037 100.17933,126.51537 100.20133,126.43237 L101.30533,125.32337 C101.46433,125.20737 101.61733,125.08637 101.75733,124.96837 L102.58533,124.29137 C102.68933,124.20037 102.78333,124.10737 102.87333,124.01537 C103.01033,123.92437 103.15033,123.83537 103.29533,123.75537 C103.57533,123.59037 103.87533,123.47437 104.18933,123.38037 L104.15033,123.56037 L104.12333,123.68837 L104.97633,123.84137 L104.81233,124.05937 C104.94333,123.98737 105.09133,123.96837 105.27233,124.01137 C105.45133,124.05437 105.64533,124.16037 105.81633,124.30437 C105.98733,124.44837 106.14033,124.62637 106.25433,124.81637 C106.31333,124.91137 106.35233,125.00937 106.38533,125.10337 C106.41333,125.21237 106.44233,125.32637 106.45233,125.43837 C106.48233,125.68437 106.45533,125.93137 106.38133,126.17237 Z M103.84433,129.96937 C103.65233,129.86137 103.47033,129.77737 103.29733,129.71137 C103.49033,129.49337 103.71433,129.29937 103.95633,129.12737 C103.96833,129.11837 103.98233,129.10937 103.99633,129.10037 C103.96433,129.39337 103.92333,129.68637 103.84433,129.96937 Z M98.1323298,90.1503704 C98.0163298,90.9133704 97.9133298,91.6543704 97.7833298,92.3653704 C97.6393298,93.1373704 97.5253298,93.9483704 97.4513298,94.7403704 C97.3753298,95.5363704 97.3333298,96.3313704 97.3133298,97.1183704 L97.2743298,99.4143704 L97.1653298,106.26437 L97.1573298,107.40837 C96.7163298,107.31337 96.2813298,107.16837 95.8503298,106.90037 C95.5743298,106.72837 95.3533298,106.57137 95.1563298,106.42937 C95.1533298,106.18937 95.1453298,105.95637 95.1363298,105.72337 C95.2653298,105.31237 95.3383298,104.94537 95.3823298,104.68637 L95.4763298,104.08137 C95.5043298,103.92037 95.5403298,103.74137 95.5833298,103.54637 L95.9063298,102.18137 C96.1533298,101.11137 96.3233298,99.9423704 96.3303298,98.7183704 C96.3363298,97.4933704 96.1493298,96.2033704 95.7443298,94.9903704 C95.6403298,94.6883704 95.5293298,94.3893704 95.4023298,94.0993704 C95.3423298,93.9523704 95.2713298,93.8123704 95.2053298,93.6693704 L95.1173298,93.4883704 L95.1133298,93.1083704 L95.0983298,91.9953704 C95.0933298,91.7153704 95.1273298,91.4123704 95.1773298,91.0523704 C95.2333298,90.6993704 95.2843298,90.2493704 95.3253298,89.9383704 C95.3723298,89.5943704 95.4343298,89.2453704 95.5033298,88.8913704 L95.5653298,88.5883704 C95.9833298,88.5863704 96.5033298,88.5023704 96.7723298,88.5013704 C97.2223298,88.5003704 97.8373298,88.5833704 98.3933298,88.5893704 C98.2933298,89.1173704 98.2093298,89.6393704 98.1323298,90.1503704 Z M95.9013298,117.24437 C95.5723298,118.81137 95.3713298,120.30937 95.0183298,121.62537 C94.9293298,121.95337 94.8333298,122.27037 94.7253298,122.57637 C94.6713298,122.72737 94.6153298,122.87737 94.5543298,123.02237 L94.4403298,123.30537 C94.3963298,123.41737 94.3563298,123.52937 94.3163298,123.64037 C94.0643298,124.36637 93.9223298,125.03137 93.7823298,125.60037 C93.7293298,125.10237 93.6643298,124.65037 93.6353298,124.25837 C93.6233298,124.10037 93.6143298,123.94737 93.6123298,123.80237 L93.5983298,123.20437 L93.5533298,122.08937 C93.5423298,121.73937 93.5403298,121.41037 93.5573298,121.10637 L93.6383298,120.03637 L93.7253298,118.87737 L93.7453298,118.61737 C93.7483298,118.56337 93.7553298,118.50137 93.7633298,118.43737 C93.7823298,118.30737 93.8113298,118.15937 93.8473298,117.99337 C93.9203298,117.66137 94.0273298,117.26037 94.0963298,116.77437 L94.2383298,115.64737 L94.4063298,114.29237 C95.1263298,114.45837 95.8873298,114.58337 96.5103298,114.47637 C96.3163298,115.37337 96.1003298,116.29037 95.9013298,117.24437 Z M91.4473298,85.4223704 C91.4383298,85.6543704 91.4373298,85.8823704 91.4313298,86.1123704 C91.3213298,85.7723704 91.2063298,85.4063704 91.0793298,85.0143704 L90.9933298,84.7573704 C90.9693298,84.6843704 90.9443298,84.6003704 90.9183298,84.5023704 L90.9103298,84.4723704 C91.1713298,84.4893704 91.3903298,84.4953704 91.4843298,84.4983704 C91.4713298,84.8033704 91.4593298,85.1103704 91.4473298,85.4223704 Z M90.9703298,133.08737 C90.9733298,132.87237 90.9803298,132.65537 90.9903298,132.43737 L90.9933298,132.45737 C91.0113298,132.56337 91.0153298,132.73737 91.0183298,132.97637 C91.0033298,133.01337 90.9863298,133.05037 90.9703298,133.08737 Z M90.4393298,82.4363704 C90.4213298,82.2983704 90.3883298,82.1103704 90.3633298,81.9773704 C90.3283298,81.7903704 90.2873298,81.6053704 90.2583298,81.4103704 C90.1943298,81.0263704 90.1483298,80.6243704 90.1103298,80.2133704 C90.0703298,79.7793704 90.0453298,79.3313704 90.0253298,78.8743704 C90.3233298,79.7323704 90.8103298,80.5393704 91.3783298,81.2523704 C91.1613298,81.7663704 90.8213298,82.2323704 90.4753298,82.7023704 L90.4393298,82.4363704 Z M89.9063298,73.9283704 C90.0073298,73.9493704 90.1103298,73.9703704 90.2133298,73.9893704 C90.1003298,74.2263704 90.0113298,74.4823704 89.9363298,74.7483704 L89.9063298,73.9283704 Z M87.6303298,94.4263704 L87.6203298,94.7413704 L87.5993298,95.3723704 L87.5973298,95.4363704 C87.5493298,95.3903704 87.5133298,95.3563704 87.4883298,95.3343704 C87.4543298,95.2593704 87.4083298,95.1513704 87.3373298,95.0033704 L87.2673298,94.8683704 L87.1953298,94.7393704 L87.0913298,94.5683704 C86.9553298,94.3463704 86.8203298,94.1473704 86.6963298,93.9653704 L86.5203298,93.7103704 C86.4953298,93.6753704 86.4623298,93.6233704 86.4233298,93.5573704 C86.3433298,93.4263704 86.2393298,93.2193704 86.0743298,92.9503704 C85.9923298,92.8163704 85.8953298,92.6693704 85.7783298,92.5183704 C85.7183298,92.4423704 85.6573298,92.3663704 85.5893298,92.2913704 L85.4603298,92.1513704 L85.0453298,91.7063704 C84.7743298,91.4113704 84.5173298,91.1183704 84.2773298,90.8263704 C84.1583298,90.6803704 84.0433298,90.5343704 83.9333298,90.3883704 L83.7893298,90.1993704 C83.7343298,90.1293704 83.6783298,90.0683704 83.6233298,90.0033704 C83.5103298,89.8783704 83.3993298,89.7663704 83.2893298,89.6623704 C82.8453298,89.2513704 82.4553298,88.9883704 82.1763298,88.7693704 L81.9883298,88.6183704 L81.9103298,88.5513704 L81.8263298,88.4743704 C81.6073298,88.2623704 81.3893298,88.0863704 81.1823298,87.9283704 C80.7653298,87.6133704 80.3943298,87.3803704 80.1053298,87.1723704 C79.9613298,87.0693704 79.8323298,86.9743704 79.7303298,86.8863704 C79.6803298,86.8423704 79.6313298,86.7993704 79.5903298,86.7593704 C79.5723298,86.7423704 79.5473298,86.7163704 79.5143298,86.6813704 L79.4263298,86.5863704 C79.1903298,86.3253704 78.9543298,86.0323704 78.7363298,85.7343704 C78.6273298,85.5853704 78.5213298,85.4343704 78.4233298,85.2853704 C78.3273298,85.1383704 78.2293298,84.9793704 78.1693298,84.8673704 C78.0293298,84.6133704 77.8963298,84.2823704 77.7483298,83.8883704 L77.5023298,83.2533704 L77.3523298,82.9063704 L77.2243298,82.6243704 C77.0633298,82.2653704 76.9073298,81.8903704 76.7503298,81.5043704 C76.4353298,80.7323704 76.1183298,79.9153704 75.7313298,79.0833704 C75.5403298,78.6713704 75.3173298,78.2363704 75.0903298,77.8413704 C75.0303298,77.7403704 74.9753298,77.6263704 74.9243298,77.4993704 C76.2153298,77.1863704 77.6323298,77.3053704 78.9293298,76.7973704 C80.2583298,76.2773704 79.7963298,77.1043704 80.1833298,75.5763704 C80.2693298,75.2383704 80.1053298,74.6953704 80.1383298,74.3603704 C80.2513298,73.2323704 80.5393298,72.1973704 80.9693298,71.2623704 L81.3123298,71.8303704 L81.9723298,72.9353704 L83.2903298,75.1443704 C83.9313298,76.2313704 84.6093298,77.2943704 85.2113298,78.3573704 C85.1783298,79.0353704 85.1573298,79.7293704 85.1663298,80.4463704 C85.1733298,80.9523704 85.1903298,81.4673704 85.2353298,81.9953704 C85.2543298,82.2573704 85.2883298,82.5263704 85.3173298,82.7933704 C85.3273298,82.8873704 85.3293298,82.9263704 85.3343298,83.0163704 L85.3493298,83.3053704 C85.3613298,83.5323704 85.3783298,83.8373704 85.4313298,84.2003704 C85.4573298,84.3783704 85.4953298,84.5723704 85.5423298,84.7653704 L85.5783298,84.9103704 L85.5893298,84.9593704 L85.6103298,85.0683704 L85.7243298,85.6843704 C85.7483298,85.8103704 85.7763298,85.9493704 85.8103298,86.0993704 L85.9103298,86.5053704 C86.1103298,87.3153704 86.2993298,88.2983704 86.6833298,89.4003704 C86.7273298,89.5313704 86.7883298,89.6903704 86.8313298,89.8033704 L86.9653298,90.1523704 L87.2403298,90.8383704 C87.2913298,90.9643704 87.3443298,91.0843704 87.3973298,91.2093704 C87.3953298,91.3243704 87.3913298,91.4573704 87.3953298,91.5753704 C87.4043298,92.1103704 87.4663298,92.5993704 87.5203298,93.0333704 C87.5753298,93.4643704 87.6223298,93.8453704 87.6303298,94.1733704 C87.6323298,94.2633704 87.6323298,94.3233704 87.6303298,94.4263704 Z M87.5153298,95.3943704 C87.5253298,95.4113704 87.5343298,95.4243704 87.5373298,95.4313704 C87.5503298,95.4603704 87.5393298,95.4433704 87.5153298,95.3943704 Z M84.8223298,98.2403704 C84.8413298,98.2593704 84.8563298,98.2743704 84.8603298,98.2793704 C84.8663298,98.2873704 84.8523298,98.2753704 84.8303298,98.2503704 L84.8223298,98.2403704 Z M86.3823298,104.06937 L86.3753298,104.32337 C86.3623298,104.55437 86.3333298,104.81537 86.2933298,105.11437 C85.6413298,104.83537 85.0433298,104.41237 84.5193298,103.76737 C83.0053298,101.90437 82.1123298,99.3683704 80.8093298,97.3203704 C80.6503298,97.0703704 80.4783298,96.8233704 80.3023298,96.5763704 C80.8093298,96.7653704 81.2533298,96.8503704 81.8573298,96.8533704 C82.4113298,96.8543704 83.1753298,96.8803704 83.8363298,96.7213704 L83.9053298,96.8963704 C83.9563298,97.0183704 84.0233298,97.1863704 84.1473298,97.4053704 C84.2063298,97.5093704 84.2913298,97.6393704 84.3823298,97.7593704 C84.4703298,97.8743704 84.5523298,97.9653704 84.6243298,98.0403704 C84.6973298,98.1163704 84.7543298,98.1713704 84.7933298,98.2103704 C84.8953298,98.3863704 85.0493298,98.7883704 85.3853298,99.3403704 C85.4283298,99.4103704 85.4763298,99.4823704 85.5253298,99.5543704 L85.5573298,99.6093704 C85.5783298,99.6453704 85.5993298,99.6863704 85.6223298,99.7343704 C85.6683298,99.8253704 85.7133298,99.9493704 85.7583298,100.08137 C85.8493298,100.35237 85.9313298,100.69037 86.0113298,101.06937 L86.2623298,102.28537 C86.3223298,102.59737 86.3563298,102.91337 86.3733298,103.25537 C86.3813298,103.42637 86.3843298,103.60337 86.3843298,103.78737 L86.3823298,104.06937 Z M79.4263298,113.72037 C79.4263298,113.72037 79.4273298,113.72037 79.4273298,113.72137 C79.4273298,113.72037 79.4263298,113.72037 79.4263298,113.72037 Z M84.4793298,115.22337 L84.2203298,116.41637 C84.1963298,116.46137 84.1753298,116.50337 84.1493298,116.54937 C84.0673298,116.69637 83.9773298,116.85137 83.8793298,117.01437 L83.7253298,117.26537 L83.6393298,117.40637 C83.5633298,117.54137 83.4813298,117.69237 83.4263298,117.80837 C83.2603298,118.15137 83.1563298,118.41537 83.0773298,118.62637 C83.0243298,118.68237 82.9713298,118.73937 82.9193298,118.80237 C82.5493298,119.27237 82.7393298,119.04037 82.6453298,119.16237 L82.5613298,119.28537 L82.4223298,119.50537 C82.2553298,119.78237 82.1403298,120.00837 82.0403298,120.21937 C81.8453298,120.63637 81.7063298,121.00237 81.5793298,121.40437 L81.5573298,121.47237 L81.4303298,121.00637 L81.0953298,119.77237 L80.9453298,119.22237 C80.9183298,119.12237 80.8963298,119.02337 80.8793298,118.90337 C80.8613298,118.78337 80.8483298,118.63737 80.8403298,118.46137 L80.8293298,118.17737 L80.8233298,117.93137 C80.8193298,117.83337 80.8133298,117.71737 80.7993298,117.57637 C80.7783298,117.30537 80.6973298,116.88337 80.5863298,116.57337 C80.4743298,116.25437 80.3853298,116.08437 80.3203298,115.94837 C80.2543298,115.82137 80.1963298,115.70137 80.1323298,115.55137 C80.0073298,115.25737 79.8813298,114.88537 79.7283298,114.43937 C79.6523298,114.21837 79.5303298,113.98037 79.4353298,113.72937 C79.4413298,113.73337 79.4473298,113.73737 79.4463298,113.74037 C79.4453298,113.75137 79.4513298,113.75337 79.4463298,113.72937 C79.4333298,113.68837 79.4263298,113.53437 79.4213298,113.33337 C79.4133298,113.25237 79.4223298,113.04337 79.4253298,112.74937 C79.4263298,112.59937 79.4273298,112.42637 79.4173298,112.22137 C79.4123298,112.11937 79.4033298,112.00637 79.3903298,111.88937 L79.3723298,111.74637 C79.8313298,112.28337 80.2873298,112.82137 80.8553298,113.31437 C82.1413298,114.43137 83.3893298,114.56037 84.6603298,114.39637 L84.4793298,115.22337 Z M83.3423298,166.59737 C83.3313298,166.58437 83.3153298,166.56737 83.3003298,166.55137 C83.4503298,166.70937 83.4823298,166.74137 83.3423298,166.59737 Z M82.8363298,119.22037 C82.8393298,119.20437 82.8543298,119.15337 82.9143298,119.04037 C82.9193298,119.03137 82.9273298,119.01837 82.9333298,119.00737 C82.8733298,119.16337 82.8373298,119.24037 82.8363298,119.22037 Z M82.8383298,162.17837 L82.7983298,162.12337 L82.7473298,162.04737 C82.7593298,162.06637 82.7723298,162.08337 82.7853298,162.10037 C82.8373298,162.17237 82.8703298,162.21937 82.8383298,162.17837 Z M82.7823298,166.49337 C82.7683298,166.46537 82.7433298,166.41337 82.7133298,166.34137 C82.7873298,166.50637 82.8243298,166.57137 82.7823298,166.49337 Z M82.6573298,167.96637 C82.6573298,167.96637 82.6543298,167.95937 82.6533298,167.95637 L82.6423298,167.90337 L82.6293298,167.81337 C82.6273298,167.80437 82.6273298,167.79737 82.6263298,167.78837 C82.6293298,167.80237 82.6323298,167.81937 82.6343298,167.83137 C82.6593298,167.94037 82.6623298,167.97137 82.6573298,167.96637 Z M78.3273298,91.9293704 C78.3193298,91.8963704 78.3133298,91.8643704 78.3053298,91.8313704 C77.9813298,90.4693704 78.4203298,90.9253704 77.0983298,90.5913704 C76.8953298,90.5393704 76.6923298,90.5163704 76.4903298,90.5073704 C76.4033298,90.4473704 76.3153298,90.3963704 76.2253298,90.3693704 C75.9703298,90.2923704 75.7243298,90.3883704 75.4943298,90.5023704 C75.2253298,90.4953704 74.9583298,90.4683704 74.6913298,90.3873704 C74.6573298,90.2473704 74.6233298,90.1073704 74.5893298,89.9623704 L74.2823298,88.6343704 C74.2253298,88.4023704 74.1673298,88.1663704 74.1013298,87.9263704 L73.9993298,87.5633704 L73.9043298,87.2453704 L73.7063298,86.5603704 C73.6633298,86.4193704 73.6123298,86.2673704 73.5473298,86.1003704 C73.5143298,86.0173704 73.4783298,85.9293704 73.4373298,85.8393704 L73.3293298,85.6163704 L73.1903298,85.3583704 C73.2893298,84.8973704 73.4443298,84.5233704 73.6603298,84.3153704 C73.4073298,84.2453704 73.1863298,84.1443704 72.9923298,84.0213704 C72.9683298,83.8723704 72.9473298,83.7203704 72.9213298,83.5773704 C72.8773298,83.3373704 72.8223298,83.0793704 72.7783298,82.8793704 C72.7573298,82.8013704 72.7333298,82.6193704 72.6983298,82.3433704 C72.6603298,82.0763704 72.6103298,81.6933704 72.4233298,81.2213704 C72.3333298,81.0053704 72.2133298,80.7793704 72.0523298,80.5623704 C72.1563298,80.1553704 72.3083298,79.7583704 72.5003298,79.3953704 C72.6563298,79.7033704 72.7933298,80.0003704 72.9283298,80.3253704 C73.2293298,81.0453704 73.4963298,81.8243704 73.7883298,82.6373704 C73.9343298,83.0433704 74.0873298,83.4593704 74.2573298,83.8823704 L74.3793298,84.1853704 L74.4703298,84.4273704 L74.6623298,84.9883704 C74.7983298,85.3933704 74.9533298,85.8633704 75.1973298,86.3683704 C75.3273298,86.6343704 75.4453298,86.8413704 75.5723298,87.0553704 C75.6983298,87.2663704 75.8283298,87.4693704 75.9623298,87.6683704 C76.2283298,88.0663704 76.5093298,88.4483704 76.8273298,88.8313704 L76.9493298,88.9743704 C76.9873298,89.0203704 77.0333298,89.0713704 77.0893298,89.1303704 C77.1933298,89.2463704 77.2983298,89.3483704 77.4043298,89.4483704 C77.6153298,89.6473704 77.8223298,89.8133704 78.0163298,89.9653704 C78.4063298,90.2673704 78.7453298,90.5013704 78.9953298,90.7113704 C79.1213298,90.8163704 79.2283298,90.9133704 79.3103298,91.0023704 L79.4553298,91.1463704 L79.6113298,91.2943704 C79.7143298,91.3883704 79.8123298,91.4743704 79.9083298,91.5553704 C80.1133298,91.7263704 80.2923298,91.8713704 80.4423298,91.9983704 C80.1323298,92.0293704 79.8203298,92.0553704 79.5073298,92.0593704 C79.0093298,92.0653704 78.6663298,92.0433704 78.3273298,91.9293704 Z M75.0123298,118.41937 C75.0063298,118.40337 75.0003298,118.38237 74.9933298,118.36137 C75.0033298,118.38337 75.0103298,118.40537 75.0203298,118.42637 C75.0483298,118.49237 75.0533298,118.52537 75.0123298,118.41937 Z M72.9053298,109.87237 C72.2733298,109.65537 71.6063298,109.60637 70.9603298,109.69037 C70.8033298,109.71237 70.6263298,109.74837 70.4903298,109.77937 L70.0513298,109.86537 C69.7503298,109.92437 69.4313298,109.98937 69.1123298,110.13337 C69.0343298,110.16937 68.9513298,110.21437 68.8803298,110.25937 L68.6803298,110.39137 C68.5493298,110.48137 68.4233298,110.57737 68.3003298,110.67637 C68.0553298,110.87437 67.8273298,111.08737 67.6093298,111.30837 C67.1603298,111.74737 66.8053298,112.27837 66.4503298,112.73137 C66.3623298,112.84437 66.2513298,112.94837 66.1483298,113.12037 C66.0713298,113.25237 66.0373298,113.39937 66.0243298,113.53337 L65.8733298,113.36637 C65.7113298,113.52137 65.6273298,113.68137 65.5493298,113.83837 C65.4753298,113.99637 65.4173298,114.15337 65.3703298,114.31237 C65.3273298,114.45337 65.2953298,114.59637 65.2653298,114.73937 C64.6923298,114.48737 64.1083298,114.06837 63.7963298,113.53637 C63.5193298,113.06437 63.4853298,112.25137 63.0873298,111.87937 C62.5213298,111.91237 61.6513298,112.61237 61.2043298,112.93537 C60.8513298,113.18837 60.4403298,113.60837 59.9583298,113.43037 C60.4743298,112.75937 60.9673298,111.92537 61.4983298,111.28237 C62.4843298,110.08737 63.2883298,109.72037 64.3933298,108.75137 C65.0163298,108.20537 65.4943298,107.19837 66.2353298,106.73137 C66.8223298,107.42637 67.5893298,108.08637 68.3903298,108.36437 C69.0683298,108.59937 70.0203298,108.70037 70.7303298,108.39437 C70.9633298,108.47537 71.1903298,108.54737 71.4043298,108.60237 C72.4433298,108.87137 72.7613298,108.53037 73.5213298,108.32837 L73.5953298,109.02437 C73.6383298,109.44237 73.6733298,109.84037 73.6873298,110.20537 C73.6883298,110.22537 73.6883298,110.24337 73.6883298,110.26337 C73.4413298,110.10137 73.1783298,109.96737 72.9053298,109.87237 Z M70.5763298,110.61137 C70.2913298,111.01237 70.1563298,111.46337 70.0733298,111.90037 C69.9193298,112.78237 69.9673298,113.65337 69.9963298,114.50037 C70.0033298,114.94137 70.0883298,115.38537 70.2273298,115.79637 C70.2923298,115.98837 70.3643298,116.17537 70.4383298,116.36037 C69.4443298,116.11937 68.1293298,115.99337 66.8563298,116.03837 C66.7403298,115.71537 66.9273298,115.39037 66.6193298,115.14837 C66.5733298,115.11337 66.5203298,115.08337 66.4643298,115.05837 C66.4623298,115.03937 66.4573298,115.02037 66.4553298,115.00137 C66.4343298,114.86137 66.4343298,114.72737 66.4393298,114.57137 L66.4583298,113.67837 C66.4643298,113.54137 66.4873298,113.43537 66.5413298,113.35137 C66.5943298,113.26337 66.7043298,113.15537 66.8083298,113.03537 C67.2133298,112.55137 67.5483298,112.07937 67.9803298,111.68537 C68.1933298,111.48137 68.4143298,111.28937 68.6453298,111.11537 C68.7603298,111.02737 68.8783298,110.94437 68.9993298,110.86737 L69.1813298,110.75437 C69.2393298,110.72137 69.2913298,110.69637 69.3503298,110.67037 C69.5873298,110.57137 69.8673298,110.51937 70.1593298,110.47237 L70.6133298,110.39737 C70.6753298,110.38637 70.7293298,110.37637 70.7833298,110.36737 C70.7073298,110.44337 70.6353298,110.52337 70.5763298,110.61137 Z M65.8143298,114.88737 C65.8463298,114.75237 65.8833298,114.62037 65.9283298,114.49237 C65.9563298,114.41137 65.9893298,114.33037 66.0253298,114.25137 L66.0293298,114.58337 C66.0283298,114.69237 66.0353298,114.81337 66.0483298,114.93237 C65.9703298,114.91637 65.8923298,114.90137 65.8143298,114.88737 Z M85.5253298,72.2363704 L85.4273298,74.6283704 C85.2903298,74.4273704 85.1523298,74.2253704 85.0163298,74.0213704 L82.8433298,70.8103704 C82.5933298,70.4383704 82.3823298,70.1463704 82.1583298,69.7803704 C82.1083298,69.7013704 82.0563298,69.6183704 82.0073298,69.5373704 C82.3703298,69.0603704 82.7773298,68.6233704 83.2213298,68.2253704 C83.2413298,68.4243704 83.2683298,68.6273704 83.3113298,68.8363704 C83.6273298,70.3773704 84.4443298,71.4583704 85.5253298,72.2363704 Z M102.10033,93.5153704 C102.04933,93.7503704 102.00133,94.0203704 101.96433,94.2383704 C101.93333,94.4073704 101.89133,94.5833704 101.84033,94.7703704 C101.73933,95.1423704 101.59633,95.5573704 101.45433,96.0303704 C101.29933,96.5753704 101.23333,96.8493704 101.08133,97.2813704 C100.94233,97.6963704 100.77633,98.1543704 100.64233,98.6933704 C100.50433,99.2593704 100.45233,99.7733704 100.39233,100.18937 C100.36333,100.40037 100.33433,100.57837 100.29633,100.75637 L100.23533,101.06537 L100.17433,97.1453704 C100.16933,96.4103704 100.18333,95.6833704 100.22933,94.9623704 C100.27533,94.2373704 100.35033,93.5373704 100.46133,92.8083704 C100.57933,92.0183704 100.66133,91.2483704 100.74933,90.5023704 C100.83733,89.7573704 100.93133,89.0343704 101.06633,88.3423704 C101.08133,88.2713704 101.09533,88.1973704 101.11033,88.1253704 C101.43933,88.1373704 101.78033,88.2003704 102.15533,88.3493704 C102.19533,89.2213704 101.55633,89.4313704 101.20533,90.1483704 C101.80533,90.2693704 102.47633,90.4263704 102.87433,90.8923704 L102.69433,91.3933704 C102.61433,91.6253704 102.54033,91.8573704 102.46833,92.0913704 C102.32833,92.5583704 102.20533,93.0303704 102.10033,93.5153704 Z M101.35433,114.00137 L101.42933,113.68537 C101.46333,113.69137 101.49533,113.69837 101.52933,113.70537 C101.50633,113.74637 101.48133,113.78837 101.45833,113.82737 C101.42533,113.88037 101.39033,113.94037 101.35433,114.00137 Z M101.64933,123.36537 C101.88733,122.60637 102.02533,121.93337 102.19533,121.37037 L102.25933,121.16537 L102.33533,120.93937 C102.40233,120.74937 102.45933,120.56137 102.51333,120.37437 C102.62233,120.00137 102.70733,119.64237 102.78533,119.29737 L103.00733,118.30937 C103.01933,118.25437 103.03233,118.20437 103.04433,118.15237 C103.34933,117.63837 103.63333,117.11537 103.90033,116.58637 C104.19233,115.99537 104.49733,115.40437 104.80133,114.80837 C105.12033,115.02937 105.39633,115.29337 105.59833,115.62037 C106.00133,116.26937 106.05433,117.23437 106.27233,117.95137 C106.44033,118.50237 106.63533,119.11337 106.85733,119.72237 C106.85133,119.72337 106.84433,119.72237 106.83933,119.72437 C106.47233,119.78837 106.12133,119.89337 105.78233,120.08437 C105.41133,120.28337 105.19833,120.67137 105.05433,120.99337 C104.90733,121.32237 104.78333,121.62737 104.58433,121.83337 C104.36833,122.05537 104.09133,122.25437 103.80833,122.44437 C103.52133,122.63637 103.22033,122.82237 102.92233,123.05537 C102.61933,123.29837 102.38333,123.56037 102.13633,123.74837 L101.30033,124.35737 C101.28433,124.36937 101.26833,124.37937 101.25233,124.39137 C101.41633,124.04137 101.54533,123.69437 101.64933,123.36537 Z M95.9473298,146.56737 C95.9473298,146.56537 95.9483298,146.56337 95.9483298,146.56137 C95.9483298,146.56237 95.9483298,146.56437 95.9483298,146.56537 C95.9533298,146.65837 95.9453298,146.64037 95.9473298,146.56737 Z M95.8693298,148.23737 C95.8693298,148.23337 95.8693298,148.22637 95.8693298,148.22137 C95.8693298,148.29237 95.8693298,148.30237 95.8693298,148.23737 Z M96.0253298,159.70337 C96.0313298,159.75637 96.0273298,159.74437 96.0183298,159.66637 C96.0213298,159.67937 96.0243298,159.69437 96.0253298,159.70337 Z M100.69533,190.56937 C100.70633,190.64837 100.70933,190.53737 100.71033,190.56937 C100.71233,190.63237 100.70333,190.67937 100.69333,190.56937 C100.68433,190.50637 100.67733,190.68537 100.66833,190.56937 C100.67933,190.63337 100.68933,190.51837 100.69533,190.56937 Z M101.40133,190.56937 L101.40433,190.56937 C101.40633,190.61137 101.40833,190.53437 101.40933,190.56937 C101.41333,190.70437 101.40833,190.53837 101.40533,190.56937 C101.40133,190.61537 101.40033,190.64837 101.40133,190.56937 Z M101.73233,190.56937 C101.74033,190.62737 101.74433,190.52937 101.74733,190.56937 L101.75233,190.56937 C101.74933,190.71137 101.73333,190.71437 101.73133,190.56937 L101.73233,190.56937 Z M55.7373298,122.19837 C55.7543298,122.09237 55.7693298,121.99037 55.7863298,121.89337 C55.9413298,121.86637 56.1123298,121.88437 56.2903298,121.92937 C56.0893298,121.99437 55.9013298,122.08137 55.7373298,122.19837 Z M39.0693298,76.2423704 C38.8873298,76.7483704 38.6183298,77.7723704 38.0163298,77.8833704 C37.6023298,77.9593704 37.4023298,77.5883704 37.2133298,77.2033704 L39.3963298,75.0193704 C39.2943298,75.4313704 39.2113298,75.8503704 39.0693298,76.2423704 Z M36.3153298,89.5173704 C36.1513298,89.5513704 35.9063298,89.4793704 35.7643298,89.5783704 C35.6023298,89.6913704 35.4373298,90.0093704 35.2593298,90.1633704 C34.7393298,90.6163704 34.2833298,91.1373704 33.7543298,91.5863704 C33.7923298,91.4583704 33.8173298,91.3293704 33.8333298,91.2303704 C33.8743298,90.9743704 33.8213298,90.6693704 33.7273298,90.3643704 C33.8423298,90.2923704 33.9603298,90.2233704 34.0723298,90.1463704 C34.0903298,90.1403704 34.1043298,90.1383704 34.1223298,90.1303704 C34.1703298,90.1053704 34.2353298,90.0693704 34.2783298,89.9933704 C34.4133298,89.8953704 34.5503298,89.7993704 34.6813298,89.6933704 C35.2973298,89.1763704 35.8283298,88.5613704 36.2593298,87.8823704 C36.2993298,87.9033704 36.3403298,87.9253704 36.3813298,87.9473704 C36.3613298,88.0203704 36.3463298,88.0993704 36.3443298,88.1883704 C36.3333298,88.6143704 36.4353298,89.1093704 36.3153298,89.5173704 Z M33.6833298,90.2243704 C33.6813298,90.2183704 33.6793298,90.2133704 33.6773298,90.2083704 C33.6883298,90.2083704 33.7003298,90.2073704 33.7113298,90.2073704 C33.7023298,90.2123704 33.6933298,90.2183704 33.6833298,90.2243704 Z M33.5633298,90.1703704 C33.4973298,90.1703704 33.4253298,89.7373704 33.3553298,89.6013704 C33.5833298,89.5493704 33.8093298,89.4313704 34.0323298,89.3663704 C34.1343298,88.8693704 33.9663298,88.5303704 33.7893298,88.0863704 C33.6863298,87.8293704 33.4893298,87.2913704 33.4143298,86.8393704 C33.5373298,86.8533704 33.6603298,86.8603704 33.7803298,86.8853704 C34.5813298,87.0473704 35.3473298,87.4013704 36.0953298,87.7983704 C35.6833298,88.4623704 35.1733298,89.0653704 34.5813298,89.5763704 C34.4473298,89.6873704 34.3063298,89.7863704 34.1673298,89.8893704 L34.0003298,89.8613704 C34.0083298,89.8283704 34.0143298,89.8393704 33.9903298,89.8533704 C33.9623298,89.8653704 33.9253298,90.0043704 33.8843298,90.0133704 C33.8003298,90.0323704 33.7063298,90.1703704 33.6133298,90.1703704 C33.5963298,90.1703704 33.5803298,90.1703704 33.5633298,90.1703704 Z M32.5823298,92.3643704 C32.5153298,92.4143704 32.4563298,92.4703704 32.3973298,92.5273704 C32.3713298,92.2093704 32.3413298,91.8963704 32.4123298,91.6503704 C32.6783298,91.6123704 32.8533298,91.9183704 33.0873298,92.0473704 C32.9153298,92.1463704 32.7423298,92.2443704 32.5823298,92.3643704 Z M20.0113298,72.3943704 C19.7293298,72.5433704 19.4233298,72.7023704 19.1223298,72.8583704 C19.0513298,72.3893704 18.8613298,71.9533704 18.8563298,71.5243704 C19.0393298,71.3063704 19.2143298,71.0813704 19.3903298,70.8613704 C19.5293298,70.6833704 19.6673298,70.5053704 19.8053298,70.3283704 C20.0023298,70.6113704 20.2283298,70.8393704 20.5893298,70.9913704 C20.7973298,71.0793704 20.9713298,71.1333704 21.1343298,71.1553704 C20.9303298,71.6533704 20.6183298,72.0733704 20.0113298,72.3943704 Z M16.3733298,98.7193704 C16.3613298,98.7133704 16.3543298,98.7033704 16.3433298,98.6963704 C16.3473298,98.6963704 16.3503298,98.6963704 16.3543298,98.6973704 C16.3603298,98.6983704 16.3693298,98.6993704 16.3763298,98.6993704 C16.3743298,98.7063704 16.3753298,98.7123704 16.3733298,98.7193704 Z M29.2563298,34.5863704 C29.2483298,34.5423704 29.2333298,34.5003704 29.2143298,34.4613704 C29.2573298,34.4703704 29.3003298,34.4793704 29.3443298,34.4873704 C29.3113298,34.5143704 29.2813298,34.5463704 29.2563298,34.5863704 Z M180.96333,106.03337 C180.96333,105.73837 181.12133,104.99737 180.93033,104.75137 C180.69633,104.45037 180.58533,104.67037 180.27533,104.58737 C179.84633,104.47237 179.87133,104.40537 179.94133,103.98137 C180.06033,103.25637 180.59633,102.66437 180.54433,101.89237 C179.94033,101.67837 178.88833,103.20837 178.64633,102.03137 C178.59133,101.76137 178.79433,101.36937 178.63633,101.10837 C178.49733,100.87637 178.21233,100.97337 178.06733,100.78937 C177.53133,100.10637 179.11333,98.6923704 178.67033,97.8993704 C178.36133,97.3463704 177.23133,98.1913704 176.60733,97.9233704 C176.18333,97.7403704 176.16633,97.5253704 176.15333,97.0263704 C176.13933,96.4373704 176.09533,96.0003704 176.00033,95.4173704 C175.91733,94.9083704 175.95533,94.2703704 175.63133,93.8433704 C175.26933,93.3683704 174.51633,93.1083704 174.01333,92.8403704 C173.53133,92.5833704 173.37533,92.2623704 173.08433,91.8373704 C172.82033,91.4523704 172.50233,91.3333704 172.09333,91.1143704 C171.50533,90.7993704 171.08333,90.3813704 170.72733,89.8023704 C170.44533,89.3443704 170.37433,89.0363704 169.90733,88.7713704 C169.48033,88.5273704 168.99133,88.0073704 168.53233,87.8883704 C168.24833,87.8143704 167.94833,87.8043704 167.64133,87.8143704 C167.62733,87.6133704 167.60733,87.4173704 167.60733,87.2543704 C167.60733,86.7343704 167.60533,86.2143704 167.60733,85.6953704 C167.60733,85.5183704 167.70333,84.9973704 167.59833,84.8603704 C167.42233,84.6303704 166.88433,84.7813704 166.59533,84.5543704 C166.20633,84.2463704 166.38333,84.0793704 166.51333,83.7043704 C166.63633,83.3443704 167.10533,82.4163704 166.42233,82.4163704 C166.63633,82.0693704 167.01033,81.9063704 167.13233,81.4863704 C166.93233,81.2163704 166.57733,81.5803704 166.36133,81.2883704 C166.15033,81.0023704 166.56533,80.5653704 166.74733,80.3593704 C167.34133,79.6883704 167.82433,79.7273704 167.81433,78.8633704 C167.81233,78.6773704 167.91233,78.1003704 167.78433,77.9343704 C167.61933,77.7183704 167.37733,77.9663704 167.17433,77.8453704 C166.44233,77.4073704 167.42633,76.0863704 167.38333,75.5503704 C167.27833,75.5933704 167.19333,75.6633704 167.11733,75.7443704 C167.84133,74.7793704 168.94033,73.5993704 168.86633,72.4283704 C168.32933,72.3103704 167.78433,72.6483704 167.23733,72.6373704 C167.09533,72.4773704 167.11933,72.2383704 167.19833,71.9793704 C167.20633,71.9963704 167.21033,72.0153704 167.21833,72.0313704 C167.98633,71.9363704 168.64133,71.5363704 169.29233,71.1373704 C169.62433,70.9333704 170.44433,70.1403704 170.95033,70.1353704 C170.97433,70.3563704 170.86633,70.5523704 170.99033,70.7483704 C171.71133,70.2383704 172.26833,69.4893704 172.87033,68.8423704 C173.33433,68.3433704 174.13333,67.2083704 174.83233,66.8753704 C174.78333,67.0333704 174.69433,67.1623704 174.56433,67.2623704 C174.87933,67.1513704 175.12033,66.7123704 175.32233,66.4613704 C175.62933,66.0813704 176.21233,65.5203704 176.17333,64.9643704 C175.86933,64.8503704 175.63233,65.1293704 175.33033,65.1313704 C175.22333,64.5713704 175.93233,63.9563704 176.25933,63.5743704 C176.67433,63.0903704 177.36433,62.4673704 177.41733,61.7943704 C177.07333,61.7143704 176.72633,61.8613704 176.37733,61.7763704 C176.30133,61.2063704 176.95833,60.7563704 176.79233,60.1203704 C175.97133,59.9913704 175.36533,61.0403704 174.53733,60.9663704 C174.31533,60.4563704 175.43933,59.4933704 174.71433,59.1093704 C174.01233,59.4023704 173.31933,59.7773704 172.66233,60.1633704 C172.24933,60.4063704 171.35733,61.3993704 170.76633,61.3613704 C170.74533,61.2913704 170.73633,61.2213704 170.73333,61.1513704 C170.73433,61.1563704 170.73633,61.1613704 170.73733,61.1673704 C170.73633,61.1603704 170.73433,61.1543704 170.73333,61.1473704 C170.71233,60.4673704 171.49233,59.7873704 171.09533,59.0813704 C170.63833,59.0103704 169.74633,59.3063704 169.39733,58.9613704 C168.99333,58.5613704 169.44933,57.7043704 169.23233,57.1923704 C168.35433,57.1653704 167.39133,57.6483704 166.54433,57.8423704 C166.03633,57.9593704 165.13033,58.3113704 164.71933,57.8423704 C164.51133,57.6043704 164.54233,57.2573704 164.27833,57.0343704 C164.11833,56.8993704 163.82833,56.8253704 163.64133,56.7323704 C163.61733,56.7203704 163.59133,56.7103704 163.56633,56.6983704 C163.69333,56.3543704 163.80433,55.9963704 163.83933,55.6373704 C163.86033,55.4013704 163.81233,55.1533704 163.88233,54.9283704 C164.28633,54.8723704 164.46233,54.9683704 164.66933,54.6033704 C164.83833,54.3043704 164.87933,53.8793704 164.89433,53.5473704 C164.91833,53.0593704 165.04433,53.0223704 165.36833,52.6223704 C165.59433,52.3413704 166.05033,51.6853704 165.35133,51.7513704 C165.29533,51.4993704 165.36333,51.1523704 165.15233,50.9593704 C164.90533,50.7343704 164.20233,51.0193704 163.86633,50.8843704 C164.15933,50.2713704 164.77833,49.8703704 165.07333,49.2603704 C165.14633,49.1083704 165.14833,48.8893704 165.22933,48.7213704 C165.42633,48.3153704 165.93533,48.0113704 166.05533,47.5813704 C166.17233,47.1633704 165.89233,46.9083704 165.91833,46.4773704 C165.94533,45.9983704 166.35833,45.4983704 166.63633,45.1183704 C166.85633,45.5283704 166.65233,45.9603704 166.79733,46.3633704 C167.26833,45.8073704 167.50433,44.7393704 167.47133,43.9983704 C167.42533,42.9563704 166.71633,43.3393704 166.25333,42.8003704 C166.01133,42.5193704 166.14133,42.1963704 166.15333,41.8593704 C166.17033,41.3723704 166.11833,41.3563704 165.93733,41.0243704 C165.71833,40.6263704 165.67033,40.4153704 165.20933,40.2923704 C164.90633,40.2123704 164.83633,40.3663704 164.59733,40.0853704 C164.42333,39.8813704 164.43833,39.5343704 164.26333,39.4063704 C164.79133,39.5383704 165.55933,39.1923704 165.73233,38.6603704 C165.13633,38.1183704 162.66133,38.9503704 163.66133,37.4813704 C164.42333,36.3633704 165.83033,35.6723704 166.15633,34.2303704 C166.02433,34.2433704 165.89233,34.2373704 165.76233,34.2133704 C165.58233,33.6923704 165.88033,33.1133704 165.62533,32.5853704 C165.10733,31.5143704 164.19033,32.6033704 163.47133,32.5633704 C163.09633,31.9033704 163.01933,31.2453704 162.81933,30.5163704 C162.69333,30.0603704 162.65633,29.5953704 162.13933,29.4503704 C161.90333,29.3843704 161.55233,29.4023704 161.31833,29.4863704 C160.04833,29.9353704 158.74833,31.1683704 157.39433,30.3983704 C156.69933,30.0023704 156.03633,29.5243704 155.45133,28.9833704 C154.78433,28.3673704 154.18733,27.6993704 153.24733,27.5743704 C152.51433,27.4773704 152.15133,27.7523704 151.58033,28.2063704 C151.08233,28.6023704 150.50033,28.7893704 149.92633,29.0693704 C149.51933,28.8563704 149.50933,28.5073704 149.89933,28.0223704 C150.17033,27.5003704 150.28733,26.9523704 150.25133,26.3783704 C149.77433,26.0893704 149.04933,26.3803704 148.50933,26.2153704 C147.79933,26.0003704 148.12633,25.7423704 147.96533,25.0803704 C147.64133,24.9723704 147.30133,25.1403704 146.96833,25.0433704 C146.61233,23.8963704 147.86333,22.7213704 147.75033,21.5523704 C147.22433,21.4443704 146.78933,21.5833704 146.30633,21.2743704 C145.70633,20.8883704 145.73433,20.6683704 144.95233,20.6653704 C144.30533,20.6633704 143.23333,20.9883704 142.75533,20.4173704 C142.50633,20.1213704 142.55333,19.4803704 142.55433,19.1463704 C142.55433,18.8333704 142.63633,18.4933704 142.55733,18.1873704 C142.46533,17.8313704 142.39033,17.9043704 142.15033,17.7573704 C141.95833,17.6403704 141.62133,17.3763704 141.41133,17.3333704 C140.66733,17.1833704 139.87733,18.1713704 139.44533,18.5873704 C139.02033,18.9963704 139.06433,18.9463704 138.56133,18.8583704 C138.26933,18.8073704 137.97233,18.7533704 137.67533,18.7943704 C137.44733,18.8253704 137.27033,18.9413704 137.05133,18.9893704 C136.36133,19.1423704 136.24033,18.6533704 135.92633,18.1883704 C135.00733,16.8253704 133.17133,17.0003704 131.68533,17.0873704 C131.41733,17.1043704 130.92233,17.4253704 130.39933,17.7503704 C130.21833,17.5483704 130.03433,17.3483704 129.84033,17.1393704 C129.65333,16.9383704 129.08933,16.4943704 129.02833,16.2383704 C128.93233,15.8353704 129.13033,15.9883704 129.40433,15.8473704 C130.12833,15.4733704 131.20833,14.8903704 131.30533,14.0303704 C131.41933,13.0393704 131.47833,11.2223704 130.69033,10.4323704 C129.83933,9.57837038 128.75633,10.0813704 127.78533,9.80037038 C127.78333,9.26937038 127.30533,9.09737038 126.88533,8.89037038 C125.97833,8.44337038 125.36933,8.54237038 124.50433,8.99737038 C124.13633,9.18937038 123.59933,9.63037038 123.16333,9.59437038 C122.53433,9.54237038 121.97033,8.47937038 121.68733,8.03037038 C120.89833,6.78437038 120.89133,5.27737038 120.29333,3.96737038 C120.13233,3.61537038 119.79733,3.28837038 119.40633,3.19037038 C118.86533,3.05637038 118.48433,3.49137038 117.98733,3.55737038 C117.52633,2.45937038 116.63533,0.813370382 115.57833,0.190370382 C114.73633,-0.304629618 114.37433,0.235370382 114.07533,1.01037038 C113.87833,1.52337038 113.79533,1.94837038 113.76633,2.48437038 C113.75033,2.78137038 113.78333,2.87037038 113.59333,3.13237038 C112.85633,4.14937038 111.27033,4.84537038 111.22733,6.26537038 C109.57733,6.06237038 108.76533,3.72637038 107.18333,3.38337038 C106.78433,3.29737038 106.08933,3.26637038 105.75133,3.48237038 C105.35733,3.73437038 105.06833,4.16837038 104.60933,4.40637038 C103.66633,4.89337038 102.67133,5.07237038 101.66233,5.34437038 C100.88133,5.55437038 100.53033,6.01337038 100.02633,6.65037038 C99.5033298,7.31137038 98.9603298,7.97937038 98.5483298,8.71337038 C98.4613298,8.86737038 98.3913298,9.03037038 98.3273298,9.19537038 C98.0133298,9.19937038 97.6963298,9.22937038 97.3853298,9.20837038 C96.9463298,9.18037038 96.7303298,9.06537038 96.2953298,8.89637038 C95.9153298,8.74837038 95.5463298,8.64537038 95.1913298,8.43337038 C94.8493298,8.22737038 94.6913298,7.95337038 94.3953298,7.72437038 C94.1473298,7.53237038 94.2773298,7.54037038 93.9583298,7.56637038 C93.7713298,7.69837038 93.5763298,7.81537038 93.3713298,7.91737038 C93.1933298,7.97237038 93.0103298,7.98637038 92.8253298,7.96137038 C92.2223298,7.98337038 91.6523298,7.86437038 91.0573298,7.79037038 C90.7453298,7.75137038 90.0733298,7.84637038 89.7453298,7.75937038 C88.9993298,7.56037038 88.8193298,6.28137038 88.1043298,5.90237038 C87.6743298,6.18837038 87.3923298,6.64637038 86.8513298,6.72437038 C86.1063298,6.83037038 85.6333298,6.25137038 84.9683298,6.10237038 C84.6263298,6.02537038 84.2863298,6.09637038 83.9333298,6.08437038 C83.4713298,6.06837038 83.1053298,5.66737038 82.7043298,5.67737038 C82.7523298,6.10637038 82.5573298,6.02437038 82.2903298,6.04337038 C82.0363298,5.86637038 81.7553298,5.74937038 81.4483298,5.69237038 C81.1273298,5.64537038 80.8053298,5.62937038 80.4843298,5.64837038 C79.9853298,5.65137038 79.6813298,5.76237038 79.2893298,5.42837038 C78.8433298,5.04737038 78.6443298,4.46537038 78.0883298,4.19337038 C77.5353298,4.73337038 77.3113298,7.06837038 76.5273298,6.91937038 C76.2213298,6.86037038 75.2523298,6.08737038 75.1503298,6.01837038 C74.9033298,5.84837038 74.2163298,5.16937038 73.9273298,5.24637038 C73.8893298,5.43137038 73.9063298,5.62037038 73.8823298,5.80437038 C73.5363298,5.54637038 73.3143298,5.36337038 72.9003298,5.24037038 C72.5373298,5.21437038 72.1803298,5.14337038 71.8333298,5.02837038 C71.4263298,4.87137038 71.0093298,4.80437038 70.5803298,4.82737038 C70.1133298,4.96937038 70.0573298,5.71437038 69.5103298,5.66137038 C69.1433298,5.46237038 68.7843298,5.25137038 68.4323298,5.02637038 C68.0723298,4.77937038 67.6853298,4.58937038 67.2713298,4.45737038 C67.2073298,4.55437038 67.1803298,4.66137038 67.1923298,4.77837038 C66.4813298,4.91737038 66.1553298,5.13437038 65.6763298,5.63537038 C65.3223298,6.00637038 64.7393298,6.23537038 64.2713298,6.43637038 C63.8323298,6.58437038 63.4023298,6.75537038 62.9803298,6.94937038 C62.6323298,7.16537038 62.3193298,7.42237038 62.0413298,7.72237038 C61.6733298,8.00437038 61.7033298,7.99337038 61.2473298,7.91037038 C60.8183298,7.83337038 60.1693298,7.48637038 59.7923298,7.92337038 C59.5913298,8.15437038 59.6673298,8.66137038 59.5673298,8.95937038 C59.4653298,9.26637038 59.3613298,9.45637038 59.1323298,9.61937038 C58.8323298,9.61137038 58.5473298,9.68237038 58.2783298,9.83137038 C57.8963298,9.99837038 57.5823298,10.2443704 57.3343298,10.5693704 C56.8503298,11.1093704 56.8493298,11.5233704 56.6943298,12.1463704 C56.2963298,13.7503704 54.3003298,14.7073704 53.0723298,15.4803704 C52.5403298,15.8163704 50.2913298,16.7953704 50.5353298,17.7793704 C50.6143298,18.0943704 50.9153298,18.2753704 50.9723298,18.5953704 C51.0683298,19.1293704 50.5853298,19.5333704 50.3283298,19.9293704 C49.9303298,20.5423704 49.8523298,21.0453704 49.6663298,21.7013704 C48.6173298,21.9253704 47.3713298,21.6623704 46.3663298,22.1583704 C46.3713298,22.9943704 46.9493298,23.5363704 46.0033298,23.9753704 C45.6533298,24.1363704 45.4583298,24.0493704 45.2943298,24.4683704 C45.1843298,24.7483704 45.3833298,25.1543704 45.3033298,25.4623704 C44.4623298,25.5653704 44.1243298,25.6753704 43.8233298,26.5153704 C43.5683298,26.5123704 43.2303298,26.4033704 43.0123298,26.2713704 C42.7923298,26.1383704 42.6953298,25.8033704 42.3833298,25.9233704 C41.8453298,26.7023704 42.0173298,28.9453704 42.9183298,29.4233704 C42.4473298,29.8553704 41.7843298,30.0593704 41.1453298,30.0553704 C40.5573298,30.0523704 39.7903298,29.4913704 39.3363298,29.7883704 C38.9943298,30.0103704 39.0683298,30.6813704 38.7923298,30.8643704 C38.6263298,30.9753704 38.5473298,30.6923704 38.4493298,30.7223704 C37.9233298,30.8813704 37.7673298,31.5073704 37.2453298,31.5433704 C36.6593298,31.5833704 35.9963298,31.1593704 35.3963298,31.1053704 C34.6303298,31.0383704 34.1003298,31.2883704 33.6533298,31.9153704 C33.0333298,32.7853704 32.2983298,32.1973704 31.4053298,31.9883704 C31.1263298,32.3713704 31.4403298,33.0893704 31.3583298,33.5043704 C31.2623298,33.9873704 31.2083298,34.0023704 31.7553298,35.2903704 C31.3573298,35.1653704 29.9683298,34.1443704 29.4033298,34.4543704 C29.3293298,34.4423704 29.2563298,34.4293704 29.1833298,34.4153704 C29.0113298,34.1493704 28.5883298,34.0043704 28.3033298,34.0193704 C28.1983298,34.0243704 28.1133298,34.0473704 28.0373298,34.0763704 C28.0113298,34.0693704 27.9873298,34.0603704 27.9613298,34.0543704 C27.5603298,33.9453704 27.1503298,34.0343704 26.7473298,34.0383704 C27.1503298,34.0403704 27.5633298,33.9593704 27.9573298,34.0733704 C27.9733298,34.0773704 27.9903298,34.0843704 28.0073298,34.0893704 C27.6593298,34.2423704 27.5963298,34.6353704 27.4753298,35.0563704 C27.3983298,35.3223704 26.9953298,36.0743704 27.1893298,36.3113704 C27.4233298,36.5943704 27.8013298,36.0413704 27.9103298,35.9223704 C27.2043298,37.4323704 28.4233298,38.0863704 29.6523298,38.2533704 C29.6153298,38.4053704 29.3243298,38.6823704 29.2043298,38.8333704 C28.9583298,39.1433704 28.6583298,39.3963704 28.5103298,39.7763704 C28.4213298,40.0103704 28.3383298,40.3673704 28.4063298,40.6213704 C28.4963298,40.9523704 28.7323298,40.8383704 28.8173298,41.0813704 C28.5333298,41.1363704 28.2543298,41.2173704 28.0193298,41.3953704 C28.2243298,41.7853704 28.1813298,42.3343704 28.5933298,42.6513704 C28.4413298,42.8763704 28.1293298,43.4783704 28.2103298,43.7493704 C28.2783298,43.9813704 28.5193298,43.9893704 28.6143298,44.1763704 C28.6993298,44.3443704 28.6413298,44.6493704 28.6003298,44.8183704 C28.4313298,44.7083704 28.2533298,44.6173704 28.0653298,44.5433704 C27.9273298,44.6993704 28.3783298,45.0553704 28.3893298,45.2963704 C28.4083298,45.6473704 27.9803298,45.9663704 28.0313298,46.3543704 C28.0953298,46.8543704 28.7353298,47.1143704 29.0893298,47.3413704 C29.4453298,47.5703704 30.1573298,47.4793704 30.3083298,47.7963704 C30.6423298,48.4963704 29.6053298,48.6803704 29.6653298,49.1413704 C29.7353298,49.6893704 31.3753298,49.9073704 31.7693298,49.9023704 C31.9893298,49.8983704 32.1273298,49.8963704 32.3353298,49.8513704 C32.3833298,49.7503704 32.4653298,49.6923704 32.5783298,49.6773704 C32.7243298,49.6853704 32.8723298,49.6933704 33.0183298,49.7003704 C33.4453298,49.6023704 33.7923298,49.2233704 34.2163298,49.6753704 C34.5823298,50.0633704 34.6593298,51.0323704 34.7073298,51.5363704 C35.0263298,51.6393704 35.5683298,51.6033704 35.8823298,51.5203704 C36.1763298,51.4423704 36.5763298,50.9953704 36.9293298,51.1873704 C37.2813298,51.3783704 37.1793298,51.7423704 37.5983298,51.9373704 C37.8023298,52.0323704 37.9193298,51.9603704 38.0773298,52.1313704 C38.2273298,52.2953704 38.1193298,52.5023704 38.2143298,52.6203704 C38.5213298,53.0003704 38.8893298,52.6483704 39.3033298,52.4073704 C39.7953298,52.1223704 40.7643298,51.5803704 41.3753298,51.7563704 C42.2893298,52.0203704 42.0573298,53.5633704 42.2163298,54.2383704 C42.7903298,54.3633704 43.1343298,54.8403704 43.6103298,54.6323704 C43.6163298,54.6413704 43.6243298,54.6483704 43.6323298,54.6573704 C43.5833298,54.6723704 43.5253298,54.6873704 43.4563298,54.7013704 C42.9983298,54.7983704 42.5683298,54.6563704 42.1423298,54.5403704 C41.3063298,54.3123704 40.2953298,53.9243704 39.8373298,54.8963704 C39.7933298,54.9893704 39.7543298,55.0833704 39.7183298,55.1763704 C39.5323298,55.0193704 39.3403298,54.8693704 39.1323298,54.7503704 C38.5453298,54.4183704 37.1283298,53.3083704 36.5393298,54.2123704 C36.3873298,53.8263704 36.2853298,53.4423704 36.0063298,53.1323704 C35.4743298,52.5423704 34.7023298,52.1443704 33.9283298,52.0183704 C33.4433298,51.9383704 32.7063298,51.8633704 32.3023298,52.2153704 C31.8753298,52.5873704 31.8863298,53.3193704 31.7083298,53.8093704 C30.9423298,52.2623704 28.7223298,52.1983704 28.1943298,53.9513704 C28.1053298,54.2463704 27.9823298,55.9403704 27.5953298,55.9433704 C27.6203298,55.9423704 26.8013298,55.4853704 26.7883298,55.4813704 C26.2933298,55.3103704 25.7463298,55.1133704 25.2223298,55.0983704 C24.0843298,55.0653704 23.5623298,56.0183704 23.2033298,57.0053704 C23.0023298,57.5583704 23.2083298,58.2873704 22.5823298,58.2083704 C22.0933298,58.1463704 21.8233298,57.6223704 21.3223298,57.9913704 C20.7013298,58.4483704 20.6573298,59.3933704 20.4433298,60.0533704 C19.8773298,59.8153704 19.6253298,59.3843704 18.9073298,59.4923704 C18.5083298,59.5513704 18.3803298,59.6693704 18.1763298,59.9923704 C17.9983298,60.2763704 17.9653298,60.9563704 17.7743298,61.2013704 C17.4493298,61.6193704 17.5113298,61.1203704 17.1423298,61.1413704 C16.7213298,61.1643704 16.8783298,61.8353704 17.3163298,61.8323704 C17.3293298,61.8893704 17.3423298,61.9453704 18.3993298,62.6273704 C17.1613298,62.6263704 16.3723298,62.5503704 15.3703298,63.3333704 C15.0423298,63.5883704 14.7763298,63.6923704 14.6693298,64.0303704 C14.3383298,63.7283704 13.6623298,63.8063704 13.1743298,64.1993704 C12.7633298,64.5303704 11.3783298,66.2793704 12.0613298,66.8013704 C11.4243298,66.9593704 11.5133298,67.5353704 11.5093298,68.0373704 C11.5023298,68.8423704 11.6803298,69.4383704 12.3473298,69.9443704 C12.7423298,70.2443704 13.0313298,70.1403704 13.2583298,69.8393704 C13.3613298,70.1773704 13.5273298,70.5003704 13.7113298,70.7753704 C14.2773298,71.6213704 15.1163298,71.9063704 16.1143298,71.8283704 C17.7283298,71.7003704 18.5483298,70.3223704 18.8643298,68.9063704 C19.1803298,68.9863704 19.3733298,69.6103704 19.5433298,69.9053704 C19.5923298,69.9913704 19.6403298,70.0723704 19.6893298,70.1513704 C19.5433298,70.3533704 19.3963298,70.5543704 19.2503298,70.7553704 C19.0843298,70.9763704 18.9203298,71.2013704 18.7493298,71.4183704 L18.6213298,71.4133704 C18.6203298,71.4653704 18.6253298,71.5163704 18.6293298,71.5673704 C18.4523298,71.7823704 18.2653298,71.9873704 18.0543298,72.1653704 C17.8173298,72.3543704 17.5543298,72.5273704 17.2573298,72.5913704 C16.9613298,72.6563704 16.6473298,72.6563704 16.3483298,72.5783704 C16.0463298,72.5083704 15.7413298,72.4383704 15.4653298,72.2973704 C15.1883298,72.1563704 14.9463298,71.9533704 14.6693298,71.8093704 C14.9413298,71.9613704 15.1753298,72.1713704 15.4513298,72.3233704 C15.7273298,72.4753704 16.0343298,72.5563704 16.3353298,72.6353704 C16.6373298,72.7243704 16.9643298,72.7363704 17.2763298,72.6773704 C17.5953298,72.6173704 17.8753298,72.4453704 18.1283298,72.2563704 C18.3193298,72.1053704 18.4893298,71.9333704 18.6503298,71.7563704 C18.7183298,72.1783704 18.8923298,72.5553704 18.9533298,72.9453704 C18.8423298,73.0023704 18.7333298,73.0593704 18.6273298,73.1143704 C18.6283298,73.1133704 17.2963298,73.5613704 17.0623298,73.7603704 C16.8033298,73.9813704 16.7433298,74.4163704 16.7243298,74.7313704 C16.6993298,75.1703704 16.7663298,75.5883704 16.6873298,76.0263704 C16.6813298,76.0623704 16.6733298,76.0983704 16.6663298,76.1333704 C16.5043298,76.1863704 16.3343298,76.2193704 16.1763298,76.1623704 C16.2693298,76.2003704 16.3723298,76.2173704 16.4723298,76.1973704 C16.5363298,76.1883704 16.5983298,76.1733704 16.6613298,76.1563704 C16.5963298,76.4803704 16.5113298,76.8053704 16.4153298,77.1303704 C16.3143298,77.0213704 16.2093298,76.9203704 16.0923298,76.8383704 C15.4273298,76.3703704 14.6913298,76.6753704 14.1133298,77.1033704 C13.8273298,77.3153704 13.6853298,77.5303704 13.5433298,77.8623704 C13.4303298,78.1243704 13.4463298,78.6633704 13.2393298,78.8313704 C12.8633298,78.5883704 12.8983298,78.3643704 12.5503298,78.6923704 C12.3213298,78.9093704 12.1493298,79.3953704 12.0913298,79.7183704 C11.6453298,79.4743704 10.8733298,78.9983704 10.3753298,79.5223704 C10.3023298,79.5993704 10.2803298,79.8703704 10.2243298,79.9123704 C10.0783298,80.0223704 9.88732983,79.9033704 9.73232983,79.9403704 C9.34432983,80.0333704 9.31532983,80.5063704 8.90432983,80.5763704 C8.49732983,80.6453704 8.49732983,80.2413704 8.18432983,80.1413704 C7.92132983,80.0573704 7.41932983,80.1423704 7.13132983,80.1523704 C6.32732983,80.1823704 5.95632983,81.3383704 5.03332983,81.0063704 C4.67932983,80.8793704 3.76832983,79.1673704 3.19732983,79.7673704 C2.94832983,80.0283704 3.41132983,80.7383704 3.12832983,80.9693704 C2.89932983,81.1553704 2.32732983,80.6023704 2.11632983,80.5123704 C1.77332983,80.3663704 1.44732983,80.2883704 1.07432983,80.4083704 C0.613329834,80.5563704 0.659329834,80.7773704 0.663329834,81.1963704 C0.667329834,81.7363704 0.782329834,82.3903704 1.04032983,82.9383704 C0.967329834,82.9043704 0.882329834,82.8763704 0.767329834,82.8603704 C0.365329834,82.8033704 0.110329834,82.8003704 0.0243298344,83.1733704 C-0.181670166,84.0673704 0.973329834,84.6953704 1.49632983,85.1653704 C0.0483298344,86.1693704 0.124329834,86.6043704 1.02832983,86.7923704 C1.77932983,86.9483704 2.62132983,86.6613704 3.35132983,86.8763704 C3.20632983,87.4333704 2.49932983,87.7843704 2.18032983,88.2533704 C2.53732983,88.6613704 3.51632983,88.8153704 4.00732983,88.6173704 C4.59132983,88.3823704 4.81432983,87.9123704 4.86132983,87.3113704 C5.00932983,87.3983704 5.14932983,87.5083704 5.28332983,87.6303704 C5.37632983,87.9333704 5.52832983,88.2123704 5.66632983,88.3143704 C5.79832983,88.4133704 5.96332983,88.4793704 6.13732983,88.5133704 C6.48032983,88.8593704 6.85132983,89.1593704 7.32232983,89.2583704 C7.08332983,88.9713704 6.99832983,88.6823704 7.02432983,88.4113704 C7.02732983,88.4103704 7.03132983,88.4093704 7.03432983,88.4083704 C7.19732983,88.3263704 7.36032983,88.0473704 7.55132983,88.1083704 C7.79832983,88.1873704 7.75132983,88.5323704 7.76032983,88.7133704 C7.78532983,89.1693704 7.80432983,89.6643704 7.41132983,89.9803704 C8.05232983,89.8173704 7.97732983,90.2173704 7.96332983,90.7133704 C7.94432983,91.3673704 8.07032983,91.7903704 8.73232983,92.0623704 C8.27732983,91.9163704 8.27832983,92.5453704 8.49632983,92.7733704 C8.75432983,93.0453704 9.36432983,92.9353704 9.43732983,92.5363704 C9.25332983,93.1753704 10.3253298,93.5383704 10.9113298,93.1723704 C10.8943298,93.2343704 10.8803298,93.2953704 10.8733298,93.3543704 C10.8163298,93.8103704 11.0153298,93.9523704 11.3023298,94.2443704 C11.5833298,94.5303704 11.6053298,94.5533704 12.0353298,94.5573704 C12.1993298,94.5593704 12.3633298,94.5593704 12.5283298,94.5563704 C12.5853298,94.6103704 12.6423298,94.6643704 12.7003298,94.7173704 C12.3773298,95.0783704 12.2983298,95.7153704 12.4963298,96.0663704 C12.6183298,96.2843704 12.7743298,96.3973704 12.9443298,96.4403704 C12.8773298,96.8843704 12.9483298,97.4633704 13.1943298,97.6963704 C13.9033298,98.3653704 15.4453298,98.5863704 16.3353298,98.6943704 C16.3483298,98.7043704 16.3353298,98.7183704 16.3503298,98.7253704 L16.3293298,98.7263704 L16.3293298,98.7243704 C16.3293298,98.7163704 16.3533298,98.7083704 16.3553298,98.7003704 C17.4253298,98.8243704 21.2823298,98.9153704 20.0773298,96.8053704 C19.9333298,96.5553704 19.6423298,96.2753704 19.4333298,95.9763704 C19.5783298,95.9243704 19.7153298,95.8503704 19.8103298,95.7623704 C19.9973298,95.5913704 19.9303298,95.3443704 20.2713298,95.4053704 C20.4283298,95.4343704 20.5793298,95.7213704 20.6943298,95.8143704 C20.7103298,95.8273704 20.7263298,95.8393704 20.7433298,95.8523704 C20.7073298,96.2213704 20.6923298,96.6003704 20.6903298,97.0123704 C20.6863298,97.9743704 20.7073298,98.9283704 20.8413298,99.8823704 C20.9033298,100.31737 20.9623298,100.91137 21.3213298,101.23337 C21.6863298,101.27037 21.7933298,101.27137 22.1163298,101.65137 C22.2733298,101.83637 22.2463298,101.98737 22.4913298,102.09937 C22.3673298,101.99837 22.3273298,101.86437 22.3903298,101.72237 C22.5623298,101.84337 22.6973298,101.96837 22.8833298,102.04837 C23.0733298,102.12837 23.2553298,102.07737 23.4223298,102.22937 C23.7073298,102.49037 23.8053298,103.58537 23.4283298,103.78037 C23.2693298,103.86137 22.9203298,103.59937 22.7893298,103.83037 C22.6713298,104.03737 22.8873298,104.29537 22.9983298,104.48637 C23.2583298,104.93537 24.3643298,105.90237 24.1213298,106.26537 C24.7043298,106.17637 26.7733298,106.50637 25.7723298,107.29437 C26.0903298,107.31637 26.4313298,107.32837 26.7123298,107.16237 C27.0293298,106.97437 26.9443298,106.87937 27.2463298,106.97137 C27.5083298,107.05037 28.3623298,108.24737 28.4113298,108.52237 C28.4483298,108.72637 28.4603298,108.85337 28.2703298,108.98537 C28.7123298,109.68637 29.5683298,109.98637 30.0613298,110.61637 C30.5603298,111.25437 29.8603298,111.06637 29.8933298,111.62237 C30.2943298,111.81237 30.8773298,112.25037 31.1543298,112.56037 C31.5653298,113.02037 31.1183298,113.18937 31.0483298,113.74637 C30.9723298,114.36037 31.5573298,114.20137 32.0693298,114.19037 C32.6303298,114.17737 33.1193298,114.11337 33.6063298,113.82237 C33.8863298,113.65537 34.1423298,113.32137 34.4403298,113.19737 C34.9513298,112.98237 34.9653298,113.44637 35.3883298,113.51837 C35.5273298,113.54137 35.5023298,113.37037 35.6333298,113.35637 C35.7983298,113.33937 35.9663298,113.33437 36.1373298,113.33837 C36.5003298,113.34637 36.8433298,113.37937 37.1803298,113.22637 C37.7153298,112.98337 37.7793298,112.52837 38.1193298,112.11137 C38.4593298,111.69537 38.6543298,112.06737 39.0123298,111.84937 C39.4423298,111.58737 39.4233298,110.84337 39.9963298,110.64137 C40.4993298,110.46337 41.1263298,110.68337 41.3313298,111.19737 C41.5783298,111.81437 41.0973298,112.58937 40.8523298,113.10137 C40.5313298,113.77237 40.0103298,114.64237 40.5083298,115.26237 C40.8463298,115.68237 40.9343298,115.68537 40.9383298,116.24937 C40.9423298,116.72837 40.8703298,117.23137 40.9493298,117.70337 C41.3253298,117.79937 41.7483298,117.70037 42.1333298,117.70437 C43.0543298,117.71337 44.0023298,117.88637 44.8863298,118.13337 C45.6493298,118.34637 47.1813298,118.54337 46.9993298,119.62237 C46.7203298,121.25937 44.5333298,122.15437 44.4403298,123.81037 C44.4183298,124.20637 44.4493298,124.28337 44.7413298,124.50837 C45.2123298,124.87237 46.2803298,124.91437 46.8793298,125.07437 C47.2803298,125.18237 47.7903298,125.27537 48.2843298,125.38937 C48.0073298,127.25337 48.2663298,129.84137 49.8733298,129.37137 C47.8863298,130.79437 52.4523298,131.89637 53.2493298,131.90737 C54.1573298,131.92037 55.1373298,131.77937 56.0123298,131.96237 C56.4263298,132.04937 56.5013298,132.57537 56.9703298,132.60337 C57.5903298,132.63837 58.1433298,132.05237 58.7583298,131.97037 C59.5263298,133.19337 60.0993298,135.19137 62.0303298,134.31937 C63.5573298,133.62937 63.2583298,132.10737 65.1303298,131.89537 C67.3253298,131.64737 67.9993298,131.92537 69.5563298,130.01537 C70.8393298,128.44237 71.0563298,127.65337 73.1733298,127.43337 C73.9383298,123.37637 76.3033298,118.41837 71.0903298,116.54937 C70.9603298,116.50237 70.8153298,116.45837 70.6653298,116.41737 C70.5893298,116.18837 70.5133298,115.95837 70.4523298,115.72937 C70.3423298,115.32337 70.2913298,114.91537 70.3093298,114.50137 C70.3323298,113.64637 70.3403298,112.79537 70.5323298,111.99937 C70.6303298,111.60537 70.7793298,111.22837 71.0103298,110.94437 C71.2393298,110.65637 71.5593298,110.50237 71.9163298,110.46537 L71.9003298,110.34637 C72.1643298,110.38037 72.4223298,110.44137 72.6663298,110.53537 C72.9193298,110.63237 73.1563298,110.76137 73.3653298,110.92137 C73.5063298,111.02637 73.6113298,111.16537 73.7133298,111.34037 C73.7283298,111.52637 73.7523298,111.70937 73.7803298,111.86537 L73.5573298,112.28837 C73.5753298,112.37737 73.2723298,112.41337 73.2723298,112.43237 L73.2723298,112.44437 C73.2723298,112.44237 73.5743298,112.43237 73.5733298,112.42737 C73.5703298,112.42037 73.7223298,112.42037 73.7203298,112.42937 L73.7863298,112.57337 C73.7763298,112.72537 73.7883298,112.96237 73.7793298,113.32937 C73.7733298,113.57537 73.7833298,113.86937 73.8133298,114.27237 C73.8293298,114.47237 73.8673298,114.69537 73.9133298,114.92537 C73.9363298,115.04137 73.9673298,115.15637 73.9993298,115.27137 L74.0493298,115.44237 L74.0953298,115.58437 L74.2573298,116.14737 C74.3723298,116.55637 74.5023298,117.04137 74.6903298,117.58537 C74.7563298,117.77537 74.8343298,117.97737 74.9173298,118.17837 L74.9083298,118.52937 C74.9043298,118.80037 74.9083298,119.10237 74.9293298,119.42737 C74.9523298,119.75337 74.9933298,120.09737 75.0563298,120.43637 L75.2123298,121.19137 L75.7573298,123.80837 C75.8103298,124.08337 75.8613298,124.48337 75.9423298,124.99137 C75.9833298,125.24637 76.0333298,125.52837 76.1053298,125.84137 C76.1413298,125.99737 76.1823298,126.16037 76.2323298,126.33137 L76.3103298,126.61637 C76.3923298,126.94037 76.4643298,127.29237 76.5323298,127.68037 L76.6343298,128.28737 L76.6603298,128.44737 L76.7123298,128.71637 C76.7503298,128.89537 76.7913298,129.06837 76.8353298,129.23037 C77.0113298,129.88537 77.2203298,130.42037 77.4073298,130.88937 L77.6803298,131.55837 L77.9623298,132.21637 C78.0533298,132.42937 78.1423298,132.63337 78.2263298,132.83137 C78.2213298,132.97437 78.2123298,133.11537 78.2103298,133.26037 L78.2133298,133.74537 C78.2123298,133.80037 78.2203298,133.96537 78.2293298,134.10237 C78.2393298,134.23737 78.2523298,134.36537 78.2663298,134.48937 C78.3903298,135.46137 78.5663298,136.03337 78.6023298,136.30237 C78.6133298,136.36537 78.6193298,136.41237 78.6163298,136.42737 C78.6183298,136.44237 78.6123298,136.43337 78.6123298,136.43737 C78.6083298,136.42837 78.6053298,136.42337 78.6033298,136.42737 C78.6003298,136.43737 78.6003298,136.48837 78.6063298,136.61037 C78.6113298,136.72937 78.6223298,136.92437 78.6493298,137.17537 C78.6753298,137.42437 78.7223298,137.72637 78.7923298,138.03237 C78.8273298,138.18637 78.8673298,138.33937 78.9113298,138.49137 C78.9253298,138.54137 78.9133298,138.50337 78.9163298,138.51337 L78.9133298,138.51037 C78.9133298,138.51037 78.9123298,138.51437 78.9113298,138.51637 C78.9123298,138.54737 78.9413298,138.71837 79.0043298,139.02537 C79.0663298,139.32537 79.1733298,139.79337 79.3683298,140.32137 C79.5493298,140.81337 79.7143298,141.14937 79.7933298,141.33637 C79.8783298,141.52737 79.8753298,141.56037 79.8343298,141.47537 L79.8263298,141.45837 C79.8213298,141.44537 79.8223298,141.44837 79.8323298,141.48037 L79.8743298,141.61337 L79.9563298,141.86037 L80.1023298,142.28037 C80.1903298,142.52837 80.2553298,142.71337 80.2903298,142.83537 L80.4293298,143.32937 C80.5363298,143.71037 80.6373298,144.09837 80.7323298,144.49137 C80.8283298,144.88437 80.9183298,145.28137 81.0023298,145.68037 L81.1233298,146.28037 L81.1523298,146.43137 L81.2003298,146.65437 L81.3043298,147.11037 C81.5943298,148.29437 81.9293298,149.29237 82.2023298,150.15537 C82.2953298,150.44537 82.3813298,150.72137 82.4543298,150.96937 C82.4533298,151.06437 82.4523298,151.19137 82.4443298,151.35337 C82.4333298,151.69237 82.3983298,152.18337 82.4003298,152.78537 C82.4043298,153.86937 82.4473298,154.69637 82.4073298,155.31237 C82.3903298,155.61337 82.3533298,155.84937 82.3183298,155.96137 C82.3113298,155.99637 82.3013298,156.00937 82.2963298,156.02037 C82.2913298,156.04137 82.2843298,156.02637 82.2843298,156.02637 C82.2783298,156.03537 82.2333298,156.12237 82.0953298,156.45037 C82.0583298,156.54037 82.0253298,156.61937 81.9783298,156.74937 L81.9133298,156.93537 L81.8413298,157.16237 C81.7483298,157.49237 81.6503298,157.90337 81.6233298,158.43037 C81.5903298,158.93737 81.6463298,159.52137 81.7783298,160.02637 C81.8103298,160.15237 81.8463298,160.27737 81.8863298,160.40037 C81.9253298,160.52137 81.9663298,160.62437 82.0103298,160.73537 C82.0493298,160.83137 82.0933298,160.93537 82.1353298,161.02237 L82.1123298,161.82637 L82.0913298,162.48137 L82.0853298,162.72737 C82.0843298,162.73637 82.0843298,162.76537 82.0833298,162.75737 L82.0843298,162.65937 C82.0873298,162.56737 82.0863298,162.58437 82.0793298,162.64137 C82.0723298,162.70037 82.0613298,162.80537 82.0513298,162.96637 C82.0433298,163.13137 82.0313298,163.34537 82.0573298,163.70237 C82.0633298,163.78437 82.0743298,163.89037 82.0903298,164.00537 C82.1033298,164.10437 82.1303298,164.25637 82.1603298,164.39037 C82.1853298,164.51137 82.2273298,164.65537 82.2763298,164.80537 C82.2823298,164.85437 82.2863298,164.89937 82.2943298,164.95337 C82.3223298,165.14737 82.3673298,165.34637 82.4193298,165.53337 C82.4173298,165.57237 82.4153298,165.61237 82.4123298,165.66337 L82.4033298,165.89237 C82.4013298,166.04437 82.4033298,166.20937 82.4123298,166.37037 C82.4283298,166.69337 82.4713298,167.01837 82.5193298,167.27537 C82.5423298,167.39937 82.5643298,167.50637 82.5833298,167.59637 L82.5613298,167.82637 L82.5443298,168.13437 L82.5363298,168.39637 L82.4743298,169.71237 C82.4653298,169.97237 82.4593298,170.25337 82.4613298,170.55537 L82.4643298,170.78737 L82.4663298,170.90637 L82.4743298,171.07637 C82.4923298,171.38937 82.5283298,171.65737 82.5613298,171.87337 C82.6323298,172.30337 82.6793298,172.52537 82.6743298,172.55437 C82.6733298,172.56137 82.6723298,172.55837 82.6683298,172.54237 L82.6653298,172.52937 C82.6623298,172.51137 82.6633298,172.52337 82.6713298,172.58437 L82.7063298,172.84237 C82.7573298,173.17837 82.8293298,173.46837 82.8813298,173.66637 L82.9763298,174.02637 C82.9863298,174.07337 82.9723298,174.03537 82.9753298,174.06237 C82.9793298,174.10537 83.0023298,174.27537 83.0553298,174.60137 C83.0843298,174.76237 83.1203298,174.95837 83.1733298,175.18137 C83.1823298,175.22237 83.1813298,175.22237 83.1763298,175.20337 L83.1683298,175.17137 L83.1553298,175.12437 C83.1483298,175.09837 83.1443298,175.08737 83.1433298,175.08737 C83.1403298,175.09037 83.1453298,175.15337 83.1563298,175.27437 C83.1683298,175.39637 83.1863298,175.57637 83.2213298,175.81337 C83.2393298,175.92937 83.2613298,176.06237 83.2923298,176.20737 C83.3153298,176.33137 83.3753298,176.56437 83.3763298,176.57237 L83.4473298,176.88537 C83.4903298,177.07537 83.5133298,177.20537 83.5223298,177.28337 C83.5323298,177.36437 83.5273298,177.39037 83.5233298,177.41737 L83.3673298,177.45937 C83.3663298,177.47037 83.2153298,177.47537 83.2153298,177.49237 L83.2153298,177.81837 C83.2153298,178.67437 83.4793298,190.26937 83.4993298,190.56937 C83.5113298,190.72337 83.5853298,190.50037 83.5793298,190.53537 C83.5733298,190.47237 83.6043298,190.50037 83.5963298,190.50037 L83.5293298,190.50037 C83.5173298,191.40337 83.6613298,190.18937 83.7473298,190.53537 C83.7883298,190.71437 83.8033298,190.53737 83.8033298,190.55237 C83.8023298,190.56337 83.7933298,190.64437 83.7773298,190.56137 C83.7543298,190.43437 83.7553298,190.46037 83.7473298,190.53037 C83.7363298,190.68237 83.6913298,189.59637 83.6493298,190.50037 L83.5603298,190.50037 L88.8233298,190.50037 C88.8403298,190.50037 88.8523298,190.51037 88.8533298,190.50037 C88.8553298,190.49337 88.8503298,190.50037 88.8423298,190.50037 L93.8903298,190.50037 L93.8713298,190.50037 L95.0133298,190.50037 C95.0443298,191.40337 95.0603298,190.50037 95.0393298,190.50037 L101.61033,190.50037 C101.61833,189.59637 101.52033,191.40337 101.44433,190.50037 L102.45733,190.50037 C102.36433,189.59637 102.22033,190.95737 102.09833,190.53537 C101.97333,190.11037 101.86933,190.70237 101.80233,190.51737 C101.77133,190.43237 101.74933,190.50037 101.73333,190.50037 L101.73533,190.50037 L101.71533,190.50037 C101.70933,190.50037 101.69633,190.68437 101.68233,190.53537 C101.67833,190.49237 101.66133,190.70037 101.64233,190.55237 C101.62333,190.40437 101.60033,190.69437 101.57733,190.56137 C101.51533,190.22737 101.44533,190.75937 101.39033,190.56537 C101.38433,190.47037 101.37933,190.67237 101.36933,190.56737 C101.34033,190.26637 101.29633,190.87837 101.22133,190.53437 C101.16433,190.27437 101.19333,190.50037 101.19533,190.50037 L101.20933,190.50037 C101.22433,190.50037 101.22433,190.53537 101.21533,190.50037 C101.20633,190.45937 101.19033,190.50037 101.16233,190.50037 L101.00133,190.50037 C100.90433,190.50037 100.80233,190.75137 100.73033,190.53537 C100.69433,190.43737 100.66833,190.61137 100.64633,190.55237 C100.61833,190.26837 100.56733,177.64637 100.45933,177.14637 L100.38033,176.82437 L100.33733,176.67637 L100.24933,176.38837 C100.19033,176.20037 100.13233,176.02637 100.07433,175.86237 C99.8413298,175.20737 99.6333298,174.72737 99.5013298,174.40237 L99.3453298,174.02437 C99.2953298,173.88937 99.2463298,173.75337 99.2013298,173.61837 C99.1123298,173.34937 99.0363298,173.08537 98.9773298,172.84437 L98.9363298,172.66737 L98.9163298,172.56737 L98.8723298,172.30237 C98.8113298,171.95737 98.7463298,171.63837 98.6813298,171.34937 C98.5513298,170.77637 98.4283298,170.31237 98.3383298,169.95337 L98.2243298,169.49537 L98.1853298,169.32637 L98.1703298,169.25737 L98.1623298,169.22537 L98.1433298,169.09937 C97.9443298,167.74937 97.6433298,166.68137 97.4133298,165.82637 L97.2733298,165.20937 C97.2263298,165.01437 97.1883298,164.84437 97.1493298,164.64737 C97.0713298,164.26037 97.0013298,163.84437 96.9273298,163.39737 C96.8533298,162.95037 96.7753298,162.47537 96.6773298,161.97637 C96.6283298,161.72437 96.5753298,161.46937 96.5123298,161.20737 C96.4463298,160.93437 96.3953298,160.71337 96.2783298,160.33537 C96.1723298,160.00937 96.0743298,159.76837 96.0133298,159.60337 L96.0113298,159.59937 C95.9983298,159.46737 95.9773298,159.22737 95.9083298,158.92037 L95.8423298,158.66237 C95.8203298,158.56437 95.8023298,158.46437 95.7903298,158.32637 C95.7773298,158.19037 95.7693298,158.01437 95.7653298,157.81137 L95.7423298,157.07937 C95.7323298,156.85837 95.7253298,156.66337 95.7233298,156.49537 L95.7243298,156.26437 C95.7233298,156.24937 95.7233298,156.21937 95.7273298,156.17837 C95.7433298,156.00237 95.8313298,155.66037 95.9603298,155.19837 L96.1323298,154.57737 C96.1963298,154.35237 96.2753298,154.08337 96.3473298,153.76037 C96.3833298,153.59937 96.4193298,153.42537 96.4473298,153.23237 C96.4613298,153.13837 96.4733298,153.03537 96.4833298,152.93237 L96.4963298,152.77337 L96.5033298,152.65337 C96.5173298,152.33637 96.6713298,152.04737 96.6643298,151.78637 C96.6473298,151.25437 96.7723298,150.85437 96.7723298,150.49937 L96.7723298,149.80737 L96.6073298,149.38737 L96.5183298,149.15737 L96.4653298,148.96537 C96.4563298,148.87337 96.4233298,148.77737 96.4073298,148.68237 C96.3743298,148.49437 96.3123298,148.30737 96.2693298,148.17937 C96.2563298,148.13837 96.2383298,148.10437 96.2273298,148.07437 C96.2303298,147.98037 96.2303298,147.85937 96.2253298,147.70037 C96.2203298,147.56637 96.2053298,147.39737 96.1773298,147.22737 C96.1473298,147.04237 96.1043298,146.87637 96.0623298,146.73937 C96.0183298,146.60137 95.9803298,146.49737 95.9523298,146.42437 C95.9553298,146.35037 95.9583298,146.25537 95.9583298,146.13037 L95.9383298,145.09937 L95.9273298,144.46737 C95.9273298,144.30037 95.9303298,144.13337 95.9433298,143.96437 C95.9653298,143.62637 96.0133298,143.28337 96.0853298,142.92937 C96.1563298,142.57437 96.2523298,142.20937 96.3673298,141.83437 C96.5143298,141.36237 96.6413298,140.90637 96.7623298,140.48437 C96.8823298,140.06037 97.0003298,139.66737 97.1223298,139.31037 C97.1813298,139.13537 97.2503298,138.95437 97.3083298,138.81337 C97.3643298,138.67837 97.4333298,138.52937 97.5173298,138.36637 C97.6863298,138.03937 97.9103298,137.66237 98.1553298,137.21837 C98.2773298,136.99537 98.4053298,136.75437 98.5293298,136.49237 C98.5893298,136.36937 98.6593298,136.20837 98.7073298,136.09537 L98.7963298,135.87737 C99.0743298,136.00037 99.3423298,136.09837 99.5773298,136.16737 C101.21833,136.65337 104.52833,135.43137 105.74533,137.04537 C106.43133,137.95737 105.33333,139.70437 107.09033,139.08937 C108.01033,138.76837 108.62933,137.07137 109.12433,136.35237 C110.33933,136.95437 110.27233,136.80037 111.43933,136.13337 C112.02033,135.80037 112.74233,135.50937 113.35633,135.10137 C113.59033,135.56637 113.64033,136.17837 114.10233,136.85637 C117.47833,136.05537 121.37733,134.57437 121.48633,130.68837 C121.53533,128.93237 121.83033,126.74037 121.50333,125.01137 C121.45933,124.77837 121.41233,124.52337 121.35933,124.25837 C121.85733,123.97537 122.34333,123.67837 122.90733,123.50437 C123.45533,124.27837 123.46533,125.13037 124.65033,125.02837 C125.41233,124.96237 126.15133,124.66837 126.92433,124.60437 C127.95933,124.51737 128.84233,123.80837 129.81533,123.46337 C130.37933,123.26437 130.76733,123.26737 131.09433,122.74937 C131.33033,122.37837 131.53833,121.86237 131.71733,121.45837 C132.06433,120.67737 132.02533,119.33637 131.92333,118.49537 C131.53233,118.30537 131.03633,118.53537 130.62733,118.54537 C130.42233,118.29737 130.54033,117.75237 130.28633,117.57137 C129.98333,117.35437 129.54833,117.59437 129.22233,117.60837 C129.19833,117.26037 129.32933,116.86037 128.94633,116.67937 C128.58233,116.50737 127.93233,116.86737 127.54333,116.88137 C127.53933,116.19137 127.35733,115.93337 126.83833,115.84937 C127.02533,115.80937 127.21233,115.76637 127.39833,115.72437 C127.86033,115.76437 128.32033,115.83737 128.75833,115.98837 C129.05233,116.09137 129.34033,116.23937 129.55133,116.47337 C129.76633,116.70837 129.83633,117.04337 129.78333,117.35437 C129.84233,117.04537 129.78033,116.70437 129.56633,116.46037 C129.35733,116.21837 129.06733,116.06237 128.77233,115.95137 C128.38933,115.81137 127.99133,115.73237 127.58933,115.68037 C128.87033,115.38237 130.14333,115.03337 131.41233,114.74937 C131.45533,115.30037 130.20333,115.79937 129.94533,116.21837 C131.96633,115.73837 134.09133,115.26137 135.95533,116.47437 C136.52433,116.84537 137.15433,117.01237 137.66233,117.40337 C137.91433,117.59737 138.32733,117.82637 138.41633,118.14237 C138.62833,118.90137 137.90333,119.88437 137.34333,120.29937 C137.72033,120.69237 138.61033,120.73537 139.11633,120.62137 C140.20933,120.37337 141.04833,118.91437 142.20933,118.96837 C142.61533,119.36137 142.28533,120.13137 142.17233,120.69237 C142.33733,120.13137 143.04333,119.98237 143.40633,120.56837 C143.29133,119.97337 143.95433,119.79837 144.37333,119.60837 C145.11133,119.27237 145.92433,118.87337 146.61233,118.44037 C146.83833,118.29837 147.07733,117.98237 147.30233,117.86737 C147.77933,117.62537 147.93333,118.05537 148.40833,118.23937 C149.32433,118.59237 150.33333,117.40437 150.93433,116.87037 C151.36333,116.48937 151.42733,116.51937 152.00633,116.44037 C153.04433,116.29737 153.96733,115.56137 155.04733,115.63937 C155.21833,115.94237 155.11233,116.37337 154.93533,116.65237 C155.87333,117.11537 156.99033,115.78437 157.77433,114.94237 C157.71533,114.54637 157.79333,114.05137 157.80233,113.67437 C158.02033,113.40837 158.27633,112.79937 158.38333,112.61137 C158.54733,112.32437 159.00533,111.70737 158.82733,111.31337 C158.65233,111.41137 158.46433,111.46537 158.26233,111.47537 C158.24633,110.70537 159.05033,110.02137 159.36533,109.25837 C159.41433,109.27037 159.46333,109.28037 159.51033,109.30137 C160.61333,109.77637 161.07233,110.94337 162.43633,110.85637 C163.29533,110.80137 164.33033,110.43437 165.10233,110.06037 C165.76433,109.74037 166.44333,108.86337 167.25133,108.92037 C168.12233,108.98137 167.95633,110.22137 168.64533,110.33737 C168.79333,110.36237 169.11733,110.22337 169.27233,110.20537 C169.75133,110.15237 170.06733,110.04137 170.51233,109.80437 C171.27033,109.40237 172.33133,109.04637 172.40633,108.12537 C172.43633,107.75437 172.48633,106.65537 172.98233,106.67637 C173.71433,108.01737 175.48633,107.71237 176.79333,107.70337 C177.49133,107.69837 178.09833,107.88637 178.77333,107.91937 C179.20033,107.94037 179.68033,107.82937 180.09233,107.94737 C180.03833,108.60237 180.74633,108.24737 180.92633,107.92137 C181.15833,107.50137 180.96133,106.46537 180.96333,106.03337 Z" fill="#313934"></path>
    </g>
</svg>