<?xml version="1.0" encoding="UTF-8"?>
<svg width="171px" height="180px" viewBox="0 0 171 180" version="1.1" xmlns="http://www.w3.org/2000/svg" xmlns:xlink="http://www.w3.org/1999/xlink">
    <!-- Generator: Sketch 51.3 (57544) - http://www.bohemiancoding.com/sketch -->
    <title>Fill 27 Copy</title>
    <desc>Created with Sketch.</desc>
    <defs></defs>
    <g id="tree" stroke="none" stroke-width="1" fill="none" fill-rule="evenodd">
        <path d="M140.673182,44.9077609 C140.688182,44.6447609 140.717182,44.3857609 140.771182,44.1217609 C140.860182,43.6697609 140.996182,43.2257609 141.143182,42.7797609 C141.869182,42.8467609 142.474182,42.7167609 143.223182,42.9427609 C144.566182,43.3487609 144.528182,44.3497609 145.405182,44.9937609 C145.373182,45.0507609 145.339182,45.1077609 145.309182,45.1667609 C145.108182,45.5277609 144.924182,45.9177609 144.608182,46.1707609 C144.451182,46.3027609 144.275182,46.4217609 144.126182,46.5827609 C143.980182,46.7427609 143.896182,46.9307609 143.816182,47.1177609 C143.683182,46.1597609 143.301182,45.3837609 142.517182,45.0747609 C141.911182,44.8357609 141.292182,44.8057609 140.673182,44.9077609 Z M140.298182,44.9857609 C138.501182,45.4267609 136.730182,46.8507609 135.316182,47.3857609 C134.927182,45.7517609 135.233182,44.2387609 136.058182,42.8277609 C136.416182,42.2147609 136.293182,41.9677609 137.089182,41.7607609 C137.509182,41.6507609 138.484182,41.7647609 138.861182,41.8707609 C139.587182,42.0747609 140.081182,42.5727609 140.819182,42.7307609 C140.669182,43.1597609 140.527182,43.5957609 140.426182,44.0497609 C140.357182,44.3527609 140.316182,44.6707609 140.298182,44.9857609 Z M126.808182,98.8697609 C126.257182,99.3277609 125.683182,99.7577609 125.088182,100.148761 C124.791182,100.343761 124.488182,100.530761 124.182182,100.702761 L123.692182,100.976761 C123.520182,101.076761 123.350182,101.179761 123.185182,101.288761 C122.522182,101.720761 121.924182,102.209761 121.350182,102.690761 C120.775182,103.171761 120.225182,103.649761 119.662182,104.075761 C119.596182,104.123761 119.515182,104.188761 119.459182,104.225761 C119.410182,104.261761 119.355182,104.293761 119.298182,104.326761 C119.180182,104.391761 119.045182,104.451761 118.893182,104.510761 C118.589182,104.629761 118.218182,104.739761 117.813182,104.924761 C117.615182,105.013761 117.394182,105.137761 117.211182,105.261761 C117.087182,105.344761 116.956182,105.420761 116.811182,105.496761 C116.521182,105.649761 116.167182,105.800761 115.785182,106.025761 C115.312182,106.316761 115.003182,106.676761 114.744182,107.022761 C114.484182,107.372761 114.280182,107.725761 114.093182,108.071761 C113.360182,109.447761 112.843182,110.744761 111.898182,111.522761 C111.642182,111.750761 111.311182,112.015761 110.997182,112.390761 C110.920182,112.482761 110.845182,112.581761 110.774182,112.686761 L110.608182,112.941761 C110.506182,113.099761 110.415182,113.241761 110.332182,113.352761 C110.171182,113.571761 109.995182,113.733761 109.725182,113.947761 C109.456182,114.161761 109.129182,114.398761 108.797182,114.719761 C108.631182,114.881761 108.461182,115.068761 108.306182,115.299761 C108.228182,115.416761 108.155182,115.543761 108.090182,115.683761 C108.015182,115.846761 107.964182,116.021761 107.935182,116.176761 C107.878182,116.492761 107.884182,116.706761 107.866182,116.788761 C107.864182,116.805761 107.861182,116.814761 107.859182,116.824761 C107.852182,116.836761 107.829182,116.879761 107.809182,116.909761 C107.655182,117.157761 107.430182,117.478761 107.256182,117.690761 C107.202182,117.753761 107.239182,117.706761 107.230182,117.717761 C107.222182,117.720761 107.204182,117.733761 107.167182,117.749761 C107.099182,117.783761 106.965182,117.826761 106.806182,117.873761 C106.776182,117.882761 106.739182,117.893761 106.707182,117.902761 C107.047182,116.608761 107.344182,115.367761 107.826182,114.269761 L107.928182,114.042761 C107.956182,113.987761 107.985182,113.928761 108.022182,113.868761 C108.093182,113.748761 108.175182,113.624761 108.274182,113.496761 C108.469182,113.239761 108.706182,112.972761 108.960182,112.681761 C109.207182,112.397761 109.495182,112.059761 109.730182,111.701761 C109.954182,111.367761 110.159182,111.032761 110.357182,110.703761 C110.749182,110.046761 111.112182,109.413761 111.513182,108.848761 C111.716182,108.559761 111.915182,108.310761 112.152182,108.041761 L112.541182,107.590761 L112.910182,107.127761 C113.875182,105.881761 114.674182,104.556761 115.435182,103.252761 C116.198182,101.951761 116.933182,100.659761 117.775182,99.4717609 C118.606182,98.2847609 119.589182,97.2017609 120.641182,96.1587609 C121.640182,95.1657609 122.696182,94.2057609 123.734182,93.2047609 C123.801182,93.2757609 123.859182,93.3487609 123.904182,93.4257609 C124.233182,93.9927609 124.375182,95.1477609 124.436182,95.7847609 C124.609182,97.6447609 126.049182,97.2277609 126.899182,98.5767609 C126.929182,98.6237609 126.958182,98.6687609 126.988182,98.7147609 L126.808182,98.8697609 Z M106.330182,112.837761 C106.267182,112.937761 106.206182,113.044761 106.149182,113.156761 L106.011182,113.441761 C105.313182,114.938761 104.959182,116.459761 104.532182,117.860761 C104.426182,118.208761 104.318182,118.554761 104.199182,118.884761 L103.990182,119.457761 C103.833182,119.581761 103.679182,119.715761 103.531182,119.863761 C103.191182,120.201761 102.920182,120.583761 102.696182,120.948761 C102.235182,121.688761 101.937182,122.529761 101.734182,123.291761 C101.555182,123.961761 101.425182,124.599761 101.280182,125.194761 C101.174182,125.412761 101.066182,125.621761 100.951182,125.804761 C100.868182,125.935761 100.794182,126.039761 100.697182,126.164761 L100.361182,126.583761 L99.6471825,127.441761 C99.4021825,127.733761 99.1541825,128.034761 98.9091825,128.348761 C98.6471825,128.685761 98.4151825,129.030761 98.2071825,129.340761 C97.9981825,129.652761 97.8061825,129.933761 97.6121825,130.171761 L97.4671825,130.344761 L97.2711825,130.571761 C97.1391825,130.721761 97.0121825,130.881761 96.8831825,131.038761 C96.8391825,131.094761 96.7961825,131.153761 96.7531825,131.209761 C96.7281825,131.076761 96.7021825,130.946761 96.6771825,130.811761 C96.5101825,129.932761 96.3271825,128.991761 96.0161825,128.040761 L95.8921825,127.684761 L95.7681825,127.354761 C95.6971825,127.170761 95.6301825,126.981761 95.5661825,126.786761 C95.4401825,126.398761 95.3241825,125.989761 95.2051825,125.562761 C95.0891825,125.142761 94.9591825,124.676761 94.8271825,124.250761 C94.7501825,123.997761 94.6821825,123.742761 94.6161825,123.486761 C94.7811825,123.023761 94.9521825,122.565761 95.1471825,122.120761 C95.2631825,121.836761 95.3911825,121.579761 95.5241825,121.288761 C95.6661825,120.991761 95.8011825,120.693761 95.9321825,120.396761 C96.4521825,119.205761 96.8951825,118.032761 97.4301825,116.945761 C97.6961825,116.402761 97.9851825,115.881761 98.3111825,115.392761 C98.6361825,114.891761 98.9911825,114.490761 99.4331825,113.933761 C100.259182,112.872761 100.920182,111.701761 101.451182,110.498761 C101.583182,110.198761 101.710182,109.895761 101.828182,109.590761 C101.948182,109.286761 102.060182,108.987761 102.170182,108.655761 C102.377182,108.008761 102.517182,107.383761 102.689182,106.815761 C102.861182,106.247761 103.073182,105.742761 103.393182,105.342761 C103.548182,105.136761 103.737182,104.974761 103.949182,104.806761 C104.197182,104.623761 104.449182,104.445761 104.704182,104.271761 C105.725182,103.576761 106.804182,102.960761 107.917182,102.392761 C109.041182,101.838761 110.213182,101.228761 111.286182,100.496761 C111.305182,100.484761 111.322182,100.469761 111.341182,100.456761 C111.447182,100.607761 111.575182,100.738761 111.745182,100.830761 C112.327182,100.494761 112.670182,99.9277609 112.873182,99.2777609 C113.356182,98.8567609 113.815182,98.4097609 114.243182,97.9507609 C114.685182,97.4827609 115.108182,97.0037609 115.528182,96.5317609 L116.159182,95.8257609 C116.268182,95.7037609 116.362182,95.6077609 116.490182,95.4537609 C116.609182,95.3097609 116.713182,95.1487609 116.797182,94.9877609 C116.963182,94.6597609 117.057182,94.3807609 117.196182,94.1417609 C117.308182,93.9307609 117.511182,93.7487609 117.753182,93.5117609 C117.869182,93.3977609 118.004182,93.2497609 118.103182,93.1097609 C118.202182,92.9747609 118.296182,92.8357609 118.385182,92.6967609 C118.563182,92.4167609 118.722182,92.1307609 118.871182,91.8447609 C118.990182,91.6167609 119.101182,91.3877609 119.212182,91.1597609 C119.897182,91.4047609 120.508182,91.6617609 120.930182,91.8467609 C121.338182,92.0247609 121.992182,92.2247609 122.595182,92.4877609 C121.628182,93.3657609 120.633182,94.2297609 119.661182,95.1457609 C118.552182,96.1917609 117.471182,97.3177609 116.540182,98.5757609 C115.609182,99.8217609 114.819182,101.131761 114.027182,102.404761 C113.238182,103.679761 112.442182,104.917761 111.534182,106.030761 L111.189182,106.440761 L110.830182,106.835761 C110.561182,107.123761 110.279182,107.454761 110.042182,107.776761 C109.557182,108.427761 109.154182,109.094761 108.758182,109.717761 C108.560182,110.030761 108.363182,110.331761 108.160182,110.617761 C107.975182,110.884761 107.768182,111.115761 107.515182,111.392761 C107.267182,111.662761 106.994182,111.950761 106.725182,112.285761 C106.590182,112.451761 106.457182,112.637761 106.330182,112.837761 Z M95.1281825,114.782761 C95.2291825,114.520761 95.3471825,114.253761 95.4751825,113.971761 C95.6251825,113.643761 95.7891825,113.298761 95.9371825,112.919761 C96.0851825,112.549761 96.2181825,112.125761 96.3011825,111.729761 C96.4711825,110.959761 96.5601825,110.210761 96.6611825,109.505761 C96.7121825,109.153761 96.7651825,108.810761 96.8321825,108.478761 L96.8901825,108.185761 C96.9101825,108.065761 96.9251825,107.948761 96.9341825,107.834761 C96.9521825,107.609761 96.9541825,107.401761 96.9541825,107.213761 C96.9541825,107.025761 96.9521825,106.858761 96.9591825,106.708761 C96.9611825,106.632761 96.9671825,106.564761 96.9741825,106.496761 L96.9851825,106.401761 L97.0071825,106.268761 C97.2351825,106.476761 97.4561825,106.623761 97.6601825,106.638761 C98.4161825,106.692761 99.3221825,105.914761 99.9391825,105.632761 C99.9861825,105.317761 100.164182,105.156761 100.472182,105.148761 C100.774182,105.235761 101.070182,105.220761 101.358182,105.105761 C101.745182,103.773761 101.453182,101.878761 101.429182,100.479761 C101.417182,99.8207609 101.224182,98.7267609 102.128182,98.6027609 C102.861182,98.5017609 103.078182,99.1887609 103.965182,99.0347609 C104.441182,98.9527609 105.089182,98.6377609 105.654182,98.4977609 C106.539182,98.2807609 107.032182,98.1307609 108.000182,98.1317609 C108.871182,98.1327609 109.678182,97.9307609 110.371182,98.5677609 C110.631182,98.8067609 110.775182,99.1397609 110.903182,99.4817609 C110.837182,99.5247609 110.774182,99.5717609 110.707182,99.6137609 C109.662182,100.277761 108.565182,100.808761 107.399182,101.339761 C106.238182,101.887761 105.092182,102.493761 103.995182,103.192761 C103.721182,103.367761 103.449182,103.546761 103.182182,103.732761 C102.889182,103.945761 102.588182,104.192761 102.350182,104.485761 C101.858182,105.065761 101.563182,105.747761 101.348182,106.382761 C101.135182,107.021761 100.979182,107.629761 100.780182,108.184761 C100.683182,108.451761 100.565182,108.742761 100.443182,109.024761 C100.323182,109.307761 100.196182,109.584761 100.066182,109.860761 C99.5381825,110.958761 98.9101825,111.990761 98.1491825,112.908761 C97.7911825,113.333761 97.2911825,113.872761 96.9091825,114.425761 C96.5161825,114.979761 96.1721825,115.559761 95.8611825,116.144761 C95.5391825,116.752761 95.2531825,117.365761 94.9781825,117.969761 L94.9571825,116.124761 L94.9471825,115.374761 C95.0101825,115.178761 95.0691825,114.981761 95.1281825,114.782761 Z M113.165182,96.2767609 C113.158182,94.6257609 113.021182,91.4867609 114.851182,90.6387609 C115.737182,90.2277609 117.216182,90.5147609 118.557182,90.9397609 C118.456182,91.1307609 118.356182,91.3237609 118.251182,91.5097609 C118.100182,91.7807609 117.941182,92.0437609 117.772182,92.2937609 C117.687182,92.4187609 117.599182,92.5407609 117.506182,92.6577609 C117.419182,92.7737609 117.335182,92.8577609 117.224182,92.9627609 C117.012182,93.1617609 116.718182,93.3947609 116.514182,93.7397609 C116.325182,94.0437609 116.204182,94.3667609 116.073182,94.5977609 C115.945182,94.8367609 115.779182,94.9957609 115.537182,95.2447609 L114.879182,95.9367609 C114.443182,96.3977609 114.013182,96.8557609 113.570182,97.2947609 C113.428182,97.4377609 113.282182,97.5737609 113.137182,97.7097609 C113.170182,97.1987609 113.167182,96.7017609 113.165182,96.2767609 Z M91.1121825,100.774761 C91.0761825,101.009761 91.0451825,101.244761 91.0211825,101.478761 C90.9281825,102.367761 90.9171825,103.237761 90.9151825,104.084761 L90.9171825,105.090761 C90.9101825,105.141761 90.9041825,105.190761 90.8981825,105.241761 C90.8481825,105.617761 90.7981825,106.005761 90.7631825,106.407761 C90.7451825,106.607761 90.7311825,106.811761 90.7241825,107.018761 C90.7141825,107.219761 90.7171825,107.451761 90.7131825,107.605761 C90.7011825,108.292761 90.6131825,108.997761 90.4911825,109.713761 C90.4751825,109.810761 90.4541825,109.909761 90.4371825,110.006761 L90.4341825,109.994761 C90.4181825,109.923761 90.4091825,109.872761 90.3941825,109.780761 L90.2241825,108.763761 C90.1081825,108.079761 89.9831825,107.383761 89.8211825,106.686761 L89.6931825,106.162761 C89.6511825,106.001761 89.6171825,105.861761 89.5851825,105.705761 C89.5231825,105.402761 89.4771825,105.087761 89.4371825,104.758761 L89.3801825,104.256761 L89.3641825,104.117761 C89.3581825,104.054761 89.3491825,103.992761 89.3351825,103.928761 C89.3121825,103.802761 89.2771825,103.675761 89.2341825,103.557761 C89.1491825,103.316761 89.0411825,103.125761 88.9651825,102.982761 C88.8851825,102.831761 88.8391825,102.742761 88.7831825,102.598761 C88.5481825,102.015761 88.3601825,101.367761 88.1441825,100.697761 C88.0351825,100.362761 87.9191825,100.020761 87.7781825,99.6727609 C87.7221825,99.5347609 87.6611825,99.3987609 87.6011825,99.2617609 C87.7361825,98.9597609 87.8671825,98.6537609 87.9831825,98.3357609 L88.0101825,98.2567609 C88.3171825,98.3047609 88.5231825,98.3647609 88.9851825,98.6017609 C89.1841825,98.7027609 89.2671825,98.9297609 89.4891825,99.0317609 C89.8651825,99.2027609 90.2561825,98.9197609 90.6531825,99.1397609 C90.8371825,99.2427609 90.9911825,99.4307609 91.1251825,99.6587609 L91.1121825,100.774761 Z M89.6091825,118.323761 C89.5911825,118.369761 89.5751825,118.412761 89.5561825,118.465761 C89.2881825,119.178761 89.0241825,119.900761 88.7761825,120.634761 C88.5281825,121.362761 88.3041825,122.140761 88.1031825,122.853761 L87.4751825,125.016761 C87.0461825,126.449761 86.5921825,127.861761 86.0671825,129.230761 C85.9461825,129.554761 85.7961825,129.886761 85.6441825,130.305761 C85.5681825,130.511761 85.4981825,130.734761 85.4411825,130.961761 C85.4311825,130.999761 85.4301825,131.001761 85.4301825,131.001761 L85.4251825,131.015761 L85.4051825,131.063761 L85.3101825,131.273761 C85.2651825,131.369761 85.2061825,131.499761 85.1541825,131.657761 C85.1281825,131.734761 85.1031825,131.820761 85.0821825,131.909761 C85.0731825,131.942761 85.0581825,132.028761 85.0481825,132.094761 C85.0401825,132.157761 85.0341825,132.223761 85.0321825,132.278761 C85.0241825,132.501761 85.0441825,132.659761 85.0571825,132.771761 C85.0661825,132.846761 85.0731825,132.905761 85.0761825,132.942761 L85.0731825,132.957761 C85.0621825,133.019761 85.0481825,133.082761 85.0291825,133.155761 L84.8841825,133.683761 C84.8271825,133.897761 84.7711825,134.150761 84.7401825,134.414761 L84.7081825,134.674761 L84.6701825,134.919761 C84.6141825,135.253761 84.5381825,135.613761 84.4641825,136.002761 L84.3621825,136.564761 L84.2561825,137.081761 C84.1811825,137.425761 84.0961825,137.768761 84.0011825,138.108761 C83.9061825,138.449761 83.8021825,138.786761 83.6891825,139.121761 L83.6881825,139.126761 C83.5571825,139.403761 83.4371825,139.676761 83.3281825,139.946761 C83.3001825,139.867761 83.2721825,139.786761 83.2441825,139.711761 L83.0051825,139.069761 L82.9151825,138.807761 C82.8931825,138.729761 82.8701825,138.648761 82.8491825,138.558761 C82.7631825,138.200761 82.7061825,137.737761 82.5851825,137.182761 C82.5541825,137.043761 82.5201825,136.901761 82.4771825,136.752761 C82.4401825,136.616761 82.3721825,136.425761 82.3441825,136.342761 L82.1271825,135.701761 L81.6791825,134.341761 C81.5991825,134.107761 81.5141825,133.870761 81.4231825,133.633761 L81.1561825,132.960761 C80.5561825,131.507761 80.5071825,129.779761 80.4831825,127.893761 L80.4761825,127.223761 C80.4781825,127.019761 80.4861825,126.812761 80.5021825,126.602761 C80.5331825,126.181761 80.5861825,125.751761 80.6571825,125.315761 C80.7271825,124.879761 80.8141825,124.438761 80.9071825,123.992761 C80.9521825,123.782761 81.0121825,123.513761 81.0561825,123.267761 C81.1041825,123.017761 81.1421825,122.772761 81.1801825,122.530761 C81.3251825,121.563761 81.4261825,120.654761 81.6071825,119.822761 C81.7731825,119.035761 82.0951825,118.167761 82.4101825,117.304761 L82.9061825,115.992761 C83.0731825,115.548761 83.2441825,115.111761 83.4091825,114.615761 C83.7301825,113.648761 83.9451825,112.675761 84.1251825,111.725761 L84.3741825,110.316761 C84.4121825,110.095761 84.4581825,109.818761 84.4891825,109.570761 C84.5231825,109.316761 84.5471825,109.062761 84.5671825,108.811761 C84.6451825,107.803761 84.6301825,106.829761 84.6231825,105.893761 L84.6181825,105.210761 C84.6461825,105.026761 84.6731825,104.842761 84.7011825,104.658761 C85.1881825,103.839761 85.5411825,103.053761 85.9461825,102.337761 C86.1601825,101.949761 86.3901825,101.553761 86.6201825,101.148761 C86.6221825,101.154761 86.6241825,101.159761 86.6261825,101.166761 C86.8161825,101.809761 86.9871825,102.490761 87.2451825,103.189761 C87.3081825,103.367761 87.4091825,103.589761 87.4871825,103.743761 C87.5681825,103.905761 87.6241825,104.020761 87.6491825,104.104761 C87.6641825,104.148761 87.6721825,104.187761 87.6791825,104.230761 C87.6831825,104.251761 87.6851825,104.274761 87.6871825,104.297761 L87.6961825,104.414761 L87.7401825,104.937761 C87.7731825,105.291761 87.8151825,105.659761 87.8811825,106.031761 C87.9121825,106.212761 87.9541825,106.408761 87.9941825,106.579761 L88.0981825,107.061761 C88.2281825,107.705761 88.3281825,108.367761 88.4221825,109.040761 L88.5631825,110.061761 C88.5721825,110.138761 88.5901825,110.257761 88.6081825,110.354761 C88.6271825,110.455761 88.6491825,110.552761 88.6701825,110.648761 C88.7141825,110.837761 88.7621825,111.015761 88.8091825,111.185761 L88.9411825,111.669761 L88.9941825,111.891761 C89.0121825,111.966761 89.0171825,112.004761 89.0261825,112.069761 C89.0621825,112.308761 89.0571825,112.631761 89.0931825,113.049761 C89.1081825,113.245761 89.1601825,113.521761 89.1921825,113.664761 L89.2911825,114.154761 C89.3501825,114.466761 89.3841825,114.739761 89.3931825,115.026761 C89.4021825,115.293761 89.3811825,115.652761 89.3841825,116.026761 C89.3851825,116.398761 89.4061825,116.806761 89.4751825,117.213761 C89.4901825,117.315761 89.5101825,117.416761 89.5321825,117.517761 L89.5581825,117.639761 L89.5741825,117.724761 C89.5921825,117.842761 89.6041825,117.969761 89.6091825,118.107761 C89.6111825,118.173761 89.6091825,118.250761 89.6091825,118.323761 Z M87.1121825,140.405761 L87.4171825,139.662761 L87.5181825,139.434761 L87.6411825,139.171761 L87.7381825,138.963761 C87.5511825,139.454761 87.3431825,139.936761 87.1121825,140.405761 Z M84.5181825,132.964761 C84.5181825,132.970761 84.5181825,132.977761 84.5181825,132.980761 C84.5181825,132.988761 84.5181825,132.982761 84.5181825,132.964761 Z M80.7431825,144.126761 C80.7351825,144.167761 80.7291825,144.211761 80.7201825,144.247761 L80.6891825,144.382761 L80.6011825,144.767761 C80.5441825,145.033761 80.4951825,145.322761 80.4631825,145.605761 C80.4511825,145.706761 80.4431825,145.804761 80.4351825,145.903761 C80.2351825,146.173761 80.0101825,146.468761 79.7901825,146.778761 C79.5541825,147.109761 79.3171825,147.458761 79.0901825,147.859761 C79.0891825,147.860761 79.0891825,147.861761 79.0891825,147.862761 C79.0171825,147.483761 78.9371825,147.103761 78.8471825,146.736761 C78.8251825,146.645761 78.8001825,146.557761 78.7771825,146.466761 C78.6781825,145.919761 78.5721825,145.377761 78.4651825,144.851761 L78.1491825,143.252761 L77.9901825,142.453761 L77.9421825,142.225761 C77.9251825,142.139761 77.9041825,142.053761 77.8821825,141.967761 C77.8381825,141.796761 77.7841825,141.626761 77.7261825,141.459761 C77.5871825,141.070761 77.4191825,140.727761 77.2551825,140.417761 C77.2341825,140.318761 77.2161825,140.220761 77.1931825,140.117761 C77.1081825,139.737761 77.0061825,139.339761 76.8631825,138.932761 C76.8351825,138.766761 76.8051825,138.598761 76.7771825,138.432761 C76.6781825,137.832761 76.5931825,137.239761 76.5211825,136.647761 C76.6641825,136.215761 76.8321825,135.775761 77.0141825,135.317761 C77.3611825,134.441761 77.7551825,133.516761 78.0611825,132.491761 C78.0671825,132.468761 78.0731825,132.445761 78.0801825,132.422761 C78.1891825,132.942761 78.3341825,133.462761 78.5261825,133.971761 L78.7671825,134.615761 C78.8401825,134.819761 78.9091825,135.026761 78.9781825,135.240761 L79.3851825,136.570761 L79.6061825,137.269761 C79.6511825,137.409761 79.6621825,137.441761 79.6861825,137.532761 C79.7061825,137.610761 79.7261825,137.697761 79.7441825,137.787761 C79.8191825,138.154761 79.8671825,138.627761 79.9831825,139.189761 C80.0121825,139.328761 80.0481825,139.475761 80.0891825,139.624761 L80.1561825,139.847761 L80.2181825,140.034761 L80.4561825,140.718761 C80.6061825,141.145761 80.7201825,141.509761 80.7651825,141.824761 C80.8711825,142.523761 80.8661825,143.440761 80.7431825,144.126761 Z M76.3131825,124.345761 C76.2891825,124.412761 76.2731825,124.454761 76.2501825,124.500761 L76.1201825,124.744761 C75.7711825,125.394761 75.4461825,126.052761 75.0311825,126.674761 L74.4221825,127.654761 C74.3241825,127.815761 74.2261825,128.000761 74.1341825,128.199761 C74.1281825,128.136761 74.1251825,128.073761 74.1181825,128.012761 C74.0661825,127.539761 73.9931825,127.084761 73.9201825,126.647761 C73.8801825,126.421761 73.8501825,126.228761 73.8031825,125.987761 C73.7581825,125.750761 73.7121825,125.514761 73.6531825,125.282761 C73.3131825,123.848761 72.7531825,122.500761 72.0581825,121.246761 C72.0331825,121.159761 72.0051825,121.073761 71.9751825,120.986761 C71.9551825,120.897761 71.9371825,120.809761 71.9141825,120.720761 C71.8801825,120.576761 71.8391825,120.430761 71.8001825,120.284761 L71.6751825,119.869761 C71.3601825,118.866761 71.0851825,117.786761 70.6431825,116.685761 C70.5361825,116.422761 70.4201825,116.159761 70.2921825,115.898761 C70.2521825,115.742761 70.2031825,115.577761 70.1361825,115.400761 C69.8771825,114.771761 69.5671825,114.359761 69.2691825,113.953761 C68.9701825,113.559761 68.6601825,113.197761 68.3971825,112.867761 C68.3951825,112.865761 68.3921825,112.862761 68.3901825,112.858761 C68.1511825,111.794761 67.9361825,110.708761 67.6951825,109.612761 C67.5301825,108.859761 67.3511825,108.099761 67.1491825,107.343761 L67.1071825,107.195761 C67.1341825,107.079761 67.1631825,106.957761 67.1931825,106.824761 C67.2271825,106.669761 67.2541825,106.538761 67.2831825,106.343761 C67.3131825,106.133761 67.3141825,105.947761 67.3111825,105.787761 C67.3011825,105.466761 67.2861825,105.249761 67.3041825,105.114761 C67.3061825,105.092761 67.3161825,105.031761 67.3271825,104.969761 L67.3621825,104.790761 C67.3871825,104.670761 67.4141825,104.549761 67.4441825,104.427761 C67.5041825,104.185761 67.5721825,103.942761 67.6481825,103.706761 C67.8011825,103.239761 67.9971825,102.725761 68.1881825,102.225761 C68.3811825,101.719761 68.5801825,101.202761 68.7641825,100.670761 C68.8561825,100.404761 68.9431825,100.133761 69.0251825,99.8607609 C69.1131825,99.5557609 69.1571825,99.3967609 69.2551825,99.1417609 C69.3441825,98.9007609 69.4521825,98.6307609 69.5461825,98.3227609 C69.5921825,98.1757609 69.6391825,97.9887609 69.6641825,97.8487609 L69.7361825,97.4517609 L69.7811825,97.2077609 C70.4841825,97.2997609 70.6411825,97.6177609 71.3441825,98.0277609 C72.0541825,98.4417609 72.8831825,98.4437609 73.6571825,98.6137609 C73.9741825,98.6827609 74.5311825,98.9187609 74.7701825,98.9657609 C76.3141825,99.2727609 77.3571825,99.0897609 77.7771825,97.9777609 C78.4581825,99.2427609 79.1441825,100.560761 80.0801825,101.813761 C80.3871825,102.218761 80.7191825,102.611761 81.0741825,102.987761 C81.4541825,103.375761 81.7881825,103.670761 82.0161825,103.945761 C82.1231825,104.075761 82.1941825,104.179761 82.2481825,104.284761 L82.0791825,104.489761 C81.9771825,104.613761 81.8831825,104.744761 81.7951825,104.878761 C81.4411825,105.421761 81.2461825,105.986761 81.0871825,106.451761 L80.9821825,106.758761 C80.9501825,106.841761 80.9111825,106.932761 80.8691825,107.027761 L80.5691825,107.675761 C80.4591825,107.919761 80.3451825,108.194761 80.2541825,108.519761 C80.1751825,108.812761 80.1241825,109.081761 80.0801825,109.338761 L79.9651825,110.072761 L79.9101825,110.406761 L79.8491825,110.753761 C79.7651825,111.224761 79.6761825,111.708761 79.6011825,112.208761 C79.5641825,112.459761 79.5291825,112.714761 79.5011825,112.978761 C79.4871825,113.109761 79.4761825,113.243761 79.4661825,113.378761 L79.4421825,113.755761 C79.4151825,114.254761 79.3991825,114.723761 79.3581825,115.154761 C79.3391825,115.369761 79.3131825,115.577761 79.2791825,115.783761 C79.2641825,115.892761 79.2421825,115.971761 79.2241825,116.102761 L78.9431825,117.949761 C78.8241825,118.683761 78.7511825,119.345761 78.6551825,120.000761 C78.5561825,120.221761 78.4581825,120.443761 78.3521825,120.659761 C78.1911825,120.990761 78.0211825,121.313761 77.8411825,121.629761 C77.7551825,121.789761 77.6581825,121.942761 77.5661825,122.097761 L77.4961825,122.213761 L77.4571825,122.269761 C77.4261825,122.312761 77.3841825,122.364761 77.3311825,122.428761 C77.2261825,122.554761 77.0681825,122.728761 76.9021825,122.965761 C76.8201825,123.083761 76.7361825,123.219761 76.6631825,123.370761 C76.5921825,123.515761 76.5401825,123.650761 76.4951825,123.774761 C76.4091825,124.022761 76.3581825,124.216761 76.3131825,124.345761 Z M66.4811825,101.548761 C66.4791825,101.553761 66.4771825,101.557761 66.4761825,101.562761 C66.4881825,101.195761 66.4991825,100.823761 66.5021825,100.446761 C66.5031825,99.6367609 66.4831825,98.8017609 66.3301825,97.9397609 C66.8331825,97.5797609 67.3561825,97.2607609 68.0371825,97.1927609 L67.9761825,97.4877609 C67.9481825,97.6147609 67.9261825,97.6897609 67.8901825,97.8017609 C67.8211825,98.0117609 67.7221825,98.2437609 67.6161825,98.5087609 C67.5631825,98.6407609 67.5091825,98.7817609 67.4571825,98.9317609 L67.3291825,99.3317609 C67.2491825,99.5767609 67.1631825,99.8207609 67.0721825,100.065761 C66.8901825,100.554761 66.6881825,101.045761 66.4811825,101.548761 Z M78.1971825,92.3117609 C78.9961825,91.4977609 79.8601825,92.3727609 80.7251825,92.9227609 C81.3611825,93.3267609 82.0531825,93.8447609 82.7671825,94.2977609 C83.0051825,94.8257609 83.2651825,95.3377609 83.5351825,95.8367609 C83.5111825,95.8497609 83.4861825,95.8617609 83.4641825,95.8707609 C83.4961825,95.8787609 83.5301825,95.8867609 83.5661825,95.8957609 C83.5911825,95.9397609 83.6141825,95.9847609 83.6381825,96.0287609 L83.7651825,96.2577609 L83.8741825,96.4627609 C83.9431825,96.5977609 84.0241825,96.7797609 84.1561825,96.9807609 C84.2851825,97.1777609 84.4301825,97.3407609 84.5661825,97.4837609 L84.7131825,97.6447609 C84.6101825,97.8717609 84.5101825,98.1007609 84.4161825,98.3317609 C84.1111825,99.0847609 83.8481825,99.8517609 83.6291825,100.633761 C83.4921825,101.130761 83.3741825,101.622761 83.2641825,102.115761 C83.0201825,101.876761 82.7901825,101.673761 82.6071825,101.490761 C82.3091825,101.187761 82.0251825,100.867761 81.7571825,100.527761 C80.6851825,99.1667609 79.8621825,97.4907609 78.8771825,95.8387609 C78.4471825,95.1197609 78.1091825,94.3277609 77.8001825,93.4957609 C77.8371825,92.9937609 77.9481825,92.5657609 78.1971825,92.3117609 Z M85.4861825,95.0797609 C85.4911825,95.1367609 85.4881825,95.1997609 85.4831825,95.2627609 C85.6741825,95.2567609 85.8661825,95.2437609 86.0561825,95.2347609 C85.8621825,95.5147609 85.6611825,95.8227609 85.4871825,96.1247609 C85.4681825,96.1587609 85.4511825,96.1917609 85.4321825,96.2247609 C85.4181825,96.2227609 85.4031825,96.2217609 85.3881825,96.2197609 C85.3781825,96.2057609 85.3641825,96.1917609 85.3551825,96.1777609 C85.3281825,96.1407609 85.2991825,96.0907609 85.2691825,96.0367609 C85.3661825,95.7657609 85.4581825,95.4947609 85.4831825,95.2627609 C85.2571825,95.2697609 85.0311825,95.2667609 84.8131825,95.2357609 C84.7931825,95.2017609 84.7741825,95.1677609 84.7541825,95.1347609 C85.1471825,94.9257609 85.4621825,94.8217609 85.4861825,95.0797609 Z M41.4251825,94.8567609 C40.9531825,95.4027609 40.5891825,96.0087609 40.2591825,96.6157609 C40.0971825,96.9257609 39.9381825,97.2077609 39.7891825,97.5587609 C39.6441825,97.9007609 39.5601825,98.2857609 39.5411825,98.6527609 C39.5241825,99.0177609 39.5381825,99.3447609 39.5131825,99.6637609 C39.4991825,99.8227609 39.4831825,99.9807609 39.4521825,100.137761 C39.4261825,100.304761 39.3941825,100.421761 39.3341825,100.567761 C39.1071825,101.128761 38.6411825,101.657761 38.3181825,102.289761 C38.0101825,102.870761 37.6291825,103.406761 37.1611825,103.860761 C37.1041825,103.916761 37.0421825,103.967761 36.9821825,104.021761 C36.6681825,103.426761 36.4141825,102.805761 36.2491825,102.184761 C36.1081825,101.654761 36.0911825,100.671761 35.6581825,100.281761 C35.1271825,99.8017609 34.1491825,99.9797609 33.3491825,99.9987609 C32.4461825,100.020761 31.4231825,100.645761 30.6381825,100.490761 C30.2471825,99.1627609 28.4911825,96.3127609 30.5111825,95.7617609 C31.1531825,95.5867609 31.6651825,95.6707609 32.3161825,95.3257609 C32.6641825,95.1407609 33.3921825,94.3327609 33.8071825,94.4047609 C34.3251825,94.4927609 34.9421825,96.3927609 35.0881825,96.6397609 C35.7451825,97.7487609 36.2941825,98.2167609 37.5161825,97.6317609 C39.0331825,96.9067609 39.5021825,93.9737609 41.3301825,94.4627609 C41.4501825,94.4947609 41.5631825,94.5417609 41.6711825,94.5937609 C41.5871825,94.6807609 41.5021825,94.7657609 41.4251825,94.8567609 Z M170.843182,79.6817609 C170.395182,78.5997609 168.929182,78.5647609 167.899182,78.4577609 C166.634182,78.3267609 165.785182,78.5757609 166.035182,76.9937609 C166.244182,75.6807609 168.768182,73.5077609 168.541182,72.3617609 C166.743182,71.7427609 164.923182,74.0027609 162.923182,73.1767609 C162.364182,72.9467609 160.889182,71.4807609 160.657182,70.9227609 C160.254182,69.9517609 160.642182,68.3457609 160.819182,67.4147609 C160.969182,66.6347609 161.486182,65.6057609 160.619182,65.2327609 C159.970182,64.9527609 159.200182,65.3477609 158.490182,64.9917609 C157.908182,64.6987609 157.619182,64.3817609 156.946182,64.2897609 C156.560182,64.2377609 156.129182,64.4297609 155.743182,64.3577609 C154.028182,64.0347609 155.332182,61.6077609 155.960182,60.5707609 C156.784182,59.2107609 158.231182,58.0227609 158.285182,56.3547609 C158.325182,55.1647609 157.614182,53.9277609 157.061182,52.9187609 C156.349182,51.6197609 155.558182,51.2567609 154.351182,50.4727609 C153.466182,49.8997609 152.793182,49.1597609 151.645182,49.2847609 C150.025182,49.4597609 150.895182,51.3587609 149.005182,51.1437609 C147.801182,51.0077609 146.552182,50.3747609 145.304182,50.6537609 C144.358182,50.8647609 143.457182,52.0627609 142.793182,52.7837609 C142.967182,52.4297609 143.161182,51.9197609 143.336182,51.3287609 C143.384182,51.2187609 143.416182,51.1027609 143.433182,50.9847609 C143.727182,49.8887609 143.938182,48.5797609 143.853182,47.4587609 C143.994182,46.9757609 144.222182,46.5377609 144.685182,46.2597609 C145.021182,45.9727609 145.192182,45.5737609 145.386182,45.2077609 C145.414182,45.1507609 145.444182,45.0967609 145.475182,45.0417609 C145.496182,45.0557609 145.516182,45.0717609 145.539182,45.0857609 C146.150182,45.4677609 147.697182,46.0077609 148.390182,46.0497609 C149.153182,46.0957609 149.202182,45.9347609 149.552182,45.3527609 C150.218182,44.2427609 150.459182,41.9677609 150.643182,40.7207609 C150.827182,39.4597609 151.075182,37.6727609 150.698182,36.4627609 C150.366182,35.3957609 149.015182,34.2367609 148.144182,33.6177609 C147.170182,32.9267609 146.489182,32.6607609 145.519182,33.2727609 C145.354182,33.3777609 145.187182,33.5307609 145.034182,33.7087609 C145.202182,31.8437609 142.389182,32.0177609 140.481182,31.8627609 C140.187182,31.2677609 141.068182,30.6197609 141.242182,30.0637609 C141.459182,29.3697609 141.424182,28.4007609 141.355182,27.6827609 C141.152182,25.5877609 138.656182,26.4187609 137.218182,25.7337609 C136.648182,25.4617609 136.469182,24.8547609 136.111182,24.4397609 C135.297182,23.4957609 133.764182,22.5747609 132.649182,22.0177609 C130.931182,21.1597609 129.650182,21.2587609 128.724182,23.0457609 C128.650182,23.1867609 128.044182,24.5107609 127.814182,25.5377609 C127.513182,25.3137609 127.142182,25.1297609 126.921182,24.9477609 C126.103182,24.2707609 125.191182,23.1957609 124.932182,22.1597609 C124.389182,20.0047609 127.413182,18.9547609 127.234182,16.9547609 C124.895182,16.1127609 121.011182,17.9847609 119.338182,15.1077609 C118.852182,14.2717609 119.354182,12.7517609 119.304182,11.7977609 C119.235182,10.4807609 118.721182,10.0927609 117.682182,9.4127609 C116.759182,8.8087609 115.649182,7.8577609 114.496182,7.9487609 C113.077182,8.0607609 111.604182,10.5667609 110.390182,10.3267609 C110.248182,9.7207609 110.403182,9.1147609 110.372182,8.4977609 C110.329182,7.6167609 110.056182,6.7687609 109.886182,5.9087609 C109.679182,4.8537609 109.714182,3.4687609 109.235182,2.4827609 C108.432182,0.826760905 108.175182,1.7907609 107.000182,1.4197609 C106.090182,1.1327609 105.544182,0.129760905 104.464182,0.00976090474 C103.873182,-0.0552390953 103.634182,0.220760905 103.133182,0.353760905 C101.899182,0.681760905 100.930182,0.174760905 100.030182,1.4467609 C99.5371825,2.1437609 99.3451825,3.4417609 99.5431825,4.2347609 C99.7281825,4.9727609 100.167182,5.0367609 100.513182,5.5337609 C101.029182,6.2777609 100.961182,5.6917609 100.967182,7.0007609 C100.972182,7.8887609 101.121182,8.9077609 100.981182,9.7727609 C100.729182,11.3267609 100.074182,12.7617609 99.9961825,14.3737609 C99.9661825,15.0027609 99.8791825,16.0627609 99.9581825,16.6577609 C100.090182,17.6497609 100.883182,18.2577609 101.347182,19.0987609 C100.784182,19.5747609 98.7501825,19.4027609 98.0111825,19.2987609 C96.8581825,19.1357609 96.2181825,18.7297609 95.2791825,17.9927609 C94.1231825,17.0837609 93.8941825,16.4877609 93.8901825,15.0517609 C93.8891825,14.5727609 94.1391825,13.5497609 93.9481825,13.1177609 C93.5281825,12.1607609 91.5541825,12.8337609 90.6191825,12.5777609 C90.0991825,12.4347609 89.9521825,12.1007609 89.3491825,12.2707609 C88.8091825,12.4237609 87.8991825,13.5947609 87.4661825,14.0067609 C86.6901825,12.6317609 85.8841825,11.0547609 84.1251825,10.7847609 C83.4621825,10.5837609 82.9421825,10.7587609 82.5661825,11.3097609 C82.2891825,11.8737609 82.1691825,12.4687609 82.2031825,13.0947609 C81.5891825,14.0027609 80.0291825,14.4717609 78.9451825,14.6617609 C78.9141825,14.8767609 79.0051825,15.0117609 79.2161825,15.0647609 C78.0091825,14.9187609 74.3231825,13.9487609 74.0871825,15.9307609 C73.3481825,16.0587609 71.8691825,14.5767609 71.4611825,13.9717609 C70.9991825,13.2847609 71.0261825,11.5597609 69.9581825,11.7087609 C69.3101825,12.5757609 69.6541825,14.6117609 68.7221825,15.0367609 C68.0401825,15.3477609 67.2131825,14.6617609 66.6511825,15.3227609 C66.7101825,14.7477609 66.6261825,14.1887609 66.6471825,13.6177609 C66.7241825,11.4637609 67.7691825,9.7987609 67.1441825,7.6347609 C65.5861825,7.1167609 65.5281825,8.6407609 64.7011825,9.3267609 C64.5531825,9.4497609 63.0181825,9.8477609 62.9811825,9.8617609 C61.5231825,10.4067609 60.2391825,10.3447609 58.7021825,10.3367609 C58.0071825,10.3327609 56.9061825,10.0697609 56.2451825,10.1947609 C54.1581825,10.5877609 55.3861825,14.5467609 54.3921825,15.9677609 C53.9301825,16.6267609 53.2761825,16.8027609 52.7021825,17.3267609 C51.8481825,18.1077609 51.8161825,19.1907609 51.1801825,20.0637609 C50.4811825,19.7067609 49.7391825,19.4697609 48.9561825,19.3507609 C48.2741825,19.3207609 47.5961825,19.2697609 46.9181825,19.1977609 C46.0981825,18.8297609 45.5001825,17.7857609 44.6951825,17.3167609 C43.2601825,16.4807609 41.3891825,16.5437609 40.7461825,18.2897609 C38.5691825,18.2507609 35.8921825,16.5867609 35.1611825,19.9017609 C35.0811825,20.2437609 35.0421825,20.5587609 35.0411825,20.8487609 C34.5641825,20.7217609 34.0811825,20.5607609 33.4981825,20.4247609 C31.4191825,19.9377609 30.4891825,20.7587609 30.4771825,22.8967609 C29.0061825,22.0897609 28.0991825,23.1557609 26.7041825,22.9537609 C25.9621825,22.8467609 25.2171825,22.2857609 24.4551825,22.1367609 C23.4091825,21.9327609 22.1631825,21.9957609 21.1451825,22.3647609 C21.0321825,21.2817609 21.4191825,20.3257609 20.4591825,19.5067609 C19.8161825,18.9577609 18.5601825,19.0727609 18.7791825,17.9077609 C17.9161825,17.4517609 12.8241825,18.9037609 13.1961825,20.5927609 C13.5691825,20.7277609 14.1081825,20.6697609 14.4981825,20.6477609 C14.7101825,21.7397609 14.4971825,22.8247609 14.5561825,23.9187609 C14.5891825,24.5517609 14.7971825,24.7857609 14.9421825,25.3267609 C15.1851825,26.2307609 14.8691825,27.1787609 14.5791825,28.0697609 C14.3151825,28.7487609 14.0561825,29.4297609 13.8031825,30.1117609 C13.9251825,30.3417609 14.0031825,30.5857609 14.0381825,30.8427609 C14.0831825,32.7377609 13.9021825,33.3367609 15.5431825,34.4777609 C16.6831825,35.2697609 18.0791825,35.5767609 19.4381825,35.4967609 C18.5751825,35.9187609 17.6891825,36.7177609 17.8411825,37.3387609 C18.5661825,37.3407609 19.2651825,37.2367609 19.9411825,37.0317609 C19.2071825,37.5137609 18.5971825,38.3317609 18.1491825,38.8967609 C18.5391825,40.0127609 19.3781825,40.4877609 20.6661825,40.3237609 C21.5341825,40.2277609 22.3371825,40.3837609 23.0761825,40.7897609 C22.9341825,42.2147609 20.4851825,47.1007609 23.3231825,46.9627609 C22.2971825,47.3767609 21.4281825,47.9797609 20.5671825,48.6637609 C21.2641825,49.1697609 22.1341825,48.7357609 22.8951825,49.2547609 C22.9251825,49.6297609 22.8821825,49.9967609 22.7641825,50.3567609 C23.3741825,51.1107609 24.1771825,51.5227609 25.1731825,51.5927609 C25.7011825,51.5857609 26.2231825,51.6387609 26.7361825,51.7517609 C26.8791825,51.8347609 27.5481825,52.5187609 27.6201825,52.6607609 C28.0361825,53.4737609 27.5521825,54.5867609 27.6941825,55.4547609 C27.8341825,56.3097609 28.8121825,56.5437609 28.7761825,57.3177609 C26.5461825,57.8997609 24.2151825,57.3917609 22.0471825,58.1947609 C20.7581825,58.6707609 19.8481825,59.2177609 19.3681825,60.6737609 C19.1491825,61.3407609 18.8981825,63.0617609 19.6441825,63.4747609 C18.9261825,63.3607609 17.0811825,63.0897609 16.4511825,63.3437609 C15.8941825,63.5687609 15.9411825,63.6917609 15.7171825,64.3057609 C15.5441825,64.7807609 15.6651825,65.3127609 15.5401825,65.7387609 C15.2931825,66.5857609 14.6471825,66.9007609 14.1681825,67.7037609 C13.6381825,68.5937609 13.8411825,69.1227609 13.8591825,69.9577609 C13.8711825,70.4527609 13.8801825,70.3547609 13.6271825,70.9437609 C13.2741825,71.4237609 13.1471825,71.9447609 13.2431825,72.5037609 C13.2221825,72.9397609 13.2861825,73.3637609 13.4371825,73.7747609 C13.3221825,74.1877609 12.8561825,74.3737609 12.7461825,74.7447609 C11.0801825,73.7867609 8.30118249,75.3557609 7.94818249,77.2477609 C7.52418249,76.6727609 5.66018249,77.5317609 5.17818249,77.0037609 C4.22918249,77.4757609 2.81518249,77.8627609 3.34518249,79.2827609 C3.76018249,79.3847609 4.16718249,79.3867609 4.58218249,79.3677609 C3.29818249,79.5767609 1.93718249,80.8617609 2.44418249,82.1677609 C2.81418249,83.1197609 5.24518249,84.4147609 3.67418249,85.3597609 C3.07618249,85.7187609 2.12018249,85.5077609 1.41018249,85.8107609 C0.669182492,86.1277609 0.242182492,86.1297609 0.0451824917,87.0947609 C-0.161817508,88.1017609 0.390182492,88.4087609 0.734182492,89.2107609 C0.967182492,89.7507609 0.771182492,90.7137609 1.23618249,91.1137609 C-0.505817508,90.5587609 1.32518249,94.0987609 1.43618249,94.5917609 C1.62618249,95.4517609 1.24118249,96.3797609 2.60918249,96.2917609 C3.40418249,96.2407609 3.76918249,95.2497609 4.62818249,95.3637609 C4.74218249,96.2607609 5.06918249,97.1787609 5.25818249,98.0497609 C5.74818249,98.0747609 6.00418249,98.4887609 6.39718249,98.5647609 C7.15718249,98.7137609 7.10118249,98.4427609 7.63018249,98.2447609 C8.67818249,97.8557609 9.99918249,97.2197609 10.8221825,96.4887609 C11.1321825,96.2137609 11.2911825,95.8757609 11.5521825,95.5657609 C11.9611825,95.0767609 12.8451825,94.5257609 13.0881825,93.9067609 C13.3161825,93.3247609 12.8931825,92.5207609 13.2311825,91.9927609 C13.5271825,91.5277609 14.5161825,91.3437609 15.0131825,91.2057609 C16.1091825,90.9027609 17.8771825,91.0787609 17.8971825,89.7137609 C17.9251825,87.8457609 15.1331825,85.8777609 14.1831825,84.4687609 C13.5311825,83.5027609 13.4781825,82.8617609 14.8881825,82.6157609 C16.6831825,82.3027609 18.8641825,82.6207609 20.6941825,82.6377609 C21.0661825,82.6417609 21.9951825,82.8497609 22.3011825,82.6237609 C22.9301825,82.1597609 22.2871825,81.4987609 22.1741825,80.8517609 C21.9821825,79.7547609 22.2111825,80.0237609 23.0101825,79.3767609 C23.5141825,78.9697609 24.1521825,77.7467609 24.9201825,77.8757609 C25.8351825,78.0297609 25.9301825,79.8757609 26.6491825,80.4277609 C27.2701825,80.9067609 27.5841825,80.4517609 28.2191825,80.7247609 C28.8651825,81.0017609 28.6641825,81.4877609 28.6511825,82.1697609 C28.6321825,83.2147609 28.5051825,84.2467609 28.9941825,85.1147609 C29.3101825,85.6737609 29.7551825,85.5497609 29.6381825,86.3937609 C29.5661825,86.9197609 29.0251825,87.4987609 28.5471825,87.7067609 C26.6831825,88.5197609 22.8891825,84.9067609 23.4551825,88.7157609 C23.7111825,90.4397609 25.2711825,90.5857609 25.3701825,92.2577609 C25.4651825,93.8407609 24.6371825,95.0697609 23.5131825,96.1477609 C23.0421825,96.5987609 22.1801825,96.7777609 21.7171825,97.2677609 C21.0661825,97.9577609 20.4611825,99.9347609 20.6011825,100.906761 C20.7301825,101.797761 21.7791825,103.851761 22.8951825,104.201761 C20.7741825,104.169761 18.7121825,105.576761 18.3611825,107.699761 C18.2721825,108.241761 18.0701825,109.826761 18.2901825,110.371761 C18.5441825,111.001761 19.2411825,111.070761 19.7161825,111.530761 C21.3681825,113.135761 23.3061825,115.036761 24.5791825,116.944761 C25.0631825,117.667761 24.8921825,117.807761 25.8251825,117.868761 C26.8721825,117.939761 27.2121825,116.932761 28.1041825,116.935761 C28.5711825,119.150761 30.2791825,120.925761 32.6211825,121.180761 C35.0421825,121.444761 38.4271825,118.594761 38.5671825,116.094761 C41.1331825,116.028761 40.1081825,112.250761 39.9561825,110.851761 C41.2391825,110.550761 42.4841825,110.902761 43.7001825,111.171761 C44.9951825,111.459761 45.2331825,111.070761 46.0831825,110.108761 C47.0111825,109.058761 47.4761825,108.626761 48.7271825,108.001761 C49.9501825,107.391761 51.2931825,106.332761 51.1621825,104.777761 C50.5501825,104.478761 49.8631825,104.271761 49.1831825,104.210761 C48.6241825,104.161761 48.0261825,104.420761 47.5031825,104.153761 C47.5211825,102.622761 44.8681825,101.910761 43.6651825,102.300761 C41.6301825,102.959761 41.0081825,108.604761 38.7071825,106.360761 C38.1451825,105.810761 37.6321825,105.149761 37.2091825,104.434761 C37.3011825,104.358761 37.3951825,104.284761 37.4831825,104.201761 C38.0041825,103.725761 38.4351825,103.154761 38.7801825,102.546761 C39.0851825,101.974761 39.5611825,101.485761 39.8751825,100.795761 C39.9511825,100.630761 40.0141825,100.419761 40.0431825,100.251761 C40.0811825,100.076761 40.1071825,99.8977609 40.1271825,99.7187609 C40.1641825,99.3617609 40.1601825,99.0097609 40.1861825,98.6987609 C40.2111825,98.3867609 40.2821825,98.1037609 40.4101825,97.8227609 C40.5331825,97.5517609 40.7131825,97.2437609 40.8741825,96.9587609 C41.2081825,96.3847609 41.5661825,95.8307609 41.9971825,95.3627609 C42.1021825,95.2457609 42.2121825,95.1357609 42.3251825,95.0307609 C42.9831825,95.5827609 43.4861825,96.2497609 44.2751825,95.9217609 C44.6651825,95.7607609 44.5371825,95.3317609 45.0541825,95.2567609 C45.6241825,95.1737609 46.8731825,96.0627609 47.4651825,96.2487609 C48.6971825,96.6377609 49.8691825,97.2317609 51.1161825,97.5597609 C52.2941825,97.8687609 52.1951825,97.7067609 52.7331825,98.5907609 C53.4681825,99.7987609 53.3161825,100.832761 55.0271825,100.406761 C55.9511825,100.176761 56.5361825,99.2797609 57.3281825,99.0117609 C58.0331825,98.7727609 58.5511825,99.0377609 59.3451825,99.0827609 C60.3311825,99.1387609 61.3411825,99.1347609 62.3451825,99.1157609 C62.4571825,99.6177609 62.5561825,100.172761 62.6621825,100.691761 L63.0851825,102.831761 C63.1521825,103.191761 63.2301825,103.537761 63.2911825,103.908761 C63.3531825,104.279761 63.4191825,104.648761 63.4921825,105.017761 C63.5311825,105.216761 63.5771825,105.413761 63.6201825,105.612761 C63.6091825,105.917761 63.6031825,106.223761 63.6011825,106.515761 L63.5511825,111.634761 C63.5491825,111.903761 63.5551825,112.172761 63.5701825,112.443761 C63.5991825,112.983761 63.6711825,113.519761 63.7621825,114.035761 C63.8551825,114.551761 63.9661825,115.046761 64.0751825,115.524761 L64.2361825,116.233761 C64.3061825,116.495761 64.3661825,116.763761 64.4461825,117.022761 C65.0371825,118.955761 66.0211825,120.629761 67.0131825,122.190761 C67.0071825,122.902761 67.0501825,123.585761 67.1231825,124.280761 C67.2091825,125.057761 67.3351825,125.833761 67.5501825,126.627761 L67.7001825,127.151761 C67.7381825,127.292761 67.7721825,127.449761 67.8051825,127.613761 C67.8701825,127.941761 67.9291825,128.311761 68.0171825,128.712761 C68.0621825,128.914761 68.1101825,129.122761 68.1771825,129.339761 C68.2391825,129.547761 68.3321825,129.798761 68.4041825,129.964761 C68.5531825,130.332761 68.7151825,130.692761 68.8841825,131.044761 C69.2241825,131.747761 69.5961825,132.418761 69.9731825,133.068761 C70.0391825,133.182761 70.1061825,133.293761 70.1721825,133.407761 C70.1821825,133.529761 70.1911825,133.653761 70.1991825,133.773761 L70.2211825,134.398761 C70.2521825,135.395761 70.4131825,136.335761 70.5991825,137.232761 C70.6011825,137.271761 70.6031825,137.310761 70.6061825,137.349761 C70.6381825,137.828761 70.6851825,138.310761 70.7481825,138.792761 C70.8111825,139.277761 70.8961825,139.765761 70.9761825,140.209761 C71.2711825,141.842761 71.6151825,143.492761 72.1551825,145.146761 C72.2581825,145.647761 72.3621825,146.142761 72.4671825,146.627761 C72.5531825,147.031761 72.6561825,147.523761 72.7771825,147.966761 C72.8951825,148.420761 73.0301825,148.863761 73.1691825,149.302761 C73.4541825,150.175761 73.7731825,151.018761 74.0931825,151.839761 C74.1871825,152.079761 74.2781825,152.314761 74.3721825,152.551761 C74.3971825,152.663761 74.4181825,152.774761 74.4451825,152.887761 C74.5111825,153.161761 74.6061825,153.478761 74.7111825,153.758761 C74.9081825,154.286761 75.1431825,154.739761 75.3361825,155.123761 C75.3701825,155.223761 75.4091825,155.324761 75.4421825,155.423761 C75.5731825,155.819761 75.7011825,156.223761 75.8241825,156.627761 C76.0681825,157.428761 76.2981825,158.242761 76.5241825,159.064761 C76.5691825,159.374761 76.6181825,159.693761 76.6831825,160.028761 C76.7081825,160.165761 76.7371825,160.300761 76.7661825,160.435761 C76.7811825,160.583761 76.7991825,160.731761 76.8151825,160.880761 C77.0001825,162.665761 77.1721825,164.467761 77.3741825,166.280761 C77.3721825,166.403761 77.3711825,166.517761 77.3691825,166.644761 L77.2521825,178.796761 L77.5271825,178.796761 C77.5201825,178.796761 77.5121825,178.958761 77.5031825,178.996761 C77.4211825,179.362761 77.3221825,178.858761 77.2201825,179.096761 C77.1951825,179.163761 77.1691825,179.092761 77.1481825,179.146761 C77.1261825,179.176761 77.1071825,178.956761 77.0931825,178.971761 C77.1051825,178.958761 77.1221825,178.796761 77.1511825,178.796761 L77.3541825,178.796761 C77.3381825,179.700761 77.3241825,178.796761 77.3091825,178.796761 L77.3611825,178.796761 L77.2861825,178.796761 L77.9761825,178.796761 C77.9481825,179.700761 77.9251825,178.796761 77.9041825,178.796761 L79.2311825,178.796761 C79.6671825,178.796761 79.9831825,179.118761 80.1941825,178.796761 C80.2331825,178.739761 80.2651825,179.700761 80.2981825,178.796761 L81.0441825,178.796761 C81.1821825,179.700761 81.3201825,178.796761 81.4571825,178.796761 L83.0411825,178.796761 C83.3041825,178.796761 83.5071825,179.700761 83.6641825,178.796761 L85.0571825,178.796761 C85.0571825,178.796761 85.0481825,178.932761 85.0641825,178.796761 C85.0711825,178.724761 85.0851825,178.796761 85.1031825,178.796761 L86.6361825,178.796761 C86.6251825,178.796761 86.6041825,179.757761 86.5321825,178.996761 C86.4551825,178.159761 86.3101825,179.726761 86.0901825,178.896761 C86.0351825,178.688761 85.9761825,179.700761 85.9131825,178.796761 L85.7461825,178.796761 L85.4741825,170.031761 C85.4261825,169.696761 85.3751825,169.466761 85.3221825,169.149761 L85.0971825,167.831761 C85.0641825,167.612761 85.0321825,167.419761 85.0061825,167.206761 L84.9271825,166.523761 C84.7881825,165.385761 84.4831825,164.400761 84.2191825,163.498761 C83.9501825,162.597761 83.7141825,161.782761 83.6201825,161.036761 C83.5711825,160.664761 83.5581825,160.242761 83.5211825,159.714761 C83.5021825,159.452761 83.4751825,159.169761 83.4291825,158.875761 C83.4061825,158.729761 83.3791825,158.580761 83.3471825,158.431761 C83.3291825,158.347761 83.3171825,158.287761 83.3061825,158.206761 C83.2051825,157.576761 83.2911825,156.652761 83.2761825,155.602761 C83.2671825,154.838761 83.2461825,154.085761 83.2241825,153.336761 C83.2481825,153.148761 83.2711825,152.967761 83.2881825,152.793761 C83.3841825,152.512761 83.4901825,152.226761 83.6051825,151.933761 L84.3081825,150.181761 C84.5421825,149.599761 84.7741825,149.034761 85.0211825,148.492761 C85.2681825,147.951761 85.5311825,147.434761 85.8241825,146.944761 C85.9731825,146.694761 86.1131825,146.492761 86.3231825,146.160761 L86.8121825,145.356761 C86.9591825,145.122761 87.0971825,144.930761 87.2381825,144.767761 C87.4361825,144.546761 87.6591825,144.308761 87.8901825,144.041761 C88.1191825,143.776761 88.3591825,143.477761 88.5801825,143.132761 C88.6341825,143.050761 88.6921825,142.951761 88.7361825,142.871761 L88.8621825,142.646761 C88.9431825,142.494761 89.0241825,142.343761 89.1011825,142.190761 C89.7171825,140.968761 90.1911825,139.702761 90.5361825,138.390761 C90.7101825,137.736761 90.8421825,137.050761 90.9391825,136.404761 L91.2091825,134.529761 C91.2581825,134.217761 91.3031825,133.956761 91.3681825,133.688761 C91.4331825,133.417761 91.5131825,133.142761 91.6051825,132.863761 C91.7871825,132.304761 92.0151825,131.727761 92.2411825,131.118761 C92.3371825,130.862761 92.4271825,130.604761 92.5161825,130.345761 C92.5281825,130.502761 92.5411825,130.660761 92.5551825,130.823761 L92.5821825,131.108761 L92.5981825,131.252761 C92.6031825,131.296761 92.6151825,131.401761 92.6291825,131.466761 C92.6831825,131.768761 92.7691825,132.003761 92.8251825,132.175761 C92.9421825,132.541761 92.9211825,132.466761 92.9211825,132.804761 L92.8931825,133.325761 L92.8741825,133.886761 C92.8601825,134.215761 92.8321825,134.571761 92.8091825,134.947761 C92.7711825,135.701761 92.7071825,136.522761 92.9281825,137.502761 L93.0501825,138.021761 L93.1571825,138.531761 L93.3751825,139.608761 L93.4041825,139.745761 C93.3651825,140.811761 93.2911825,141.851761 93.1271825,142.855761 C93.0281825,143.468761 92.8801825,144.124761 92.7331825,144.794761 C92.5851825,145.462761 92.4321825,146.145761 92.2961825,146.848761 C92.1541825,147.542761 92.0561825,148.311761 91.9581825,148.931761 C91.8551825,149.583761 91.7331825,150.231761 91.5931825,150.869761 L91.3631825,151.858761 C91.3311825,151.995761 91.3071825,152.131761 91.2811825,152.268761 C91.1841825,152.565761 91.0901825,152.868761 91.0021825,153.179761 L90.7051825,154.218761 C90.2951825,155.631761 89.8181825,157.121761 89.6451825,158.848761 C89.5661825,159.718761 89.5951825,160.516761 89.6041825,161.244761 C89.6171825,161.973761 89.6091825,162.626761 89.5291825,163.205761 L89.4471825,163.736761 C89.4141825,163.945761 89.3931825,164.151761 89.3681825,164.357761 C89.3261825,164.767761 89.2991825,165.170761 89.2801825,165.566761 C89.2481825,166.263761 89.2411825,166.931761 89.2281825,167.573761 L89.0131825,168.366761 L88.9261825,168.690761 L88.8381825,169.052761 C88.7831825,169.293761 88.7311825,169.665761 88.6861825,169.906761 C88.3191825,171.830761 88.2311825,176.989761 88.2071825,178.796761 L88.4371825,178.796761 C88.3831825,178.796761 88.3271825,178.796761 88.2601825,178.796761 L89.4821825,178.796761 L89.4591825,178.796761 L93.8271825,178.796761 C93.9611825,177.892761 94.3201825,180.413761 94.6941825,178.996761 C95.0641825,177.577761 95.4641825,171.499761 95.5801825,169.825761 C95.6821825,168.186761 95.5621825,166.730761 95.5431825,165.329761 L95.5331825,164.766761 C95.5271825,164.549761 95.5141825,164.341761 95.4971825,164.134761 C95.4621825,163.721761 95.4101825,163.333761 95.3601825,162.967761 C95.3111825,162.601761 95.2631825,162.259761 95.2281825,161.937761 C95.2121825,161.777761 95.1971825,161.620761 95.1891825,161.468761 C95.1851825,161.393761 95.1791825,161.316761 95.1781825,161.243761 L95.1721825,160.992761 C95.1601825,160.378761 95.1211825,159.809761 95.0911825,159.270761 C95.1161825,159.196761 95.1431825,159.124761 95.1681825,159.048761 C95.2451825,158.820761 95.3191825,158.582761 95.3901825,158.339761 L95.5701825,157.656761 C95.7911825,156.804761 96.0211825,155.953761 96.2561825,155.104761 C96.7291825,153.405761 97.2301825,151.708761 97.7441825,150.011761 C97.8681825,149.608761 98.0221825,149.106761 98.1321825,148.629761 C98.2471825,148.145761 98.3391825,147.644761 98.3991825,147.143761 C98.5231825,146.141761 98.5151825,145.157761 98.4941825,144.253761 C98.4741825,143.325761 98.4021825,142.321761 98.2041825,141.340761 C98.0451825,140.545761 97.9501825,139.730761 97.8941825,138.882761 C97.8651825,138.459761 97.8461825,138.029761 97.8281825,137.590761 L97.8271825,137.552761 C97.8661825,137.497761 97.9031825,137.439761 97.9461825,137.386761 C98.1341825,137.168761 98.2411825,137.081761 98.6521825,136.689761 C99.3301825,136.023761 99.7891825,135.240761 100.144182,134.486761 C100.845182,132.968761 101.174182,131.487761 101.664182,130.215761 C101.785182,129.895761 101.912182,129.589761 102.042182,129.348761 C102.184182,129.082761 102.379182,128.787761 102.590182,128.433761 C102.695182,128.255761 102.805182,128.062761 102.906182,127.850761 C103.010182,127.639761 103.102182,127.395761 103.164182,127.205761 C103.301182,126.803761 103.408182,126.405761 103.496182,126.020761 C103.507182,125.969761 103.517182,125.921761 103.527182,125.871761 C103.684182,125.506761 103.818182,125.159761 103.958182,124.842761 C104.027182,124.681761 104.098182,124.531761 104.169182,124.384761 L104.279182,124.174761 L104.406182,123.951761 C104.613182,123.598761 104.803182,123.235761 104.977182,122.869761 C105.297182,122.195761 105.561182,121.511761 105.799182,120.837761 L105.984182,120.717761 C106.078182,120.659761 106.200182,120.576761 106.288182,120.509761 C106.476182,120.368761 106.606182,120.256761 106.700182,120.190761 C106.748182,120.156761 106.788182,120.130761 106.827182,120.109761 C106.861182,120.090761 106.898182,120.072761 106.958182,120.049761 C107.073182,120.003761 107.234182,119.954761 107.428182,119.893761 C107.621182,119.828761 107.842182,119.759761 108.105182,119.626761 C108.233182,119.561761 108.374182,119.476761 108.514182,119.367761 C108.650182,119.264761 108.816182,119.083761 108.876182,118.999761 C109.159182,118.629761 109.351182,118.337761 109.579182,117.950761 C109.638182,117.839761 109.691182,117.775761 109.786182,117.515761 C109.845182,117.345761 109.875182,117.175761 109.891182,117.035761 C109.918182,116.749761 109.915182,116.591761 109.926182,116.542761 L109.932182,116.506761 C109.944182,116.477761 109.962182,116.442761 109.984182,116.404761 C110.033182,116.326761 110.108182,116.233761 110.204182,116.134761 C110.399182,115.933761 110.664182,115.722761 110.969182,115.469761 C111.274182,115.219761 111.643182,114.867761 111.907182,114.479761 C112.039182,114.289761 112.143182,114.116761 112.237182,113.959761 L112.369182,113.745761 C112.400182,113.696761 112.435182,113.647761 112.475182,113.596761 C112.630182,113.395761 112.869182,113.181761 113.161182,112.911761 C113.306182,112.777761 113.461182,112.627761 113.613182,112.457761 C113.760182,112.290761 113.896182,112.124761 114.019182,111.951761 C114.271182,111.607761 114.479182,111.252761 114.668182,110.902761 C115.043182,110.200761 115.335182,109.515761 115.652182,108.888761 C115.809182,108.579761 115.972182,108.286761 116.147182,108.036761 C116.319182,107.784761 116.514182,107.580761 116.671182,107.479761 C116.922182,107.319761 117.246182,107.166761 117.608182,106.967761 C117.787182,106.867761 117.975182,106.752761 118.154182,106.624761 C118.277182,106.538761 118.377182,106.478761 118.515182,106.409761 C118.779182,106.277761 119.117182,106.164761 119.499182,106.005761 C119.690182,105.925761 119.893182,105.832761 120.097182,105.712761 C120.198182,105.650761 120.300182,105.585761 120.399182,105.510761 C120.494182,105.440761 120.557182,105.387761 120.637182,105.324761 C121.242182,104.839761 121.798182,104.330761 122.346182,103.845761 C122.894182,103.362761 123.435182,102.898761 124.003182,102.506761 C124.145182,102.408761 124.288182,102.314761 124.433182,102.226761 L124.906182,101.945761 C125.239182,101.744761 125.563182,101.534761 125.878182,101.314761 C126.510182,100.874761 127.110182,100.400761 127.686182,99.8957609 C127.727182,99.8597609 127.769182,99.8227609 127.811182,99.7847609 C128.503182,100.471761 129.316182,100.681761 130.537182,99.9037609 C131.525182,99.2737609 133.658182,97.6767609 134.727182,98.8547609 C135.755182,99.9897609 134.371182,102.444761 136.573182,102.434761 C136.607182,102.833761 136.655182,103.219761 136.721182,103.602761 C137.243182,103.457761 137.492182,103.003761 137.954182,102.876761 C138.246182,103.909761 137.734182,105.124761 138.122182,106.119761 C138.847182,105.880761 139.123182,104.819761 139.540182,104.249761 C140.340182,103.157761 141.263182,102.570761 141.839182,101.304761 C142.482182,99.8927609 142.963182,98.6647609 143.308182,97.2307609 C143.897182,97.4167609 144.026182,98.2337609 144.576182,98.6367609 C145.209182,99.0997609 146.078182,99.2107609 146.855182,99.1227609 C149.217182,98.8527609 150.160182,96.2987609 150.750182,94.3327609 C150.956182,93.6467609 150.629182,93.7947609 151.164182,93.3937609 C151.454182,93.3527609 151.733182,93.3967609 151.997182,93.5267609 C153.594182,94.0337609 155.237182,94.2707609 156.927182,94.2387609 C157.981182,94.1087609 159.034182,93.9787609 160.088182,93.8497609 C161.066182,93.5467609 162.020182,93.1867609 162.952182,92.7687609 C163.331182,92.7267609 163.612182,92.7757609 163.774182,92.9407609 C163.934182,90.9457609 165.767182,87.8887609 167.491182,88.2677609 C168.235182,88.4307609 168.527182,89.2877609 169.413182,88.3267609 C170.103182,87.5767609 170.233182,85.5497609 170.572182,84.5837609 C170.851182,83.7907609 170.918182,83.1177609 170.915182,82.1577609 C170.912182,81.4147609 171.129182,80.3727609 170.843182,79.6817609 Z" fill="#313934"></path>
    </g>
</svg>