<?xml version="1.0" encoding="UTF-8"?>
<svg width="151px" height="180px" viewBox="0 0 151 180" version="1.1" xmlns="http://www.w3.org/2000/svg" xmlns:xlink="http://www.w3.org/1999/xlink">
    <!-- Generator: Sketch 51.3 (57544) - http://www.bohemiancoding.com/sketch -->
    <title>Fill 20 Copy</title>
    <desc>Created with Sketch.</desc>
    <defs></defs>
    <g id="tree" stroke="none" stroke-width="1" fill="none" fill-rule="evenodd">
        <path d="M44.5422914,102.131956 C44.3882914,102.760956 44.2242914,103.380956 43.9912914,103.960956 C43.9652914,104.024956 43.9332914,104.088956 43.9052914,104.152956 C43.8562914,104.027956 43.8062914,103.904956 43.7572914,103.784956 C43.6462914,103.501956 43.5452914,103.222956 43.4962914,102.944956 C43.4452914,102.678956 43.4552914,102.372956 43.4632914,102.074956 C43.4852914,101.472956 43.6142914,100.919956 43.8102914,100.324956 C43.9882914,99.7309558 44.1522914,99.1369558 44.3362914,98.5569558 C44.4732914,99.3259558 44.3642914,100.479956 44.8012914,101.055956 C44.7172914,101.411956 44.6232914,101.774956 44.5422914,102.131956 Z M43.8982914,105.667956 C43.9442914,105.960956 43.9602914,106.260956 43.9642914,106.565956 C43.9632914,106.874956 43.9812914,107.203956 44.0242914,107.514956 C44.1072914,108.140956 44.2542914,108.740956 44.3032914,109.345956 C44.3142914,109.479956 44.3242914,109.641956 44.3592914,109.794956 C44.2542914,109.745956 44.1402914,109.706956 44.0312914,109.678956 C43.4432914,109.527956 42.5082914,109.688956 42.0042914,110.004956 C41.9432914,109.950956 41.8912914,109.890956 41.8382914,109.832956 C41.8902914,109.700956 41.9452914,109.568956 42.0002914,109.434956 C42.1252914,109.135956 42.2492914,108.802956 42.3272914,108.475956 C42.3882914,108.234956 42.4472914,108.001956 42.5142914,107.777956 C42.7842914,107.893956 43.0712914,107.957956 43.3382914,107.862956 C44.0692914,107.600956 43.8122914,106.748956 43.7832914,106.046956 C43.7772914,105.907956 43.7652914,105.780956 43.7492914,105.661956 C43.7872914,105.605956 43.8252914,105.551956 43.8632914,105.494956 C43.8742914,105.552956 43.8892914,105.608956 43.8982914,105.667956 Z M44.5922914,110.524956 C44.6032914,110.567956 44.6112914,110.611956 44.6192914,110.656956 C44.5492914,110.658956 44.4782914,110.655956 44.4082914,110.662956 C44.4842914,110.615956 44.5422914,110.569956 44.5922914,110.524956 Z M16.5602914,90.3719558 C15.8212914,90.5269558 15.1392914,90.8419558 14.4782914,91.1549558 C13.3602914,91.7449558 12.1502914,92.0879558 10.9152914,92.3429558 C10.9712914,92.0509558 11.1792914,92.0459558 11.8402914,91.7539558 C13.3442914,91.0899558 14.4182914,89.3099558 16.0742914,89.0199558 C17.3992914,88.7889558 17.7542914,89.3879558 17.8682914,90.2179558 C17.4312914,90.2369558 16.9932914,90.2799558 16.5602914,90.3719558 Z M85.4652914,130.430956 C85.5792914,130.402956 85.6612914,130.408956 85.6682914,130.406956 C85.6832914,130.419956 85.7032914,130.436956 85.7232914,130.460956 C85.7442914,130.481956 85.7682914,130.514956 85.7912914,130.540956 C85.6192914,130.514956 85.4492914,130.495956 85.2802914,130.483956 C85.3452914,130.462956 85.4072914,130.443956 85.4652914,130.430956 Z M34.7622914,43.7919558 C34.7832914,43.6449558 34.8172914,43.5039558 34.8602914,43.3659558 C34.7832914,44.0219558 34.7372914,44.6859558 34.7862914,45.3719558 C34.7882914,45.3889558 34.7902914,45.4049558 34.7912914,45.4209558 C34.6712914,45.4129558 34.5492914,45.4029558 34.4232914,45.3879558 C34.3032914,44.9509558 34.3242914,44.5009558 34.4062914,44.0479558 C34.5332914,43.9749558 34.6552914,43.8939558 34.7622914,43.7919558 Z M86.7152914,117.927956 C86.8482914,117.588956 86.9972914,117.232956 87.1372914,116.847956 C87.2082914,116.655956 87.2762914,116.455956 87.3382914,116.246956 C87.3692914,116.141956 87.3982914,116.032956 87.4262914,115.923956 C87.4512914,115.803956 87.4772914,115.717956 87.5022914,115.544956 C87.5822914,114.930956 87.4832914,114.493956 87.4452914,114.136956 C87.4222914,113.960956 87.4042914,113.805956 87.4022914,113.688956 C87.4022914,113.628956 87.4012914,113.592956 87.4082914,113.534956 C87.4122914,113.476956 87.4222914,113.419956 87.4342914,113.358956 C87.4552914,113.246956 87.4972914,113.116956 87.5492914,112.966956 C87.8922914,112.901956 88.2832914,112.789956 88.8152914,112.546956 C89.9952914,112.009956 91.2632914,110.924956 92.5912914,111.375956 C93.6562914,111.737956 94.4292914,112.591956 95.1782914,113.449956 C95.1232914,113.822956 95.0642914,114.193956 94.9952914,114.560956 C94.8672914,115.224956 94.7242914,115.886956 94.5022914,116.490956 C94.3892914,116.794956 94.2622914,117.093956 94.1112914,117.363956 C93.9652914,117.628956 93.7722914,117.898956 93.6282914,117.986956 C93.5572914,118.034956 93.5022914,118.047956 93.3952914,118.059956 C93.2852914,118.068956 93.1312914,118.061956 92.9612914,118.053956 C92.5952914,118.036956 92.2822914,118.024956 91.9352914,118.001956 C91.2542914,117.959956 90.5542914,117.901956 89.8242914,117.910956 C89.0992914,117.920956 88.3342914,117.990956 87.5812914,118.247956 C87.3922914,118.305956 87.2092914,118.389956 87.0242914,118.468956 C86.8602914,118.545956 86.6962914,118.626956 86.5322914,118.712956 C86.4952914,118.731956 86.4602914,118.754956 86.4242914,118.773956 C86.4902914,118.523956 86.5942914,118.232956 86.7152914,117.927956 Z M59.5192914,54.7809558 C60.0682914,55.0289558 59.9702914,55.3879558 60.3242914,55.7909558 C61.2722914,56.8659558 62.8532914,57.0809558 64.0892914,57.7189558 C64.0902914,57.7229558 64.0922914,57.7269558 64.0942914,57.7309558 C64.1762914,57.9079558 64.2672914,58.0669558 64.3612914,58.2309558 C64.5472914,58.5539558 64.7472914,58.8629558 64.9442914,59.1669558 C65.0572914,59.3409558 65.1662914,59.5109558 65.2732914,59.6809558 C64.5032914,60.6479558 61.7002914,61.1969558 60.6952914,61.3879558 C59.6402914,61.5869558 58.5792914,61.8549558 57.5362914,61.8509558 C57.3772914,61.5579558 57.2282914,61.2589558 57.0902914,60.9529558 C56.9292914,60.5359558 56.7832914,60.1069558 56.6272914,59.6739558 C56.4692914,59.2309558 56.3122914,58.7919558 56.1712914,58.3489558 C56.1162914,58.1429558 56.0652914,57.9349558 56.0172914,57.7269558 C55.7832914,56.7279558 55.6722914,55.6999558 55.5942914,54.6559558 C56.0882914,54.7319558 56.5672914,54.7689558 56.9572914,54.7839558 C57.6382914,54.8089558 58.8872914,54.4959558 59.5192914,54.7809558 Z M81.9562914,82.3779558 C81.9592914,82.9349558 81.9592914,83.4739558 81.9302914,84.0219558 C81.9122914,84.4309558 81.8862914,84.8439558 81.8632914,85.2619558 C81.7792914,85.0789558 81.6922914,84.9079558 81.6102914,84.7489558 C81.4282914,84.4059558 81.2902914,84.1269558 81.1282914,83.7739558 C81.0252914,83.5559558 80.9172914,83.3269558 80.7962914,83.0949558 C81.1792914,82.8139558 81.5512914,82.5629558 81.9562914,82.3779558 Z M65.6512914,80.1769558 C66.9682914,80.3209558 67.5842914,82.7269558 67.8242914,83.7629558 C68.4282914,83.9299558 68.4842914,83.3119558 69.1552914,83.4959558 C69.6042914,84.6709558 69.7132914,85.8289558 70.3042914,86.9279558 C70.5342914,87.3549558 71.0662914,88.3429558 71.4972914,88.5339558 C71.8002914,88.3509558 72.1152914,88.1149558 72.4292914,87.8379558 C72.4112914,87.8879558 72.3912914,87.9429558 72.3642914,88.0149558 C72.3012914,88.1749558 72.2122914,88.3939558 72.1582914,88.6489558 C72.1472914,88.6969558 72.1272914,88.8129558 72.1232914,88.8929558 C72.1172914,88.9789558 72.1182914,89.0559558 72.1212914,89.1249558 C72.1282914,89.2609558 72.1432914,89.3689558 72.1522914,89.4519558 C72.1552914,89.4729558 72.1562914,89.4889558 72.1582914,89.5069558 C72.1582914,89.5509558 72.1592914,89.5929558 72.1602914,89.6339558 C72.1592914,89.6429558 72.1562914,89.6529558 72.1522914,89.6659558 C72.1432914,89.7139558 72.0612914,89.8459558 71.9562914,90.1399558 C71.9332914,90.2059558 71.9092914,90.2979558 71.8972914,90.3599558 L71.8702914,90.4929558 L71.8182914,90.7589558 L71.7142914,91.2889558 C71.6422914,91.6449558 71.5812914,91.9869558 71.4972914,92.3599558 C71.3442914,93.0949558 71.2222914,93.8449558 71.1602914,94.6149558 C71.0802914,95.7149558 71.1342914,96.7869558 71.2692914,97.8429558 C71.2512914,97.9939558 71.2272914,98.1439558 71.2102914,98.2959558 C71.1062914,99.1939558 71.0412914,100.096956 71.0042914,100.997956 C70.9862914,101.418956 70.9782914,101.839956 70.9722914,102.258956 C70.7832914,102.412956 70.6162914,102.571956 70.4822914,102.736956 C69.9652914,103.375956 68.9312914,105.342956 69.8962914,105.985956 C69.5122914,105.889956 69.0942914,105.884956 68.7162914,106.000956 C68.5152914,106.529956 68.7132914,107.072956 69.0022914,107.539956 C69.1772914,107.487956 69.3442914,107.419956 69.5052914,107.335956 C69.7192914,108.239956 69.1462914,109.771956 69.4862914,110.581956 C69.1952914,110.650956 68.8912914,110.766956 68.6352914,110.697956 C68.0862914,110.550956 67.7492914,109.957956 67.4652914,109.506956 C66.3872914,107.796956 67.1452914,106.344956 66.7122914,104.498956 C64.5742914,104.278956 65.1192914,109.286956 66.6792914,110.143956 C67.3632914,110.520956 67.6022914,110.179956 67.7782914,111.176956 C67.9052914,111.891956 67.2952914,112.681956 67.2312914,113.385956 C68.8762914,113.969956 71.1232914,114.830956 72.8472914,114.301956 C73.3322914,114.152956 73.5542914,113.843956 73.9812914,113.879956 C73.9492914,114.216956 73.9082914,114.542956 73.8442914,114.860956 C73.6962914,115.628956 73.5492914,116.412956 73.4232914,117.191956 C73.1652914,118.752956 72.9542914,120.320956 72.7892914,121.892956 C72.7832914,121.961956 72.7782914,122.029956 72.7712914,122.097956 C72.5982914,122.769956 72.4952914,123.394956 72.3952914,124.008956 L72.2222914,125.068956 L72.1272914,125.571956 C72.0932914,125.744956 72.0612914,125.877956 72.0172914,126.078956 C71.8482914,126.827956 71.7132914,127.613956 71.6442914,128.409956 C71.6092914,128.807956 71.5912914,129.206956 71.5852914,129.601956 L71.5682914,130.688956 L71.5222914,132.874956 C71.4912914,134.557956 71.4802914,136.278956 71.5862914,138.018956 C71.4062914,137.796956 71.2242914,137.574956 71.0482914,137.351956 L70.8632914,137.117956 L70.7712914,136.999956 L70.6962914,136.898956 C70.5932914,136.765956 70.4982914,136.625956 70.4062914,136.480956 C70.2202914,136.192956 70.0502914,135.881956 69.8872914,135.548956 C69.5622914,134.883956 69.2682914,134.123956 68.9052914,133.326956 C68.5392914,132.515956 68.0942914,131.736956 67.6592914,131.022956 C67.2232914,130.304956 66.7862914,129.620956 66.3952914,128.944956 C66.0002914,128.267956 65.6702914,127.608956 65.3802914,126.899956 C65.1332914,126.300956 64.9242914,125.678956 64.7342914,125.044956 C64.7212914,124.960956 64.7082914,124.876956 64.6932914,124.796956 C64.6032914,124.350956 64.4782914,123.952956 64.3532914,123.585956 L64.2972914,123.423956 C64.2162914,123.084956 64.1372914,122.743956 64.0652914,122.398956 C63.8982914,121.614956 63.7482914,120.817956 63.5972914,120.013956 L63.4852914,119.407956 C63.4462914,119.204956 63.4112914,119.008956 63.3632914,118.781956 C63.3472914,118.701956 63.3252914,118.623956 63.3082914,118.543956 L63.2712914,118.282956 C63.1852914,117.664956 63.0912914,117.020956 62.9432914,116.370956 C62.9062914,116.207956 62.8652914,116.044956 62.8212914,115.881956 L62.7012914,115.429956 L61.9832914,112.722956 C61.8222914,112.171956 61.6932914,111.564956 61.5092914,110.927956 C61.4172914,110.608956 61.3092914,110.283956 61.1722914,109.957956 C61.1052914,109.794956 61.0272914,109.632956 60.9452914,109.472956 L60.7202914,109.055956 C60.1702914,108.042956 59.6412914,107.086956 59.3852914,106.102956 C59.8762914,107.019956 60.2682914,108.019956 60.5792914,108.546956 C61.1902914,104.324956 61.1972914,100.184956 60.6862914,95.9879558 C61.6702914,95.2839558 62.9502914,94.7499558 63.1292914,93.4029558 C63.2362914,92.6019558 62.5602914,91.6849558 62.3602914,90.9379558 C62.1452914,90.1359558 62.0782914,89.4169558 62.0612914,88.5859558 C62.0362914,87.3759558 61.8262914,86.6839558 63.0082914,86.2029558 C63.9002914,85.8399558 64.5222914,85.9479558 64.4622914,84.8159558 C64.3932914,83.5309558 63.5182914,84.1059558 62.6142914,83.4329558 C61.7832914,82.8149558 61.9282914,82.3519558 62.6042914,81.8939558 C63.1272914,81.5399558 63.8252914,81.4519558 64.3572914,81.0639558 C64.8182914,80.7289558 65.0762914,80.1139558 65.6512914,80.1769558 Z M71.7212914,110.677956 C72.3112914,110.547956 73.0792914,110.583956 73.8362914,110.761956 L74.0162914,111.226956 C74.0742914,111.382956 74.1282914,111.538956 74.1822914,111.693956 C74.1632914,111.789956 74.1432914,111.888956 74.1272914,111.992956 C74.1082914,112.111956 74.0922914,112.235956 74.0832914,112.365956 L74.0632914,112.679956 C74.0552914,112.820956 74.0472914,112.956956 74.0392914,113.093956 C73.3772914,113.246956 72.3322914,113.676956 71.8802914,113.533956 C70.7822914,113.186956 71.1462914,111.847956 70.6722914,111.064956 C71.0202914,110.949956 71.3852914,110.751956 71.7212914,110.677956 Z M77.2622914,80.5459558 C77.2742914,80.5759558 77.2842914,80.6059558 77.2962914,80.6359558 C77.4142914,80.9309558 77.5642914,81.2269558 77.7312914,81.5079558 C77.7342914,81.5169558 77.7372914,81.5279558 77.7402914,81.5379558 C77.9452914,82.3099558 78.2102914,83.1189558 78.6292914,83.8759558 C79.0452914,84.6369558 79.6272914,85.3149558 80.2622914,85.8629558 C80.2732914,85.8729558 80.2852914,85.8819558 80.2972914,85.8919558 C80.3732914,86.0659558 80.4352914,86.2299558 80.4732914,86.3839558 C80.5082914,86.5149558 80.5282914,86.6429558 80.5352914,86.7759558 C80.5402914,86.8429558 80.5402914,86.9109558 80.5392914,86.9789558 L80.5352914,87.2759558 L80.5442914,88.4039558 C80.5442914,88.5829558 80.5422914,88.7579558 80.5352914,88.9279558 L80.5292914,89.0549558 C80.5272914,89.0959558 80.5242914,89.1439558 80.5212914,89.1609558 C80.5172914,89.2089558 80.5082914,89.2589558 80.4932914,89.3169558 C80.4502914,89.5409558 80.2582914,89.9199558 80.1752914,90.4739558 C80.1362914,90.7639558 80.1502914,91.0059558 80.1492914,91.1659558 C80.1482914,91.3359558 80.1412914,91.3959558 80.1172914,91.4789558 L79.8142914,92.5449558 C79.7102914,92.9139558 79.6072914,93.2999558 79.5252914,93.7009558 L79.3102914,94.8099558 L78.9752914,96.4599558 C78.7592914,96.4409558 78.5342914,96.3939558 78.2902914,96.3059558 C77.7972914,96.1269558 77.4602914,95.6739558 76.9132914,95.4679558 C72.4782914,93.7949558 72.2922914,101.180956 75.6372914,100.273956 C75.1392914,100.376956 74.5372914,100.540956 73.9172914,100.755956 C73.7242914,100.218956 73.5802914,99.6399558 73.4212914,99.0149558 L73.3442914,98.7229558 C73.3182914,98.6199558 73.3032914,98.5689558 73.2862914,98.4849558 C73.2632914,98.3779558 73.2492914,98.2619558 73.2342914,98.1449558 C73.3082914,97.4139558 73.4012914,96.6839558 73.5232914,95.9569558 C73.5922914,95.5339558 73.6722914,95.1119558 73.7552914,94.6899558 L74.0192914,93.3889558 C74.3582914,91.6069558 74.5332914,89.8499558 74.8212914,88.1569558 C74.8952914,87.7349558 74.9702914,87.3129558 75.0622914,86.8999558 C75.1042914,86.6919558 75.1562914,86.4889558 75.2032914,86.2819558 C75.2562914,86.0469558 75.3132914,85.8029558 75.3462914,85.5639558 C75.4992914,84.6069558 75.5022914,83.6789558 75.4742914,82.7749558 C75.4452914,81.8709558 75.3742914,80.9889558 75.3312914,80.1279558 L75.3172914,79.7999558 C75.9572914,79.9679558 76.6672914,80.2559558 77.2622914,80.5459558 Z M94.0612914,81.4489558 L93.4572914,81.8869558 C92.8432914,82.3379558 92.2332914,82.8099558 91.6442914,83.3109558 C91.3502914,83.5619558 91.0602914,83.8199558 90.7772914,84.0859558 C90.4852914,84.3659558 90.2472914,84.5919558 89.9622914,84.8389558 C89.4012914,85.3299558 88.8042914,85.8299558 88.2532914,86.4199558 C87.9752914,86.7119558 87.7092914,87.0339558 87.4712914,87.4009558 C87.2372914,87.7669558 87.0182914,88.1879558 86.9392914,88.7069558 C86.9362914,88.7269558 86.9372914,88.7449558 86.9352914,88.7649558 C86.2392914,88.2049558 85.6632914,87.8019558 84.9862914,87.3199558 C84.8032914,87.1959558 84.6242914,87.0759558 84.4312914,86.9579558 C84.9372914,84.7959558 85.2612914,82.6319558 85.9312914,80.5789558 C86.1552914,79.8479558 86.4872914,79.1299558 86.7412914,78.3609558 C87.7072914,78.4729558 88.1042914,79.5719558 88.7152914,80.0579558 C89.7532914,80.8849558 90.9282914,80.5149558 92.0292914,80.1129558 C92.7522914,79.8489558 93.0092914,79.3199558 93.7202914,79.9279558 C94.1542914,80.2989558 94.1232914,80.8689558 94.0612914,81.4489558 Z M83.5742914,86.5269558 C83.5522914,86.5179558 83.5322914,86.5109558 83.5102914,86.5029558 C83.9082914,84.9919558 84.2592914,83.4639558 84.5102914,81.9129558 C84.5122914,81.9029558 84.5132914,81.8939558 84.5152914,81.8849558 C84.7132914,81.2559558 84.8982914,80.6249558 85.0632914,79.9939558 C85.1682914,79.5949558 85.2672914,79.1959558 85.3662914,78.7989558 C85.5752914,78.6299558 85.8032914,78.4969558 86.0542914,78.4219558 C85.8042914,79.0489558 85.5012914,79.6779558 85.2652914,80.3479558 C84.5212914,82.3839558 84.1162914,84.4959558 83.5742914,86.5269558 Z M86.4622914,91.3949558 C86.2682914,92.0389558 86.1072914,92.6859558 85.9662914,93.3299558 C85.8272914,93.9719558 85.6912914,94.6099558 85.5832914,95.2769558 C85.5332914,95.5859558 85.4902914,95.8959558 85.4522914,96.2079558 C85.0152914,96.0119558 84.5822914,95.8079558 84.0982914,95.6969558 C84.1142914,95.6079558 84.1342914,95.5229558 84.1462914,95.4309558 C84.2062914,94.9969558 84.2202914,94.5489558 84.1862914,94.1109558 C84.1512914,93.6509558 84.0512914,93.2139558 83.9382914,92.8249558 C83.9082914,92.7219558 83.8792914,92.6279558 83.8492914,92.5299558 C83.8422914,92.3159558 83.8342914,92.1049558 83.8232914,91.8989558 C83.8062914,91.5669558 83.7882914,91.2449558 83.7812914,90.9319558 L83.7742914,90.6769558 C83.7722914,90.5839558 83.7662914,90.4919558 83.7602914,90.3999558 C83.7472914,90.2169558 83.7272914,90.0359558 83.7042914,89.8579558 C83.6962914,89.8019558 83.6862914,89.7489558 83.6782914,89.6939558 L84.0042914,88.5919558 C84.0122914,88.5639558 84.0192914,88.5369558 84.0272914,88.5109558 C84.0532914,88.5289558 84.0802914,88.5479558 84.1062914,88.5659558 C84.6942914,89.0039558 85.3822914,89.5239558 85.8922914,89.9579558 C86.1642914,90.2169558 86.4232914,90.4899558 86.6632914,90.7789558 C86.5932914,90.9829558 86.5252914,91.1889558 86.4622914,91.3949558 Z M82.0022914,120.078956 L82.0112914,120.036956 L82.1022914,119.567956 C82.1042914,119.556956 82.1072914,119.547956 82.1102914,119.536956 C82.1022914,119.621956 82.0942914,119.705956 82.0842914,119.786956 C82.0562914,119.883956 82.0302914,119.980956 82.0022914,120.078956 Z M81.8162914,95.7339558 C81.8122914,95.7599558 81.8092914,95.7839558 81.8052914,95.8079558 C81.7992914,95.8099558 81.7922914,95.8109558 81.7852914,95.8129558 C81.7972914,95.7789558 81.8082914,95.7439558 81.8202914,95.7089558 L81.8162914,95.7339558 Z M87.1702914,94.9969558 C87.1762914,95.0279558 87.1812914,95.0599558 87.1882914,95.0929558 C87.1742914,95.1109558 87.1602914,95.1299558 87.1462914,95.1489558 C87.1542914,95.0979558 87.1612914,95.0479558 87.1702914,94.9969558 Z M93.0462914,90.4859558 C92.2152914,90.6809558 91.6912914,91.2399558 91.1742914,91.8819558 C90.8222914,92.3169558 90.4922914,93.3309558 90.0512914,93.8349558 C89.9452914,93.4439558 89.8172914,93.0599558 89.6692914,92.6839558 C89.5932914,92.3379558 89.4782914,92.0089558 89.3532914,91.7169558 C89.1912914,91.3369558 89.0142914,90.9909558 88.8542914,90.6599558 C88.8352914,90.6209558 88.8192914,90.5849558 88.8012914,90.5459558 C88.8962914,90.2169558 89.0002914,89.8929558 89.1202914,89.5819558 C89.3502914,88.9729558 89.6422914,88.4039558 90.0082914,87.8789558 C90.2622914,87.5209558 90.5732914,87.1489558 90.8882914,86.7809558 C91.2302914,86.5049558 91.5872914,86.2379558 91.9512914,85.9769558 L93.5412914,84.8559558 C93.8002914,84.6679558 94.0922914,84.4559558 94.3492914,84.2199558 C94.5432914,84.0449558 94.7212914,83.8649558 94.8952914,83.6849558 C95.1512914,83.7719558 95.4622914,83.8329558 95.8672914,84.0479558 C96.7752914,84.5289558 97.4502914,85.3369558 97.9502914,86.2109558 C98.5402914,87.2429558 99.0222914,88.2789558 99.1692914,89.4869558 C99.5252914,92.4219558 94.7252914,90.0919558 93.0462914,90.4859558 Z M35.4302914,45.3149558 C35.3472914,44.4749558 35.4322914,43.5849558 35.5352914,42.7129558 C35.5582914,42.5229558 35.5842914,42.3339558 35.6112914,42.1429558 C35.9872914,41.5779558 36.4962914,41.2649558 37.1422914,41.2129558 C37.3362914,43.3699558 38.7692914,44.3039558 40.4812914,44.6809558 C39.7982914,45.2999558 39.3962914,45.9949558 40.3512914,46.9239558 C40.7772914,47.3379558 41.8672914,47.4809558 42.4612914,47.6199558 C43.5282914,47.8699558 44.6922914,47.8659558 45.5472914,47.3109558 C45.5942914,48.3939558 46.0542914,48.0649558 46.8232914,48.1809558 C47.6342914,48.3039558 47.9722914,48.5559558 48.5992914,49.0149558 C49.1372914,49.4079558 49.6512914,49.8069558 50.2002914,49.9789558 C50.8632914,50.6919558 51.1622914,51.1859558 51.3662914,52.3639558 C52.4852914,52.3129558 52.4732914,53.1449558 53.1452914,53.7359558 C53.5642914,54.1049558 54.1852914,54.3479558 54.8402914,54.5089558 C54.8932914,55.6339558 54.9792914,56.7709558 55.2142914,57.9009558 C55.4822914,59.2109558 55.8792914,60.5019558 56.4442914,61.7289558 C56.2082914,61.6749558 55.9742914,61.6019558 55.7412914,61.5019558 C54.1982914,60.8369558 53.3292914,59.2249558 52.2792914,57.9769558 C51.5902914,57.1579558 50.7552914,56.5149558 50.2112914,55.6069558 C49.8222914,54.9599558 49.7902914,54.1589558 49.2172914,53.5899558 C47.0002914,51.3899558 42.1802914,54.1419558 39.4752914,53.2629558 C40.2122914,52.0239558 41.2152914,50.9229558 41.8952914,49.6569558 C42.7132914,48.1359558 41.5742914,47.7089558 40.3012914,47.0579558 C39.2132914,46.5029558 37.9742914,45.9829558 36.8052914,45.6309558 C36.3212914,45.4839558 35.8872914,45.4619558 35.4462914,45.4479558 C35.4402914,45.4039558 35.4342914,45.3599558 35.4302914,45.3149558 Z M40.0552914,103.888956 C40.1482914,103.601956 40.3182914,103.265956 40.4922914,102.911956 C40.5562914,102.898956 40.6172914,102.878956 40.6802914,102.861956 C40.4872914,103.192956 40.2942914,103.520956 40.0852914,103.842956 C40.0752914,103.857956 40.0652914,103.872956 40.0552914,103.888956 Z M42.0922914,101.142956 C42.0372914,101.453956 41.9632914,101.760956 41.8522914,102.048956 C41.7482914,102.300956 41.5142914,102.461956 41.2612914,102.576956 C41.1972914,102.605956 41.1302914,102.629956 41.0652914,102.656956 C41.1002914,102.600956 41.1352914,102.544956 41.1702914,102.490956 C41.4662914,102.049956 41.8202914,101.629956 42.0922914,101.142956 Z M41.8862914,100.915956 C41.6442914,101.418956 41.2832914,101.866956 40.9732914,102.362956 C40.8902914,102.502956 40.8102914,102.639956 40.7292914,102.778956 C40.6622914,102.800956 40.5952914,102.821956 40.5282914,102.839956 C40.8682914,102.143956 41.1952914,101.391956 40.9232914,100.837956 C40.0952914,100.643956 38.6022914,101.173956 38.5442914,99.8579558 C38.5262914,99.4569558 38.9222914,99.1429558 39.0842914,98.8229558 C39.4812914,98.0369558 39.4882914,97.4219558 39.6302914,96.5899558 C40.5562914,96.4319558 42.1392914,96.6419558 43.2122914,97.2159558 C42.9292914,97.6959558 42.7152914,98.2099558 42.5362914,98.7279558 C42.3622914,99.1779558 42.2762914,99.6639558 42.2202914,100.139956 C42.1202914,100.403956 42.0122914,100.664956 41.8862914,100.915956 Z M85.6472914,130.389956 C85.6442914,130.388956 85.6402914,130.387956 85.6372914,130.384956 C85.6352914,130.382956 85.6362914,130.383956 85.6362914,130.382956 C85.6372914,130.382956 85.6442914,130.388956 85.6472914,130.389956 Z M92.9472914,131.665956 L92.8312914,131.787956 C92.7912914,131.832956 92.7732914,131.842956 92.7442914,131.871956 C92.3382914,132.292956 91.7592914,132.432956 91.1242914,132.368956 C89.8312914,132.239956 88.5782914,131.349956 87.6732914,130.300956 C87.6102914,130.226956 87.5162914,130.076956 87.4082914,129.905956 C87.2982914,129.736956 87.1792914,129.550956 87.0102914,129.345956 C86.9242914,129.242956 86.8212914,129.131956 86.6762914,129.015956 C86.6362914,128.985956 86.5982914,128.957956 86.5542914,128.928956 C86.5052914,128.897956 86.4532914,128.869956 86.4022914,128.842956 C86.3082914,128.800956 86.2142914,128.764956 86.1192914,128.734956 C85.7462914,128.633956 85.4282914,128.655956 85.1582914,128.696956 C84.7342914,128.770956 84.3822914,128.898956 84.0572914,129.041956 C84.0822914,128.936956 84.1072914,128.833956 84.1322914,128.728956 L84.3952914,127.626956 C84.4752914,127.292956 84.5712914,126.951956 84.6762914,126.600956 C84.8852914,125.899956 85.1322914,125.163956 85.3262914,124.366956 L85.3882914,124.113956 C85.4072914,124.044956 85.4262914,123.973956 85.4502914,123.898956 C85.4972914,123.749956 85.5542914,123.589956 85.6172914,123.422956 C85.7422914,123.087956 85.8902914,122.730956 86.0302914,122.316956 C86.0982914,122.107956 86.1672914,121.882956 86.2172914,121.606956 C86.2602914,121.359956 86.2802914,121.136956 86.2942914,120.915956 C86.2992914,120.820956 86.3022914,120.728956 86.3052914,120.639956 C86.3542914,120.605956 86.4042914,120.573956 86.4532914,120.537956 L86.6602914,120.383956 L86.8502914,120.248956 C86.9792914,120.159956 87.1132914,120.074956 87.2502914,119.992956 C87.3862914,119.910956 87.5272914,119.830956 87.6702914,119.753956 C87.8002914,119.690956 87.9262914,119.620956 88.0642914,119.570956 C89.1602914,119.124956 90.5142914,119.163956 91.8952914,119.174956 C92.2382914,119.178956 92.6132914,119.171956 92.9362914,119.167956 C93.1102914,119.165956 93.3012914,119.169956 93.5342914,119.136956 C93.7672914,119.103956 94.0492914,119.003956 94.2532914,118.839956 C94.4592914,118.680956 94.5982914,118.497956 94.7102914,118.330956 C94.8222914,118.161956 94.9142914,117.991956 94.9972914,117.820956 C95.1622914,117.479956 95.2862914,117.135956 95.3932914,116.786956 C95.6062914,116.082956 95.7132914,115.383956 95.8072914,114.688956 C95.8272914,114.529956 95.8412914,114.372956 95.8592914,114.214956 C96.2392914,114.622956 96.6322914,114.996956 97.0742914,115.271956 C97.5502914,115.568956 98.0662914,115.422956 98.5762914,115.820956 C99.3722914,116.442956 99.9102914,117.732956 100.478291,118.545956 C98.9732914,119.993956 98.2352914,121.763956 97.7492914,123.778956 C96.8032914,124.064956 95.5412914,123.639956 94.5992914,123.479956 C93.5612914,123.304956 91.4192914,122.537956 90.5352914,123.197956 C88.9392914,124.389956 91.4052914,127.714956 92.3632914,128.742956 C93.1082914,129.542956 93.7802914,129.990956 94.5722914,130.188956 C94.5352914,130.231956 94.4992914,130.274956 94.4632914,130.315956 C94.2432914,130.561956 93.9632914,130.789956 93.6592914,131.035956 C93.5062914,131.159956 93.3452914,131.291956 93.1842914,131.436956 C93.1042914,131.510956 93.0242914,131.585956 92.9472914,131.665956 Z M41.5122914,109.398956 C41.1512914,108.794956 41.0132914,108.066956 40.9112914,107.380956 C38.7502914,107.120956 37.3822914,110.026956 35.8552914,110.982956 C35.5332914,109.101956 35.4662914,106.992956 37.2982914,105.890956 C37.5272914,105.752956 37.7382914,105.650956 37.9352914,105.577956 C38.0062914,105.555956 38.0762914,105.532956 38.1462914,105.508956 C39.6992914,105.074956 40.3372914,106.572956 41.7932914,107.385956 C41.8692914,107.428956 41.9532914,107.477956 42.0422914,107.529956 C41.9602914,107.812956 41.9022914,108.093956 41.8422914,108.359956 C41.7772914,108.671956 41.6792914,108.955956 41.5632914,109.263956 C41.5462914,109.307956 41.5292914,109.353956 41.5122914,109.398956 Z M43.0072914,103.041956 C43.0762914,103.372956 43.1992914,103.675956 43.3232914,103.964956 C43.4352914,104.213956 43.5392914,104.456956 43.6322914,104.699956 C43.5952914,104.765956 43.5562914,104.833956 43.5172914,104.900956 C42.9532914,103.908956 41.5862914,104.373956 40.1662914,104.031956 C40.1882914,104.001956 40.2102914,103.971956 40.2312914,103.939956 C40.4982914,103.557956 40.7472914,103.159956 40.9942914,102.767956 C41.0952914,102.732956 41.1972914,102.697956 41.2962914,102.656956 C41.5562914,102.550956 41.8312914,102.378956 41.9582914,102.098956 C42.1582914,101.647956 42.2492914,101.174956 42.3232914,100.700956 C42.5182914,100.289956 42.6792914,99.8649558 42.8362914,99.4449558 C43.0822914,98.7729558 43.3242914,98.1019558 43.6592914,97.4979558 C43.7532914,97.5699558 43.8382914,97.6459558 43.9152914,97.7259558 C43.6512914,98.5399558 43.4592914,99.3629558 43.2452914,100.164956 C43.1672914,100.453956 43.0742914,100.772956 43.0232914,101.092956 C42.9682914,101.412956 42.9382914,101.737956 42.9352914,102.059956 C42.9382914,102.379956 42.9332914,102.698956 43.0072914,103.041956 Z M149.908291,86.0479558 C149.897291,85.7139558 150.369291,85.3259558 150.376291,84.8159558 C150.388291,83.8489558 149.642291,83.7579558 149.393291,82.9609558 C149.265291,82.5519558 149.448291,81.9679558 149.426291,81.5289558 C149.394291,80.8839558 149.214291,80.4879558 149.003291,79.8869558 C148.666291,78.9279558 148.245291,78.2169558 148.007291,77.3039558 C147.793291,76.4829558 147.723291,76.1619558 146.976291,75.5529558 C146.405291,75.0879558 146.109291,74.7949558 145.699291,74.2359558 C145.408291,73.8389558 145.643291,73.1789558 144.801291,73.5849558 C144.619291,74.1189558 144.685291,74.6779558 144.746291,75.2319558 C144.261291,74.6609558 143.452291,74.4029558 142.469291,74.4449558 C143.432291,74.5959558 144.200291,74.9969558 144.781291,75.5609558 C144.813291,75.9209558 144.824291,76.2759558 144.741291,76.6199558 C144.429291,77.9359558 143.896291,76.7269558 143.095291,77.3219558 C142.151291,78.0219558 143.075291,80.1539558 143.260291,81.5729558 C143.092291,81.8529558 142.930291,82.1649558 142.766291,82.4829558 C141.579291,82.7109558 140.798291,83.1989558 139.850291,82.5019558 C139.973291,82.1349558 140.102291,81.7899558 140.154291,81.5289558 C140.409291,80.2579558 140.689291,78.8479558 140.512291,77.5389558 C140.378291,76.5539558 139.783291,75.2999558 139.201291,74.4639558 C138.459291,73.3999558 136.965291,73.0939558 135.801291,72.6079558 C134.646291,72.1269558 132.852291,71.5589558 132.021291,70.5329558 C131.025291,69.3049558 131.804291,68.1359558 129.893291,68.8119558 C128.478291,69.3139558 126.444291,70.2299558 124.586291,70.3699558 C124.575291,70.3259558 124.567291,70.2829558 124.554291,70.2379558 C124.206291,69.0189558 122.911291,69.1049558 122.250291,69.9729558 C122.223291,69.9599558 122.197291,69.9429558 122.170291,69.9289558 C122.229291,68.8789558 122.358291,68.5899558 121.278291,68.3719558 C121.135291,68.3439558 120.918291,68.3379558 120.670291,68.3329558 C120.152291,67.5729558 119.533291,66.7079558 118.817291,66.4819558 C117.455291,66.0539558 115.746291,66.0229558 114.293291,66.0349558 C113.155291,66.0449558 111.324291,66.2989558 110.393291,65.4709558 C110.263291,65.3549558 110.173291,65.2369558 110.112291,65.1169558 C110.311291,64.8769558 110.914291,64.2979558 111.009291,64.2529558 C111.893291,63.8289558 112.403291,64.6069558 113.227291,64.5799558 C113.288291,64.2159558 112.598291,63.1769558 111.972291,62.4169558 C112.364291,62.1049558 112.717291,61.8219558 112.914291,61.5859558 C113.875291,60.4379558 114.907291,59.6109558 115.951291,58.5549558 C116.387291,58.1149558 117.020291,56.9089558 117.617291,56.7139558 C119.455291,56.1099558 119.576291,60.6209558 119.421291,61.7799558 C120.938291,62.0969558 122.499291,61.2239558 123.534291,62.5669558 C123.772291,62.8759558 123.683291,63.0879558 124.028291,63.3589558 C124.442291,63.6839558 125.099291,63.6719558 125.576291,63.7959558 C126.626291,64.0679558 127.537291,64.6019558 128.203291,65.4379558 C128.091291,64.6479558 128.699291,63.3759558 128.886291,62.8529558 C129.104291,62.2409558 129.420291,61.5509558 129.260291,60.8709558 C129.115291,60.2559558 128.583291,60.0169558 128.367291,59.4729558 C127.936291,58.3819558 128.005291,56.6639558 129.219291,56.2709558 C130.477291,55.8639558 131.715291,56.3879558 132.828291,55.3419558 C132.305291,55.2439558 131.742291,54.9729558 131.647291,54.4349558 C132.145291,53.9449558 132.310291,53.2919558 132.677291,52.6989558 C133.007291,52.1679558 133.582291,51.7889558 133.845291,51.2459558 C134.207291,50.4959558 133.932291,48.3219558 132.685291,48.6789558 C134.222291,47.8369558 131.131291,47.2309558 130.704291,47.1869558 C130.626291,46.2699558 130.340291,45.5519558 130.121291,44.6779558 C129.966291,44.0599558 129.710291,43.6939558 129.683291,43.0309558 C129.664291,42.5559558 129.779291,42.1389558 129.625291,41.6679558 C128.723291,41.8549558 127.130291,42.7779558 126.950291,41.2649558 C126.922291,41.0279558 127.573291,40.7499558 127.394291,40.1879558 C127.146291,39.4039558 126.954291,40.1299558 126.512291,39.6629558 C125.494291,38.5869558 125.114291,33.8519558 123.205291,34.0299558 C122.784291,32.8069558 123.449291,31.5189558 121.908291,30.8459558 C121.428291,30.6359558 120.310291,31.1559558 119.907291,30.7509558 C119.581291,30.4239558 119.912291,29.4759558 119.756291,29.0349558 C118.822291,29.0469558 118.929291,28.3029558 118.817291,27.6019558 C117.964291,27.4929558 116.748291,27.1849558 116.186291,26.5009558 C115.881291,26.1289558 115.760291,25.1709558 115.597291,24.7079558 C115.523291,24.4959558 115.273291,23.8099558 115.245291,23.6749558 C115.021291,22.5609558 114.982291,20.8659558 115.244291,19.7649558 C115.447291,18.9109558 115.588291,18.9749558 115.517291,18.2529558 C115.476291,17.8309558 114.995291,17.5629558 115.165291,16.8769558 C114.513291,18.3159558 114.350291,18.6399558 112.794291,18.6129558 C111.811291,18.5959558 110.848291,18.7199558 109.972291,18.3849558 C109.165291,18.0759558 108.546291,17.3289558 107.640291,17.1819558 C107.206291,17.1119558 106.322291,17.4659558 105.937291,17.1389558 C105.537291,16.7989558 105.869291,16.0329558 105.259291,16.0559558 C105.157291,14.8329558 105.957291,13.8429558 105.656291,12.6519558 C105.502291,12.0449558 105.073291,11.3799558 104.915291,10.7149558 C104.750291,10.0209558 104.974291,9.90595576 104.378291,9.66195576 C103.851291,9.44695576 102.087291,9.60495576 101.514291,9.68295576 C100.574291,9.81095576 100.022291,10.3709558 98.9432914,10.1839558 C98.0322914,10.0259558 98.0772914,9.72695576 97.4042914,9.19895576 C96.9902914,8.87395576 96.9192914,8.90295576 96.3712914,8.65195576 C95.4532914,8.23095576 94.6042914,7.49295576 93.5452914,7.89895576 C92.5502914,8.28195576 89.9622914,11.5259558 89.0362914,11.0409558 C89.3642914,10.2079558 90.3282914,7.96595576 89.5332914,7.36695576 C88.7712914,6.79195576 87.2582914,7.73595576 86.4672914,8.17695576 C85.8202914,7.62795576 85.2112914,6.97695576 84.5292914,6.51195576 C84.1802914,6.27295576 83.4222914,6.10195576 83.0182914,5.93895576 C82.3932914,5.68495576 82.5862914,5.38995576 81.7112914,5.43295576 C80.4202914,5.49695576 78.8452914,6.71895576 77.6272914,6.32595576 C77.7572914,6.14295576 77.7992914,5.83695576 78.0052914,5.66695576 C75.3452914,6.95095576 72.9702914,4.79795576 71.8262914,2.67795576 C71.2832914,1.66795576 71.3472914,1.53795576 70.3072914,1.24395576 C69.5352914,1.02495576 69.1552914,0.677955761 68.4252914,0.281955761 C67.2102914,-0.378044239 66.0952914,0.202955761 65.2552914,1.17395576 C64.4512914,0.836955761 63.9892914,0.786955761 63.0262914,0.774955761 C61.5692914,0.757955761 61.2432914,1.12595576 60.3132914,2.20995576 C59.6272914,3.00895576 58.9352914,3.93495576 57.9052914,4.07795576 C55.9912914,4.34495576 54.6782914,3.54495576 52.9452914,3.14495576 C52.5122914,3.04595576 51.9172914,2.98095576 51.5232914,3.18395576 C51.0422914,3.43195576 50.8412914,4.32695576 50.3382914,4.48395576 C49.3382914,4.79695576 49.0192914,3.83195576 48.5972914,3.12295576 C46.9442914,0.341955761 45.8772914,4.26695576 45.6662914,5.70295576 C45.5542914,6.46795576 45.2412914,7.97595576 44.4972914,8.26995576 C43.3792914,8.71195576 42.9152914,7.49295576 42.3782914,6.76195576 C41.6582914,5.78295576 40.7402914,4.66595576 40.1242914,6.38795576 C39.7772914,7.35595576 39.5972914,8.74395576 39.0002914,9.57695576 C38.7482914,9.92995576 38.2062914,10.2149558 37.9062914,10.5979558 C37.4002914,11.2429558 37.0382914,11.9659558 36.7112914,12.7109558 C36.3652914,13.5009558 36.3002914,14.2989558 35.9222914,14.9869558 C35.5092914,15.7419558 35.1462914,16.1059558 35.2872914,17.0939558 C33.5332914,17.0359558 31.7722914,17.4619558 30.1192914,16.7409558 C28.9772914,16.2419558 27.8192914,15.1489558 26.5332914,15.3729558 C25.6952914,15.5189558 24.8082914,16.0229558 24.0152914,16.2899558 C23.6402914,16.4159558 23.4322914,16.1449558 23.1262914,16.5509558 C22.6782914,15.3589558 19.1032914,14.5479558 19.4112914,16.6679558 C19.6972914,16.7919558 19.9932914,16.8149558 19.3612914,19.0849558 C19.3342914,18.9549558 19.3072914,18.8249558 19.2812914,18.6949558 C18.7362914,18.5409558 18.1102914,18.5569558 17.5022914,18.5859558 C17.7602914,18.5889558 18.0172914,18.6119558 18.2722914,18.6849558 C18.5892914,19.1939558 17.4082914,21.0069558 17.1422914,21.6399558 C16.6152914,22.8969558 15.8222914,24.0079558 15.2882914,25.2219558 C15.4972914,25.7669558 15.9132914,25.5009558 16.3192914,25.6599558 C16.2592914,25.6369558 17.3312914,26.0689558 17.1052914,26.0559558 C18.0172914,26.1079558 18.5542914,25.0639558 19.2782914,24.7449558 C19.4012914,25.0749558 19.4212914,25.4149558 19.3372914,25.7649558 C19.2702914,26.2739558 19.4352914,26.6809558 19.8302914,26.9859558 C20.1542914,27.0279558 20.3192914,27.2059558 20.3262914,27.5179558 C20.2392914,27.8219558 20.2532914,28.1169558 20.3692914,28.4049558 C21.0322914,28.6269558 21.8602914,28.1879558 22.3982914,28.7319558 C23.4112914,29.7569558 22.1632914,29.8709558 21.4772914,29.8869558 C20.8942914,29.8999558 19.9622914,29.6709558 19.4562914,29.9779558 C18.9102914,30.3089558 19.0482914,31.1479558 18.5042914,31.2309558 C18.6362914,30.7479558 19.2482914,30.3249558 18.6432914,29.9019558 C18.0702914,29.5029558 17.1372914,30.0569558 17.0132914,30.6479558 C16.7152914,30.2509558 16.2042914,29.8549558 15.6732914,29.9309558 C15.5972914,30.7709558 14.7302914,32.3589558 15.1032914,33.2009558 C15.5302914,34.1639558 17.0582914,33.1859558 17.8902914,32.8889558 C18.4432914,34.0319558 15.5272914,34.7219558 15.6422914,35.9159558 C16.3802914,36.1979558 16.8822914,35.9549558 17.4722914,35.5399558 C18.2682914,34.9799558 18.9882914,34.5969558 19.8552914,34.1099558 C20.4382914,33.7829558 20.9862914,33.3239558 21.6022914,33.0439558 C22.4042914,32.6809558 22.0392914,32.6809558 22.7542914,33.1599558 C24.7462914,34.4989558 28.2262914,34.7639558 29.7122914,32.5099558 C29.8802914,32.2559558 30.0192914,31.8649558 30.1742914,31.4849558 C30.1902914,32.1879558 30.1952914,32.9039558 30.0682914,33.5909558 C29.9782914,34.0759558 29.5722914,34.6549558 29.5372914,35.1159558 C29.4792914,35.8889558 29.8472914,36.5759558 29.4212914,37.5449558 C29.0692914,38.3449558 28.8942914,38.7059558 28.7202914,39.4599558 C28.4002914,39.5309558 28.0872914,39.6149558 27.7882914,39.7189558 C26.8982914,40.0259558 25.8962914,41.0169558 25.0082914,40.5399558 C24.2422914,40.1289558 24.0732914,38.7729558 23.1162914,38.2649558 C20.9652914,37.1199558 19.3772914,39.7529558 17.4832914,40.6809558 C14.9962914,40.2199558 11.8042914,42.8559558 10.9212914,44.9199558 C10.5142914,45.8679558 9.49129143,46.2719558 8.56429143,46.7979558 C8.00029143,47.1179558 6.84129143,47.3149558 6.76429143,48.0649558 C8.38429143,49.0119558 4.52029143,50.2819558 4.11529143,50.8159558 C3.38229143,51.7839558 4.87129143,54.3189558 6.13429143,54.3889558 C6.17029143,54.9979558 6.60429143,55.3549558 6.70129143,55.9239558 C6.81929143,56.6059558 6.55429143,57.2949558 6.75329143,57.9729558 C8.30929143,58.0469558 8.53529143,59.5969558 9.26229143,60.6579558 C9.82229143,61.4769558 9.99329143,61.2309558 10.9222914,61.3309558 C12.0372914,61.4509558 11.6722914,61.7009558 12.2832914,62.6419558 C13.4222914,64.3959558 14.7852914,63.3659558 15.5522914,62.0089558 C16.2812914,60.7189558 15.5872914,59.0869558 16.7572914,58.2839558 C17.7982914,57.5699558 19.4982914,56.7229558 20.7682914,57.1959558 C21.8422914,57.5979558 23.0092914,59.1829558 22.3952914,60.1799558 C22.0332914,60.7649558 21.1192914,60.7399558 21.2362914,61.5169558 C21.2842914,61.8379558 22.7802914,62.8999558 23.1172914,63.1249558 C24.4782914,64.0329558 25.8402914,63.3379558 27.2622914,63.7579558 C27.2652914,64.3749558 27.5782914,64.5519558 27.8102914,64.9939558 C28.1162914,65.5749558 28.2602914,65.4309558 28.2852914,66.2689558 C28.3482914,68.3499558 28.7272914,70.4879558 28.7042914,72.5359558 C28.0772914,72.7179558 26.2652914,71.9099558 25.5692914,71.7739558 C25.1792914,71.6979558 24.4512914,71.4979558 24.0332914,71.6369558 C23.5052914,71.8099558 23.4122914,72.3359558 22.9052914,72.5819558 C22.4132914,72.8209558 21.7822914,72.5799558 21.2212914,72.8619558 C20.5392914,73.2059558 20.3642914,73.6729558 20.0042914,74.2929558 C19.7232914,74.7769558 18.9712914,77.1589558 18.5372914,77.2669558 C18.2652914,76.3809558 18.2182914,75.6609558 17.0132914,75.8519558 C16.2352914,75.9759558 15.7562914,76.6299558 15.3712914,77.2689558 C14.3692914,78.9349558 14.3432914,80.8829558 12.5972914,82.0209558 C11.4342914,82.7799558 9.85729143,82.6799558 8.66729143,81.8809558 C8.01729143,81.4449558 7.74729143,80.8919558 6.91829143,81.2959558 C6.42929143,81.5339558 6.16429143,82.1639558 5.74329143,82.4939558 C5.27229143,82.8629558 4.74229143,83.0689558 4.23229143,83.3819558 C3.33329143,83.9309558 2.77629143,84.6309558 1.75129143,84.8339558 C0.64229143,85.0539558 0.74529143,84.6039558 0.57329143,85.7459558 C0.43329143,86.6709558 0.88729143,87.2459558 1.07429143,88.1039558 C1.24929143,88.9069558 1.11929143,90.1229558 0.94429143,90.9179558 C0.62529143,92.3589558 -0.26570857,93.5879558 0.07729143,95.1539558 C0.37129143,96.4959558 1.04229143,95.8369558 2.00029143,96.0479558 C2.87929143,96.2399558 2.90029143,96.9649558 3.49129143,97.5019558 C4.28229143,98.2219558 6.23229143,98.5949558 7.34829143,98.3909558 C7.65129143,98.3369558 7.73129143,98.0449558 8.06829143,97.9469558 C8.36529143,97.8619558 8.71029143,98.0119558 9.03229143,97.8929558 C9.85429143,97.5899558 10.6942914,96.1899558 10.8732914,95.3799558 C11.0192914,94.7229558 10.9272914,93.9479558 10.9112914,93.2679558 C10.9032914,92.8909558 10.8902914,92.6469558 10.9002914,92.4749558 C11.4372914,92.3799558 11.9722914,92.2699558 12.5012914,92.1339558 C13.2202914,91.9639558 13.9112914,91.6689558 14.5762914,91.3689558 C15.2442914,91.0719558 15.9142914,90.7869558 16.6182914,90.6599558 C17.0402914,90.5819558 17.4702914,90.5519558 17.9032914,90.5449558 C17.9432914,91.0889558 17.9282914,91.6909558 18.0292914,92.2109558 C17.8342914,92.2129558 17.6422914,92.2079558 17.4502914,92.1829558 C16.7762914,92.1019558 16.0862914,91.9019558 15.3812914,91.9169558 C14.6862914,91.8989558 13.9642914,91.9599558 13.3242914,92.2619558 C13.0092914,92.4069558 12.7182914,92.6469558 12.3722914,92.6679558 C12.0332914,92.6899558 11.6502914,92.7189558 11.3122914,92.7189558 L11.1802914,92.7189558 L11.1802914,92.6779558 L11.1802914,92.9379558 L11.1802914,92.6809558 C11.1802914,92.5709558 11.9442914,92.6949558 12.2942914,92.6829558 C12.6572914,92.6699558 12.9982914,92.4549558 13.3112914,92.3219558 C13.9452914,92.0449558 14.6712914,92.0049558 15.3572914,92.0409558 C16.0512914,92.0469558 16.7172914,92.2609558 17.4182914,92.3649558 C17.6322914,92.3989558 17.8542914,92.4079558 18.0692914,92.4119558 C18.3112914,93.4029558 18.4032914,93.6329558 19.3492914,93.7459558 C20.0982914,93.8359558 20.9992914,93.5099558 21.7162914,93.8069558 C22.9992914,94.3419558 23.0122914,97.5089558 22.5762914,98.5709558 C22.0242914,99.9169558 20.0432914,100.383956 19.3492914,101.706956 C19.2662914,101.863956 19.1002914,102.555956 19.0072914,102.771956 C18.9112914,102.992956 18.5332914,103.591956 18.5192914,103.713956 C18.4092914,104.605956 18.9452914,104.686956 19.7142914,105.120956 C20.4872914,105.555956 21.0002914,106.055956 21.9372914,105.969956 C23.2142914,105.852956 23.4042914,105.017956 23.9362914,104.041956 C24.6462914,102.740956 25.5222914,100.767956 27.3432914,101.343956 C28.0262914,101.559956 28.8382914,102.018956 29.3472914,102.529956 C29.8132914,102.996956 30.0982914,104.391956 30.5122914,104.497956 C30.7612914,103.226956 31.3082914,102.009956 31.5702914,100.767956 C31.7852914,99.7489558 32.6262914,98.7689558 33.9252914,98.8829558 C36.1422914,99.0769558 33.9172914,101.574956 33.4222914,102.670956 C32.8182914,104.007956 32.5592914,105.355956 31.6862914,106.541956 C30.9362914,107.560956 31.1092914,108.040956 31.5682914,109.229956 C32.1012914,110.611956 32.4802914,111.707956 30.6502914,112.067956 C29.4282914,112.308956 26.8472914,111.876956 26.0202914,111.118956 C24.8442914,110.042956 25.8292914,108.289956 25.3932914,106.932956 C24.9262914,106.739956 24.5122914,106.860956 24.0542914,106.988956 C23.6502914,107.101956 22.7272914,107.202956 22.3912914,107.375956 C21.4622914,107.853956 21.4342914,109.632956 21.7982914,110.592956 C21.8792914,110.630956 21.9612914,110.651956 22.0442914,110.666956 C21.4722914,110.767956 20.9152914,111.076956 20.3242914,111.132956 C19.6272914,111.198956 18.1332914,111.358956 17.4512914,111.130956 C17.0182914,110.985956 16.7962914,110.321956 16.4522914,110.230956 C15.4712914,109.971956 15.3162914,111.376956 15.0222914,111.944956 C14.7482914,112.472956 13.8162914,113.200956 14.2692914,113.843956 C14.3052914,113.893956 15.4602914,114.395956 15.5802914,114.420956 C16.3592914,114.578956 16.7382914,114.187956 17.3782914,114.829956 C18.0342914,115.485956 17.8702914,116.540956 19.1442914,116.076956 C19.7322914,115.863956 19.8832914,115.432956 20.5172914,115.315956 C20.8262914,115.259956 21.1632914,115.396956 21.4742914,115.354956 C21.7422914,115.317956 22.2072914,115.038956 22.4172914,115.034956 C23.6982914,115.010956 23.6072914,116.908956 23.8392914,118.106956 C24.0202914,119.044956 23.8932914,119.365956 24.7422914,119.575956 C25.6262914,119.795956 25.6572914,119.286956 25.9502914,120.224956 C26.1692914,120.919956 25.6872914,122.015956 26.3822914,122.612956 C28.0452914,124.041956 28.3652914,120.238956 28.2242914,119.222956 C29.1152914,120.172956 29.8322914,120.967956 30.4172914,122.163956 C30.8042914,122.953956 30.9272914,123.861956 31.9472914,123.863956 C31.9922914,125.114956 32.9462914,125.596956 33.9252914,124.791956 C34.9522914,123.946956 35.2092914,122.140956 34.5522914,121.007956 C35.7432914,121.116956 36.7142914,122.328956 38.0702914,122.411956 C38.5872914,122.442956 38.9592914,122.265956 39.4442914,122.470956 C39.7232914,122.587956 39.9032914,122.991956 40.2372914,123.114956 C41.1612914,123.455956 41.7842914,122.631956 42.6652914,122.411956 C43.9702914,122.084956 45.7422914,122.996956 46.6492914,121.588956 C46.5442914,122.398956 46.3022914,124.690956 47.8972914,123.747956 C48.3012914,123.508956 49.0262914,121.407956 48.9862914,120.922956 C48.9382914,120.332956 48.7322914,120.145956 48.5282914,119.684956 C49.5262914,119.260956 49.8642914,118.013956 49.8422914,116.994956 C49.8242914,116.186956 49.4732914,115.546956 48.9622914,114.917956 C48.6812914,114.571956 47.7772914,114.130956 47.5902914,113.812956 C47.2602914,113.253956 47.5402914,112.565956 47.1062914,111.920956 C46.6062914,111.175956 45.7632914,110.714956 44.8742914,110.658956 C44.8532914,110.499956 44.8202914,110.342956 44.7672914,110.195956 C44.7182914,110.042956 44.6632914,109.903956 44.6372914,109.764956 C44.6062914,109.624956 44.6042914,109.488956 44.5952914,109.324956 C44.5632914,108.690956 44.4342914,108.076956 44.3742914,107.472956 C44.3422914,107.168956 44.3352914,106.878956 44.3452914,106.566956 C44.3512914,106.252956 44.3452914,105.931956 44.3052914,105.610956 C44.2822914,105.399956 44.2362914,105.191956 44.1812914,104.986956 C44.3292914,104.738956 44.4692914,104.482956 44.5852914,104.211956 C44.8592914,103.585956 45.0482914,102.942956 45.2232914,102.308956 L45.4672914,101.414956 C46.3012914,101.526956 47.4572914,101.014956 48.2582914,101.309956 C49.2632914,101.681956 49.1492914,102.890956 50.1012914,102.387956 C51.1902914,101.810956 50.7932914,100.217956 52.2252914,101.218956 C52.6742914,101.532956 53.4712914,102.133956 53.7732914,102.598956 C54.5272914,103.764956 53.7672914,105.202956 54.1512914,106.420956 C55.0082914,106.625956 55.4612914,105.869956 55.9382914,105.168956 C55.9432914,105.226956 55.9442914,105.283956 55.9502914,105.342956 C55.9572914,105.403956 55.9682914,105.461956 55.9752914,105.521956 C55.9552914,105.907956 55.9122914,106.341956 55.9152914,106.830956 C55.9172914,107.076956 55.9382914,107.357956 55.9762914,107.606956 C55.9822914,107.646956 55.9892914,107.681956 55.9952914,107.721956 C55.9892914,107.875956 55.9802914,108.029956 55.9782914,108.184956 C55.9692914,109.113956 56.0512914,110.033956 56.1862914,110.928956 C56.1762914,111.507956 56.1822914,112.095956 56.2202914,112.692956 C56.2462914,113.077956 56.2852914,113.492956 56.3572914,113.893956 C56.4282914,114.295956 56.5192914,114.692956 56.6402914,115.088956 C56.7012914,115.286956 56.7672914,115.484956 56.8452914,115.682956 C56.8842914,115.782956 56.9242914,115.882956 56.9692914,115.981956 L57.0712914,116.218956 C57.2012914,116.524956 57.3442914,116.924956 57.6062914,117.356956 C57.6322914,117.400956 57.6672914,117.444956 57.6962914,117.488956 C57.6992914,117.514956 57.7032914,117.535956 57.7052914,117.562956 C57.7232914,117.733956 57.7332914,117.929956 57.7462914,118.148956 C57.7592914,118.366956 57.7762914,118.611956 57.8112914,118.873956 L57.8442914,119.073956 L57.8732914,119.240956 L57.9172914,119.507956 C57.9672914,119.872956 57.9962914,120.267956 58.0272914,120.697956 C58.0592914,121.125956 58.0972914,121.589956 58.1772914,122.073956 L58.4132914,123.335956 C58.4822914,123.732956 58.5392914,124.121956 58.5672914,124.485956 C58.5952914,124.861956 58.6122914,125.285956 58.6272914,125.704956 C58.6582914,126.548956 58.6892914,127.467956 58.8502914,128.407956 C59.0112914,129.358956 59.2822914,130.234956 59.5572914,131.064956 L59.9712914,132.280956 C60.1112914,132.684956 60.2232914,133.042956 60.3632914,133.474956 C60.9092914,135.143956 61.5642914,136.805956 62.4172914,138.398956 L62.7432914,138.990956 C62.8372914,139.157956 62.9302914,139.328956 63.0232914,139.505956 L63.5932914,140.630956 C63.7932914,141.022956 64.0112914,141.430956 64.2612914,141.842956 C64.3842914,142.042956 64.5332914,142.269956 64.6512914,142.439956 L65.0182914,142.971956 C65.5062914,143.675956 65.9502914,144.319956 66.3242914,144.998956 C66.6972914,145.661956 67.0312914,146.343956 67.3162914,147.039956 C67.3222914,147.102956 67.3322914,147.167956 67.3382914,147.229956 C67.3612914,147.527956 67.3792914,147.823956 67.3872914,148.117956 C67.3912914,148.412956 67.3902914,148.688956 67.3842914,149.031956 L67.3542914,150.994956 L67.3252914,152.958956 C67.3122914,153.606956 67.3122914,154.291956 67.2862914,154.867956 C67.2322914,156.077956 67.0582914,157.357956 66.9592914,158.731956 C66.9342914,159.074956 66.9162914,159.425956 66.9052914,159.779956 L66.8892914,160.798956 L66.8652914,162.757956 L66.8492914,163.935956 C66.6092914,164.603956 66.4272914,165.411956 66.3862914,166.205956 C65.3492914,168.936956 64.5612914,175.873956 64.4992914,179.488956 L67.3642914,179.488956 C67.3372914,179.488956 67.3162914,179.488956 67.3022914,179.488956 L67.0412914,179.488956 L67.3142914,179.488956 C67.3202914,179.488956 67.3242914,179.488956 67.3332914,179.488956 L70.1422914,179.488956 C70.1392914,179.488956 70.1352914,179.488956 70.1332914,179.488956 L73.8892914,179.488956 C73.8732914,177.680956 73.8772914,180.392956 73.8872914,179.488956 L75.1412914,179.488956 C75.1352914,179.488956 75.1372914,179.488956 75.1342914,179.488956 L75.4552914,179.488956 C75.4382914,178.585956 75.7422914,181.037956 75.9222914,179.430956 C75.9632914,179.027956 75.9982914,167.514956 76.0062914,167.084956 C76.0082914,167.049956 76.0072914,166.994956 76.0072914,166.958956 L77.1402914,163.407956 C77.2582914,163.033956 77.3702914,162.698956 77.5082914,162.238956 C77.6332914,161.808956 77.7302914,161.389956 77.8172914,160.987956 C77.9882914,160.186956 78.1192914,159.452956 78.3012914,158.806956 C78.3462914,158.646956 78.3942914,158.489956 78.4452914,158.338956 L78.6322914,157.823956 L78.8482914,157.219956 L79.0382914,156.605956 C79.2702914,155.781956 79.4712914,154.944956 79.5772914,154.087956 C79.6892914,153.269956 79.7382914,152.438956 79.7202914,151.605956 C79.8032914,151.342956 79.8852914,151.077956 79.9722914,150.817956 C80.2112914,150.110956 80.4712914,149.420956 80.7652914,148.753956 C81.1072914,147.985956 81.4042914,147.165956 81.6392914,146.368956 C82.1142914,144.762956 82.4192914,143.147956 82.6202914,141.522956 C82.7192914,140.710956 82.7892914,139.894956 82.8272914,139.073956 L82.8562914,138.526956 C82.8682914,138.353956 82.8862914,138.176956 82.9052914,137.998956 C82.9452914,137.640956 82.9992914,137.272956 83.0572914,136.891956 C83.1732914,136.131956 83.3132914,135.320956 83.3772914,134.454956 C83.4272914,133.752956 83.4172914,133.116956 83.4032914,132.496956 C83.5952914,132.452956 83.7872914,132.411956 83.9802914,132.379956 C84.6092914,132.272956 85.2412914,132.240956 85.8102914,132.324956 C86.0942914,132.366956 86.3612914,132.437956 86.5952914,132.544956 L86.7662914,132.630956 L86.9822914,132.758956 L87.4202914,133.028956 C88.0102914,133.397956 88.6582914,133.838956 89.4592914,134.110956 C89.8562914,134.245956 90.2812914,134.328956 90.6992914,134.347956 C90.9032914,134.358956 91.1362914,134.353956 91.2662914,134.351956 L91.7842914,134.360956 C92.1542914,134.364956 92.5592914,134.373956 93.0192914,134.265956 C93.2472914,134.210956 93.4912914,134.121956 93.7212914,133.969956 C93.7782914,133.929956 93.8352914,133.888956 93.8872914,133.846956 L94.0182914,133.725956 C94.1032914,133.644956 94.1782914,133.558956 94.2492914,133.472956 C94.7962914,132.771956 95.0072914,132.048956 95.2792914,131.428956 C95.3452914,131.275956 95.4102914,131.123956 95.4812914,130.992956 L95.6162914,130.734956 C95.7192914,130.591956 95.8162914,130.448956 95.9092914,130.309956 C96.1902914,130.301956 96.4882914,130.276956 96.8102914,130.236956 C97.9022914,130.101956 98.7052914,130.174956 99.7852914,130.381956 C101.556291,130.721956 101.996291,130.578956 103.436291,129.605956 C104.613291,130.287956 104.840291,131.311956 105.960291,132.050956 C106.636291,131.599956 107.353291,131.229956 108.112291,130.940956 C108.826291,131.179956 109.448291,131.568956 109.976291,132.107956 C111.742291,132.722956 113.439291,129.566956 114.139291,128.467956 C114.728291,127.582956 115.220291,126.646956 115.612291,125.662956 C115.642291,125.280956 115.502291,124.979956 115.190291,124.759956 C115.082291,123.194956 118.000291,121.266956 118.692291,119.993956 C120.793291,116.125956 116.018291,116.334956 113.279291,115.849956 C113.135291,115.112956 112.377291,114.199956 111.971291,113.808956 C111.489291,113.346956 111.208291,113.078956 111.033291,112.528956 C110.961291,112.305956 111.028291,111.970956 110.941291,111.680956 C110.671291,111.656956 110.515291,111.530956 110.473291,111.303956 C110.370291,111.098956 110.358291,110.881956 110.437291,110.649956 C110.282291,109.607956 111.008291,107.116956 110.176291,106.414956 C110.754291,105.631956 111.283291,105.263956 112.324291,105.453956 C113.042291,105.584956 114.483291,106.261956 114.892291,106.874956 C115.532291,107.832956 114.417291,109.264956 115.121291,110.578956 C115.589291,111.451956 116.641291,112.216956 117.054291,110.788956 C116.629291,112.685956 118.721291,112.544956 120.034291,112.519956 C121.192291,112.498956 121.513291,111.804956 122.188291,110.838956 C122.670291,110.148956 122.532291,109.589956 122.756291,108.864956 C122.912291,108.360956 123.463291,108.032956 123.050291,107.327956 C122.371291,106.170956 120.612291,106.493956 119.542291,106.379956 C119.953291,106.703956 120.002291,107.807956 119.859291,108.314956 C119.790291,108.558956 118.953291,110.062956 118.793291,110.133956 C118.369291,110.318956 117.429291,109.063956 117.285291,108.755956 C116.999291,108.135956 117.124291,108.013956 117.489291,107.351956 C117.871291,106.657956 117.950291,106.320956 117.955291,105.473956 C117.960291,104.537956 118.046291,104.453956 117.316291,104.003956 C116.249291,103.344956 115.567291,102.818956 114.649291,101.884956 C114.679291,102.565956 114.807291,103.372956 114.578291,104.016956 C114.045291,103.952956 113.323291,102.963956 112.816291,102.667956 C112.266291,102.347956 111.843291,102.313956 111.363291,101.726956 C111.084291,101.387956 110.951291,100.870956 110.727291,100.492956 C110.868291,100.447956 111.024291,100.407956 111.198291,100.372956 C112.903291,100.031956 116.495291,101.135956 117.803291,99.4889558 C117.495291,98.7769558 116.870291,98.9429558 116.232291,98.8759558 C116.742291,96.8839558 117.596291,94.6739558 118.417291,92.7899558 C119.099291,91.2249558 121.308291,91.7419558 122.655291,92.5279558 C123.828291,93.2119558 124.533291,94.2709558 125.928291,94.6139558 C126.554291,94.7669558 128.795291,94.8399558 129.200291,94.1109558 C129.480291,93.6059558 128.991291,93.2379558 128.858291,92.7949558 C128.631291,92.0319558 128.803291,91.2869558 128.415291,90.5319558 C128.157291,90.0299558 127.867291,89.6749558 127.371291,89.3839558 C126.647291,88.9599558 126.126291,89.2989558 125.448291,89.0769558 C124.727291,88.8409558 124.929291,88.1899558 124.438291,87.7119558 C123.930291,87.2169558 123.124291,87.6549558 122.724291,86.7029558 C122.495291,86.1559558 122.464291,84.6049558 122.803291,83.8369558 C123.473291,83.8679558 124.089291,83.8729558 124.513291,83.8749558 C124.756291,83.8349558 124.980291,83.7599558 125.218291,83.6639558 C126.796291,84.4889558 128.541291,86.2729558 129.260291,86.7519558 C131.061291,87.9489558 131.646291,86.1749558 132.410291,84.6779558 C132.933291,83.6539558 132.695291,83.4319558 133.914291,83.3999558 C134.541291,83.3829558 135.173291,83.4159558 135.800291,83.4089558 C136.537291,83.3999558 137.560291,83.1299558 138.074291,83.8129558 C138.272291,84.0759558 138.331291,84.5529558 138.327291,85.0959558 C138.180291,85.3039558 138.029291,85.4939558 138.178291,85.9499558 C138.198291,86.0089558 138.230291,86.0669558 138.268291,86.1269558 C138.200291,86.8479558 138.103291,87.5359558 138.123291,87.9039558 C138.156291,88.5129558 138.277291,90.3869558 138.665291,90.9609558 C139.273291,91.8579558 140.740291,91.4219558 141.659291,91.0869558 C141.897291,91.3619558 142.131291,91.6329558 142.362291,91.8679558 C142.871291,92.3879558 142.371291,92.2759558 143.303291,92.3479558 C143.886291,92.3929558 144.227291,92.1809558 144.731291,91.9729558 C145.629291,91.6029558 146.318291,91.5569558 146.616291,90.7069558 C147.035291,89.5119558 146.645291,88.6749558 147.996291,87.9649558 C148.676291,87.6069558 150.291291,87.9219558 150.412291,87.1729558 C150.467291,86.8339558 149.920291,86.4459558 149.908291,86.0479558 Z" fill="#313934"></path>
    </g>
</svg>