<svg width="28" height="28" viewBox="0 0 28 28" xmlns="http://www.w3.org/2000/svg"><g fill="none" fill-rule="evenodd"><path d="M22 15.486V20.5c0 .276-.224.5-.5.5h-2.11c-.23 0-.43-.156-.484-.38L18.5 19h-9l-.405 1.62c-.056.224-.256.38-.485.38H6.5c-.276 0-.5-.224-.5-.5v-5.014c0-.357.06-.702.168-1.025L7.57 9.13c.27-1.024 1.144-1.777 2.197-1.892C11.21 7.078 11.955 7 14 7c2.045 0 2.79.08 4.234.238 1.053.115 1.926.868 2.195 1.892l1.402 5.33c.11.324.168.67.168 1.026zm-1.676-2.826l-.862-3.275c-.164-.624-.696-1.083-1.338-1.153C16.72 8.078 16.01 8 14 8c-2.01 0-2.72.078-4.124.232-.642.07-1.174.53-1.338 1.153l-.862 3.275c.318-.17.67-.286 1.045-.338C10.263 12.107 12.02 12 14 12c1.98 0 3.74.107 5.28.322.374.052.726.17 1.044.338zM19.5 17c.83 0 1.5-.672 1.5-1.5s-.67-1.5-1.5-1.5c-.828 0-1.5.672-1.5 1.5s.672 1.5 1.5 1.5zm-11 0c.828 0 1.5-.672 1.5-1.5S9.328 14 8.5 14 7 14.672 7 15.5 7.672 17 8.5 17zM23 11h.5c.276 0 .5.224.5.5v.42c0 .5-.376.923-.875.98l-.44.05c-.248.03-.48-.132-.54-.375l-.24-.954c-.066-.267.096-.538.364-.605.04-.01.08-.015.12-.015H23zM4.5 11H5.61c.276 0 .5.224.5.5 0 .04-.005.082-.015.12l-.24.955c-.06.243-.29.404-.54.375l-.44-.05c-.5-.057-.875-.48-.875-.98v-.42c0-.276.224-.5.5-.5z" fill="rgba(0,0,0,.5)"></path></g></svg>