<?xml version="1.0" encoding="UTF-8"?>
<svg width="61px" height="55px" viewBox="0 0 61 55" version="1.1" xmlns="http://www.w3.org/2000/svg" xmlns:xlink="http://www.w3.org/1999/xlink">
    <g id="Page-1" stroke="none" stroke-width="1" fill="none" fill-rule="evenodd">
        <g id="Group-6" fill-rule="nonzero">
            <g id="Group-5" opacity="0.2" stroke="#ffffff">
                <polygon id="Path-5" points="27.8781881 20.7084983 29.2105203 20 31.6704207 20.7084983 33.7300753 22.575197 33.7300753 24.6583299 33.7300753 26.5788597 34 27.6504865 32.5291561 29.2062229 31.1824449 30 29.8927036 30 28.2221919 29.2062229 27.2191204 27.39687 26.2977726 25.7713937 26 23.7659551 26.2977726 22.575197 26.606102 21.2723371"></polygon>
                <polyline id="Path-6" points="28.470474 12.8876529 26.4240178 12.8876529 25.9513446 13.2611207 23.8800109 13.6996287 21.8836811 15.7259343 20.2634849 17.6737818 19.3836739 19.4319136 18.9106294 22.2336683 18 25.3246556 18.9106294 26.8181545 19.3836739 27.1694454 20.2634849 28.7363705 19.8971909 31.0841493 21.0744184 32.6958011 22.7712894 33.7627192 23.8800109 35.0208438 26.8131471 35.4194704 28.470474 37 31.0737044 37 34.9165417 36.6198231 36.8258001 35.8069154 38.006555 35.8069154 40.416149 35.4194704 42.1438385 34.1941454 43.0125102 32.3404103 44 30.5889875 43.0125102 27.7473515 44 25.9845607 44 22.2336683 44 20.1939447 43.0125102 17.6737818 40.6990846 16.1036885 37.6909444 14.6737388 36.8258001 14.409665 35.4690459 13.2611207 32.2730246 12.2821652 30.2817074 11.5100707 29.5322251 11 29.0328178 11"></polyline>
                <polygon id="Path-7" points="30.0519918 23 29 23.9896996 29 24.8544206 29.5259959 25.7052361 30.603329 26 32 25.4254077 32 24.5 31.0164578 23.2372532"></polygon>
                <polygon id="Path-9" points="28.6448712 5.4940977 30.3933907 5.4940977 31.2596708 4.05082418 35.5039321 3 41.5729993 6.48954756 45.7997053 9.77144145 47.590677 13.08392 48.60538 13.7625773 50.8001263 17.0998455 52.7356908 20.7262191 54 22.247403 54 24.316535 53.2317111 28.1891956 52.2026445 29.8079284 52.2026445 31.8071987 49.6242326 36.9344737 45.7997053 38.9340659 42.6349424 42.7355769 40.1749497 43.9505924 36.1854015 45.1894317 33.8425513 45.1894317 32.7186855 45.9839887 27.8711561 46.7241372 26.8510268 48 23.2805743 46.7241372 19.8949324 45.1894317 15.4103214 42.3115771 13.1332242 40.7041123 10.5573658 36.4254808 9.22921873 34.2433465 9.80599397 30.3449305 9.22921873 27.61517 7 25.5 8.47497419 22.247403 10.5573658 19.7497639 11.4737586 16.6230469 11.9164742 14.3552756 13.7269165 12.3128649 14.9851611 8.63723386 15.4103214 6.48954756 19.087064 4.05082418 21.8857166 4.05082418 23.2805743 3 26.2531851 4.9567737"></polygon>
                <polyline id="Path-10" points="46 1 45.2418116 2.25376239 42.5616675 3.218195 41.6314057 6.2927179 39.2512145 9.86773721 37.1825733 11.6119104 36.5287572 13.468916 35.2054537 15.0495138 34.4083999 17.6730227 33.233349 19.5035536 32 21"></polyline>
                <polyline id="Path-11" points="1 16 3.32474568 16.4650406 5.1792318 17.0254081 9.54688733 17.7651576 11.5718825 17.7651576 14.7702873 20.8871129 19.0726823 22.6999339 21.112713 22.6999339 22.6258611 24.2138922 24.5504063 24.2138922 25.9640641 23.4828381 27.360447 24.2138922 29.1659878 24.2138922 31 24.9291659 30.3582717 25.9371832 29.1659878 27.8095835 25.9640641 29.5531637 21.112713 31.3514924 17.3045704 34.9268946 15.3621105 38.049494 14.7702873 43.4406156 13.6023161 46.1745004 10.8249056 49.1476685 8.78135597 51.4529044 7.13640726 54"></polyline>
                <polyline id="Path-12" points="11 0 11.8720961 2.32589734 11.8720961 4.9420301 13.9397875 8.16055577 16.7409326 10.9798533 19.9885002 12.682362 21.5695281 12.682362 23.9497154 15.2145118 23.9497154 17.0074875 26.4078695 18.2629101 27.6977795 20.4702431 29.5255973 22.9897337 30 24"></polyline>
                <polyline id="Path-13" points="0 33.551867 4.21999717 34 6.35731534 32.7360188 10.3913476 31.1759104 17.8324996 29.9791018 22.8152085 28.836536 25.2934623 27.7904718 26.7287789 25.9837482 30.426349 25.2158355 32.7042591 25.2158355 36.2318406 23.6178833 41.4446092 22.487932 44.7200836 22.487932 45.8675062 21.8802245 51.5237786 21.8802245 55.365775 20.0088512 61 19"></polyline>
                <polyline id="Path-14" points="61 54 55.9422562 49.4552478 52.7472158 46.1995683 52.7472158 44.0974186 49.0002989 42.9365493 48.2272224 41.5009507 45.9972434 40.1153029 43.9993801 36.7660053 41.4130411 36.0572879 40.1253293 33.2246891 37.2705967 30.0927098 34.8653271 27.3635804 33.0347282 25.7768321 32 25"></polyline>
                <polyline id="Path-15" points="28 54 28 52.3609503 28.8748301 51.1037156 29.7135334 47.0197049 30.1940827 44.1477644 29.0970413 40.9641579 29.7135334 37.7389105 30.598641 35.7439913 30.598641 32.1289211 30.1940827 29.1202063 30.598641 25 32.2676387 25 32.2676387 26.0186003 31.0564553 26.6396903 31.0564553 29.1202063 32.2676387 32.1289211 33.7712627 34.3551074 33.2913364 36.3109481 34.4006795 38.709784 35.3838901 42.043618 36.0656285 44.1477644 36.0656285 47.0197049 37.8034541 51.1037156 37.8034541 52.7831249 39 54"></polyline>
                <polyline id="Path-16" points="26 0 26.781925 2.12208019 26.781925 3.35922913 27.7198687 5.00061367 27.7198687 7.74189505 28.3051675 10.9807936 27.7198687 12.8415308 28.3051675 15.308308 28.3051675 17.0060975 28.7149073 18.7283291 28.7149073 21.1220933 30 24"></polyline>
                <polyline id="Path-17" points="61 39.0178959 59.7021732 37.9720689 57.7229775 37.9720689 55.181483 35.5147441 52.5655199 32.6020709 48.4872616 31.5943261 46.5654107 29.855649 43.2696714 28.4707677 40.0977812 28.4707677 36.8179711 26.9777821 34.2785653 25.7947733 32.3645839 25 30.8572071 25 30.5121799 25 28.7276442 27.878052 27.8703993 28.4707677 28.3782618 29.3530288 27.6207022 30.8775157 26.722204 31.5943261 26.4919842 32.3039776 25.6545796 32.9617896 24.8223769 34.7177796 23.8950861 36.0371355 21.9991582 39.9156344 20.0339876 41.2500673 18.8210639 41.7565444 17.1836619 43.2302353 14.3920464 45.3263282 10.6335137 47.714826 6.43933701 48.6374106 1 49"></polyline>
            </g>
            <polygon id="Star" fill="#ccc" points="30.5 26.25 28.4427516 27.3315595 28.8356511 25.0407797 27.1713022 23.4184405 29.4713758 23.0842203 30.5 21 31.5286242 23.0842203 33.8286978 23.4184405 32.1643489 25.0407797 32.5572484 27.3315595"></polygon>
        </g>
    </g>
</svg>