<?xml version="1.0" encoding="UTF-8"?>
<svg width="180px" height="180px" viewBox="0 0 180 180" version="1.1" xmlns="http://www.w3.org/2000/svg" xmlns:xlink="http://www.w3.org/1999/xlink">
    <!-- Generator: Sketch 51.3 (57544) - http://www.bohemiancoding.com/sketch -->
    <title>moscow-sectors</title>
    <desc>Created with Sketch.</desc>
    <defs></defs>
    <g id="moscow-sectors" stroke="none" stroke-width="1" fill="none" fill-rule="evenodd">
        <g id="moscow" transform="translate(15.000000, 29.000000)">
            <g id="Group-5" opacity="0.1" stroke="#000000">
                <polygon id="Path-5" points="69.009941 51.387755 72.3080093 49.6296296 78.3972709 51.387755 83.4957602 56.0199333 83.4957602 61.189189 83.4957602 65.9549481 84.1639344 68.6141702 80.522993 72.4747013 77.1893308 74.4444444 73.9966925 74.4444444 69.8614914 72.4747013 67.3784784 67.9848256 65.097765 63.9512362 64.3606557 58.9747775 65.097765 56.0199333 65.8610066 52.7869106"></polygon>
                <polygon id="Path-6" points="68.9078408 31.1273691 64.2402137 32.9072254 59.1128139 33.9953749 54.1710794 39.0236147 50.1604298 43.8571622 47.982537 48.2199337 46.811558 55.1724362 44.557377 62.8426639 46.811558 66.5487538 47.982537 67.4204756 50.1604298 71.3087712 49.2537021 77.1347409 52.1678226 81.134025 56.3682738 83.7815625 59.1128139 86.9035754 66.3735281 87.8927599 70.4760914 91.8148148 76.9201535 91.8148148 86.4327508 90.8714129 91.1589478 88.8541975 94.0818001 88.8541975 100.046533 87.8927599 104.323272 84.8521386 106.473591 80.2521293 108.918033 75.906006 106.473591 68.8545389 108.918033 64.4802062 108.918033 55.1724362 108.918033 50.1108998 106.473591 43.8571622 100.746914 39.9610048 93.3005345 36.4126111 91.1589478 35.7573169 87.8004251 32.9072254 79.8889625 30.4779655 74.9596364 28.5620273 73.1043605 27.2962963 70.4760914 27.2962963"></polygon>
                <polygon id="Path-7" points="74.3909961 57.0740741 71.7868852 59.5299953 71.7868852 61.6757845 73.0889407 63.7870674 75.7557816 64.5185185 79.2131148 63.0926784 79.2131148 60.7962963 76.7784447 57.6628135"></polygon>
                <polygon id="Path-9" points="70.9077959 13.6335017 75.2360983 13.6335017 77.3804966 10.0520452 87.8867827 7.44444444 102.910211 16.1036921 113.373041 24.247651 117.80643 32.4675052 120.318236 34.1515807 125.751132 42.4329499 130.542448 51.4317289 133.672131 55.2065186 133.672131 60.3410313 131.770301 69.9509669 129.22294 73.9678223 129.22294 78.9289746 122.840313 91.6522125 113.373041 96.6141635 105.538956 106.047543 99.4494657 109.062581 89.5736988 112.136738 83.7741844 112.136738 80.9921559 114.108416 68.992534 115.945081 66.4672958 119.111111 57.6289626 115.945081 49.2481114 112.136738 38.1468612 104.995395 32.5101124 101.006501 26.1338071 90.3891561 22.8460988 84.9742302 24.2738539 75.3003831 22.8460988 68.526533 17.3278689 63.2777778 20.9790345 55.2065186 26.1338071 49.0086734 28.4022549 41.249783 29.4981574 35.6223506 33.9797441 30.5541462 37.0944152 21.4331359 38.1468612 16.1036921 47.248306 10.0520452 54.1761181 10.0520452 57.6289626 7.44444444 64.9873926 12.3001421"></polygon>
                <polyline id="Path-10" points="113.868852 2.48148148 111.992025 5.59266963 105.35757 7.9858913 103.054791 15.6152629 97.1628425 24.4866072 92.0421077 28.8147406 90.4236449 33.4228656 87.1479264 37.3450898 85.1748916 43.8552786 82.266159 48.3977071 79.2131148 52.1111111"></polyline>
                <polyline id="Path-11" points="2.47540984 39.7037037 8.23010816 40.8576933 12.8207213 42.2482349 23.6324588 44.0839096 28.6451518 44.0839096 36.5625145 51.8309839 47.2127054 56.3294656 52.2626174 56.3294656 56.0082791 60.0863251 60.7723172 60.0863251 64.2716997 58.2722279 67.7283196 60.0863251 72.1977731 60.0863251 76.7377049 61.8612635 75.1491644 64.3626398 72.1977731 69.0089665 64.2716997 73.3356284 52.2626174 77.7981478 42.8359038 86.6704422 38.0275194 94.4191147 36.5625145 107.797083 33.6713071 114.581168 26.7960778 121.959029 21.7374549 127.679429 17.6655327 134"></polyline>
                <polyline id="Path-12" points="27.2295082 0 29.3883035 5.77167118 29.3883035 12.2635562 34.5066871 20.250268 41.4406692 27.2463026 49.47973 31.4710464 53.393422 31.4710464 59.2853611 37.7545293 59.2853611 42.2037653 65.3702999 45.3190732 68.5633558 50.7965292 73.087954 57.0485984 74.2622951 59.5555556"></polyline>
                <polyline id="Path-13" points="0 83.2583366 10.4462225 84.3703704 15.7369609 81.2338244 25.7228441 77.3624443 44.1427449 74.3925859 56.4769915 71.5573301 62.6116854 68.9615411 66.1646822 64.47819 75.3176836 62.5726288 80.9564447 62.5726288 89.6886546 58.60734 102.592393 55.8033868 110.700535 55.8033868 113.540876 54.2953719 127.542468 54.2953719 137.052984 49.6515937 151 47.1481481"></polyline>
                <polyline id="Path-14" points="151 134 138.480011 122.722282 130.570977 114.643373 130.570977 109.426928 121.295822 106.546252 119.382141 102.983841 113.862029 99.5453813 108.916498 91.2341613 102.514249 89.4754922 99.3266348 82.4464507 92.2600017 74.6745021 86.3059736 67.902218 81.7744911 63.9647315 79.2131148 62.037037"></polyline>
                <polyline id="Path-15" points="69.3114754 134 69.3114754 129.932729 71.4770384 126.812924 73.5531728 116.678527 74.7427293 109.55186 72.0271022 101.651799 73.5531728 93.6484075 75.7441769 88.6980525 75.7441769 79.7273227 74.7427293 72.2612527 75.7441769 62.037037 79.8756302 62.037037 79.8756302 64.5646748 76.8774549 66.1058982 76.8774549 72.2612527 79.8756302 79.7273227 83.5977159 85.2515628 82.4097016 90.1049453 85.1557804 96.0576121 87.5896296 104.330459 89.2772115 109.55186 89.2772115 116.678527 93.5790421 126.812924 93.5790421 130.980347 96.5409836 134"></polyline>
                <polyline id="Path-16" points="64.3606557 0 66.2962406 5.26590269 66.2962406 8.33586488 68.6180356 12.4089302 68.6180356 19.2113692 70.06689 27.248636 68.6180356 31.8660209 70.06689 37.9872828 70.06689 42.200316 71.081164 46.4740018 71.081164 52.4140834 74.2622951 59.5555556"></polyline>
                <polyline id="Path-17" points="151 96.8221861 147.787347 94.2269858 142.888026 94.2269858 136.596786 88.1291798 130.121205 80.9014352 120.025844 78.4007351 115.268476 74.0862401 107.11017 70.6496828 99.258442 70.6496828 91.1395678 66.9448667 84.8534977 64.0092523 80.1156093 62.037037 76.384234 62.037037 75.5301502 62.037037 71.112693 69.1788698 68.9906606 70.6496828 70.2478284 72.8389974 68.3725579 76.6219834 66.1484066 78.4007351 65.5785183 80.1617222 63.5055987 81.7940705 61.4455559 86.1515272 59.1501312 89.4254844 54.4569326 99.0499076 49.59233 102.361278 46.5898467 103.618092 42.5366057 107.275028 35.6262132 112.476444 26.3223044 118.403457 15.9399982 120.692834 2.47540984 121.592593"></polyline>
            </g>
            <polygon id="Star" fill="#FF6464" fill-rule="nonzero" points="75.5 64.858746 71.667952 66.8783143 72.3998081 62.6007999 69.2996161 59.5714475 73.583976 58.9473667 75.5 55.0555556 77.416024 58.9473667 81.7003839 59.5714475 78.6001919 62.6007999 79.332048 66.8783143"></polygon>
        </g>
        <path d="M90,90 L55.5584911,6.85084207 C77.6110189,-2.28361402 102.388981,-2.28361402 124.441509,6.85084207 L90,90 Z" id="top" fill-opacity="0.5" fill="#4EA3FF" fill-rule="nonzero"></path>
        <path d="M90,90 L124.441509,6.85084207 C146.494037,15.9852982 164.014702,33.5059633 173.149158,55.5584911 L90,90 Z" id="top-right" fill-opacity="0.5" fill="#4EA3FF" fill-rule="nonzero"></path>
        <path d="M90,90 L173.149158,55.5584911 C182.283614,77.6110189 182.283614,102.388981 173.149158,124.441509 L90,90 Z" id="right" fill-opacity="0.5" fill="#4EA3FF" fill-rule="nonzero"></path>
        <path d="M90,90 L173.149158,124.441509 C164.014702,146.494037 146.494037,164.014702 124.441509,173.149158 L90,90 Z" id="bottom-right" fill-opacity="0.5" fill="#4EA3FF" fill-rule="nonzero"></path>
        <path d="M90,90 L124.441509,173.149158 C102.388981,182.283614 77.6110189,182.283614 55.5584911,173.149158 L90,90 Z" id="bottom" fill-opacity="0.5" fill="#4EA3FF" fill-rule="nonzero"></path>
        <path d="M90,90 L55.5584911,173.149158 C33.5059633,164.014702 15.9852982,146.494037 6.85084207,124.441509 L90,90 Z" id="bottom-left" fill-opacity="0.5" fill="#4EA3FF" fill-rule="nonzero"></path>
        <path d="M90,90 L6.85084207,124.441509 C-2.28361402,102.388981 -2.28361402,77.6110189 6.85084207,55.5584911 L90,90 Z" id="left" fill-opacity="0.5" fill="#4EA3FF" fill-rule="nonzero"></path>
        <path d="M90,90 L6.85084207,55.5584911 C15.9852982,33.5059633 33.5059633,15.9852982 55.5584911,6.85084207 L90,90 Z" id="top-left" fill-opacity="0.5" fill="#4EA3FF" fill-rule="nonzero"></path>
        <g id="labels" opacity="0.3" transform="translate(7.000000, 8.000000)" fill="#000000" font-family="Arial-BoldMT, Arial" font-size="11" font-weight="bold">
            <text id="Ю">
                <tspan x="77" y="163">Ю</tspan>
            </text>
            <text id="С">
                <tspan x="77" y="10">С</tspan>
            </text>
            <text id="В">
                <tspan x="158" y="86">В</tspan>
            </text>
            <text id="З">
                <tspan x="0" y="86">З</tspan>
            </text>
        </g>
    </g>
</svg>