<?xml version="1.0" encoding="UTF-8"?>
<svg width="30px" height="117px" viewBox="0 0 30 117" version="1.1" xmlns="http://www.w3.org/2000/svg" xmlns:xlink="http://www.w3.org/1999/xlink">
    <!-- Generator: Sketch 51.3 (57544) - http://www.bohemiancoding.com/sketch -->
    <title>sprites</title>
    <desc>Created with Sketch.</desc>
    <defs></defs>
    <g id="sprites" stroke="none" stroke-width="1" fill="none" fill-rule="evenodd">
        <rect id="Rectangle-3" stroke="#1366F0" fill="#166DFD" fill-rule="nonzero" x="5.5" y="63.5" width="19" height="19" rx="3"></rect>
        <path d="M18.9483224,78.6173338 L19.9774838,78.6173338 C20.5297686,78.6173338 20.9774838,78.1696186 20.9774838,77.6173338 L20.9774838,68.0059315 C20.9774838,66.901362 20.0820533,66.0059315 18.9774838,66.0059315 L11.0638897,66.0059315 C9.95932017,66.0059315 9.06388967,66.901362 9.06388967,68.0059315 L9.06386604,77.6078041 C9.06386604,78.1601019 9.51159187,78.6078277 10.0638897,78.6078277 C10.06614,78.6078277 10.0683904,78.6078201 10.0706407,78.6078049 C10.7548582,78.6031858 11.096967,78.6063621 11.096967,78.6173338 L8,82.813474 L9.76920912,82.813474 L11.9718548,79.9323026 L18.0281452,79.9323026 L20.2307909,82.813474 L22,82.813474 L18.9483224,78.6173338 Z M16.692372,67.4534628 L16.692372,67.4534628 C16.692372,67.8564359 16.3656978,68.1831101 15.9627247,68.1831101 L13.9978707,68.1831101 C13.5948976,68.1831101 13.2682234,67.8564359 13.2682234,67.4534628 L13.2682234,67.4534628 C13.2682234,67.0504897 13.5948976,66.7238155 13.9978707,66.7238155 L15.9627247,66.7238155 C16.3656978,66.7238155 16.692372,67.0504897 16.692372,67.4534628 Z M11.4390656,69.0152109 L18.5274416,69.0152109 C19.0797263,69.0152109 19.5274416,69.4629262 19.5274416,70.0152109 L19.5274416,72.0028805 C19.5274416,72.5551652 19.0797263,73.0028805 18.5274416,73.0028805 L11.4390656,73.0028805 C10.8867808,73.0028805 10.4390656,72.5551652 10.4390656,72.0028805 L10.4390656,70.0152109 C10.4390656,69.4629262 10.8867808,69.0152109 11.4390656,69.0152109 Z M12.4643963,77.088549 C12.2417675,77.3023651 11.9600338,77.4092731 11.619195,77.4092731 C11.2783563,77.4092731 11.0025331,77.3023651 10.7936955,77.088549 C10.5848579,76.874733 10.4784689,76.6145901 10.4784689,76.3063386 C10.4784689,76.0212505 10.5907684,75.7789256 10.8133971,75.5775822 C11.0360259,75.3762387 11.3039685,75.2746761 11.619195,75.2746761 C11.9600338,75.2746761 12.2417675,75.3691115 12.4643963,75.5597642 C12.687025,75.748635 12.7993245,75.9980871 12.7993245,76.3063386 C12.7993245,76.6145901 12.687025,76.874733 12.4643963,77.088549 Z M17.4962004,77.088549 C17.2735716,76.874733 17.1612722,76.6145901 17.1612722,76.3063386 C17.1612722,75.9980871 17.2794821,75.748635 17.5159021,75.5597642 C17.752322,75.3708933 18.0261751,75.2746761 18.3414016,75.2746761 C18.6822404,75.2746761 18.9580636,75.3762387 19.1669012,75.5775822 C19.3757388,75.7789256 19.4821278,76.0212505 19.4821278,76.3063386 C19.4821278,76.6145901 19.377709,76.874733 19.1669012,77.088549 C18.9580636,77.3023651 18.6822404,77.4092731 18.3414016,77.4092731 C18.0025331,77.4074913 17.7188292,77.3005833 17.4962004,77.088549 Z" id="Shape" fill="#FAFAFA" fill-rule="nonzero"></path>
        <path d="M15,25.2172178 C20.0039942,19.1543152 22.5,14.7193394 22.5,12 C22.5,7.85786438 19.1421356,4.5 15,4.5 C10.8578644,4.5 7.5,7.85786438 7.5,12 C7.5,14.7193394 9.99600579,19.1543152 15,25.2172178 Z M15,15.5 C13.0670034,15.5 11.5,13.9329966 11.5,12 C11.5,10.0670034 13.0670034,8.5 15,8.5 C16.9329966,8.5 18.5,10.0670034 18.5,12 C18.5,13.9329966 16.9329966,15.5 15,15.5 Z" id="Combined-Shape" stroke="#E83030" fill="#F73A3A" fill-rule="nonzero"></path>
        <path d="M10.5105028,48.2883256 C10.4823304,47.3893552 10.3258919,46.7203341 9.92183635,45.9899376 C9.10879572,44.5202338 7.40468208,43.3769956 4.50053588,42.6679807 C4.48664381,43.2555444 4.52067992,43.886716 4.62001971,44.5262527 L6.98367062,45.6127431 C8.10914023,46.1300834 9.28273955,47.0226305 10.5105028,48.2883256 Z M4.62965125,44.5870158 C4.70715398,45.0663202 4.82158857,45.5496901 4.98025244,46.0223242 C5.64043938,47.9889147 6.9191112,49.2873412 9.01292849,49.6852515 C8.11128191,48.3539233 7.24547423,47.2641494 6.41721823,46.4164804 L4.62965125,44.5870158 Z M12.2529932,49.8905227 C14.6236413,46.6535792 17.3931463,44.2046721 20.5603237,42.5494431 L23.0007756,41.274015 L21.1645088,43.326001 C17.179759,47.7788673 14.9083174,50.8526553 14.4003512,52.3741876 C20.165709,51.7347741 23.4307355,48.6777667 24.8041248,43.9665225 C25.3070405,42.2413316 25.5143568,40.4115781 25.4992619,38.5975957 C25.4939735,37.9620719 25.4612382,37.3745417 25.4105564,36.8499846 C25.406175,36.8046369 25.4018171,36.7612445 25.3975122,36.7198534 C19.0351038,38.0187594 15.2941366,40.5969815 13.5128101,44.1286956 C12.590657,45.9569853 12.2885708,47.5924658 12.2529932,49.8905227 Z" id="Combined-Shape" stroke="#AFD126" fill="#B7D737" fill-rule="nonzero"></path>
        <circle id="Oval-4" stroke="#464646" fill="#525252" fill-rule="nonzero" cx="15" cy="102" r="10"></circle>
        <circle id="Oval-4" stroke="#979797" fill="#D8D8D8" fill-rule="nonzero" cx="15" cy="102" r="6"></circle>
        <path d="M15,106 C17.209139,106 19,104.209139 19,102 C19,99.790861 17.209139,98 15,98 C12.790861,98 11,99.790861 11,102 C11,104.209139 12.790861,106 15,106 Z" id="Oval-5" stroke="#979797" fill="#BDBDBD" fill-rule="nonzero" stroke-linecap="round" stroke-linejoin="round" stroke-dasharray="2"></path>
        <circle id="Oval-5" fill="#DDDADA" fill-rule="nonzero" cx="15" cy="102" r="2"></circle>
    </g>
</svg>