<?xml version="1.0" encoding="UTF-8"?>
<svg width="30px" height="270px" viewBox="0 0 30 270" version="1.1" xmlns="http://www.w3.org/2000/svg" xmlns:xlink="http://www.w3.org/1999/xlink">
    <!-- Generator: Sketch 51.3 (57544) - http://www.bohemiancoding.com/sketch -->
    <title>sprites</title>
    <desc>Created with Sketch.</desc>
    <defs></defs>
    <g id="sprites" stroke="none" stroke-width="1" fill="none" fill-rule="evenodd">
        <g id="Rectangle-3" transform="translate(5.000000, 65.000000)" fill-rule="nonzero">
            <rect stroke="#1366F0" stroke-width="1" fill="#166DFD" x="0.5" y="0.5" width="19" height="19" rx="3"></rect>
            <path d="M13.9483224,15.7558112 L14.9774838,15.7558112 C15.5297686,15.7558112 15.9774838,15.308096 15.9774838,14.7558112 L15.9774838,5 C15.9774838,3.8954305 15.0820533,3 13.9774838,3 L6.06388967,3 C4.95932017,3 4.06388967,3.8954305 4.06388967,5 L4.0638601,14.7461664 C4.0638601,15.2984675 4.51158859,15.746196 5.06388967,15.746196 C5.06616562,15.746196 5.06844156,15.7461882 5.07071745,15.7461727 C5.7548838,15.7415014 6.09696698,15.7447142 6.09696698,15.7558112 L3,20 L4.76920912,20 L6.97185477,17.0858373 L13.0281452,17.0858373 L15.2307909,20 L17,20 L13.9483224,15.7558112 Z M11.692372,4.46410645 L11.692372,4.46410645 C11.692372,4.87169384 11.3619572,5.20210871 10.9543698,5.20210871 L9.00622567,5.20210871 C8.59863828,5.20210871 8.26822342,4.87169384 8.26822342,4.46410645 L8.26822342,4.46410645 C8.26822342,4.05651907 8.59863828,3.7261042 9.00622567,3.7261042 L10.9543698,3.7261042 C11.3619572,3.7261042 11.692372,4.05651907 11.692372,4.46410645 Z M6.43906558,6.04373765 L13.5274416,6.04373765 C14.0797263,6.04373765 14.5274416,6.4914529 14.5274416,7.04373765 L14.5274416,9.07706863 C14.5274416,9.62935338 14.0797263,10.0770686 13.5274416,10.0770686 L6.43906558,10.0770686 C5.88678083,10.0770686 5.43906558,9.62935338 5.43906558,9.07706863 L5.43906558,7.04373765 C5.43906558,6.4914529 5.88678083,6.04373765 6.43906558,6.04373765 Z M7.46439628,14.2095208 C7.24176752,14.4257852 6.96003377,14.5339174 6.61919505,14.5339174 C6.27835632,14.5339174 6.00253307,14.4257852 5.79369547,14.2095208 C5.58485787,13.9932564 5.4784689,13.7301347 5.4784689,13.4183535 C5.4784689,13.130001 5.59076836,12.8849014 5.81339713,12.6812524 C6.03602589,12.4776034 6.30396848,12.3748778 6.61919505,12.3748778 C6.96003377,12.3748778 7.24176752,12.4703946 7.46439628,12.6632304 C7.68702505,12.8542639 7.79932451,13.1065724 7.79932451,13.4183535 C7.79932451,13.7301347 7.68702505,13.9932564 7.46439628,14.2095208 Z M12.4962004,14.2095208 C12.2735716,13.9932564 12.1612722,13.7301347 12.1612722,13.4183535 C12.1612722,13.1065724 12.2794821,12.8542639 12.5159021,12.6632304 C12.752322,12.4721968 13.0261751,12.3748778 13.3414016,12.3748778 C13.6822404,12.3748778 13.9580636,12.4776034 14.1669012,12.6812524 C14.3757388,12.8849014 14.4821278,13.130001 14.4821278,13.4183535 C14.4821278,13.7301347 14.377709,13.9932564 14.1669012,14.2095208 C13.9580636,14.4257852 13.6822404,14.5339174 13.3414016,14.5339174 C13.0025331,14.5321152 12.7188292,14.423983 12.4962004,14.2095208 Z" id="Shape" fill="#FAFAFA"></path>
        </g>
        <path d="M15,25.2172178 C20.0039942,19.1543152 22.5,14.7193394 22.5,12 C22.5,7.85786438 19.1421356,4.5 15,4.5 C10.8578644,4.5 7.5,7.85786438 7.5,12 C7.5,14.7193394 9.99600579,19.1543152 15,25.2172178 Z M15,15.5 C13.0670034,15.5 11.5,13.9329966 11.5,12 C11.5,10.0670034 13.0670034,8.5 15,8.5 C16.9329966,8.5 18.5,10.0670034 18.5,12 C18.5,13.9329966 16.9329966,15.5 15,15.5 Z" id="Combined-Shape" stroke="#E83030" fill="#F73A3A" fill-rule="nonzero"></path>
        <path d="M10.5106374,48.3057061 C10.482802,47.3926336 10.3262198,46.7134856 9.92067771,45.9720078 C9.10716349,44.484609 7.40354148,43.3284222 4.50066239,42.6113614 C4.48640047,43.208955 4.52053694,43.8512117 4.62072834,44.5019669 L6.9856388,45.6014839 C8.1107018,46.124559 9.2836422,47.0266383 10.5106374,48.3057061 Z M4.62870793,44.5529333 C4.70631291,45.0404757 4.82120467,45.5322531 4.98079379,46.0130869 C5.64216868,48.0057754 6.92309153,49.3202199 9.01967532,49.7213967 C8.11490715,48.368999 7.24618094,47.2624299 6.4152356,46.4022707 L4.62870793,44.5529333 Z M12.2529386,49.9255811 C14.6229494,46.653037 17.3917273,44.1769957 20.5582485,42.50316 L22.9860269,41.2198267 L21.1663881,43.2765151 C17.1736594,47.7893881 14.9012183,50.9011724 14.3979789,52.4401926 C20.163405,51.793949 23.4295474,48.7012084 24.803701,43.9333654 C25.3069299,42.187333 25.5143648,40.3355699 25.4992615,38.4998017 C25.4939702,37.8566539 25.4612168,37.2620658 25.4105046,36.731184 C25.4059693,36.6837059 25.401459,36.6383439 25.3970063,36.5951491 C19.0361403,37.9089226 15.2956684,40.5165381 13.5138328,44.0897136 C12.5904302,45.9414441 12.2882757,47.5978146 12.2529386,49.9255811 Z" id="Combined-Shape" stroke="#AFD126" fill="#B7D737" fill-rule="nonzero"></path>
        <g id="Oval-4" transform="translate(5.000000, 95.000000)" fill-rule="nonzero">
            <circle stroke="#464646" stroke-width="1" fill="#525252" cx="10" cy="10" r="10"></circle>
            <circle stroke="#979797" stroke-width="1" fill="#D8D8D8" cx="10" cy="10" r="6"></circle>
            <path d="M10,14 C12.209139,14 14,12.209139 14,10 C14,7.790861 12.209139,6 10,6 C7.790861,6 6,7.790861 6,10 C6,12.209139 7.790861,14 10,14 Z" id="Oval-5" stroke="#979797" stroke-width="1" fill="#BDBDBD" stroke-linecap="round" stroke-linejoin="round" stroke-dasharray="2"></path>
            <circle id="Oval-5" fill="#DDDADA" cx="10" cy="10" r="2"></circle>
        </g>
        <g id="car" transform="translate(3.000000, 155.000000)" fill="#000000" fill-opacity="0.5">
            <g id="Shape">
                <path d="M14.4,7.27371429 L14.4,11.5714286 C14.4,11.808 14.2208,12 14,12 L12.312,12 C12.128,12 11.968,11.8662857 11.9248,11.6742857 L11.6,10.2857143 L4.4,10.2857143 L4.076,11.6742857 C4.0312,11.8662857 3.8712,12 3.688,12 L2,12 C1.7792,12 1.6,11.808 1.6,11.5714286 L1.6,7.27371429 C1.6,6.96771429 1.648,6.672 1.7344,6.39514286 L2.856,1.82571429 C3.072,0.948 3.7712,0.302571429 4.6136,0.204 C5.768,0.0668571429 6.364,0 8,0 C9.636,0 10.232,0.0685714286 11.3872,0.204 C12.2296,0.302571429 12.928,0.948 13.1432,1.82571429 L14.2648,6.39428571 C14.3528,6.672 14.3992,6.96857143 14.3992,7.27371429 L14.4,7.27371429 Z M13.0592,4.85142857 L12.3696,2.04428571 C12.2384,1.50942857 11.8128,1.116 11.2992,1.056 C10.176,0.924 9.608,0.857142857 8,0.857142857 C6.392,0.857142857 5.824,0.924 4.7008,1.056 C4.1872,1.116 3.7616,1.51028571 3.6304,2.04428571 L2.9408,4.85142857 C3.1952,4.70571429 3.4768,4.60628571 3.7768,4.56171429 C5.0104,4.37742857 6.416,4.28571429 8,4.28571429 C9.584,4.28571429 10.992,4.37742857 12.224,4.56171429 C12.5232,4.60628571 12.8048,4.70742857 13.0592,4.85142857 Z M12.4,8.57142857 C13.064,8.57142857 13.6,7.99542857 13.6,7.28571429 C13.6,6.576 13.064,6 12.4,6 C11.7376,6 11.2,6.576 11.2,7.28571429 C11.2,7.99542857 11.7376,8.57142857 12.4,8.57142857 Z M3.6,8.57142857 C4.2624,8.57142857 4.8,7.99542857 4.8,7.28571429 C4.8,6.576 4.2624,6 3.6,6 C2.9376,6 2.4,6.576 2.4,7.28571429 C2.4,7.99542857 2.9376,8.57142857 3.6,8.57142857 Z M15.2,3.42857143 L15.6,3.42857143 C15.8208,3.42857143 16,3.62057143 16,3.85714286 L16,4.21714286 C16,4.64571429 15.6992,5.00828571 15.3,5.05714286 L14.948,5.1 C14.7496,5.12571429 14.564,4.98685714 14.516,4.77857143 L14.324,3.96085714 C14.2712,3.732 14.4008,3.49971429 14.6152,3.44228571 C14.6472,3.43371429 14.6792,3.42942857 14.7112,3.42942857 L15.2,3.42942857 L15.2,3.42857143 Z M0.4,3.42857143 L1.288,3.42857143 C1.5088,3.42857143 1.688,3.62057143 1.688,3.85714286 C1.688,3.89142857 1.684,3.92742857 1.676,3.96 L1.484,4.77857143 C1.436,4.98685714 1.252,5.12485714 1.052,5.1 L0.7,5.05714286 C0.3,5.00828571 0,4.64571429 0,4.21714286 L0,3.85714286 C0,3.62057143 0.1792,3.42857143 0.4,3.42857143 Z" fill-rule="nonzero"></path>
            </g>
        </g>
        <g id="train" transform="translate(5.000000, 182.000000)" fill="#000000" fill-opacity="0.5">
            <g id="Shape">
                <path d="M8.025,2.4 L8.85,0.75 L9.75,0.75 L9.75,0.375 C9.75,0.15 9.6,0 9.375,0 L2.625,0 C2.4,0 2.25,0.15 2.25,0.375 L2.25,0.75 L3.15,0.75 L3.975,2.4 C1.65,2.7 0,3.525 0,4.5 L0,12.75 C0,13.2 0.3,13.5 0.75,13.5 L11.25,13.5 C11.7,13.5 12,13.2 12,12.75 L12,4.5 C12,3.525 10.35,2.7 8.025,2.4 Z M7.875,0.75 L7.125,2.325 C6.75,2.25 6.375,2.25 6,2.25 C5.625,2.25 5.25,2.25 4.875,2.325 L4.125,0.75 L7.875,0.75 Z M6.75,4.5 C6.75,4.95 6.45,5.25 6,5.25 C5.55,5.25 5.25,4.95 5.25,4.5 C5.25,4.05 5.55,3.75 6,3.75 C6.45,3.75 6.75,4.05 6.75,4.5 Z M3.75,12 L1.5,12 L1.5,10.5 L3.75,10.5 L3.75,12 Z M10.5,12 L8.25,12 L8.25,10.5 L10.5,10.5 L10.5,12 Z M10.5,9 L1.5,9 L1.5,6 L10.5,6 L10.5,9 Z M2.25,15.75 L2.85,15.75 L1.725,18 L3.15,18 L4.275,15.75 L7.725,15.75 L8.85,18 L10.35,18 L9.225,15.75 L9.75,15.75 C10.575,15.75 11.25,15.075 11.25,14.25 L0.75,14.25 C0.75,15.075 1.425,15.75 2.25,15.75 Z" fill-rule="nonzero"></path>
            </g>
        </g>
        <g id="Path-8" transform="translate(7.000000, 128.000000)" fill-rule="nonzero">
            <polygon fill="#7D48DD" points="0 4.99425609 8 0.984985764 16 4.99425609 16 12.0006552 12.0150117 12.0006552 12.0150117 7 8 4.99425609 4.00280565 7 4.00280565 12.0006552 0 12.0006552"></polygon>
            <polygon id="Path-5" fill="#7ED321" points="0 5 4.00589586 6.95526604 4.00589586 12.0096515 0 12.0096515"></polygon>
            <polygon id="Path-5-Copy" fill="#7D48DD" transform="translate(14.002948, 8.527088) scale(-1, 1) translate(-14.002948, -8.527088) " points="12 5 16.0058959 6.99978959 16.0058959 12.0541751 12 12.0541751"></polygon>
            <polygon id="Path-7" fill="#8447F2" points="3.98797469 7.04718018 7.99526643 5.00320864 7.99526643 0.543771439 0 5.00320864"></polygon>
            <polygon id="Path-7" fill="#6A35CB" transform="translate(12.000000, 3.760586) scale(-1, 1) translate(-12.000000, -3.760586) " points="11.9927083 6.99331023 16 5.00049139 16 0.527862426 8 5.00049139"></polygon>
        </g>
        <g id="Group-4" opacity="0.5" transform="translate(7.000000, 217.000000)" stroke="#000000" stroke-linecap="square">
            <g id="Line">
                <path d="M5.57142857,0.428571429 L0.357632117,5.64236788" stroke-width="1.5" fill-rule="nonzero"></path>
                <path d="M5.57142857,0.428571429 L0.357632117,5.64236788" stroke-width="1.5" fill-rule="nonzero" transform="translate(3.000000, 3.000000) scale(-1, 1) translate(-3.000000, -3.000000) "></path>
            </g>
        </g>
        <g id="groceries" transform="translate(5.000000, 244.000000)">
            <g id="Shape">
                <path d="M2.82590909,8.58926786 C2.67363636,8.58926786 2.52454545,8.51985714 2.43863636,8.39376786 C2.15954545,7.98510714 1.63818182,7.512375 1.03954545,7.529625 C0.785,7.51730357 0.578636364,7.35794643 0.571363636,7.13164286 C0.563636364,6.90451786 0.760909091,6.71517857 1.01181818,6.70819643 C1.96954545,6.68232143 2.78636364,7.33823214 3.21227273,7.96292857 C3.34409091,8.15596429 3.27772727,8.40896429 3.06409091,8.52807143 C2.99,8.56955357 2.90727273,8.58926786 2.82590909,8.58926786 Z" fill="#436B1C" fill-rule="nonzero"></path>
                <path d="M12.1290909,3.12019643 C12.0681818,2.320125 11.3322727,1.687625 10.4313636,1.687625 C10.4286364,1.687625 10.4263636,1.68803571 10.4236364,1.68803571 C10.4395455,1.566875 10.4304545,1.43873214 10.3872727,1.30525 C10.2654545,0.929857143 9.9,0.641535714 9.47,0.595125 C9.11727273,0.557339286 8.79363636,0.671517857 8.56681818,0.874 C8.35090909,0.697803571 8.06818182,0.587732143 7.75454545,0.587732143 C7.08227273,0.587732143 6.53772727,1.08017857 6.53772727,1.68721429 C6.53772727,1.68926786 6.53818182,1.69091071 6.53818182,1.69296429 C5.72136364,1.74882143 5.07727273,2.36448214 5.07727273,3.11691071 C5.07727273,3.23191071 5.09409091,3.34321429 5.12227273,3.45041071 C4.15,3.48696429 3.37363636,4.209 3.37363636,5.09655357 C3.37363636,5.39719643 3.46409091,5.678125 3.61954545,5.92085714 C3.32090909,6.14264286 3.13,6.47901786 3.13,6.85564286 C3.13,7.19982143 3.29136364,7.50826786 3.54681818,7.728 C4.64318182,6.91848214 5.795,9.62591071 7.15136364,11.7875 C7.60181818,12.5054286 12.4686364,11.7406786 12.8563636,12.1867143 C13.2981818,11.82775 13.5836364,5.57667857 13.5959091,5.02755357 C13.615,4.14657143 12.9959091,3.39496429 12.1290909,3.12019643 Z" fill="#88C057" fill-rule="nonzero"></path>
                <path d="M12.7513636,11.3081964 L13.0754545,11.1328214 C13.6754545,10.8075357 14.4245455,10.8075357 15.0240909,11.1328214 L15.3481818,11.3081964 C15.9481818,11.6334821 16.6972727,11.6334821 17.2968182,11.3081964 L18.2127273,10.9401964 C18.3472727,10.6009464 18.4409091,10.3553393 18.4781818,10.2465 C19.3327273,7.76291071 19.8831818,5.14789286 19.9581818,2.53944643 C19.9881818,1.49048214 19.0281818,-0.145392857 17.4331818,0.598 C15.8654545,1.32825 14.7427273,4.12891071 13.9536364,5.45880357 C12.8327273,7.3485 11.9463636,9.40371429 11.315,11.4979464 C11.7959091,11.6076071 12.3131818,11.5455893 12.7513636,11.3081964 Z" fill="#EEAF4B" fill-rule="nonzero"></path>
                <path d="M0.934090909,10.8863929 L1.54545455,11.2178393 C2.24772727,11.5985714 3.125,11.5985714 3.82727273,11.2178393 L3.98454545,11.1324107 C4.58454545,10.807125 5.33363636,10.807125 5.93318182,11.1324107 L6.25727273,11.3077857 C6.60954545,11.4987679 7.01318182,11.5743393 7.40772727,11.5410714 C7.69863636,10.692125 7.60090909,9.63083929 7.15,8.9125 C5.63363636,6.49544643 4.37227273,6.98789286 3.15863636,8.03726786 C2.92590909,8.23851786 2.64136364,8.38596429 2.33136364,8.46605357 C1.00045455,8.80982143 0.0181818182,9.37208929 0.576818182,10.9032321 C0.675454545,10.8383393 0.812727273,10.8206786 0.934090909,10.8863929 Z" fill="#ED3F32" fill-rule="nonzero"></path>
                <path d="M13.9054545,10.4140714 C13.8572727,10.4140714 13.8077273,10.4070893 13.7595455,10.3923036 C13.5218182,10.3191964 13.3945455,10.0859107 13.4754545,9.87110714 C13.7786364,9.06528571 14.7522727,8.63403571 15.6427273,8.90510714 C16.0604545,9.03366071 16.5154545,8.83076786 16.6572727,8.45332143 C16.7377273,8.23851786 16.995,8.12269643 17.2340909,8.19621429 C17.4718182,8.26932143 17.5990909,8.50260714 17.5181818,8.71741071 C17.2154545,9.52364286 16.2427273,9.95653571 15.3509091,9.68341071 C14.9336364,9.55526786 14.4786364,9.75857143 14.3363636,10.1351964 C14.2713636,10.306875 14.0945455,10.4140714 13.9054545,10.4140714 Z" fill="#A46F3E" fill-rule="nonzero"></path>
                <path d="M14.9804545,7.552625 C14.9322727,7.552625 14.8827273,7.54564286 14.8345455,7.53085714 C14.5968182,7.45775 14.4695455,7.22446429 14.5504545,7.00966071 C14.6972727,6.61907143 15.0036364,6.30323214 15.4127273,6.120875 C15.8218182,5.93851786 16.285,5.911 16.7177273,6.04366071 C17.1363636,6.172625 17.5904545,5.96932143 17.7322727,5.59146429 C17.8127273,5.37625 18.0709091,5.26083929 18.3086364,5.33435714 C18.5463636,5.40746429 18.6736364,5.64075 18.5927273,5.85555357 C18.29,6.66219643 17.3172727,7.09426786 16.4254545,6.82196429 C16.2231818,6.75953571 16.0059091,6.77226786 15.8145455,6.85769643 C15.6231818,6.943125 15.48,7.09057143 15.4109091,7.27375 C15.3468182,7.44501786 15.17,7.552625 14.9804545,7.552625 Z" fill="#A46F3E" fill-rule="nonzero"></path>
                <path d="M16.0559091,4.69076786 C16.0077273,4.69076786 15.9581818,4.68378571 15.9095455,4.669 C15.6718182,4.59589286 15.5445455,4.36260714 15.6254545,4.14780357 C15.8909091,3.44055357 16.745,3.06105357 17.5277273,3.30008929 C17.6777273,3.34608929 17.8377273,3.33705357 17.9790909,3.27421429 C18.1204545,3.211375 18.2263636,3.102125 18.2772727,2.967 C18.3577273,2.75219643 18.6154545,2.63678571 18.8540909,2.70989286 C19.0918182,2.783 19.2190909,3.01628571 19.1381818,3.23108929 C19.0090909,3.57403571 18.7404545,3.85126786 18.3813636,4.01103571 C18.0218182,4.17121429 17.615,4.194625 17.2354545,4.07839286 C16.9272727,3.98351786 16.5909091,4.13342857 16.4863636,4.41230357 C16.4218182,4.58316071 16.245,4.69076786 16.0559091,4.69076786 Z" fill="#A46F3E" fill-rule="nonzero"></path>
                <path d="M8.35,6.19973214 C7.92045455,6.716 7.24272727,7.32714286 7.50363636,8.4065 L8.20545455,11.3081964 C8.20545455,11.3081964 8.20590909,11.3081964 8.20590909,11.3081964 L8.53,11.1328214 C9.13,10.8075357 9.87909091,10.8075357 10.4786364,11.1328214 L10.8027273,11.3081964 C11.0663636,11.451125 11.315,11.4983571 11.315,11.4983571 C11.7886364,9.92819643 12.4054545,8.37980357 13.1568182,6.90698214 C12.805,6.11183929 12.0536364,5.84569643 11.5081818,5.57339286 C11.505,5.57175 11.5018182,5.57010714 11.4990909,5.568875 C11.1540909,5.39021429 11.1327273,4.96348214 11.3922727,4.69158929 C11.4945455,4.58439286 11.5418182,4.43694643 11.5063636,4.28908929 L11.4513636,4.062375 C11.3909091,3.81266071 11.1154545,3.65330357 10.8395455,3.70792857 L8.07727273,4.25253571 C7.80090909,4.30716071 7.62454545,4.55605357 7.685,4.80535714 L7.74,5.03207143 C7.77636364,5.18321429 7.89181818,5.30026786 8.03818182,5.35735714 C8.37409091,5.488375 8.57909091,5.82721429 8.40727273,6.11923214 C8.39090909,6.14675 8.37181818,6.17344643 8.35,6.19973214 Z" fill="#DAE7EF" fill-rule="nonzero"></path>
                <path d="M11.2481818,4.88708929 L8.12136364,5.50439286 C7.77636364,5.57257143 7.43181818,5.37296429 7.35636364,5.06123214 L7.31136364,4.87558929 C7.23590909,4.56385714 7.45681818,4.25253571 7.80181818,4.18435714 L10.9286364,3.56705357 C11.2736364,3.498875 11.6181818,3.69848214 11.6936364,4.01021429 L11.7386364,4.19585714 C11.8140909,4.508 11.5931818,4.81891071 11.2481818,4.88708929 Z" fill="#FFFFFF" fill-rule="nonzero"></path>
                <path d="M19.0072727,10.8149286 L18.2140909,21.0946964 C18.1559091,22.1210714 17.2181818,22.9260714 16.0809091,22.9260714 L3.32136364,22.9260714 C2.18409091,22.9260714 1.24636364,22.1210714 1.18818182,21.0946964 L0.414090909,11.152125 C0.400909091,10.9184286 0.681363636,10.7660536 0.903636364,10.8863929 L1.515,11.2178393 C2.21727273,11.5985714 3.09454545,11.5985714 3.79681818,11.2178393 L3.95409091,11.1324107 C4.55409091,10.807125 5.30318182,10.807125 5.90272727,11.1324107 L6.22681818,11.3081964 C6.82681818,11.6334821 7.57590909,11.6334821 8.17545455,11.3081964 L8.49954545,11.1324107 C9.09954545,10.807125 9.84863636,10.807125 10.4481818,11.1324107 L10.7722727,11.3081964 C11.3722727,11.6334821 12.1213636,11.6334821 12.7209091,11.3081964 L13.045,11.1324107 C13.645,10.807125 14.3940909,10.807125 14.9936364,11.1324107 L15.3177273,11.3081964 C15.9177273,11.6334821 16.6668182,11.6334821 17.2663636,11.3081964 L18.8059091,10.6900714 C18.9036364,10.6506429 19.0127273,10.7184107 19.0072727,10.8149286 Z" fill="#FBD490" fill-rule="nonzero"></path>
            </g>
        </g>
    </g>
</svg>