<?xml version="1.0" encoding="UTF-8"?>
<svg width="30px" height="300px" viewBox="0 0 30 300" version="1.1" xmlns="http://www.w3.org/2000/svg" xmlns:xlink="http://www.w3.org/1999/xlink">
    <!-- Generator: Sketch 51.3 (57544) - http://www.bohemiancoding.com/sketch -->
    <title>sprites</title>
    <desc>Created with Sketch.</desc>
    <defs></defs>
    <g id="sprites" stroke="none" stroke-width="1" fill="none" fill-rule="evenodd">
        <g id="Rectangle-3" transform="translate(5.000000, 65.000000)" fill-rule="nonzero">
            <rect stroke="#1366F0" stroke-width="1" fill="#166DFD" x="0.5" y="0.5" width="19" height="19" rx="3"></rect>
            <path d="M13.9483224,15.7558112 L14.9774838,15.7558112 C15.5297686,15.7558112 15.9774838,15.308096 15.9774838,14.7558112 L15.9774838,5 C15.9774838,3.8954305 15.0820533,3 13.9774838,3 L6.06388967,3 C4.95932017,3 4.06388967,3.8954305 4.06388967,5 L4.0638601,14.7461664 C4.0638601,15.2984675 4.51158859,15.746196 5.06388967,15.746196 C5.06616562,15.746196 5.06844156,15.7461882 5.07071745,15.7461727 C5.7548838,15.7415014 6.09696698,15.7447142 6.09696698,15.7558112 L3,20 L4.76920912,20 L6.97185477,17.0858373 L13.0281452,17.0858373 L15.2307909,20 L17,20 L13.9483224,15.7558112 Z M11.692372,4.46410645 L11.692372,4.46410645 C11.692372,4.87169384 11.3619572,5.20210871 10.9543698,5.20210871 L9.00622567,5.20210871 C8.59863828,5.20210871 8.26822342,4.87169384 8.26822342,4.46410645 L8.26822342,4.46410645 C8.26822342,4.05651907 8.59863828,3.7261042 9.00622567,3.7261042 L10.9543698,3.7261042 C11.3619572,3.7261042 11.692372,4.05651907 11.692372,4.46410645 Z M6.43906558,6.04373765 L13.5274416,6.04373765 C14.0797263,6.04373765 14.5274416,6.4914529 14.5274416,7.04373765 L14.5274416,9.07706863 C14.5274416,9.62935338 14.0797263,10.0770686 13.5274416,10.0770686 L6.43906558,10.0770686 C5.88678083,10.0770686 5.43906558,9.62935338 5.43906558,9.07706863 L5.43906558,7.04373765 C5.43906558,6.4914529 5.88678083,6.04373765 6.43906558,6.04373765 Z M7.46439628,14.2095208 C7.24176752,14.4257852 6.96003377,14.5339174 6.61919505,14.5339174 C6.27835632,14.5339174 6.00253307,14.4257852 5.79369547,14.2095208 C5.58485787,13.9932564 5.4784689,13.7301347 5.4784689,13.4183535 C5.4784689,13.130001 5.59076836,12.8849014 5.81339713,12.6812524 C6.03602589,12.4776034 6.30396848,12.3748778 6.61919505,12.3748778 C6.96003377,12.3748778 7.24176752,12.4703946 7.46439628,12.6632304 C7.68702505,12.8542639 7.79932451,13.1065724 7.79932451,13.4183535 C7.79932451,13.7301347 7.68702505,13.9932564 7.46439628,14.2095208 Z M12.4962004,14.2095208 C12.2735716,13.9932564 12.1612722,13.7301347 12.1612722,13.4183535 C12.1612722,13.1065724 12.2794821,12.8542639 12.5159021,12.6632304 C12.752322,12.4721968 13.0261751,12.3748778 13.3414016,12.3748778 C13.6822404,12.3748778 13.9580636,12.4776034 14.1669012,12.6812524 C14.3757388,12.8849014 14.4821278,13.130001 14.4821278,13.4183535 C14.4821278,13.7301347 14.377709,13.9932564 14.1669012,14.2095208 C13.9580636,14.4257852 13.6822404,14.5339174 13.3414016,14.5339174 C13.0025331,14.5321152 12.7188292,14.423983 12.4962004,14.2095208 Z" id="Shape" fill="#FAFAFA"></path>
        </g>
        <path d="M15,25.2172178 C20.0039942,19.1543152 22.5,14.7193394 22.5,12 C22.5,7.85786438 19.1421356,4.5 15,4.5 C10.8578644,4.5 7.5,7.85786438 7.5,12 C7.5,14.7193394 9.99600579,19.1543152 15,25.2172178 Z M15,15.5 C13.0670034,15.5 11.5,13.9329966 11.5,12 C11.5,10.0670034 13.0670034,8.5 15,8.5 C16.9329966,8.5 18.5,10.0670034 18.5,12 C18.5,13.9329966 16.9329966,15.5 15,15.5 Z" id="Combined-Shape" stroke="#E83030" fill="#F73A3A" fill-rule="nonzero"></path>
        <path d="M10.5106374,48.3057061 C10.482802,47.3926336 10.3262198,46.7134856 9.92067771,45.9720078 C9.10716349,44.484609 7.40354148,43.3284222 4.50066239,42.6113614 C4.48640047,43.208955 4.52053694,43.8512117 4.62072834,44.5019669 L6.9856388,45.6014839 C8.1107018,46.124559 9.2836422,47.0266383 10.5106374,48.3057061 Z M4.62870793,44.5529333 C4.70631291,45.0404757 4.82120467,45.5322531 4.98079379,46.0130869 C5.64216868,48.0057754 6.92309153,49.3202199 9.01967532,49.7213967 C8.11490715,48.368999 7.24618094,47.2624299 6.4152356,46.4022707 L4.62870793,44.5529333 Z M12.2529386,49.9255811 C14.6229494,46.653037 17.3917273,44.1769957 20.5582485,42.50316 L22.9860269,41.2198267 L21.1663881,43.2765151 C17.1736594,47.7893881 14.9012183,50.9011724 14.3979789,52.4401926 C20.163405,51.793949 23.4295474,48.7012084 24.803701,43.9333654 C25.3069299,42.187333 25.5143648,40.3355699 25.4992615,38.4998017 C25.4939702,37.8566539 25.4612168,37.2620658 25.4105046,36.731184 C25.4059693,36.6837059 25.401459,36.6383439 25.3970063,36.5951491 C19.0361403,37.9089226 15.2956684,40.5165381 13.5138328,44.0897136 C12.5904302,45.9414441 12.2882757,47.5978146 12.2529386,49.9255811 Z" id="Combined-Shape" stroke="#AFD126" fill="#B7D737" fill-rule="nonzero"></path>
        <g id="Oval-4" transform="translate(5.000000, 95.000000)" fill-rule="nonzero">
            <circle stroke="#464646" stroke-width="1" fill="#525252" cx="10" cy="10" r="10"></circle>
            <circle stroke="#979797" stroke-width="1" fill="#D8D8D8" cx="10" cy="10" r="6"></circle>
            <path d="M10,14 C12.209139,14 14,12.209139 14,10 C14,7.790861 12.209139,6 10,6 C7.790861,6 6,7.790861 6,10 C6,12.209139 7.790861,14 10,14 Z" id="Oval-5" stroke="#979797" stroke-width="1" fill="#BDBDBD" stroke-linecap="round" stroke-linejoin="round" stroke-dasharray="2"></path>
            <circle id="Oval-5" fill="#DDDADA" cx="10" cy="10" r="2"></circle>
        </g>
        <g id="car" transform="translate(3.000000, 155.000000)" fill="#000000" fill-opacity="0.5">
            <g id="Shape">
                <path d="M14.4,7.27371429 L14.4,11.5714286 C14.4,11.808 14.2208,12 14,12 L12.312,12 C12.128,12 11.968,11.8662857 11.9248,11.6742857 L11.6,10.2857143 L4.4,10.2857143 L4.076,11.6742857 C4.0312,11.8662857 3.8712,12 3.688,12 L2,12 C1.7792,12 1.6,11.808 1.6,11.5714286 L1.6,7.27371429 C1.6,6.96771429 1.648,6.672 1.7344,6.39514286 L2.856,1.82571429 C3.072,0.948 3.7712,0.302571429 4.6136,0.204 C5.768,0.0668571429 6.364,0 8,0 C9.636,0 10.232,0.0685714286 11.3872,0.204 C12.2296,0.302571429 12.928,0.948 13.1432,1.82571429 L14.2648,6.39428571 C14.3528,6.672 14.3992,6.96857143 14.3992,7.27371429 L14.4,7.27371429 Z M13.0592,4.85142857 L12.3696,2.04428571 C12.2384,1.50942857 11.8128,1.116 11.2992,1.056 C10.176,0.924 9.608,0.857142857 8,0.857142857 C6.392,0.857142857 5.824,0.924 4.7008,1.056 C4.1872,1.116 3.7616,1.51028571 3.6304,2.04428571 L2.9408,4.85142857 C3.1952,4.70571429 3.4768,4.60628571 3.7768,4.56171429 C5.0104,4.37742857 6.416,4.28571429 8,4.28571429 C9.584,4.28571429 10.992,4.37742857 12.224,4.56171429 C12.5232,4.60628571 12.8048,4.70742857 13.0592,4.85142857 Z M12.4,8.57142857 C13.064,8.57142857 13.6,7.99542857 13.6,7.28571429 C13.6,6.576 13.064,6 12.4,6 C11.7376,6 11.2,6.576 11.2,7.28571429 C11.2,7.99542857 11.7376,8.57142857 12.4,8.57142857 Z M3.6,8.57142857 C4.2624,8.57142857 4.8,7.99542857 4.8,7.28571429 C4.8,6.576 4.2624,6 3.6,6 C2.9376,6 2.4,6.576 2.4,7.28571429 C2.4,7.99542857 2.9376,8.57142857 3.6,8.57142857 Z M15.2,3.42857143 L15.6,3.42857143 C15.8208,3.42857143 16,3.62057143 16,3.85714286 L16,4.21714286 C16,4.64571429 15.6992,5.00828571 15.3,5.05714286 L14.948,5.1 C14.7496,5.12571429 14.564,4.98685714 14.516,4.77857143 L14.324,3.96085714 C14.2712,3.732 14.4008,3.49971429 14.6152,3.44228571 C14.6472,3.43371429 14.6792,3.42942857 14.7112,3.42942857 L15.2,3.42942857 L15.2,3.42857143 Z M0.4,3.42857143 L1.288,3.42857143 C1.5088,3.42857143 1.688,3.62057143 1.688,3.85714286 C1.688,3.89142857 1.684,3.92742857 1.676,3.96 L1.484,4.77857143 C1.436,4.98685714 1.252,5.12485714 1.052,5.1 L0.7,5.05714286 C0.3,5.00828571 0,4.64571429 0,4.21714286 L0,3.85714286 C0,3.62057143 0.1792,3.42857143 0.4,3.42857143 Z" fill-rule="nonzero"></path>
            </g>
        </g>
        <g id="train" transform="translate(5.000000, 182.000000)" fill="#000000" fill-opacity="0.5">
            <g id="Shape">
                <path d="M8.025,2.4 L8.85,0.75 L9.75,0.75 L9.75,0.375 C9.75,0.15 9.6,0 9.375,0 L2.625,0 C2.4,0 2.25,0.15 2.25,0.375 L2.25,0.75 L3.15,0.75 L3.975,2.4 C1.65,2.7 0,3.525 0,4.5 L0,12.75 C0,13.2 0.3,13.5 0.75,13.5 L11.25,13.5 C11.7,13.5 12,13.2 12,12.75 L12,4.5 C12,3.525 10.35,2.7 8.025,2.4 Z M7.875,0.75 L7.125,2.325 C6.75,2.25 6.375,2.25 6,2.25 C5.625,2.25 5.25,2.25 4.875,2.325 L4.125,0.75 L7.875,0.75 Z M6.75,4.5 C6.75,4.95 6.45,5.25 6,5.25 C5.55,5.25 5.25,4.95 5.25,4.5 C5.25,4.05 5.55,3.75 6,3.75 C6.45,3.75 6.75,4.05 6.75,4.5 Z M3.75,12 L1.5,12 L1.5,10.5 L3.75,10.5 L3.75,12 Z M10.5,12 L8.25,12 L8.25,10.5 L10.5,10.5 L10.5,12 Z M10.5,9 L1.5,9 L1.5,6 L10.5,6 L10.5,9 Z M2.25,15.75 L2.85,15.75 L1.725,18 L3.15,18 L4.275,15.75 L7.725,15.75 L8.85,18 L10.35,18 L9.225,15.75 L9.75,15.75 C10.575,15.75 11.25,15.075 11.25,14.25 L0.75,14.25 C0.75,15.075 1.425,15.75 2.25,15.75 Z" fill-rule="nonzero"></path>
            </g>
        </g>
        <g id="Path-8" transform="translate(7.000000, 128.000000)" fill-rule="nonzero">
            <polygon fill="#7D48DD" points="0 4.99425609 8 0.984985764 16 4.99425609 16 12.0006552 12.0150117 12.0006552 12.0150117 7 8 4.99425609 4.00280565 7 4.00280565 12.0006552 0 12.0006552"></polygon>
            <polygon id="Path-5" fill="#7ED321" points="0 5 4.00589586 6.95526604 4.00589586 12.0096515 0 12.0096515"></polygon>
            <polygon id="Path-5-Copy" fill="#7D48DD" transform="translate(14.002948, 8.527088) scale(-1, 1) translate(-14.002948, -8.527088) " points="12 5 16.0058959 6.99978959 16.0058959 12.0541751 12 12.0541751"></polygon>
            <polygon id="Path-7" fill="#8447F2" points="3.98797469 7.04718018 7.99526643 5.00320864 7.99526643 0.543771439 0 5.00320864"></polygon>
            <polygon id="Path-7" fill="#6A35CB" transform="translate(12.000000, 3.760586) scale(-1, 1) translate(-12.000000, -3.760586) " points="11.9927083 6.99331023 16 5.00049139 16 0.527862426 8 5.00049139"></polygon>
        </g>
        <g id="Group-4" opacity="0.5" transform="translate(7.000000, 217.000000)" stroke="#000000" stroke-linecap="square">
            <g id="Line">
                <path d="M5.57142857,0.428571429 L0.357632117,5.64236788" stroke-width="1.5" fill-rule="nonzero"></path>
                <path d="M5.57142857,0.428571429 L0.357632117,5.64236788" stroke-width="1.5" fill-rule="nonzero" transform="translate(3.000000, 3.000000) scale(-1, 1) translate(-3.000000, -3.000000) "></path>
            </g>
        </g>
        <g id="Group-7" transform="translate(5.441444, 244.000000)" fill="#B8B8B8" fill-rule="nonzero">
            <rect id="Rectangle-9" transform="translate(4.706481, 5.707662) rotate(30.000000) translate(-4.706481, -5.707662) " x="3.50928196" y="-0.139184801" width="2.39439869" height="11.6936937" rx="1"></rect>
            <rect id="Rectangle-9-Copy" transform="translate(14.284076, 5.707662) scale(-1, 1) rotate(30.000000) translate(-14.284076, -5.707662) " x="13.0868767" y="-0.139184801" width="2.39439869" height="11.6936937" rx="1"></rect>
        </g>
        <path d="M23.3453918,256.315315 L23.3865461,255.86036 L23.8433586,255.86036 L24.9179573,255.86036 C25.1940997,255.86036 25.4179573,255.636503 25.4179573,255.36036 L25.4179573,253 C25.4179573,252.723858 25.1940997,252.5 24.9179573,252.5 L5,252.5 C4.72385763,252.5 4.5,252.723858 4.5,253 L4.5,255.36036 C4.5,255.636503 4.72385763,255.86036 5,255.86036 L6.53126101,255.86036 L6.57254597,256.315158 C6.57366953,256.327186 6.57366953,256.327186 6.57492296,256.339239 L7.43765311,264.429329 C7.51896992,265.191862 8.16233932,265.77027 8.92919605,265.77027 L20.9887612,265.77027 C21.755618,265.77027 22.3989874,265.191862 22.4803042,264.429329 L23.3430343,256.339239 C23.344277,256.327283 23.344277,256.327283 23.3453918,256.315315 Z" id="Combined-Shape" stroke="#E12D15" fill="#ED462F" fill-rule="nonzero"></path>
        <g id="Group-7" transform="translate(14.970991, 244.000000)"></g>
        <ellipse id="Oval-7" fill="#D8D8D8" fill-rule="nonzero" cx="8.23624384" cy="253.711712" rx="1" ry="1"></ellipse>
        <ellipse id="Oval-7-Copy" fill="#D8D8D8" fill-rule="nonzero" cx="21.6817134" cy="253.711712" rx="1" ry="1"></ellipse>
        <g id="Group" transform="translate(8.000000, 256.000000)" fill="#B73422" fill-rule="nonzero">
            <rect id="Rectangle-10" x="0.972981905" y="0.486486486" width="1.84184515" height="8.12612613" rx="0.920922575"></rect>
            <rect id="Rectangle-10-Copy" x="4.47248769" y="0.486486486" width="1.84184515" height="8.12612613" rx="0.920922575"></rect>
            <rect id="Rectangle-10-Copy-2" x="11.4714993" y="0.486486486" width="1.84184515" height="8.12612613" rx="0.920922575"></rect>
            <rect id="Rectangle-10-Copy-3" x="7.97199347" y="0.486486486" width="1.84184515" height="8.12612613" rx="0.920922575"></rect>
        </g>
        <g id="Group-2" opacity="0.5" transform="translate(4.000000, 275.000000)" fill-rule="nonzero" stroke="#000000" stroke-linecap="round" stroke-width="1.5">
            <circle id="Oval" cx="14.5" cy="10.5" r="2.5"></circle>
            <path d="M17.5,10.5 L21.5,10.5" id="Line-6"></path>
            <path d="M0.5,10.5 L11.5,10.5" id="Line-6-Copy"></path>
            <circle id="Oval" transform="translate(7.500000, 2.500000) scale(-1, 1) translate(-7.500000, -2.500000) " cx="7.5" cy="2.5" r="2.5"></circle>
            <path d="M0.5,2.5 L4.5,2.5" id="Line-6" transform="translate(2.500000, 2.500000) scale(-1, 1) translate(-2.500000, -2.500000) "></path>
            <path d="M10.5,2.5 L21.5,2.5" id="Line-6-Copy" transform="translate(16.000000, 2.500000) scale(-1, 1) translate(-16.000000, -2.500000) "></path>
            <circle id="Oval" transform="translate(7.500000, 18.500000) scale(-1, 1) translate(-7.500000, -18.500000) " cx="7.5" cy="18.5" r="2.5"></circle>
            <path d="M0.5,18.5 L4.5,18.5" id="Line-6" transform="translate(2.500000, 18.500000) scale(-1, 1) translate(-2.500000, -18.500000) "></path>
            <path d="M10.5,18.5 L21.5,18.5" id="Line-6-Copy" transform="translate(16.000000, 18.500000) scale(-1, 1) translate(-16.000000, -18.500000) "></path>
        </g>
    </g>
</svg>