<?xml version="1.0" encoding="UTF-8"?>
<svg width="30px" height="420px" viewBox="0 0 30 420" version="1.1" xmlns="http://www.w3.org/2000/svg" xmlns:xlink="http://www.w3.org/1999/xlink">
    <!-- Generator: Sketch 51.3 (57544) - http://www.bohemiancoding.com/sketch -->
    <title>sprites</title>
    <desc>Created with Sketch.</desc>
    <defs></defs>
    <g id="sprites" stroke="none" stroke-width="1" fill="none" fill-rule="evenodd">
        <g id="Rectangle-3" transform="translate(5.000000, 65.000000)" fill-rule="nonzero">
            <rect stroke="#1366F0" stroke-width="1" fill="#166DFD" x="0.5" y="0.5" width="19" height="19" rx="3"></rect>
            <path d="M13.9483224,15.7558112 L14.9774838,15.7558112 C15.5297686,15.7558112 15.9774838,15.308096 15.9774838,14.7558112 L15.9774838,5 C15.9774838,3.8954305 15.0820533,3 13.9774838,3 L6.06388967,3 C4.95932017,3 4.06388967,3.8954305 4.06388967,5 L4.0638601,14.7461664 C4.0638601,15.2984675 4.51158859,15.746196 5.06388967,15.746196 C5.06616562,15.746196 5.06844156,15.7461882 5.07071745,15.7461727 C5.7548838,15.7415014 6.09696698,15.7447142 6.09696698,15.7558112 L3,20 L4.76920912,20 L6.97185477,17.0858373 L13.0281452,17.0858373 L15.2307909,20 L17,20 L13.9483224,15.7558112 Z M11.692372,4.46410645 L11.692372,4.46410645 C11.692372,4.87169384 11.3619572,5.20210871 10.9543698,5.20210871 L9.00622567,5.20210871 C8.59863828,5.20210871 8.26822342,4.87169384 8.26822342,4.46410645 L8.26822342,4.46410645 C8.26822342,4.05651907 8.59863828,3.7261042 9.00622567,3.7261042 L10.9543698,3.7261042 C11.3619572,3.7261042 11.692372,4.05651907 11.692372,4.46410645 Z M6.43906558,6.04373765 L13.5274416,6.04373765 C14.0797263,6.04373765 14.5274416,6.4914529 14.5274416,7.04373765 L14.5274416,9.07706863 C14.5274416,9.62935338 14.0797263,10.0770686 13.5274416,10.0770686 L6.43906558,10.0770686 C5.88678083,10.0770686 5.43906558,9.62935338 5.43906558,9.07706863 L5.43906558,7.04373765 C5.43906558,6.4914529 5.88678083,6.04373765 6.43906558,6.04373765 Z M7.46439628,14.2095208 C7.24176752,14.4257852 6.96003377,14.5339174 6.61919505,14.5339174 C6.27835632,14.5339174 6.00253307,14.4257852 5.79369547,14.2095208 C5.58485787,13.9932564 5.4784689,13.7301347 5.4784689,13.4183535 C5.4784689,13.130001 5.59076836,12.8849014 5.81339713,12.6812524 C6.03602589,12.4776034 6.30396848,12.3748778 6.61919505,12.3748778 C6.96003377,12.3748778 7.24176752,12.4703946 7.46439628,12.6632304 C7.68702505,12.8542639 7.79932451,13.1065724 7.79932451,13.4183535 C7.79932451,13.7301347 7.68702505,13.9932564 7.46439628,14.2095208 Z M12.4962004,14.2095208 C12.2735716,13.9932564 12.1612722,13.7301347 12.1612722,13.4183535 C12.1612722,13.1065724 12.2794821,12.8542639 12.5159021,12.6632304 C12.752322,12.4721968 13.0261751,12.3748778 13.3414016,12.3748778 C13.6822404,12.3748778 13.9580636,12.4776034 14.1669012,12.6812524 C14.3757388,12.8849014 14.4821278,13.130001 14.4821278,13.4183535 C14.4821278,13.7301347 14.377709,13.9932564 14.1669012,14.2095208 C13.9580636,14.4257852 13.6822404,14.5339174 13.3414016,14.5339174 C13.0025331,14.5321152 12.7188292,14.423983 12.4962004,14.2095208 Z" id="Shape" fill="#FAFAFA"></path>
        </g>
        <path d="M15,25.2172178 C20.0039942,19.1543152 22.5,14.7193394 22.5,12 C22.5,7.85786438 19.1421356,4.5 15,4.5 C10.8578644,4.5 7.5,7.85786438 7.5,12 C7.5,14.7193394 9.99600579,19.1543152 15,25.2172178 Z M15,15.5 C13.0670034,15.5 11.5,13.9329966 11.5,12 C11.5,10.0670034 13.0670034,8.5 15,8.5 C16.9329966,8.5 18.5,10.0670034 18.5,12 C18.5,13.9329966 16.9329966,15.5 15,15.5 Z" id="Combined-Shape" stroke="#E83030" fill="#F73A3A" fill-rule="nonzero"></path>
        <path d="M15,324.217218 C20.0039942,318.154315 22.5,313.719339 22.5,311 C22.5,306.857864 19.1421356,303.5 15,303.5 C10.8578644,303.5 7.5,306.857864 7.5,311 C7.5,313.719339 9.99600579,318.154315 15,324.217218 Z" id="Combined-Shape" stroke="#3D7ECA" fill="#4A90E2" fill-rule="nonzero" transform="translate(15.000000, 314.000000) scale(1, -1) translate(-15.000000, -314.000000) "></path>
        <path d="M10.5106374,48.3057061 C10.482802,47.3926336 10.3262198,46.7134856 9.92067771,45.9720078 C9.10716349,44.484609 7.40354148,43.3284222 4.50066239,42.6113614 C4.48640047,43.208955 4.52053694,43.8512117 4.62072834,44.5019669 L6.9856388,45.6014839 C8.1107018,46.124559 9.2836422,47.0266383 10.5106374,48.3057061 Z M4.62870793,44.5529333 C4.70631291,45.0404757 4.82120467,45.5322531 4.98079379,46.0130869 C5.64216868,48.0057754 6.92309153,49.3202199 9.01967532,49.7213967 C8.11490715,48.368999 7.24618094,47.2624299 6.4152356,46.4022707 L4.62870793,44.5529333 Z M12.2529386,49.9255811 C14.6229494,46.653037 17.3917273,44.1769957 20.5582485,42.50316 L22.9860269,41.2198267 L21.1663881,43.2765151 C17.1736594,47.7893881 14.9012183,50.9011724 14.3979789,52.4401926 C20.163405,51.793949 23.4295474,48.7012084 24.803701,43.9333654 C25.3069299,42.187333 25.5143648,40.3355699 25.4992615,38.4998017 C25.4939702,37.8566539 25.4612168,37.2620658 25.4105046,36.731184 C25.4059693,36.6837059 25.401459,36.6383439 25.3970063,36.5951491 C19.0361403,37.9089226 15.2956684,40.5165381 13.5138328,44.0897136 C12.5904302,45.9414441 12.2882757,47.5978146 12.2529386,49.9255811 Z" id="Combined-Shape" stroke="#AFD126" fill="#B7D737" fill-rule="nonzero"></path>
        <g id="Oval-4" transform="translate(5.000000, 95.000000)" fill-rule="nonzero">
            <circle stroke="#464646" stroke-width="1" fill="#525252" cx="10" cy="10" r="10"></circle>
            <circle stroke="#979797" stroke-width="1" fill="#D8D8D8" cx="10" cy="10" r="6"></circle>
            <path d="M10,14 C12.209139,14 14,12.209139 14,10 C14,7.790861 12.209139,6 10,6 C7.790861,6 6,7.790861 6,10 C6,12.209139 7.790861,14 10,14 Z" id="Oval-5" stroke="#979797" stroke-width="1" fill="#BDBDBD" stroke-linecap="round" stroke-linejoin="round" stroke-dasharray="2"></path>
            <circle id="Oval-5" fill="#DDDADA" cx="10" cy="10" r="2"></circle>
        </g>
        <g id="car" transform="translate(3.000000, 155.000000)" fill="#FFFFFF" fill-opacity="0.5">
            <g id="Shape">
                <path d="M14.4,7.27371429 L14.4,11.5714286 C14.4,11.808 14.2208,12 14,12 L12.312,12 C12.128,12 11.968,11.8662857 11.9248,11.6742857 L11.6,10.2857143 L4.4,10.2857143 L4.076,11.6742857 C4.0312,11.8662857 3.8712,12 3.688,12 L2,12 C1.7792,12 1.6,11.808 1.6,11.5714286 L1.6,7.27371429 C1.6,6.96771429 1.648,6.672 1.7344,6.39514286 L2.856,1.82571429 C3.072,0.948 3.7712,0.302571429 4.6136,0.204 C5.768,0.0668571429 6.364,0 8,0 C9.636,0 10.232,0.0685714286 11.3872,0.204 C12.2296,0.302571429 12.928,0.948 13.1432,1.82571429 L14.2648,6.39428571 C14.3528,6.672 14.3992,6.96857143 14.3992,7.27371429 L14.4,7.27371429 Z M13.0592,4.85142857 L12.3696,2.04428571 C12.2384,1.50942857 11.8128,1.116 11.2992,1.056 C10.176,0.924 9.608,0.857142857 8,0.857142857 C6.392,0.857142857 5.824,0.924 4.7008,1.056 C4.1872,1.116 3.7616,1.51028571 3.6304,2.04428571 L2.9408,4.85142857 C3.1952,4.70571429 3.4768,4.60628571 3.7768,4.56171429 C5.0104,4.37742857 6.416,4.28571429 8,4.28571429 C9.584,4.28571429 10.992,4.37742857 12.224,4.56171429 C12.5232,4.60628571 12.8048,4.70742857 13.0592,4.85142857 Z M12.4,8.57142857 C13.064,8.57142857 13.6,7.99542857 13.6,7.28571429 C13.6,6.576 13.064,6 12.4,6 C11.7376,6 11.2,6.576 11.2,7.28571429 C11.2,7.99542857 11.7376,8.57142857 12.4,8.57142857 Z M3.6,8.57142857 C4.2624,8.57142857 4.8,7.99542857 4.8,7.28571429 C4.8,6.576 4.2624,6 3.6,6 C2.9376,6 2.4,6.576 2.4,7.28571429 C2.4,7.99542857 2.9376,8.57142857 3.6,8.57142857 Z M15.2,3.42857143 L15.6,3.42857143 C15.8208,3.42857143 16,3.62057143 16,3.85714286 L16,4.21714286 C16,4.64571429 15.6992,5.00828571 15.3,5.05714286 L14.948,5.1 C14.7496,5.12571429 14.564,4.98685714 14.516,4.77857143 L14.324,3.96085714 C14.2712,3.732 14.4008,3.49971429 14.6152,3.44228571 C14.6472,3.43371429 14.6792,3.42942857 14.7112,3.42942857 L15.2,3.42942857 L15.2,3.42857143 Z M0.4,3.42857143 L1.288,3.42857143 C1.5088,3.42857143 1.688,3.62057143 1.688,3.85714286 C1.688,3.89142857 1.684,3.92742857 1.676,3.96 L1.484,4.77857143 C1.436,4.98685714 1.252,5.12485714 1.052,5.1 L0.7,5.05714286 C0.3,5.00828571 0,4.64571429 0,4.21714286 L0,3.85714286 C0,3.62057143 0.1792,3.42857143 0.4,3.42857143 Z" fill-rule="nonzero"></path>
            </g>
        </g>
        <g id="train" transform="translate(5.000000, 182.000000)" fill="#FFFFFF" fill-opacity="0.5">
            <g id="Shape">
                <path d="M8.025,2.4 L8.85,0.75 L9.75,0.75 L9.75,0.375 C9.75,0.15 9.6,0 9.375,0 L2.625,0 C2.4,0 2.25,0.15 2.25,0.375 L2.25,0.75 L3.15,0.75 L3.975,2.4 C1.65,2.7 0,3.525 0,4.5 L0,12.75 C0,13.2 0.3,13.5 0.75,13.5 L11.25,13.5 C11.7,13.5 12,13.2 12,12.75 L12,4.5 C12,3.525 10.35,2.7 8.025,2.4 Z M7.875,0.75 L7.125,2.325 C6.75,2.25 6.375,2.25 6,2.25 C5.625,2.25 5.25,2.25 4.875,2.325 L4.125,0.75 L7.875,0.75 Z M6.75,4.5 C6.75,4.95 6.45,5.25 6,5.25 C5.55,5.25 5.25,4.95 5.25,4.5 C5.25,4.05 5.55,3.75 6,3.75 C6.45,3.75 6.75,4.05 6.75,4.5 Z M3.75,12 L1.5,12 L1.5,10.5 L3.75,10.5 L3.75,12 Z M10.5,12 L8.25,12 L8.25,10.5 L10.5,10.5 L10.5,12 Z M10.5,9 L1.5,9 L1.5,6 L10.5,6 L10.5,9 Z M2.25,15.75 L2.85,15.75 L1.725,18 L3.15,18 L4.275,15.75 L7.725,15.75 L8.85,18 L10.35,18 L9.225,15.75 L9.75,15.75 C10.575,15.75 11.25,15.075 11.25,14.25 L0.75,14.25 C0.75,15.075 1.425,15.75 2.25,15.75 Z" fill-rule="nonzero"></path>
            </g>
        </g>
        <g id="Path-8" transform="translate(7.000000, 128.000000)" fill-rule="nonzero">
            <polygon fill="#7D48DD" points="0 4.99425609 8 0.984985764 16 4.99425609 16 12.0006552 12.0150117 12.0006552 12.0150117 7 8 4.99425609 4.00280565 7 4.00280565 12.0006552 0 12.0006552"></polygon>
            <polygon id="Path-5" fill="#7ED321" points="0 5 4.00589586 6.95526604 4.00589586 12.0096515 0 12.0096515"></polygon>
            <polygon id="Path-5-Copy" fill="#7D48DD" transform="translate(14.002948, 8.527088) scale(-1, 1) translate(-14.002948, -8.527088) " points="12 5 16.0058959 6.99978959 16.0058959 12.0541751 12 12.0541751"></polygon>
            <polygon id="Path-7" fill="#8447F2" points="3.98797469 7.04718018 7.99526643 5.00320864 7.99526643 0.543771439 0 5.00320864"></polygon>
            <polygon id="Path-7" fill="#6A35CB" transform="translate(12.000000, 3.760586) scale(-1, 1) translate(-12.000000, -3.760586) " points="11.9927083 6.99331023 16 5.00049139 16 0.527862426 8 5.00049139"></polygon>
        </g>
        <g id="Group-4" opacity="0.5" transform="translate(7.000000, 217.000000)" stroke="#000000" stroke-linecap="square">
            <g id="Line">
                <path d="M5.57142857,0.428571429 L0.357632117,5.64236788" stroke-width="1.5" fill-rule="nonzero"></path>
                <path d="M5.57142857,0.428571429 L0.357632117,5.64236788" stroke-width="1.5" fill-rule="nonzero" transform="translate(3.000000, 3.000000) scale(-1, 1) translate(-3.000000, -3.000000) "></path>
            </g>
        </g>
        <g id="Group-7" transform="translate(5.441444, 244.000000)" fill="#B8B8B8" fill-rule="nonzero">
            <rect id="Rectangle-9" transform="translate(4.706481, 5.707662) rotate(30.000000) translate(-4.706481, -5.707662) " x="3.50928196" y="-0.139184801" width="2.39439869" height="11.6936937" rx="1"></rect>
            <rect id="Rectangle-9-Copy" transform="translate(14.284076, 5.707662) scale(-1, 1) rotate(30.000000) translate(-14.284076, -5.707662) " x="13.0868767" y="-0.139184801" width="2.39439869" height="11.6936937" rx="1"></rect>
        </g>
        <path d="M23.3453918,256.315315 L23.3865461,255.86036 L23.8433586,255.86036 L24.9179573,255.86036 C25.1940997,255.86036 25.4179573,255.636503 25.4179573,255.36036 L25.4179573,253 C25.4179573,252.723858 25.1940997,252.5 24.9179573,252.5 L5,252.5 C4.72385763,252.5 4.5,252.723858 4.5,253 L4.5,255.36036 C4.5,255.636503 4.72385763,255.86036 5,255.86036 L6.53126101,255.86036 L6.57254597,256.315158 C6.57366953,256.327186 6.57366953,256.327186 6.57492296,256.339239 L7.43765311,264.429329 C7.51896992,265.191862 8.16233932,265.77027 8.92919605,265.77027 L20.9887612,265.77027 C21.755618,265.77027 22.3989874,265.191862 22.4803042,264.429329 L23.3430343,256.339239 C23.344277,256.327283 23.344277,256.327283 23.3453918,256.315315 Z" id="Combined-Shape" stroke="#E12D15" fill="#ED462F" fill-rule="nonzero"></path>
        <g id="Group-7" transform="translate(14.970991, 244.000000)"></g>
        <ellipse id="Oval-7" fill="#D8D8D8" fill-rule="nonzero" cx="8.23624384" cy="253.711712" rx="1" ry="1"></ellipse>
        <ellipse id="Oval-7-Copy" fill="#D8D8D8" fill-rule="nonzero" cx="21.6817134" cy="253.711712" rx="1" ry="1"></ellipse>
        <g id="Group" transform="translate(8.000000, 256.000000)" fill="#B73422" fill-rule="nonzero">
            <rect id="Rectangle-10" x="0.972981905" y="0.486486486" width="1.84184515" height="8.12612613" rx="0.920922575"></rect>
            <rect id="Rectangle-10-Copy" x="4.47248769" y="0.486486486" width="1.84184515" height="8.12612613" rx="0.920922575"></rect>
            <rect id="Rectangle-10-Copy-2" x="11.4714993" y="0.486486486" width="1.84184515" height="8.12612613" rx="0.920922575"></rect>
            <rect id="Rectangle-10-Copy-3" x="7.97199347" y="0.486486486" width="1.84184515" height="8.12612613" rx="0.920922575"></rect>
        </g>
        <g id="Group-2" opacity="0.5" transform="translate(4.000000, 275.000000)" fill-rule="nonzero" stroke="#000000" stroke-linecap="round" stroke-width="1.5">
            <circle id="Oval" cx="14.5" cy="10.5" r="2.5"></circle>
            <path d="M17.5,10.5 L21.5,10.5" id="Line-6"></path>
            <path d="M0.5,10.5 L11.5,10.5" id="Line-6-Copy"></path>
            <circle id="Oval" transform="translate(7.500000, 2.500000) scale(-1, 1) translate(-7.500000, -2.500000) " cx="7.5" cy="2.5" r="2.5"></circle>
            <path d="M0.5,2.5 L4.5,2.5" id="Line-6" transform="translate(2.500000, 2.500000) scale(-1, 1) translate(-2.500000, -2.500000) "></path>
            <path d="M10.5,2.5 L21.5,2.5" id="Line-6-Copy" transform="translate(16.000000, 2.500000) scale(-1, 1) translate(-16.000000, -2.500000) "></path>
            <circle id="Oval" transform="translate(7.500000, 18.500000) scale(-1, 1) translate(-7.500000, -18.500000) " cx="7.5" cy="18.5" r="2.5"></circle>
            <path d="M0.5,18.5 L4.5,18.5" id="Line-6" transform="translate(2.500000, 18.500000) scale(-1, 1) translate(-2.500000, -18.500000) "></path>
            <path d="M10.5,18.5 L21.5,18.5" id="Line-6-Copy" transform="translate(16.000000, 18.500000) scale(-1, 1) translate(-16.000000, -18.500000) "></path>
        </g>
        <path d="M7.51938444,346.011429 L9.77224158,346.011429 L9.77224158,337 L14.820813,337 C16.0332,337 17.0646183,337.167379 17.9150987,337.502143 C18.7655792,337.836906 19.4577151,338.280235 19.9915273,338.832143 C20.5253395,339.38405 20.9143832,340.026425 21.1586702,340.759286 C21.4029571,341.492147 21.5250987,342.247615 21.5250987,343.025714 C21.5250987,343.821909 21.4029571,344.572854 21.1586702,345.278571 C20.9143832,345.984289 20.5253395,346.608569 19.9915273,347.151429 C19.4577151,347.694288 18.7655792,348.124046 17.9150987,348.440714 C17.0646183,348.757383 16.0332,348.915714 14.820813,348.915714 L13.300813,348.915714 L13.300813,350.978571 L18.0779559,350.978571 L18.0779559,353.774286 L13.300813,353.774286 L13.300813,356 L9.77224158,356 L9.77224158,353.774286 L7.51938444,353.774286 L7.51938444,350.978571 L9.77224158,350.978571 L9.77224158,348.915714 L7.51938444,348.915714 L7.51938444,346.011429 Z M14.4679559,346.011429 C14.9565297,346.011429 15.4134299,345.970715 15.8386702,345.889286 C16.2639104,345.807857 16.6393828,345.658573 16.9650987,345.441429 C17.2908146,345.224285 17.5441454,344.921192 17.7250987,344.532143 C17.906052,344.143093 17.9965273,343.640955 17.9965273,343.025714 C17.9965273,342.410473 17.906052,341.894764 17.7250987,341.478571 C17.5441454,341.062379 17.2908146,340.732144 16.9650987,340.487857 C16.6393828,340.24357 16.2639104,340.071667 15.8386702,339.972143 C15.4134299,339.872619 14.9565297,339.822857 14.4679559,339.822857 L13.300813,339.822857 L13.300813,346.011429 L14.4679559,346.011429 Z" id="₽" stroke="#F5B300" fill="#FFBA00"></path>
        <g id="Shape" transform="translate(4.000000, 366.000000)" fill-rule="nonzero">
            <path d="M2.6845605,20.2889326 L0.582941553,8.35703832 C0.562648582,8.24187521 0.549998608,8.12549547 0.545074545,8.00866185 C0.513841473,6.65589756 1.4851884,5.48737205 2.82088173,5.27087716 L6.87643831,4.55519071 L6.76662398,20.2889326 L2.6845605,20.2889326 Z" fill="#78A7D8"></path>
            <path d="M18.2933413,19.7663679 C18.223015,20.0583312 17.9868174,20.2811591 17.6912558,20.334373 L5.75557487,22.4397787 C5.00326321,22.5711128 4.23083003,22.3721163 3.63562217,21.8936301 C3.0404143,21.4151438 2.68008488,20.7035151 2.6466935,19.9405561 C2.61686717,18.6471845 3.50732469,17.513875 4.77103265,17.2368517 L8.11468947,18.1759535 L8.11090277,18.1759535 L5.10047562,18.7098783 C4.76472571,18.7688915 4.47312003,18.975325 4.30588712,19.2723834 C4.13865425,19.5694418 4.11341297,19.9258287 4.23710784,20.2434922 C4.45129174,20.7551303 4.9952657,21.0460932 5.53973292,20.9402451 L14.6618952,19.3308973 L18.2933413,19.7663679 Z" fill="#5080B0"></path>
            <path d="M8.11090277,18.1759535 L5.10047562,18.7098783 C4.76472571,18.7688915 4.47312003,18.975325 4.30588712,19.2723834 C4.13865425,19.5694418 4.11341297,19.9258287 4.23710784,20.2434922 C4.45129174,20.7551303 4.9952657,21.0460932 5.53973292,20.9402451 L14.6618952,19.3308973 L8.11090277,18.1759535 Z" fill="#F9EAB0"></path>
            <path d="M5.3753901,13.0794329 L7.47965975,1.14602396 C7.55498457,0.735830814 7.9458356,0.462218241 8.35703832,0.531821092 L20.2007025,2.62018659 C21.5373553,2.83684915 22.5094599,4.00612209 22.478403,5.35986463 C22.4732517,5.47617917 22.4606031,5.59204028 22.440536,5.70672642 L20.3362663,17.6401354 L5.3753901,13.0794329 Z" fill="#E64C3C"></path>
            <path d="M22.4776457,5.35797128 C22.4731371,5.47483583 22.460484,5.59124371 22.4397787,5.70634775 L20.334373,17.638242 L17.4148267,16.7483673 L19.1074819,7.15286747 L19.5088722,4.88842038 L19.9178359,2.57095948 L20.2018385,2.62018659 C21.536922,2.83774855 22.5077182,4.00561156 22.4776457,5.35797128 Z" fill="#C03A2B"></path>
            <path d="M18.0964328,14.5520809 L6.25163267,12.4656087 C6.20785667,12.4580699 6.16351857,12.4542695 6.11909814,12.4542486 C5.72661918,12.4552439 5.39993111,12.7559138 5.3664408,13.1469625 C5.33295046,13.5380113 5.60375603,13.8898519 5.99035032,13.9575688 L17.9222446,16.0591878 C18.2577005,16.1199359 18.5484157,16.3275092 18.7147856,16.6250694 C18.8811554,16.9226296 18.9057467,17.2789965 18.7818257,17.5965883 C18.5688005,18.1070944 18.0256444,18.3968832 17.4829873,18.2895546 L5.59653343,16.195509 C5.55275743,16.1879702 5.50841933,16.1841698 5.4639989,16.1841489 C5.07079353,16.1831805 4.74225119,16.4832894 4.70771955,16.8749767 C4.67318794,17.2666641 4.94415471,17.6196264 5.33146437,17.6874691 L17.2671453,19.7890881 C18.0189091,19.9208791 18.7910182,19.7225642 19.3862207,19.2448072 C19.9814231,18.7670504 20.3420702,18.0561249 20.3760267,17.2936522 C20.4057476,15.939336 19.4334357,14.7699775 18.0964328,14.5520809 Z" fill="#C03A2B"></path>
            <path d="M18.7818257,17.5965883 C18.5688005,18.1070944 18.0256444,18.3968832 17.4829873,18.2895546 L5.59653343,16.195509 L5.99035032,13.9575688 L17.9222446,16.0591878 C18.2577005,16.1199359 18.5484157,16.3275092 18.7147856,16.6250694 C18.8811554,16.9226296 18.9057467,17.2789965 18.7818257,17.5965883 Z" fill="#F9EAB0"></path>
        </g>
        <g id="004-recycling-copy" transform="translate(4.000000, 397.000000)">
            <g id="004-recycling">
                <g transform="translate(0.266589, 0.283174)" fill-rule="nonzero">
                    <path d="M17.139672,14.6963393 L10.3538989,14.6963393 L10.329366,19.7401669 L16.0418102,19.7401669 C16.7312504,19.7401669 17.3680258,19.3532257 17.7111263,18.7258386 L18.543745,17.2032449 L18.4986381,17.1763748 L17.139672,14.6963393 Z" id="XMLID_235_" fill="#2B7B57"></path>
                    <path d="M7.26131527,8.52434747 L3.10505998,5.98874692 L0.256005795,11.1881943 C-0.0863149812,11.8129384 -0.0852952767,12.5817237 0.25864503,13.205461 L1.08082672,14.6964022 L3.88009533,14.6964022 L7.26131527,8.52434747 Z" id="XMLID_238_" fill="#2B7B57"></path>
                    <path d="M10.5093138,2.59619973 C10.5097337,2.59619973 13.8771576,8.74245417 13.8771576,8.74245417 L18.0582457,6.25083995 L15.211051,1.05453899 C14.8677705,0.427969904 14.231415,0.0417209302 13.5425746,0.0417209302 L11.8824358,0.0417209302 L11.8824358,0.0901121751 L10.5093138,2.59619973 Z" id="XMLID_241_" fill="#2B7B57"></path>
                    <path d="M8.82686149,13.3240793 L8.80202869,13.3240793 C8.50997334,13.3240793 8.27316198,13.5724542 8.27316198,13.8789111 L8.27316198,14.6964022 L1.08130658,14.6964022 L3.46027702,19.0099562 C3.70956476,19.4619644 4.16957143,19.7402927 4.66730716,19.7402927 L8.27322196,19.7402927 L8.27322196,20.5573434 C8.27322196,20.8637373 8.50997334,21.1121751 8.80208867,21.1121751 L8.8026885,21.1121751 C8.94292785,21.1121751 9.07746885,21.0537155 9.17662011,20.9496963 L12.371654,17.5978003 C12.5782341,17.381078 12.5781742,17.0297538 12.371594,16.8130944 L10.353479,14.6964651 L9.20097305,13.4867469 C9.10176181,13.382539 8.96716082,13.3240793 8.82686149,13.3240793 Z" id="XMLID_244_" fill="#49B86E"></path>
                    <path d="M9.15646595,7.81924487 L9.16864242,7.79703146 C9.31422023,7.53135157 9.22688554,7.19217237 8.97357896,7.03951026 L8.2979348,6.6322435 L10.5092538,2.59619973 L11.8823159,0.0899233926 L11.8823159,0.0417209302 L7.45020052,0.0417209302 C6.75656158,0.0417209302 6.11660707,0.433318741 5.77512605,1.06668399 L4.12980296,4.11816416 L3.45433874,3.71102326 C3.20115213,3.55842408 2.87796581,3.64992066 2.732388,3.91547469 L2.73208809,3.91604104 C2.66214836,4.043658 2.6433738,4.19512449 2.6799632,4.3372777 L3.105,5.98874692 L3.85748189,8.91336525 C3.93359983,9.20918741 4.22391568,9.38431464 4.50589394,9.30445964 L8.83573892,8.07844323 C8.97123964,8.04005746 9.08658621,7.94686183 9.15646595,7.81924487 Z" id="XMLID_308_" fill="#49B86E"></path>
                    <path d="M19.0823289,8.121171 L19.758093,7.71365253 C20.0113996,7.56086457 20.0986743,7.22155951 19.9529165,6.95587962 C19.8829768,6.82845144 19.7677502,6.73531874 19.6324294,6.6969959 L15.269654,5.46103694 C14.9876757,5.38111902 14.6972999,5.55624624 14.621182,5.8520684 L13.4525407,10.3937975 C13.4160113,10.5358249 13.4347259,10.6873543 13.5046056,10.8149083 L13.5169021,10.8373105 C13.6624199,11.1029275 13.9856662,11.194487 14.2389128,11.0418878 L14.914197,10.6347469 L17.139672,14.6963393 L18.4985781,17.1763748 L18.543685,17.2032449 L20.748466,13.1708509 C21.0889873,12.5480575 21.0886274,11.7824815 20.7475662,11.1600027 L19.0823289,8.121171 Z" id="XMLID_312_" fill="#49B86E"></path>
                    <path d="M18.5170774,16.9392388 L18.4120734,17.1312839 L18.543685,17.2032449 L18.6204512,17.0743769 L18.5753443,17.0475069 L18.5170774,16.9392388 Z M13.9342383,8.53382352 L13.8007164,8.61339258 L14.0068332,8.66626055 L14.0082635,8.66875695 L14.0081684,8.66857873 L14.0064665,8.66549006 L13.999298,8.65244328 C13.988208,8.63223806 13.988208,8.63223806 13.9711432,8.60112635 C13.9544419,8.57066953 13.9442627,8.55210649 13.9342383,8.53382352 Z M14.0082635,8.66875695 L14.0083639,8.66893215 L14.0082661,8.66875544 Z M10.676706,2.60285761 C10.6033006,2.49403112 10.5519669,2.44619973 10.5093138,2.44619973 L10.5093138,2.59619973 L10.6408619,2.66827683 L10.676706,2.60285761 Z M11.997803,0.19172093 L12.0139839,0.162189278 L12.0324358,0.0417209302 L11.8824358,0.0417209302 L11.8824358,0.19172093 L11.997803,0.19172093 Z M17.8571808,6.19604466 L17.9266984,6.32291832 L18.0582457,6.25083995 L17.9814578,6.12198492 L17.8571808,6.19604466 Z M17.0508236,14.8463409 L17.1396748,14.8463393 L17.0081266,14.7684212 L17.0508236,14.8463409 Z M18.3575657,17.2310707 L18.3670927,17.2484568 L18.4669788,17.3321128 L18.543745,17.2032449 L18.4121375,17.1312763 L18.3575657,17.2310707 Z M11.6756664,0.19172093 L11.8823159,0.19172093 L11.8823159,0.0417209302 L11.7323159,0.0417209302 L11.7323159,0.0899233926 L11.6756664,0.19172093 Z M7.06097773,8.5778382 L7.183195,8.65239911 L7.26131527,8.52434747 L7.12976237,8.4522792 L7.06097773,8.5778382 Z" id="Combined-Shape" stroke="#E3E3E3" stroke-width="0.3" style="mix-blend-mode: multiply;"></path>
                </g>
                <g transform="translate(0.266589, 0.283174)"></g>
            </g>
        </g>
    </g>
</svg>