<?xml version="1.0" encoding="UTF-8"?>
<svg width="16px" height="24px" viewBox="0 0 16 24" version="1.1" xmlns="http://www.w3.org/2000/svg" xmlns:xlink="http://www.w3.org/1999/xlink">
    <g stroke="none" stroke-width="1" fill="none" fill-rule="evenodd">
        <g fill="rgba(0,0,0,.5)" fill-rule="nonzero">
            <path d="M10.7,3.2 L11.8,1 L13,1 L13,0.5 C13,0.2 12.8,0 12.5,0 L3.5,0 C3.2,0 3,0.2 3,0.5 L3,1 L4.2,1 L5.3,3.2 C2.2,3.6 0,4.7 0,6 L0,17 C0,17.6 0.4,18 1,18 L15,18 C15.6,18 16,17.6 16,17 L16,6 C16,4.7 13.8,3.6 10.7,3.2 Z M10.5,1 L9.5,3.1 C9,3 8.5,3 8,3 C7.5,3 7,3 6.5,3.1 L5.5,1 L10.5,1 Z M9,6 C9,6.6 8.6,7 8,7 C7.4,7 7,6.6 7,6 C7,5.4 7.4,5 8,5 C8.6,5 9,5.4 9,6 Z M5,16 L2,16 L2,14 L5,14 L5,16 Z M14,16 L11,16 L11,14 L14,14 L14,16 Z M14,12 L2,12 L2,8 L14,8 L14,12 Z M3,21 L3.8,21 L2.3,24 L4.2,24 L5.7,21 L10.3,21 L11.8,24 L13.8,24 L12.3,21 L13,21 C14.1,21 15,20.1 15,19 L1,19 C1,20.1 1.9,21 3,21 Z"></path>
        </g>
    </g>
</svg>